<?xml version="1.0" encoding="UTF-8" standalone="no"?>
<svg
   version="1.1"
   viewBox="0 0 592.76044 467.84286"
   id="svg294"
   sodipodi:docname="aefe.svg"
   width="592.76044"
   height="467.84286"
   inkscape:version="1.2.2 (732a01da63, 2022-12-09)"
   xmlns:inkscape="http://www.inkscape.org/namespaces/inkscape"
   xmlns:sodipodi="http://sodipodi.sourceforge.net/DTD/sodipodi-0.dtd"
   xmlns="http://www.w3.org/2000/svg"
   xmlns:svg="http://www.w3.org/2000/svg">
  <defs
     id="defs298" />
  <sodipodi:namedview
     id="namedview296"
     pagecolor="#ffffff"
     bordercolor="#000000"
     borderopacity="0.25"
     inkscape:showpageshadow="2"
     inkscape:pageopacity="0.0"
     inkscape:pagecheckerboard="0"
     inkscape:deskcolor="#d1d1d1"
     showgrid="false"
     inkscape:zoom="2.026878"
     inkscape:cx="518.77814"
     inkscape:cy="344.86535"
     inkscape:window-width="1920"
     inkscape:window-height="1017"
     inkscape:window-x="3832"
     inkscape:window-y="-8"
     inkscape:window-maximized="1"
     inkscape:current-layer="svg294" />
  <path
     fill="#0053a3"
     d="m 386.3103,63.330199 q 18.6,0.11 37.19,0.05 c 21.41,-0.06 21.48,31.95 -0.32,31.98 q -18.45,0.02 -36.93,0.08 a 0.5,0.39 0 0 0 -0.5,0.39 l -0.01,126.310001 q 0,2.01 -1.1,3.5 c -1.12,1.51 -4.64,0.74 -5.87,0.74 q -11.65,0.03 -22.1,-0.01 -2.91,-0.01 -2.91,-2.98 l -0.01,-127.750001 a 0.44,0.51 88.2 0 0 -0.54,-0.43 c -6.58,0.44 -18.59,1.34 -24.35,-2.2 -11.22,-6.89 -10.05,-24.45 2.85,-28.67 5.45,-1.79 14.77,-0.92 21.48,-0.96 a 0.54,0.54 0 0 0 0.54,-0.54 c 0.07,-13.96 -1.81,-27.14 7.8,-38.67 13.97,-16.74 40.65,-23.08 61.73,-23.17 17.73,-0.08 22.81,23.64 6.88,30.4 q -2.45,1.04 -7.99,1.34 c -13.74,0.72 -25.97,4.01 -36.1,13.75 a 1.34,0.72 79.5 0 0 -0.29,0.9 l -0.04,15.56 a 0.59,0.38 0 0 0 0.59,0.38 z"
     id="path150" />
  <path
     fill="#0053a3"
     d="m 83.490302,64.160199 c 20.209998,2.31 48.479998,11.86 55.519998,33.67 q 1.38,4.280001 1.45,11.920001 c 0.34,34.84 -0.55,69.84 0.33,104.64 q 0.11,4.69 -4.68,5.98 -26.45,7.16 -49.419998,8.4 c -22.72,1.22 -75.24,-2.09 -84.1,-30.35 -2.52,-8.04 -1.26,-20.75 -1.21,-30.3 0.14,-25.35 28.45,-31.43 47.56,-35.65 18.32,-4.06 36.56,-8.44 54.809998,-12.81 q 2.3,-0.55 4.09,-1.98 a 0.94,1.07 68.8 0 0 0.41,-0.79 v -7.75 a 1.21,0.81 28.1 0 0 -0.42,-0.78 Q 96.100302,98.050199 82.250302,96.170199 q -25.03,-3.4 -50.42,5.130001 c -8.34,2.8 -16.59,2.95 -21.51,-5.210001 -4.75,-7.88 -3.27,-18.13 5.17,-22.78 q 2.02,-1.12 10.04,-3.74 c 18.2,-5.96 39.78,-7.48 57.96,-5.41 z m -47.55,126.040001 q 6.08,4.53 14.14,5.43 c 19.82,2.22 38.77,1.73 58.189998,-2.74 a 0.48,0.62 82 0 0 0.48,-0.5 v -40.19 a 0.17,0.23 82.1 0 0 -0.28,-0.15 q -26.269998,5.91 -52.489998,12 -11.17,2.59 -21.34,6.88 a 1.81,1.8 82.5 0 0 -1.1,1.45 c -0.59,4.51 -1.68,14.79 2.4,17.82 z"
     id="path152" />
  <path
     fill="#0053a3"
     d="m 199.6803,183.9002 c 22.29,19.31 54.09,14.05 79.7,6.2 20.52,-6.28 30.43,23.41 8.09,31.12 -20.19,6.97 -42.74,9.49 -63.9,6.83 -22.12,-2.78 -51.16,-13.09 -55.89,-38.21 q -0.63,-3.39 -0.65,-19.95 c -0.03,-21.17 -0.56,-42.52 0.33,-63.66 0.28,-6.580001 2.71,-13.600001 6.71,-18.540001 16.23,-20.05 47.55,-25.64 72.43,-23.79 20.8,1.54 51.66,11.26 58.79,34.12 q 1.42,4.550001 1.44,14.520001 0.04,15.12 0.22,30.23 c 0.16,12.64 -5.55,19.32 -18.48,19.35 q -44.46,0.1 -88.89,0.34 a 0.43,0.6 89.4 0 0 -0.59,0.43 l 0.03,20.31 a 1.06,0.12 40.2 0 0 0.66,0.7 z m -0.24,-54 h 74.87 a 0.44,0.51 0 0 0 0.44,-0.51 v -19.75 a 1.14,1.24 20.3 0 0 -0.35,-0.86 c -18.86,-18.350001 -55.87,-18.090001 -75.01,0.05 a 0.93,1.29 61.5 0 0 -0.39,0.81 v 20 a 0.44,0.26 0 0 0 0.44,0.26 z"
     id="path154" />
  <path
     fill="#0053a3"
     d="m 558.5003,69.880199 c 17.38,6.14 33.26,18.73 33.24,38.760001 q -0.02,16.88 0.02,33.74 c 0.03,12.51 -4.66,19.67 -17.96,19.72 q -44.62,0.18 -89.25,0.35 a 0.53,0.44 0 0 0 -0.53,0.44 l -0.06,19.94 a 1.09,0.74 28 0 0 0.37,0.7 c 20.79,18.72 53.62,15.31 78,7.17 q 5.31,-1.77 8.11,-1.61 c 7.55,0.42 13.7,6.95 14.57,14.19 1.04,8.71 -3.78,14.75 -11.84,17.54 -20.81,7.2 -42.83,10.01 -64.39,7.23 -20.48,-2.64 -49.22,-11.99 -55.5,-34.74 q -1.25,-4.53 -1.26,-14.59 -0.06,-35.04 -0.01,-70.08 c 0.04,-23.200001 21.16,-35.850001 40.97,-41.250001 q 32.98,-9 65.52,2.49 z m -74.5,39.760001 v 20 a 0.44,0.55 0 0 0 0.44,0.55 l 74.37,-0.15 a 0.73,0.59 0 0 0 0.73,-0.59 l -0.06,-20.06 a 1.19,1.07 23.9 0 0 -0.37,-0.82 c -18.83,-18.010001 -55.8,-17.900001 -74.57,0.16 a 0.63,1.48 53.6 0 0 -0.54,0.91 z"
     id="path156" />
  <path
     fill="#d70932"
     d="m 34.820302,303.9202 -16.82,-0.04 a 0.48,0.87 14.4 0 0 -0.58,0.61 l -3.15,9.12 a 1.67,1.52 86.4 0 1 -0.7,0.87 q -2.07,1.16 -3.54,-0.63 a 1.9,3.04 28.2 0 1 -0.17,-2.58 q 5.33,-15.42 10.37,-29.3 c 2.42,-6.64 10.11,-5.7 12.38,0.53 q 5.25,14.38 10.25,28.81 0.85,2.46 -1.44,3.5 -2.23,1.02 -2.99,-1.14 l -3.18,-9.03 a 0.89,0.2 71.8 0 0 -0.43,-0.72 z m -9.88,-19.84 q -2,3.88 -5.06,13.91 a 0.42,0.51 10.1 0 0 0.37,0.65 h 12.25 a 0.42,0.39 80.3 0 0 0.36,-0.55 c -0.36,-1.11 -5.21,-19.29 -7.92,-14.01 z"
     id="path164" />
  <path
     fill="#dc0b33"
     d="m 208.6103,313.0702 a 0.42,0.39 14.7 0 0 -0.61,0.32 v 12 a 0.53,0.71 1.4 0 1 -0.57,0.72 l -1.24,-0.09 a 0.44,0.95 0 0 1 -0.43,-0.93 q -0.03,-15.56 0,-31.1 c 0.03,-9.95 13.33,-9.09 19.17,-5.75 q 2.07,1.18 2.07,3.64 l 0.02,17.52 q 0,2.74 -2.6,3.98 -7.89,3.74 -15.81,-0.31 z m 0.19,-2.76 q 7.29,5.01 14.9,0.57 a 2.56,2.63 74.4 0 0 1.3,-2.23 l 0.01,-15.52 q 0,-2.32 -2.5,-3.51 -7.66,-3.63 -14.24,1.53 a 1.3,0.48 85 0 0 -0.27,0.99 v 16.5 a 1.8,2.14 14.5 0 0 0.8,1.67 z"
     id="path168" />
  <path
     fill="#dc0b33"
     d="m 252.7103,313.0902 c -5.59,2.88 -18.91,3.84 -18.94,-5.7 q -0.02,-6.41 -0.04,-12.88 c -0.03,-10.23 12.38,-9.79 18.93,-6.41 q 2.34,1.21 2.35,3.78 v 17.52 q 0,2.5 -2.3,3.69 z m -15.67,-2.49 q 7.67,4.85 15.19,-0.22 a 1.83,1.74 73.8 0 0 0.77,-1.49 l 0.01,-16.26 q 0,-1.61 -1.71,-2.55 -7.6,-4.19 -14.62,0.71 a 1.06,0.96 74.5 0 0 -0.43,0.85 v 17.25 a 1.61,2.18 11.6 0 0 0.79,1.71 z"
     id="path170" />
  <path
     fill="#dc0b33"
     d="m 293.7403,314.9302 -1.25,-0.24 a 0.61,0.55 6.4 0 1 -0.49,-0.55 v -22.5 q 0,-2.4 2.19,-3.58 6.49,-3.49 13.57,-1.44 c 1.21,0.35 2.33,1.42 0.7,2.33 a 1.37,0.72 28.5 0 1 -0.96,-0.01 q -6.69,-2.19 -12.57,1.66 a 0.94,0.95 73.4 0 0 -0.43,0.79 v 23 a 0.64,0.57 6.2 0 1 -0.76,0.54 z"
     id="path172" />
  <path
     fill="#d70932"
     d="m 66.600302,316.4402 -16.07,-3.67 a 0.67,0.74 12.7 0 1 -0.49,-0.87 l 1.47,-6.51 a 0.78,0.55 22.6 0 0 -0.44,-0.7 c -4.33,-2.25 -4.87,-6.72 -4.26,-11.07 1.39,-9.87 22.19,-9.76 24.12,-0.75 q 0.77,3.56 -0.51,8.54 a 1.72,1.8 75.2 0 1 -0.55,0.9 q -5.08,4.6 -12.13,3.98 a 1.06,0.25 6 0 0 -1,0.13 l -0.8,1.95 a 0.75,0.33 14.6 0 0 0.68,0.54 c 6.81,1.56 18.2,1.67 15.04,12.47 -1.91,6.52 -19.6,4.28 -24.16,2.68 a 1.07,0.51 15.8 0 1 -0.76,-0.67 l 0.03,-4.69 a 0.68,0.36 17.8 0 1 0.87,-0.16 c 2.84,1.18 20.69,5.41 19.42,-1.35 a 0.97,0.46 83.6 0 0 -0.46,-0.75 z m -14.38,-17.45 c 3.85,3.02 9.01,2.86 12.99,0.27 a 1.32,1.41 80.2 0 0 0.57,-0.75 c 2.52,-8.75 -9.11,-8.08 -13.34,-5.14 a 0.86,1.04 69.3 0 0 -0.44,0.77 v 4.5 a 0.54,0.31 27.6 0 0 0.22,0.35 z"
     id="path174" />
  <path
     fill="#d70932"
     d="m 82.500302,303.6402 v 3.25 a 1.09,0.68 25.8 0 0 0.46,0.73 c 4.67,3.4 9.67,2.4 14.78,0.86 a 1.48,1.16 41.5 0 1 0.83,0.05 q 2.809998,1.09 1.539998,3.94 a 0.61,1.49 74.5 0 1 -0.799998,0.62 c -6.62,2.79 -21.8,3.45 -21.8,-6.96 q -0.01,-5.18 -0.01,-10.35 c -0.02,-11.58 14.84,-10.99 21.72,-6.82 q 2.519998,1.52 2.519998,4.18 l 0.01,9.5 a 0.75,0.51 0 0 1 -0.75,0.51 l -17.999998,-0.03 a 0.5,0.52 0 0 0 -0.5,0.52 z m 13.06,-10.56 c -3.35,-2.42 -15.05,-3.04 -12.93,4.32 a 0.68,0.64 81.5 0 0 0.62,0.49 h 12.75 a 0.56,0.63 7.9 0 0 0.56,-0.48 q 0.78,-3.05 -1,-4.33 z"
     id="path176" />
  <path
     fill="#d70932"
     d="m 126.3303,293.4002 c -4.09,-2.79 -9.31,-3.07 -13.21,0.19 a 1.05,0.99 71.6 0 0 -0.37,0.8 v 19.5 a 0.5,0.75 0 0 1 -0.5,0.75 h -4.25 a 0.36,0.76 1.2 0 1 -0.35,-0.78 c 0.09,-4.49 -0.99,-20.16 1.01,-23.2 4.51,-6.88 23.41,-6.25 23.44,4.49 q 0.03,9.39 -0.24,18.79 a 0.6,0.72 1.4 0 1 -0.61,0.7 h -4 a 0.5,0.5 0 0 1 -0.5,-0.5 v -20 a 0.95,0.85 18.6 0 0 -0.42,-0.74 z"
     id="path178" />
  <path
     fill="#d70932"
     d="m 158.0603,313.5202 c -6.54,2.48 -20.16,2.54 -20.28,-7.55 q -0.08,-6.49 0.01,-12.91 0.03,-2.8 2.51,-4.18 8.42,-4.7 17.68,-1.35 a 0.77,0.65 11.1 0 1 0.49,0.61 l 0.14,4.31 a 0.41,0.41 0 0 1 -0.56,0.39 c -4.74,-1.91 -10.33,-2.62 -14.65,0.54 a 0.97,0.86 74.5 0 0 -0.37,0.76 l -0.1,12.5 a 0.72,1.16 12.2 0 0 0.28,0.79 c 3.99,3.62 10.01,2.73 14.75,0.9 a 0.4,0.51 75.9 0 1 0.68,0.3 l 0.14,4.25 a 0.44,1 72.2 0 1 -0.72,0.64 z"
     id="path180" />
  <path
     fill="#d70932"
     d="m 169.7603,307.5602 q 0.07,1.61 4.23,2.12 5.5,0.67 10.73,-1.21 a 1.3,1.25 47.5 0 1 0.97,0.06 c 3.1,1.5 2.13,4.14 -0.64,5.11 q -9.1,3.17 -17.76,-1.24 -2.41,-1.22 -2.5,-3.92 -0.22,-6.72 -0.25,-13.84 c -0.03,-10.23 15.29,-9.33 21.4,-5.91 q 2.81,1.58 2.81,4.4 v 9.51 a 0.74,0.52 0.5 0 1 -0.75,0.52 l -17.94,-0.07 a 0.53,0.46 89.3 0 0 -0.47,0.55 z m 12.55,-14.73 q -6.07,-3.52 -12.13,0.53 a 1.11,0.72 82.5 0 0 -0.37,0.78 l -0.26,3.25 a 0.69,0.47 1.4 0 0 0.7,0.5 h 12.75 a 0.61,0.74 12.1 0 0 0.61,-0.48 q 1.16,-3.16 -1.3,-4.58 z"
     id="path182" />
  <path
     fill="#dc0b33"
     d="m 264.8803,312.5002 q -1.89,-1.21 -1.89,-3.36 l 0.01,-22 a 0.49,0.75 0 0 1 0.49,-0.75 l 1.26,-0.01 a 0.52,0.82 0 0 1 0.52,0.82 l -0.04,20.7 q 0,2.51 2.38,3.62 7.4,3.43 13.98,-1.27 a 1.11,0.95 74.9 0 0 0.41,-0.86 v -22.25 a 0.49,0.75 0 0 1 0.49,-0.75 l 1.26,-0.01 a 0.51,0.82 0 0 1 0.51,0.82 l -0.01,22.19 a 3.39,3.72 63.6 0 1 -0.91,2.34 c -4.3,4.92 -13.4,4.02 -18.46,0.77 z"
     id="path184" />
  <rect
     fill="#dc0b33"
     x="11.2403"
     y="344.68021"
     width="2.26"
     height="39.959999"
     rx="0.41999999"
     id="rect196" />
  <path
     fill="#dc0b33"
     d="m 22.580302,345.2602 q 1.21,-0.85 2.74,-0.31 a 0.45,0.61 21.2 0 1 0.2,0.74 l -4.1,10.13 a 0.9,1.41 9.3 0 1 -0.66,0.74 c -2.88,1.06 1.02,-9.48 1.3,-10.5 a 1.5,1.12 86.2 0 1 0.52,-0.8 z"
     id="path198" />
  <path
     fill="#d70932"
     d="m 395.1103,356.0802 c -1.18,-8.16 6.16,-11.56 13.08,-10.65 a 0.98,1.65 83 0 1 0.91,0.4 q 1.71,1.87 -0.15,3.74 a 0.68,1.44 35.9 0 1 -0.87,0.48 q -3.66,0.01 -6.77,1.9 a 0.1,1.23 58.8 0 0 -0.94,0.68 l -0.16,3.51 a 0.78,0.47 0.9 0 0 0.79,0.5 h 6.75 a 1.36,1.23 63.2 0 1 0.85,0.33 q 2.47,2.15 0.52,3.85 c -1.61,1.41 -6.11,0.77 -8.3,0.93 a 0.64,0.61 88.1 0 0 -0.57,0.64 v 21.5 a 0.5,0.75 0 0 1 -0.5,0.75 h -4 a 0.5,0.75 0 0 1 -0.5,-0.75 v -21.5 a 0.5,0.75 0 0 0 -0.5,-0.75 h -2.5 a 0.47,0.72 1.6 0 1 -0.46,-0.75 l 0.11,-3.68 a 0.59,0.58 1 0 1 0.6,-0.57 h 2.25 a 0.49,0.38 84.9 0 0 0.36,-0.56 z"
     id="path200" />
  <path
     fill="#d70932"
     d="m 361.4503,361.7202 c -3.31,0.01 -3.87,-4.89 -0.05,-5.18 a 0.54,0.57 88.8 0 0 0.52,-0.52 c 0.07,-1.57 -1.04,-14.79 4.71,-9.19 a 1.23,1.02 25.9 0 1 0.37,0.81 v 8.5 a 0.5,0.5 0 0 0 0.5,0.5 h 8.5 a 0.75,0.5 0 0 1 0.75,0.5 v 4 a 0.75,0.5 0 0 1 -0.75,0.5 h -8.5 a 0.5,0.5 0 0 0 -0.5,0.5 v 14 a 1.72,1.44 20.3 0 0 0.73,1.28 q 3.05,2.1 6.79,2.08 a 1.07,1.66 75.1 0 1 1.02,0.33 q 2.02,1.89 0.19,4.04 a 1.54,1.03 9.4 0 1 -0.95,0.43 c -5.69,0.58 -12.79,-1.66 -12.77,-8.58 q 0.02,-6.76 -0.07,-13.52 a 0.49,0.48 0 0 0 -0.49,-0.48 z"
     id="path202" />
  <circle
     fill="#d70932"
     cx="152.9003"
     cy="349.91019"
     r="3.0699999"
     id="circle204" />
  <circle
     fill="#d70932"
     cx="553.71033"
     cy="349.93021"
     r="3.0799999"
     id="circle206" />
  <path
     fill="#d70932"
     d="m 36.500302,373.6402 v 3.5 a 0.97,0.53 21.8 0 0 0.55,0.67 q 6.31,3.34 13.06,1.01 c 1.76,-0.61 4.4,-0.33 4.37,1.81 q -0.02,1.93 -2,2.68 -9.35,3.56 -18.17,-0.91 -2.83,-1.43 -2.82,-4.69 0.02,-6.15 0,-12.78 c -0.03,-11.03 15.46,-9.79 21.72,-5.98 q 2.2,1.35 2.27,3.44 l 0.35,10.25 a 0.49,0.58 89.5 0 1 -0.58,0.5 h -18.25 a 0.5,0.5 0 0 0 -0.5,0.5 z m 13.91,-6.18 c 2.65,-7.45 -9.27,-6.86 -13.08,-4.4 a 0.32,1.26 58.9 0 0 -0.75,0.76 l -0.11,3.57 a 0.78,0.49 0.3 0 0 0.78,0.5 h 12.5 a 0.72,0.64 8.5 0 0 0.66,-0.43 z"
     id="path208" />
  <path
     fill="#d70932"
     d="m 66.770302,363.5702 -0.03,20.07 a 0.3,0.79 0 0 1 -0.3,0.79 l -4.44,-0.05 a 0.51,0.71 0.4 0 1 -0.5,-0.71 q 0.01,-8.75 -0.01,-17.45 c -0.01,-5.01 1.21,-7.36 5.84,-8.99 6.37,-2.24 18.39,-1.59 18.41,7.84 q 0.03,9.38 -0.01,18.75 a 0.48,0.57 0 0 1 -0.48,0.57 h -4.25 a 0.67,0.4 88.7 0 1 -0.41,-0.65 c -0.22,-8.59 0.8,-14.36 -0.04,-19.82 a 1.27,1.03 15.5 0 0 -0.55,-0.77 q -6.13,-3.94 -12.44,-0.21 a 0.17,1.1 60 0 0 -0.79,0.63 z"
     id="path210" />
  <path
     fill="#d70932"
     d="m 97.300302,366.4702 c 6.169998,1.85 16.729998,1.44 16.289998,9.81 -0.5,9.59 -13.909998,9.46 -20.459998,7.29 a 0.91,0.63 12.4 0 1 -0.63,-0.68 v -4.25 a 0.53,0.48 11.7 0 1 0.72,-0.42 q 5.09,1.97 10.519998,1.33 4.18,-0.49 4.27,-2.06 l 0.17,-3.04 a 1.23,0.1 13.4 0 0 -1.16,-0.38 l -12.119998,-2.99 q -2.17,-0.54 -2.89,-3.1 c -3.52,-12.43 12.569998,-13.21 19.989998,-10.52 a 0.81,0.74 10.3 0 1 0.52,0.68 l 0.17,4.25 a 0.54,0.45 13.4 0 1 -0.76,0.38 q -7.14,-3.28 -14.159998,0.02 a 0.33,1.19 67 0 0 -0.81,0.64 l -0.27,2.46 a 0.8,0.46 13.7 0 0 0.61,0.58 z"
     id="path212" />
  <path
     fill="#d70932"
     d="m 124.5003,373.6402 -0.01,3.5 a 0.98,0.76 16.2 0 0 0.55,0.76 q 6.76,3.38 13.94,0.55 a 0.88,1.6 56 0 1 0.99,-0.09 c 4.14,1.34 2.62,4.37 -0.46,5.35 q -8.64,2.74 -16.93,-1.06 -3.06,-1.41 -3.07,-3.8 -0.02,-7.24 -0.01,-14.44 c 0.02,-10.41 19.2,-10.39 23.27,-3.51 1.41,2.38 0.73,8.85 0.73,11.75 a 0.5,0.49 0 0 1 -0.5,0.49 h -18 a 0.5,0.5 0 0 0 -0.5,0.5 z m 12.02,-11.12 q -5.79,-3.19 -11.47,0.74 a 0.87,1.28 66.2 0 0 -0.55,0.88 v 3.25 a 0.75,0.5 0 0 0 0.75,0.5 h 12.5 a 0.7,0.65 7.8 0 0 0.66,-0.46 c 0.69,-2.33 0.28,-3.7 -1.89,-4.91 z"
     id="path214" />
  <path
     fill="#d70932"
     d="m 153.8203,356.3002 q 1.68,0.59 1.68,2.34 v 25 a 0.5,0.75 0 0 1 -0.5,0.75 h -4 a 0.5,0.75 0 0 1 -0.5,-0.75 v -25.75 a 0.23,1.21 39.8 0 1 0.45,-0.81 q 1.1,-1.41 2.87,-0.78 z"
     id="path216" />
  <path
     fill="#d70932"
     d="m 166.5703,374.9002 c -4.78,-2.84 -4.2,-5.53 -4.33,-10.59 -0.26,-9.98 16.06,-9.04 21.46,-5.61 3.19,2.03 3.67,9.22 2.18,12.32 -2.11,4.36 -8.69,5.52 -12.91,5.1 a 0.96,0.5 8.8 0 0 -0.94,0.32 l -0.59,1.93 a 0.75,0.32 12.3 0 0 0.69,0.49 c 5,1.03 14.95,1.74 15.57,8.41 1.05,11.31 -18.79,8.87 -24.84,6.69 a 0.87,0.46 15.5 0 1 -0.61,-0.57 v -4.5 a 0.43,0.4 10.4 0 1 0.57,-0.36 c 2.42,0.88 20.46,5.51 19.53,-1.59 a 0.74,0.75 2.2 0 0 -0.58,-0.63 l -16.02,-3.65 a 0.53,0.4 13 0 1 -0.43,-0.51 l 1.47,-6.5 a 0.53,0.75 18.8 0 0 -0.22,-0.75 z m 0.8,-10.82 c -2.65,8.46 9.18,8 13.47,4.86 a 1.47,1.44 80.6 0 0 0.54,-0.77 c 2.4,-8.31 -9.28,-7.86 -13.44,-4.86 a 1.46,1.57 79.4 0 0 -0.57,0.77 z"
     id="path218" />
  <path
     fill="#d70932"
     d="m 210.5603,363.1702 c -3.65,-2.75 -9.08,-2.32 -12.64,0.21 a 0.88,0.98 71.1 0 0 -0.42,0.76 v 19.75 a 0.5,0.75 0 0 1 -0.5,0.75 h -4 a 0.48,0.79 0 0 1 -0.48,-0.79 q -0.04,-9.66 -0.01,-19.26 c 0.02,-10.58 15.53,-9.25 21.47,-5.65 q 2.54,1.54 2.53,4.45 l -0.02,20.75 a 0.49,0.5 0 0 1 -0.49,0.5 l -4,0.01 a 0.51,0.82 0 0 1 -0.51,-0.82 l 0.02,-18.94 a 2.38,1.95 21.8 0 0 -0.95,-1.72 z"
     id="path220" />
  <path
     fill="#d70932"
     d="m 227.5003,373.6402 v 3.5 a 1.03,0.53 23.2 0 0 0.56,0.68 q 5.91,3.41 12.27,1.3 c 2.68,-0.88 6.44,-0.66 4.67,3.36 a 1.2,1.34 88.7 0 1 -0.68,0.64 c -6.4,2.64 -21.89,3.45 -21.82,-6.78 q 0.03,-5.44 -0.02,-10.86 c -0.1,-11 14.61,-10.67 21.23,-6.77 q 2.93,1.74 2.96,4.42 l 0.11,9.51 a 0.49,0.78 89.7 0 1 -0.78,0.5 h -18 a 0.5,0.5 0 0 0 -0.5,0.5 z m 13.9,-6.18 c 2.25,-7.66 -9.41,-6.52 -13,-4.37 a 0.25,1.24 60.6 0 0 -0.85,0.74 l 0.01,3.87 a 0.94,0.19 0 0 0 0.94,0.19 h 12.25 a 0.7,0.58 6.4 0 0 0.65,-0.43 z"
     id="path222" />
  <path
     fill="#d70932"
     d="m 252.6703,383.9802 c -0.5,-6 -0.13,-10.85 -0.12,-18.35 0.01,-10.27 12.81,-11.14 19.53,-6.78 a 0.75,0.74 44.5 0 0 0.83,0 c 6.54,-4.42 19.54,-3.64 19.58,6.74 q 0.03,9.24 -0.01,18.49 a 0.48,0.56 0 0 1 -0.48,0.56 l -4,0.01 a 0.51,0.82 0 0 1 -0.51,-0.82 l 0.02,-18.94 a 2.54,2.31 17.1 0 0 -1.21,-2.05 q -5.76,-3.5 -10.92,0.67 a 1.21,1 73.9 0 0 -0.38,0.88 v 19.75 a 0.5,0.5 0 0 1 -0.5,0.5 h -4 a 0.5,0.5 0 0 1 -0.5,-0.5 v -19.75 a 0.79,1.26 11.2 0 0 -0.35,-0.91 q -5.67,-4.37 -11.5,-0.17 a 1.06,0.95 73.9 0 0 -0.4,0.83 v 19.75 a 0.5,0.75 0 0 1 -0.5,0.75 h -3.99 a 0.71,0.58 87.4 0 1 -0.59,-0.66 z"
     id="path224" />
  <path
     fill="#d70932"
     d="m 303.5003,373.6402 v 3.5 a 1.07,0.58 23.3 0 0 0.56,0.71 q 5.99,3.41 12.53,1.19 c 2.08,-0.71 3.58,-0.92 4.68,1.09 q 1.1,2.01 -1,2.93 c -5.42,2.38 -16.63,3.27 -20.69,-2.52 -1.99,-2.83 -1.07,-11.54 -1.09,-15.14 -0.05,-9.81 12.13,-10.48 18.73,-8.08 7.15,2.59 5.44,9.54 5.55,15.32 a 0.49,0.52 89.5 0 1 -0.52,0.5 h -18.25 a 0.5,0.5 0 0 0 -0.5,0.5 z m 13.89,-6.2 c 2.23,-6.34 -6.93,-6.42 -10.36,-5.74 q -4.07,0.8 -3.4,5.67 a 0.62,0.69 86.7 0 0 0.68,0.54 l 12.44,-0.03 a 0.69,0.65 8.9 0 0 0.64,-0.44 z"
     id="path226" />
  <path
     fill="#d70932"
     d="m 347.3903,363.8102 c -3.32,-3.54 -9.57,-3.04 -13.23,-0.44 a 0.91,1.01 70.3 0 0 -0.41,0.77 v 19.75 a 0.5,0.75 0 0 1 -0.5,0.75 h -4.25 a 0.68,0.38 89.4 0 1 -0.39,-0.67 q -0.17,-9.91 0.14,-19.79 c 0.32,-10.01 15.67,-8.86 21.45,-5.23 q 2.57,1.62 2.57,4.69 l -0.03,20.25 a 0.49,0.75 0 0 1 -0.49,0.75 h -4.25 a 0.5,0.75 0 0 1 -0.5,-0.75 l 0.17,-19.25 a 0.92,1.33 16 0 0 -0.28,-0.83 z"
     id="path228" />
  <path
     fill="#d70932"
     d="m 429.4903,362.0302 q -5.96,-1.79 -11.42,0.91 a 0.91,0.62 81.6 0 0 -0.37,0.76 l 0.07,20.19 a 0.52,0.75 0 0 1 -0.52,0.75 h -4.25 a 0.51,0.71 0.5 0 1 -0.51,-0.72 q 0.05,-9.51 -0.02,-18.96 c -0.05,-6.79 4.4,-7.87 9.94,-8.71 2.51,-0.38 13.64,0.71 9.21,4.96 a 1.58,2.63 37.9 0 1 -2.13,0.82 z"
     id="path230" />
  <path
     fill="#d70932"
     d="m 452.1603,364.0902 c -3.32,-4.34 -11.6,-2.67 -15.98,-1.28 a 0.43,0.46 81.7 0 1 -0.59,-0.41 l 0.15,-4.26 a 0.61,0.75 80.4 0 1 0.51,-0.59 c 5.5,-1.83 16.47,-2.66 20.08,3.37 2.37,3.96 1.17,16.69 1.15,21.64 a 0.69,0.75 80.2 0 1 -0.5,0.65 q -10.44,3.55 -20.69,-0.27 -2.65,-0.98 -2.95,-3.76 c -0.55,-5 -0.36,-8.8 5.38,-10.17 q 6.35,-1.5 12.74,-2.96 a 1.24,1.23 64.7 0 0 0.7,-1.96 z m -13.93,13.14 c 1.27,3.63 10.6,2.65 13.35,1.82 a 0.59,0.92 78.3 0 0 0.67,-0.66 v -6.5 a 0.47,0.64 82.3 0 0 -0.76,-0.42 q -5.64,1.19 -11.15,2.48 c -1.79,0.41 -2.75,1.44 -2.11,3.28 z"
     id="path232" />
  <path
     fill="#d70932"
     d="m 482.1603,363.8102 c -3.48,-3.51 -9.4,-3.11 -13.24,-0.44 a 0.91,0.98 71.5 0 0 -0.42,0.77 v 19.75 a 0.5,0.75 0 0 1 -0.5,0.75 h -4.25 a 0.79,0.49 89.5 0 1 -0.49,-0.78 q -0.02,-9.9 -0.01,-19.73 c 0,-10.36 24.21,-11.03 24.24,0.44 q 0.03,9.75 -0.01,19.5 a 0.48,0.57 0 0 1 -0.48,0.57 h -4 a 0.5,0.5 0 0 1 -0.5,-0.5 v -19.5 a 1.16,1.19 22 0 0 -0.34,-0.83 z"
     id="path234" />
  <path
     fill="#d70932"
     d="m 498.9703,383.8002 c -8.03,-2.82 -5.46,-13.99 -5.49,-20.68 q -0.02,-2.79 2.27,-4.1 8.6,-4.94 18.06,-1.39 a 0.65,0.87 6.8 0 1 0.44,0.76 v 4 a 0.4,0.36 10.9 0 1 -0.53,0.32 c -4.32,-1.54 -11.27,-2.56 -14.85,0.87 a 1.02,1.23 64.1 0 0 -0.37,0.81 v 12.5 a 1.07,0.82 23 0 0 0.42,0.75 c 4.37,3.32 9.88,2.48 14.8,0.72 a 0.33,0.4 78.3 0 1 0.53,0.28 v 4.25 a 0.74,0.88 80 0 1 -0.62,0.74 q -3.71,1.15 -9.11,1.27 -1.63,0.03 -0.71,0.84 a 1.6,1.59 66.5 0 0 1,0.4 q 4.34,0.1 7.8,2.59 a 1.4,0.44 86 0 1 0.38,0.97 c 1.36,9.43 -10.98,7.38 -15.7,6.08 a 0.74,0.64 8.8 0 1 -0.54,-0.64 v -3.75 a 0.48,0.4 13.9 0 1 0.66,-0.32 c 1.02,0.44 12.77,3.3 11.41,0.45 a 1.17,0.79 0.6 0 0 -0.74,-0.51 l -9.14,-2.05 a 0.55,0.44 14.1 0 1 -0.43,-0.57 l 1.03,-3.99 a 0.75,0.4 18.1 0 0 -0.57,-0.6 z"
     id="path236" />
  <path
     fill="#d70932"
     d="m 539.0203,363.7902 c -3.52,-3.87 -11.27,-2.4 -15.59,-1.01 a 0.45,0.53 79.6 0 1 -0.69,-0.39 l 0.02,-4 a 0.8,0.65 81.9 0 1 0.43,-0.72 c 6.28,-2.37 20.87,-2.79 21.1,6.71 q 0.21,9.02 0.21,18.15 a 0.7,0.72 80.9 0 1 -0.5,0.67 c -5.87,1.87 -19.18,3.48 -23.03,-2.69 -0.93,-1.49 -1.15,-6.35 -0.27,-7.97 2.17,-4 13.26,-5.5 17.57,-6.41 q 2.42,-0.52 0.75,-2.34 z m -13.48,11.03 c -3.5,6.77 10.94,4.87 13.26,4.05 a 0.8,0.65 82.7 0 0 0.45,-0.73 v -6.25 a 0.51,0.41 85.1 0 0 -0.5,-0.52 l -12.44,2.84 a 1.14,1.23 8.8 0 0 -0.77,0.61 z"
     id="path238" />
  <path
     fill="#d70932"
     d="m 551.1403,383.8902 c -0.29,-8.32 -0.31,-16.82 0.03,-25.52 a 2.12,2.1 73.3 0 1 0.87,-1.63 c 2.55,-1.82 4.18,0.46 4.2,2.95 q 0.06,12.14 -0.04,24.28 a 0.45,0.67 0 0 1 -0.45,0.67 h -3.99 a 0.78,0.61 88.6 0 1 -0.62,-0.75 z"
     id="path240" />
  <path
     fill="#d70932"
     d="m 568.8103,366.7002 c 4.22,1.04 12.81,1.88 15.4,5.55 a 1.48,1.53 26.3 0 1 0.28,0.88 l 0.03,5.77 q 0.01,1.92 -1.83,3.01 -8.57,5.09 -18.17,1.65 a 0.91,0.62 13.5 0 1 -0.61,-0.67 l 0.05,-4.25 a 0.39,0.36 12.3 0 1 0.54,-0.32 c 3.05,1.32 17.32,3.28 14.9,-3.43 a 0.92,0.97 87.6 0 0 -0.68,-0.59 q -5.02,-1.16 -10.02,-2.19 -6.62,-1.36 -5.63,-8.44 c 1.2,-8.47 13.9,-8.3 19.79,-6.26 a 1.59,0.73 15.8 0 1 1.15,0.98 l -0.01,4 a 0.58,0.41 13.3 0 1 -0.76,0.31 c -2.65,-0.97 -17.21,-3.24 -15.11,3.42 a 0.99,0.84 0.2 0 0 0.68,0.58 z"
     id="path242" />
  <rect
     fill="#dc0b33"
     x="51.480305"
     y="415.51019"
     width="2.26"
     height="40.119999"
     rx="0.69"
     id="rect258" />
  <path
     fill="#dc0b33"
     d="m 21.020302,422.7902 q -3.1,-3.06 -5.97,-6.41 -0.59,-0.69 0.14,-0.65 l 3.31,0.19 a 1.2,0.35 58.9 0 1 0.73,0.67 q 1.59,2.32 3.29,4.53 c 1.1,1.42 -0.02,3.13 -1.5,1.67 z"
     id="path260" />
  <path
     fill="#dc0b33"
     d="m 63.940302,415.7702 2.56,0.15 a 0.46,0.46 0 0 1 0.4,0.64 l -4.1,10.1 a 0.99,1.77 8.9 0 1 -0.64,0.82 c -3.31,1.84 1.28,-10.62 1.49,-11.31 a 0.2,0.5 14.6 0 1 0.29,-0.4 z"
     id="path262" />
  <path
     fill="#d70932"
     d="m 82.200302,423.9602 c -3.38,-1.52 0.51,-5.72 1.66,-7.51 a 0.36,1.02 29.1 0 1 0.64,-0.57 l 5.68,0.03 q 0.76,0 0.12,0.78 l -5.5,6.76 a 2.3,2.06 30.8 0 1 -2.6,0.51 z"
     id="path264" />
  <path
     fill="#d70932"
     d="m 108.9403,433.1402 0.09,14.25 a 0.85,1.15 12.7 0 0 0.38,0.87 q 3.16,2.26 7.11,2.23 a 1.31,1.08 63.1 0 1 0.87,0.38 c 2.34,2.35 0.56,4.52 -2.2,4.52 -14.78,-0.05 -11.42,-12.55 -11.46,-22.19 a 0.71,0.47 13.3 0 0 -0.49,-0.52 l -1.68,-0.6 a 1.31,1.11 3.2 0 1 -0.77,-0.73 q -1.139998,-3.46 2.43,-3.79 a 0.68,0.58 87.7 0 0 0.53,-0.67 v -8 a 1.3,0.81 76.9 0 1 0.29,-0.85 c 6.1,-6.01 4.94,7.11 4.87,8.98 a 0.59,0.6 0.9 0 0 0.59,0.62 h 8.25 a 0.75,0.5 0 0 1 0.75,0.5 v 4 a 0.75,0.5 0 0 1 -0.75,0.5 h -8.5 a 0.31,0.5 0 0 0 -0.31,0.5 z"
     id="path266" />
  <path
     fill="#dc0b33"
     d="m 28.750302,437.3902 v -4.5 a 1.29,0.83 30 0 0 -0.41,-0.8 c -3.98,-3.79 -9.71,-3.4 -14.53,-2.13 q -2.74,0.72 -1.62,-1.65 a 1.14,1.07 3.6 0 1 0.71,-0.59 c 5.69,-1.49 18.08,-2.12 18.1,6.78 q 0.02,9.93 -0.03,19.83 a 0.62,0.61 84.3 0 1 -0.49,0.61 c -5,1.01 -16.54,2.24 -20.15,-1.95 a 1.32,1.34 23.7 0 1 -0.32,-0.84 l -0.04,-7.53 q -0.01,-2.15 2.19,-2.69 l 16.15,-3.96 a 0.6,0.58 83.2 0 0 0.44,-0.58 z m -16.42,14.17 c 4.25,3.19 10.97,2.56 15.82,1.29 a 0.71,0.81 81.6 0 0 0.6,-0.71 v -11.25 a 0.47,0.4 84.2 0 0 -0.49,-0.47 l -15.09,3.58 a 1.39,1.51 83 0 0 -1.17,1.38 v 5.51 a 0.83,0.85 18.3 0 0 0.33,0.67 z"
     id="path268" />
  <path
     fill="#d70932"
     d="m 92.110302,454.6902 c -6.37,1.44 -20.46,2.71 -20.58,-7.51 -0.1,-7.7 -1.96,-15.57 4.58,-18.45 q 8.47,-3.73 16.85,0.95 c 3.93,2.19 2.82,10.12 2.75,13.94 a 0.46,0.52 0 0 1 -0.46,0.52 h -18 a 0.46,0.66 88.8 0 0 -0.67,0.49 l 0.22,3.26 a 1.22,1.15 16.4 0 0 0.51,0.88 c 4,2.8 9.01,2.24 13.52,0.95 1.8,-0.51 4.07,0.26 3.77,2.29 q -0.33,2.2 -2.49,2.68 z m -1.7,-16.24 c 2.7,-7.5 -9.23,-6.86 -12.99,-4.31 a 0.52,1.24 62.3 0 0 -0.62,0.75 l -0.21,3.51 a 0.65,0.46 1.2 0 0 0.66,0.49 h 12.5 a 0.71,0.67 9.3 0 0 0.66,-0.44 z"
     id="path270" />
  <path
     fill="#d70932"
     d="m 129.0003,434.6402 v 20.25 a 0.5,0.5 0 0 1 -0.5,0.5 h -4 a 0.42,0.51 2.5 0 1 -0.41,-0.55 c 0.44,-7.04 -0.23,-13.58 0.21,-21.06 0.44,-7.47 12.79,-7.18 17.61,-5.81 q 2.39,0.68 1.89,3.13 c -0.45,2.2 -2.65,1.86 -4.5,1.42 q -5.14,-1.22 -9.8,1.43 a 0.66,0.96 70.3 0 0 -0.5,0.69 z"
     id="path272" />
  <path
     fill="#d70932"
     d="m 159.9403,432.2002 q -4.7,-0.41 -10.73,1.53 a 0.4,0.5 79.1 0 1 -0.65,-0.34 l 0.13,-4.31 a 0.59,0.47 83.3 0 1 0.32,-0.52 c 5.51,-1.85 20.84,-3.04 20.97,6.06 q 0.13,9.27 0.33,18.5 a 1.18,1.17 80.9 0 1 -0.83,1.15 c -5.67,1.73 -17.32,2.97 -21.86,-1.78 -2.03,-2.13 -1.51,-5.86 -1.22,-8.62 a 1.67,1.58 69.1 0 1 0.37,-0.89 c 3.1,-3.64 10.66,-4.48 17.69,-6.04 a 1.03,0.81 0.4 0 0 0.71,-0.55 c 0.87,-2.36 -3.89,-4.07 -5.23,-4.19 z m -8.68,13.56 c -3.15,6.65 11.14,4.85 13.48,4.18 a 0.52,0.7 79.5 0 0 0.51,-0.55 v -6.75 a 0.41,0.39 83.8 0 0 -0.48,-0.4 l -12.76,2.94 a 1.12,1 4.1 0 0 -0.75,0.58 z"
     id="path274" />
  <path
     fill="#d70932"
     d="m 194.8503,434.3802 c -3.93,-3.09 -9.42,-3.01 -13.21,0.22 a 0.86,1.2 63.7 0 0 -0.42,0.79 l 0.09,19.25 a 0.56,0.75 0 0 1 -0.56,0.75 h -4 a 0.41,0.89 0 0 1 -0.41,-0.89 q -0.01,-9.61 0.04,-19.1 c 0.06,-10.52 15.62,-8.99 21.62,-5.49 q 2.49,1.46 2.49,4.23 l 0.01,20.75 a 0.5,0.5 0 0 1 -0.5,0.5 h -4.25 a 0.5,0.5 0 0 1 -0.5,-0.5 v -19.75 a 1.07,0.88 22.8 0 0 -0.4,-0.76 z"
     id="path276" />
  <path
     fill="#d70932"
     d="m 210.4703,445.5002 c -4.75,-2.25 -3.98,-6.02 -3.97,-10.34 0.02,-10.82 23.94,-10.92 23.99,0.31 0.02,2.22 0.39,4.88 -0.68,6.76 -2.42,4.26 -8.46,5.3 -12.84,4.88 a 0.93,0.45 6.1 0 0 -0.94,0.34 l -0.34,1.93 a 0.7,0.31 13.4 0 0 0.58,0.44 l 11.93,3.03 q 2.72,0.69 3.3,3.86 c 2.43,13.08 -17.62,10.51 -24.34,8.42 a 0.88,0.78 9.1 0 1 -0.61,-0.74 l -0.21,-4.69 a 0.52,0.3 15.5 0 1 0.68,-0.18 c 2.29,0.9 22.23,5.38 19.39,-1.64 a 1.01,0.85 82.2 0 0 -0.64,-0.58 l -15.77,-3.65 a 0.67,0.38 12.9 0 1 -0.56,-0.52 l 1.6,-6.98 a 0.85,0.41 23.2 0 0 -0.57,-0.65 z m 1.95,-5.03 q 6.66,3.78 12.8,-0.6 a 0.36,1.26 5.3 0 0 0.35,-0.9 c 1.42,-8.33 -9.1,-7.68 -13.52,-4.75 a 0.44,1.05 62.1 0 0 -0.55,0.67 l -0.01,4.26 a 1.81,1.25 20.3 0 0 0.93,1.32 z"
     id="path278" />
  <path
     fill="#d70932"
     d="m 240.9903,444.7102 c -1,7.98 10.67,6.34 15.09,4.67 a 1.87,1.87 0 0 1 2.21,0.7 c 4.6,6.77 -17.18,8.04 -21.32,1.02 -1.79,-3.03 -0.97,-10.53 -0.98,-14.25 -0.02,-4.79 1.34,-7 5.7,-8.57 q 8.55,-3.08 15.74,1.42 c 4.01,2.51 2.83,9.8 2.82,13.95 a 0.5,0.49 0 0 1 -0.5,0.49 h -18.25 a 0.49,0.65 4.4 0 0 -0.51,0.57 z m 13.07,-10.63 q -5.97,-4.43 -12.43,0.26 a 0.49,1.26 59.6 0 0 -0.63,0.8 v 3.25 a 0.75,0.5 0 0 0 0.75,0.5 h 12.5 a 0.72,0.64 8.5 0 0 0.66,-0.43 q 1.06,-2.97 -0.85,-4.38 z"
     id="path280" />
  <path
     fill="#d70932"
     d="m 272.2503,455.4902 -4,0.03 a 0.45,0.52 0 0 1 -0.45,-0.52 q -0.07,-9.84 -0.15,-19.62 c -0.04,-5.45 3.76,-7.1 8.57,-7.99 2.57,-0.47 9.3,-0.64 11.05,1.94 q 1.12,1.65 -0.15,2.73 a 1.37,3.02 44.4 0 1 -2.4,0.93 q -6.05,-2.18 -11.54,1.04 a 1.06,0.84 78.3 0 0 -0.43,0.86 v 20 a 0.6,0.51 89.5 0 1 -0.5,0.6 z"
     id="path282" />
</svg>
