<?xml version="1.0" encoding="UTF-8" standalone="no"?>
<svg
   version="1.1"
   viewBox="0 0 178 84"
   id="svg8122"
   sodipodi:docname="agora-monde.svg"
   inkscape:version="1.2.2 (732a01da63, 2022-12-09)"
   xmlns:inkscape="http://www.inkscape.org/namespaces/inkscape"
   xmlns:sodipodi="http://sodipodi.sourceforge.net/DTD/sodipodi-0.dtd"
   xmlns="http://www.w3.org/2000/svg"
   xmlns:svg="http://www.w3.org/2000/svg">
  <defs
     id="defs8126" />
  <sodipodi:namedview
     id="namedview8124"
     pagecolor="#ffffff"
     bordercolor="#000000"
     borderopacity="0.25"
     inkscape:showpageshadow="2"
     inkscape:pageopacity="0.0"
     inkscape:pagecheckerboard="0"
     inkscape:deskcolor="#d1d1d1"
     showgrid="false"
     inkscape:zoom="4.8067371"
     inkscape:cx="68.133537"
     inkscape:cy="68.65364"
     inkscape:window-width="1920"
     inkscape:window-height="1017"
     inkscape:window-x="-8"
     inkscape:window-y="-8"
     inkscape:window-maximized="1"
     inkscape:current-layer="svg8122" />
  <path
     fill="#005192"
     d="m 16.55,37.31 -3.09,6.89 a 1.18,1.27 3.8 0 1 -0.7,0.66 q -3,1.03 -4.43,-1.98 A 0.58,1.15 32.8 0 1 8.42,42.03 Q 14.61,27.6 20.93,13.23 c 1.66,-3.79 4.45,-2.69 5.81,0.37 q 6.18,13.93 12.15,27.92 a 1.49,0.44 61.5 0 1 0.21,0.99 q -0.81,3.27 -4.05,2.5 A 1.47,0.99 1.2 0 1 34.11,44.35 L 31.09,37.61 A 1.43,1.05 74.6 0 0 30,36.75 H 17.25 a 0.67,0.93 15.8 0 0 -0.7,0.56 z m 3,-6.66 a 0.3,0.3 0 0 0 0.27,0.41 l 7.85,-0.01 a 0.3,0.3 0 0 0 0.27,-0.42 L 24,21.54 a 0.3,0.3 0 0 0 -0.55,0 z"
     id="path8088" />
  <path
     fill="#005192"
     d="M 67.24,42.89 C 60.55,45.29 47.03,47.11 43.26,39.47 41.51,35.93 42.41,25.04 42.4,20.66 42.37,8.7 60.1,9.99 67.03,13.32 A 0.83,0.68 15.5 0 1 67.51,14 l -0.09,5 a 0.43,0.3 15.8 0 1 -0.58,0.2 C 61.57,16.89 55.35,15.49 49.93,18.15 q -1.92,0.94 -1.93,3.1 l -0.01,13.51 q 0,2.3 2.08,3.23 6.06,2.73 12.4,0.36 A 0.56,0.81 76.1 0 0 63,37.75 V 31.5 a 0.49,0.77 0 0 0 -0.49,-0.77 l -5.27,0.06 q -2.99,0.03 -2.46,-3.05 c 0.67,-3.85 10.5,-2.5 13.4,-2.49 a 0.56,0.56 0 0 1 0.56,0.56 l 0.02,14.95 a 2.25,2.29 80.1 0 1 -1.52,2.13 z"
     id="path8090" />
  <path
     fill="#005192"
     d="m 101.05,35.01 c 0.02,12.54 -22.75,12.97 -26.42,3.75 -1.39,-3.5 -1.19,-19.32 0.69,-22.53 4.29,-7.28 18.05,-6.68 23.7,-1.15 q 1.9,1.87 1.93,4.53 0.09,7.8 0.1,15.4 z M 94.85,19.4 Q 87.77,13.97 80.48,19.21 a 1.99,1.7 74.9 0 0 -0.73,1.54 V 35.5 a 1.24,1.04 26 0 0 0.36,0.81 c 3.85,3.84 10.97,4.39 14.81,0.04 a 1.23,1.36 63.2 0 0 0.33,-0.85 v -15 a 0.88,1.52 9.9 0 0 -0.4,-1.1 z"
     id="path8092" />
  <path
     fill="#005192"
     d="m 145.61,37.53 c -1.15,2.63 -2.77,9.58 -6.89,6.98 q -1.73,-1.1 -0.93,-2.98 5.93,-13.91 12.07,-27.72 c 1.89,-4.25 4.45,-3.85 6.21,0.18 q 6.11,14.02 12.26,28.03 a 1.17,0.58 57.8 0 1 0.09,0.86 q -1.73,3.48 -5.01,1.55 a 1.2,0.15 66.7 0 1 -0.5,-0.86 l -2.79,-6.23 a 1.01,0.9 76.3 0 0 -0.87,-0.6 l -13.06,0.04 a 0.29,1.04 21.9 0 0 -0.58,0.75 z m 3.1,-6.88 a 0.33,0.33 0 0 0 0.3,0.46 l 7.87,0.01 a 0.33,0.33 0 0 0 0.3,-0.46 l -3.92,-9.15 a 0.33,0.33 0 0 0 -0.6,0 z"
     id="path8094" />
  <path
     fill="#005192"
     d="m 126.98,32.77 8.83,11.42 q 0.48,0.63 -0.25,0.62 l -6.06,-0.08 a 0.99,1.17 74.3 0 1 -0.85,-0.39 L 119.86,32.87 A 1.35,0.59 59.2 0 0 119,32.25 h -6 a 0.38,0.68 2.7 0 0 -0.4,0.64 c -0.18,2.83 0.59,8.79 -0.78,10.99 q -1.78,2.85 -4.74,-0.3 a 1.21,1.21 0 0 1 -0.33,-0.83 v -31 a 0.46,0.53 89.4 0 1 0.52,-0.46 q 9.42,-0.08 18.77,-0.03 c 10.52,0.06 10.36,19.36 1.52,20.98 a 0.3,0.6 74.4 0 0 -0.58,0.53 z M 113,16.92 a 0.49,0.58 0.5 0 0 -0.5,0.58 V 26 a 0.5,0.5 0 0 0 0.5,0.5 h 13.25 a 1,0.81 11.9 0 0 0.82,-0.42 q 2.6,-4.47 -0.12,-8.78 A 0.4,1.16 86.4 0 0 126,17.04 Z"
     id="path8096" />
  <path
     fill="#db0032"
     d="M 119.31,57.68 A 0.64,0.68 7.7 0 0 120.15,57 l -0.17,-5.75 a 1,0.36 88.6 0 1 0.33,-1 l 2.44,-0.11 a 0.91,0.46 89 0 1 0.48,0.91 q 0.08,7.98 -0.04,15.94 c -0.04,3.34 0.11,5.68 -3.48,7.01 q -4.75,1.76 -9.53,-0.69 -1.92,-0.98 -1.92,-3.07 l -0.02,-8.74 q 0,-2.15 2.26,-3.25 4.26,-2.08 8.81,-0.57 z m 0.7442,5.4282 a 2.69,2.69 0 0 0 -2.6474,-2.7319 l -3.2596,-0.0512 a 2.69,2.69 0 0 0 -2.7319,2.6474 l -0.0895,5.6993 a 2.69,2.69 0 0 0 2.6474,2.7319 l 3.2596,0.0512 a 2.69,2.69 0 0 0 2.7319,-2.6474 z"
     id="path8106" />
  <path
     fill="#db0032"
     d="m 34.36,58.63 a 0.65,0.45 39.9 0 0 0.57,0.05 q 6.52,-4.01 11.62,1.53 a 1.2,1.72 15.7 0 1 0.36,1.04 l 0.13,12.5 A 0.74,0.54 89.5 0 1 46.5,74.5 h -2.25 a 0.5,0.75 0 0 1 -0.5,-0.75 V 62.5 a 0.44,1.3 4.3 0 0 -0.26,-1.01 q -3.48,-2.68 -6.98,0.01 a 1.29,0.44 85.6 0 0 -0.26,1 v 11.25 a 0.5,0.76 0 0 1 -0.5,0.76 L 33.51,74.5 A 0.76,0.3 89.3 0 1 33.2,73.75 l -0.22,-11.5 a 0.79,1.26 9.6 0 0 -0.37,-0.89 q -3.35,-2.4 -6.7,0.06 a 1.05,1.03 71.7 0 0 -0.41,0.83 v 11.5 A 0.5,0.75 0 0 1 25,74.5 H 22.75 A 0.51,0.75 0 0 1 22.24,73.75 L 22.27,62 a 3.6,2.77 75.4 0 1 1.11,-2.62 q 5.17,-4.13 10.98,-0.75 z"
     id="path8108" />
  <path
     fill="#db0032"
     d="m 72.45,69.15 a 5.5,5.5 0 0 1 -5.5,5.5 h -3.96 a 5.5,5.5 0 0 1 -5.5,-5.5 v -6.52 a 5.5,5.5 0 0 1 5.5,-5.5 h 3.96 a 5.5,5.5 0 0 1 5.5,5.5 z m -3.2248,-6.1027 a 2.73,2.73 0 0 0 -2.7443,-2.7157 l -3.2399,0.017 a 2.73,2.73 0 0 0 -2.7157,2.7442 l 0.0295,5.6399 a 2.73,2.73 0 0 0 2.7443,2.7157 l 3.2399,-0.017 a 2.73,2.73 0 0 0 2.7157,-2.7442 z"
     id="path8110" />
  <path
     fill="#db0032"
     d="m 85.82,64.24 c 0.47,2.9 0.19,6.54 0.15,9.5 A 0.47,0.77 0.6 0 1 85.5,74.5 H 83.25 A 0.54,0.5 0 0 1 82.71,74 l 0.13,-13.25 a 0.5,1.36 50.3 0 1 0.48,-0.83 c 3.73,-3.95 14.49,-4.58 14.45,3.1 q -0.03,5.5 -0.03,10.91 A 0.49,0.57 0 0 1 97.25,74.5 H 95 A 0.5,0.5 0 0 1 94.5,74 V 62.25 a 1,0.95 19.8 0 0 -0.39,-0.77 c -2.46,-1.89 -9.09,-2.16 -8.29,2.76 z"
     id="path8112" />
  <path
     fill="#db0032"
     d="m 136.65,68.04 c -1.25,4.36 6.24,3.63 8.37,3 1.73,-0.51 3.34,-0.26 2.62,1.99 a 0.96,1.18 83.8 0 1 -0.65,0.66 q -5.35,2.12 -10.67,-0.01 -2.83,-1.13 -2.83,-4.17 v -7.53 q 0,-2.65 2.83,-3.86 6.25,-2.7 11.58,1.45 a 1.27,1.11 20.5 0 1 0.5,0.92 L 148.54,67 A 0.49,0.54 89.5 0 1 148,67.5 h -10.75 a 0.59,0.73 9.5 0 0 -0.6,0.54 z m 0.16,-3.95 A 0.15,0.21 84.9 0 0 137,64.2 l 7.76,0.17 A 0.65,0.53 7.6 0 0 145.37,64 c 1.61,-5.03 -10.11,-5.21 -8.56,0.09 z"
     id="path8114" />
</svg>
