<svg xmlns="http://www.w3.org/2000/svg"  viewBox="0 0 64 64" width="64px" height="64px"><path fill="#ced8ed" d="M47,11H17C9.268,11,3,17.268,3,25v22h58V25C61,17.268,54.732,11,47,11z"/><path fill="#c2cde7" d="M17.38,11L17.38,11C24.902,11,31,17.098,31,24.62c0,0,0,0,0,0V47l0,0H3l0,0V25.38 C3,17.438,9.438,11,17.38,11z"/><path fill="#c4939c" d="M29 53H37V64H29z"/><path fill="#c2cde7" d="M35,42h22c2.209,0,4,1.791,4,4v1l0,0H31l0,0v-1C31,43.791,32.791,42,35,42z"/><path fill="#f9dd8f" d="M61,47H3c-1.105,0-2,0.895-2,2l0,0c0,1.105,0.895,2,2,2h58c1.105,0,2-0.895,2-2l0,0 C63,47.895,62.105,47,61,47z"/><path fill="#cda1a7" d="M39.76,55H26.24c-0.759,0-1.452-0.43-1.79-1.11L23,51h20l-1.45,2.89C41.212,54.57,40.519,55,39.76,55 z"/><path fill="#ed7899" d="M62,35c0.552,0,1-0.448,1-1v-8c0-0.552-0.448-1-1-1H40c-1.105,0-2,0.895-2,2l0,0c0,1.105,0.895,2,2,2 h17c0.483-0.01,0.904,0.327,1,0.8l0.88,4.39c0.096,0.473,0.517,0.81,1,0.8L62,35z"/><path fill="#f9dd8f" d="M38.999 24.005A3 3 0 1 0 38.999 30.005A3 3 0 1 0 38.999 24.005Z" transform="rotate(-45.001 38.999 27.005)"/><path fill="#8d6c9f" d="M51 40c-.552 0-1 .448-1 1v2c0 .552.448 1 1 1s1-.448 1-1v-2C52 40.448 51.552 40 51 40zM46 40c-.552 0-1 .448-1 1v2c0 .552.448 1 1 1s1-.448 1-1v-2C47 40.448 46.552 40 46 40zM56 40c-.552 0-1 .448-1 1v2c0 .552.448 1 1 1s1-.448 1-1v-2C57 40.448 56.552 40 56 40zM41 40c-.552 0-1 .448-1 1v2c0 .552.448 1 1 1s1-.448 1-1v-2C42 40.448 41.552 40 41 40zM36 40c-.552 0-1 .448-1 1v2c0 .552.448 1 1 1s1-.448 1-1v-2C37 40.448 36.552 40 36 40zM21 24h-8c-.552 0-1 .448-1 1s.448 1 1 1h8c.552 0 1-.448 1-1S21.552 24 21 24z"/><path fill="#8d6c9f" d="M64,34v-8c0-1.105-0.895-2-2-2l0,0c-0.527-7.891-7.091-14.018-15-14H17C8.716,10,2,16.716,2,25v21.18 c-1.557,0.565-2.362,2.286-1.797,3.843C0.631,51.202,1.746,51.99,3,52h19.38l1.17,2.34c0.509,1.019,1.551,1.662,2.69,1.66H28v7 c0,0.552,0.448,1,1,1s1-0.448,1-1v-7h6v7c0,0.552,0.448,1,1,1s1-0.448,1-1v-7h1.76c1.135-0.002,2.173-0.644,2.68-1.66L43.62,52H61 c1.657-0.013,2.989-1.366,2.977-3.023c-0.01-1.254-0.798-2.369-1.977-2.797V36C63.105,36,64,35.105,64,34z M30,46H4V25 c0-7.18,5.82-13,13-13s13,5.82,13,13V46z M40.66,53.45c-0.169,0.336-0.513,0.549-0.89,0.55H26.24 c-0.377-0.001-0.721-0.214-0.89-0.55L24.62,52h16.76L40.66,53.45z M61,50H3c-0.552,0-1-0.448-1-1s0.448-1,1-1h58 c0.552,0,1,0.448,1,1S61.552,50,61,50z M60,46H32V25c-0.007-5.373-2.887-10.332-7.55-13H47c6.807-0.02,12.476,5.213,13,12H41.64 c-0.729-0.643-1.668-0.999-2.64-1c-2.209,0-4,1.791-4,4s1.791,4,4,4c0.972-0.001,1.911-0.357,2.64-1H57l0.88,4.39 c0.189,0.95,1.031,1.629,2,1.61H60V46z M41,27c0.005,0.353-0.093,0.7-0.28,1c-0.083,0.151-0.187,0.289-0.31,0.41 c-0.78,0.775-2.04,0.775-2.82,0c-0.217-0.226-0.378-0.5-0.47-0.8c-0.044-0.068-0.084-0.138-0.12-0.21 c-0.053-0.261-0.053-0.529,0-0.79c0.02-0.068,0.043-0.135,0.07-0.2c0.093-0.304,0.258-0.582,0.48-0.81c0.78-0.775,2.04-0.775,2.82,0 c0.123,0.121,0.227,0.259,0.31,0.41C40.88,26.302,40.991,26.646,41,27z M60,34h-0.18l-0.88-4.39c-0.184-0.928-0.994-1.6-1.94-1.61 H42.87c0.173-0.655,0.173-1.345,0-2H62v8H60z"/></svg>