<?xml version="1.0" encoding="UTF-8" standalone="no"?>
<!-- Created with Inkscape (http://www.inkscape.org/) -->

<svg
   xmlns:dc="http://purl.org/dc/elements/1.1/"
   xmlns:cc="http://creativecommons.org/ns#"
   xmlns:rdf="http://www.w3.org/1999/02/22-rdf-syntax-ns#"
   xmlns:svg="http://www.w3.org/2000/svg"
   xmlns="http://www.w3.org/2000/svg"
   xmlns:sodipodi="http://sodipodi.sourceforge.net/DTD/sodipodi-0.dtd"
   xmlns:inkscape="http://www.inkscape.org/namespaces/inkscape"
   width="109.81418mm"
   height="47.073181mm"
   viewBox="0 0 389.10536 166.79474"
   id="svg4835"
   version="1.1"
   inkscape:version="0.91 r13725"
   sodipodi:docname="Canopé.svg">
  <defs
     id="defs4837">
    <clipPath
       id="clipPath3534"
       clipPathUnits="userSpaceOnUse">
      <path
         inkscape:connector-curvature="0"
         id="path3536"
         d="m 449.016,131.342 61.123,0 0,25.554 -61.123,0 0,-25.554 z" />
    </clipPath>
    <clipPath
       id="clipPath3546"
       clipPathUnits="userSpaceOnUse">
      <path
         inkscape:connector-curvature="0"
         id="path3548"
         d="m 490.032,156.896 20.17,0 0,-3.147 -20.17,0 0,3.147 z" />
    </clipPath>
    <clipPath
       id="clipPath3550"
       clipPathUnits="userSpaceOnUse">
      <path
         inkscape:connector-curvature="0"
         id="path3552"
         d="m 490.032,153.749 20.17,0 0,3.147 -20.17,0 0,-3.147 z" />
    </clipPath>
  </defs>
  <sodipodi:namedview
     id="base"
     pagecolor="#ffffff"
     bordercolor="#666666"
     borderopacity="1.0"
     inkscape:pageopacity="0.0"
     inkscape:pageshadow="2"
     inkscape:zoom="1.4"
     inkscape:cx="228.12586"
     inkscape:cy="3.2706667"
     inkscape:document-units="px"
     inkscape:current-layer="layer1"
     showgrid="false"
     fit-margin-left="1"
     fit-margin-top="1"
     fit-margin-bottom="1"
     fit-margin-right="1"
     inkscape:window-width="1920"
     inkscape:window-height="1017"
     inkscape:window-x="-8"
     inkscape:window-y="-8"
     inkscape:window-maximized="1" />
  <metadata
     id="metadata4840">
    <rdf:RDF>
      <cc:Work
         rdf:about="">
        <dc:format>image/svg+xml</dc:format>
        <dc:type
           rdf:resource="http://purl.org/dc/dcmitype/StillImage" />
        <dc:title></dc:title>
      </cc:Work>
    </rdf:RDF>
  </metadata>
  <g
     inkscape:label="Calque 1"
     inkscape:groupmode="layer"
     id="layer1"
     transform="translate(-491.16157,-891.82196)">
    <g
       id="g4904"
       transform="matrix(0.5,0,0,0.5,342.85713,487.60967)">
      <g
         style="fill:#306165;fill-opacity:1"
         id="g4786"
         transform="matrix(10,0,0,10,-4111.8233,-6301.8292)">
        <path
           d="m 486.41438,715.66654 2.78125,0 0,-3.9325 -2.78125,0 0,3.9325 z m -3.20625,0 2.7825,0 0,-3.9325 -2.7825,0 0,3.9325 z m -3.20375,0 2.7825,0 0,-3.9325 -2.7825,0 0,3.9325 z m -3.20375,0 2.78125,0 0,-3.9325 -2.78125,0 0,3.9325 z m -3.20375,0 2.78125,0 0,-3.9325 -2.78125,0 0,3.9325 z m -3.205,0 2.7825,0 0,-3.9325 -2.7825,0 0,3.9325 z m -3.20375,0 2.7825,0 0,-3.9325 -2.7825,0 0,3.9325 z m -3.205,0 2.78125,0 0,-3.9325 -2.78125,0 0,3.9325 z m -6.40875,0 2.7825,0 0,-3.9325 -2.7825,0 0,3.9325 z m -3.20375,0 2.78125,0 0,-3.9325 -2.78125,0 0,3.9325 z m -3.205,0 2.7825,0 0,-3.9325 -2.7825,0 0,3.9325 z m -3.20375,0 2.7825,0 0,-3.9325 -2.7825,0 0,3.9325 z m -3.205,0 2.78125,0 0,-3.9325 -2.78125,0 0,3.9325 z m -3.205,0 2.7825,0 0,-3.9325 -2.7825,0 0,3.9325 z"
           style="fill:#306165;fill-opacity:1;fill-rule:nonzero;stroke:none"
           id="path3528"
           inkscape:connector-curvature="0" />
        <g
           style="fill:#306165;fill-opacity:1"
           id="g3530"
           transform="matrix(1.25,0,0,-1.25,-119.71812,907.85404)">
          <g
             style="fill:#306165;fill-opacity:1"
             id="g3532"
             clip-path="url(#clipPath3534)">
            <g
               style="fill:#306165;fill-opacity:1"
               id="g3538"
               transform="translate(508.2948,133.5477)">
              <path
                 d="m 0,0 -1.261,0 0,-2.072 1.261,0 0,0.394 -0.864,0 0,0.456 0.864,0 0,0.393 -0.864,0 0,0.435 0.864,0 L 0,0 Z m -3.069,0 -0.397,0 0,-1.335 c 0,-0.459 0.284,-0.766 0.782,-0.766 0.497,0 0.781,0.307 0.781,0.766 l 0,1.335 -0.397,0 0,-1.335 c 0,-0.24 -0.168,-0.373 -0.384,-0.373 -0.216,0 -0.385,0.133 -0.385,0.373 l 0,1.335 z m -2.176,-0.737 c 0,0.24 0.169,0.373 0.385,0.373 0.216,0 0.385,-0.133 0.385,-0.373 l 0,-0.598 c 0,-0.047 -0.009,-0.092 -0.021,-0.13 l -0.198,0.204 -0.269,-0.263 0.174,-0.178 c -0.023,-0.006 -0.047,-0.006 -0.071,-0.006 -0.216,0 -0.385,0.133 -0.385,0.373 l 0,0.598 z m -0.396,0 0,-0.598 c 0,-0.459 0.284,-0.766 0.781,-0.766 0.145,0 0.276,0.026 0.382,0.077 l 0.175,-0.181 0.269,0.263 -0.16,0.163 c 0.077,0.122 0.116,0.272 0.116,0.444 l 0,0.598 c 0,0.459 -0.284,0.766 -0.782,0.766 -0.497,0 -0.781,-0.307 -0.781,-0.766 M -6.248,0 l -0.397,0 0,-2.072 0.397,0 0,2.072 z m -4.27,-0.737 c 0,0.24 0.168,0.373 0.385,0.373 0.216,0 0.384,-0.133 0.384,-0.373 l 0,-0.598 c 0,-0.24 -0.168,-0.373 -0.384,-0.373 -0.217,0 -0.385,0.133 -0.385,0.373 l 0,0.598 z m -0.397,0 0,-0.598 c 0,-0.459 0.284,-0.766 0.782,-0.766 0.497,0 0.781,0.307 0.781,0.766 l 0,0.598 c 0,0.459 -0.284,0.766 -0.781,0.766 -0.498,0 -0.782,-0.307 -0.782,-0.766 m -2.101,0 0,-0.598 c 0,-0.459 0.284,-0.766 0.781,-0.766 0.497,0 0.781,0.307 0.781,0.766 l 0,0.447 -0.781,0 0,-0.394 0.385,0 0,-0.053 c 0,-0.24 -0.169,-0.373 -0.385,-0.373 -0.216,0 -0.385,0.133 -0.385,0.373 l 0,0.598 c 0,0.24 0.169,0.373 0.385,0.373 0.19,0 0.344,-0.104 0.379,-0.29 l 0.4,0 c -0.033,0.411 -0.311,0.683 -0.779,0.683 -0.497,0 -0.781,-0.307 -0.781,-0.766 m -1.545,-0.542 0.231,0.672 0.231,-0.672 -0.462,0 z M -14.52,0 l -0.739,-2.072 0.414,0 0.148,0.417 0.734,0 0.148,-0.417 0.414,0 -0.74,2.072 -0.379,0 z m -2.29,-0.394 0.384,0 c 0.216,0 0.385,-0.133 0.385,-0.373 l 0,-0.538 c 0,-0.24 -0.169,-0.373 -0.385,-0.373 l -0.384,0 0,1.284 z m 0.384,0.394 -0.781,0 0,-2.072 0.781,0 c 0.498,0 0.782,0.308 0.782,0.767 l 0,0.538 c 0,0.459 -0.284,0.767 -0.782,0.767 m -1.402,0 -1.261,0 0,-2.072 1.261,0 0,0.394 -0.865,0 0,0.456 0.865,0 0,0.393 -0.865,0 0,0.435 0.865,0 0,0.394 z m -2.945,-0.394 0.45,0 c 0.219,0 0.319,-0.162 0.319,-0.322 0,-0.16 -0.1,-0.326 -0.319,-0.326 l -0.45,0 0,0.648 z m 0.45,0.394 -0.847,0 0,-2.072 0.397,0 0,0.637 0.45,0 c 0.491,0 0.716,0.343 0.716,0.719 0,0.378 -0.225,0.716 -0.716,0.716 m -2.989,2.921 0.769,-1.335 0.397,0 0,2.072 -0.397,0 0,-1.335 -0.769,1.335 -0.397,0 0,-2.072 0.397,0 0,1.335 z M -22.549,0 l -1.562,0 0,-0.394 0.577,0 0,-1.678 0.408,0 0,1.678 0.577,0 0,0.394 z m -2.548,1.95 c -0.216,0 -0.385,0.133 -0.385,0.373 l 0,0.598 c 0,0.24 0.169,0.373 0.385,0.373 0.216,0 0.385,-0.133 0.385,-0.373 l 0,-0.598 c 0,-0.24 -0.169,-0.373 -0.385,-0.373 m 0,-0.394 c 0.497,0 0.781,0.308 0.781,0.767 l 0,0.598 c 0,0.459 -0.284,0.766 -0.781,0.766 -0.497,0 -0.781,-0.307 -0.781,-0.766 l 0,-0.598 c 0,-0.459 0.284,-0.767 0.781,-0.767 M -25.751,0 l -0.396,0 0,-2.072 0.396,0 0,1.335 0.769,-1.335 0.397,0 0,2.072 -0.397,0 0,-1.335 L -25.751,0 Z m -1.018,0 -1.261,0 0,-2.072 1.261,0 0,0.394 -0.864,0 0,0.456 0.864,0 0,0.393 -0.864,0 0,0.435 0.864,0 0,0.394 z m -0.113,1.586 0.397,0 0,2.072 -0.397,0 0,-2.072 z m -2.036,1.678 0.577,0 0,-1.678 0.409,0 0,1.678 0.577,0 0,0.394 -1.563,0 0,-0.394 z M -30.119,0 l -0.397,0 0,-2.072 0.394,0 0,1.302 0.358,-0.745 0.314,0 0.358,0.745 0,-1.302 0.393,0 0,2.072 -0.396,0 -0.512,-1.065 L -30.119,0 Z m -0.101,2.379 0.231,0.672 0.231,-0.672 -0.462,0 z m 0.041,1.279 -0.739,-2.072 0.414,0 0.148,0.418 0.734,0 0.148,-0.418 0.414,0 -0.74,2.072 -0.379,0 z M -31.137,0 l -1.261,0 0,-2.072 1.261,0 0,0.394 -0.864,0 0,0.456 0.864,0 0,0.393 -0.864,0 0,0.435 0.864,0 0,0.394 z m -0.208,3.658 -1.26,0 0,-2.072 1.26,0 0,0.394 -0.864,0 0,0.456 0.864,0 0,0.393 -0.864,0 0,0.435 0.864,0 0,0.394 z m -0.876,0.133 0.359,0 0.378,0.322 -0.515,0 -0.222,-0.322 z M -34.233,0 l -0.397,0 0,-2.072 0.397,0 0,1.335 0.769,-1.335 0.397,0 0,2.072 -0.397,0 0,-1.335 L -34.233,0 Z m -0.089,3.264 0.485,0 c 0.152,0 0.249,-0.077 0.249,-0.222 0,-0.142 -0.097,-0.219 -0.249,-0.219 l -0.485,0 0,0.441 z m 0.477,0.394 -0.873,0 0,-2.072 0.396,0 0,0.852 0.243,0 0.5,-0.852 0.456,0 -0.515,0.873 c 0.29,0.068 0.447,0.281 0.447,0.589 0,0.373 -0.234,0.61 -0.654,0.61 m -2.948,-4.395 0,-0.598 c 0,-0.459 0.284,-0.766 0.781,-0.766 0.498,0 0.782,0.307 0.782,0.766 l 0,0.447 -0.782,0 0,-0.394 0.385,0 0,-0.053 c 0,-0.24 -0.169,-0.373 -0.385,-0.373 -0.216,0 -0.384,0.133 -0.384,0.373 l 0,0.598 c 0,0.24 0.168,0.373 0.384,0.373 0.19,0 0.344,-0.104 0.379,-0.29 l 0.4,0 c -0.033,0.411 -0.311,0.683 -0.779,0.683 -0.497,0 -0.781,-0.307 -0.781,-0.766 m -0.065,3.658 0,-0.598 c 0,-0.459 0.284,-0.767 0.781,-0.767 0.483,0 0.764,0.288 0.781,0.723 l -0.399,0 c -0.021,-0.214 -0.181,-0.329 -0.382,-0.329 -0.216,0 -0.384,0.133 -0.384,0.373 l 0,0.598 c 0,0.24 0.168,0.373 0.384,0.373 0.201,0 0.361,-0.119 0.382,-0.329 l 0.399,0 c -0.017,0.435 -0.298,0.722 -0.781,0.722 -0.497,0 -0.781,-0.307 -0.781,-0.766 m -1.48,-4.2 0.231,0.672 0.231,-0.672 -0.462,0 z m 0.042,1.279 -0.74,-2.072 0.414,0 0.148,0.417 0.734,0 0.148,-0.417 0.414,0 -0.74,2.072 -0.378,0 z m -0.891,1.98 0,0.456 0.864,0 0,0.393 -0.864,0 0,0.435 0.864,0 0,0.394 -1.261,0 0,-2.072 1.261,0 0,0.394 -0.864,0 z m -1.19,-2.374 0.45,0 c 0.219,0 0.32,-0.162 0.32,-0.322 0,-0.16 -0.101,-0.326 -0.32,-0.326 l -0.45,0 0,0.648 z m 0.45,0.394 -0.847,0 0,-2.072 0.397,0 0,0.637 0.45,0 c 0.491,0 0.716,0.343 0.716,0.719 0,0.378 -0.225,0.716 -0.716,0.716 m -1.43,3.264 0.385,0 c 0.216,0 0.385,-0.133 0.385,-0.373 l 0,-0.538 c 0,-0.24 -0.169,-0.373 -0.385,-0.373 l -0.385,0 0,1.284 z m -0.396,-1.678 0.781,0 c 0.497,0 0.781,0.308 0.781,0.767 l 0,0.538 c 0,0.459 -0.284,0.767 -0.781,0.767 l -0.781,0 0,-2.072 z M -42.863,0 l -0.397,0 0,-2.072 0.394,0 0,1.302 0.358,-0.745 0.314,0 0.358,0.745 0,-1.302 0.394,0 0,2.072 -0.397,0 -0.512,-1.065 L -42.863,0 Z m -1.219,1.556 c 0.497,0 0.781,0.308 0.781,0.767 l 0,1.335 -0.396,0 0,-1.335 c 0,-0.24 -0.169,-0.373 -0.385,-0.373 -0.216,0 -0.385,0.133 -0.385,0.373 l 0,1.335 -0.397,0 0,-1.335 c 0,-0.459 0.285,-0.767 0.782,-0.767 m -0.95,-2.293 c 0,0.24 0.168,0.373 0.384,0.373 0.217,0 0.385,-0.133 0.385,-0.373 l 0,-0.598 c 0,-0.24 -0.168,-0.373 -0.385,-0.373 -0.216,0 -0.384,0.133 -0.384,0.373 l 0,0.598 z m -0.397,0 0,-0.598 c 0,-0.459 0.284,-0.766 0.781,-0.766 0.498,0 0.782,0.307 0.782,0.766 l 0,0.598 c 0,0.459 -0.284,0.766 -0.782,0.766 -0.497,0 -0.781,-0.307 -0.781,-0.766 m -1.015,3.116 0.231,0.672 0.231,-0.672 -0.462,0 z m -0.136,-0.375 0.734,0 0.148,-0.418 0.414,0 -0.74,2.072 -0.379,0 -0.739,-2.072 0.414,0 0.148,0.418 z m -0.926,-2.741 0,-0.598 c 0,-0.459 0.284,-0.766 0.781,-0.766 0.482,0 0.763,0.287 0.781,0.722 l -0.399,0 c -0.021,-0.213 -0.181,-0.329 -0.382,-0.329 -0.216,0 -0.385,0.133 -0.385,0.373 l 0,0.598 c 0,0.24 0.169,0.373 0.385,0.373 0.201,0 0.361,-0.118 0.382,-0.329 l 0.399,0 c -0.018,0.435 -0.299,0.722 -0.781,0.722 -0.497,0 -0.781,-0.307 -0.781,-0.766 m -0.927,2.717 0,0.456 0.864,0 0,0.393 -0.864,0 0,0.435 0.864,0 0,0.394 -1.26,0 0,-2.072 1.26,0 0,0.394 -0.864,0 z m -2.696,-3.259 0.231,0.672 0.231,-0.672 -0.462,0 z m 0.042,1.279 -0.74,-2.072 0.414,0 0.148,0.417 0.734,0 0.148,-0.417 0.414,0 -0.74,2.072 -0.378,0 z m -0.933,0 -0.473,0 0,-0.474 0.195,0 -0.127,-0.337 0.278,0 0.127,0.337 0,0.474 z m 0.684,3.658 -1.261,0 0,-2.072 1.261,0 0,0.394 -0.864,0 0,0.456 0.864,0 0,0.393 -0.864,0 0,0.435 0.864,0 0,0.394 z m -0.876,0.133 0.358,0 0.379,0.322 -0.515,0 -0.222,-0.322 z m -1.998,-4.185 0.385,0 c 0.216,0 0.385,-0.133 0.385,-0.373 l 0,-0.538 c 0,-0.24 -0.169,-0.373 -0.385,-0.373 l -0.385,0 0,1.284 z m 0.385,0.394 -0.781,0 0,-2.072 0.781,0 c 0.497,0 0.781,0.308 0.781,0.767 l 0,0.538 c 0,0.459 -0.284,0.767 -0.781,0.767 m -0.488,3.264 0.485,0 c 0.151,0 0.249,-0.077 0.249,-0.222 0,-0.142 -0.098,-0.219 -0.249,-0.219 l -0.485,0 0,0.441 z m 0.476,0.394 -0.873,0 0,-2.072 0.397,0 0,0.852 0.242,0 0.501,-0.852 0.455,0 -0.515,0.873 c 0.29,0.068 0.447,0.281 0.447,0.589 0,0.373 -0.234,0.61 -0.654,0.61 M -55.985,0 l -1.563,0 0,-0.394 0.577,0 0,-1.678 0.408,0 0,1.678 0.578,0 0,0.394 z m -1.116,1.98 0,0.456 0.864,0 0,0.393 -0.864,0 0,0.435 0.864,0 0,0.394 -1.261,0 0,-2.072 1.261,0 0,0.394 -0.864,0 z M -57.974,0 l -1.261,0 0,-2.072 1.261,0 0,0.394 -0.865,0 0,0.456 0.865,0 0,0.393 -0.865,0 0,0.435 0.865,0 0,0.394 z m -0.865,3.658 -0.396,0 0,-2.072 1.261,0 0,0.394 -0.865,0 0,1.678 z m -0.439,2.22 9.887,0 0,13.981 -9.887,0 0,-13.981 z m 9.892,-3.721 c 0,0.35 -0.171,0.545 -0.491,0.631 l -0.337,0.091 c -0.113,0.03 -0.208,0.083 -0.208,0.205 0,0.145 0.119,0.21 0.284,0.21 0.134,0 0.279,-0.062 0.314,-0.201 l 0.409,0 c -0.045,0.352 -0.302,0.594 -0.717,0.594 -0.361,0 -0.686,-0.189 -0.686,-0.603 0,-0.305 0.157,-0.527 0.473,-0.613 l 0.35,-0.095 c 0.145,-0.038 0.213,-0.103 0.213,-0.219 0,-0.142 -0.122,-0.207 -0.296,-0.207 -0.199,0 -0.335,0.115 -0.358,0.29 l -0.409,0 c 0.021,-0.411 0.314,-0.684 0.767,-0.684 0.45,0 0.692,0.228 0.692,0.601 m 0.583,-2.128 c -0.497,0 -0.781,-0.307 -0.781,-0.766 l 0,-0.598 c 0,-0.459 0.284,-0.766 0.781,-0.766 0.483,0 0.764,0.287 0.782,0.722 l -0.4,0 c -0.021,-0.213 -0.181,-0.329 -0.382,-0.329 -0.216,0 -0.384,0.133 -0.384,0.373 l 0,0.598 c 0,0.24 0.168,0.373 0.384,0.373 0.201,0 0.361,-0.118 0.382,-0.329 l 0.4,0 c -0.018,0.435 -0.299,0.722 -0.782,0.722 m -0.215,5.849 9.887,0 0,13.981 -9.887,0 0,-13.981 z m 10.259,0 9.887,0 0,13.981 -9.887,0 0,-13.981 z m 10.26,0 9.887,0 0,13.981 -9.887,0 0,-13.981 z m 10.532,-5.422 -0.515,0 -0.222,-0.323 0.358,0 0.379,0.323 z m -0.272,5.422 9.887,0 0,13.981 -9.887,0 0,-13.981 z M -8.026,0.029 c -0.498,0 -0.782,-0.307 -0.782,-0.766 l 0,-0.598 c 0,-0.459 0.284,-0.766 0.782,-0.766 0.497,0 0.781,0.307 0.781,0.766 l 0,0.447 -0.781,0 0,-0.394 0.384,0 0,-0.053 c 0,-0.24 -0.168,-0.373 -0.384,-0.373 -0.216,0 -0.385,0.133 -0.385,0.373 l 0,0.598 c 0,0.24 0.169,0.373 0.385,0.373 0.189,0 0.343,-0.104 0.379,-0.29 l 0.399,0 c -0.033,0.411 -0.311,0.683 -0.778,0.683 m 0.047,5.849 9.887,0 0,13.981 -9.887,0 0,-13.981 z m 9.491,-6.443 0.409,0 c -0.045,0.352 -0.302,0.594 -0.717,0.594 -0.361,0 -0.686,-0.189 -0.686,-0.603 0,-0.305 0.157,-0.527 0.473,-0.613 L 1.34,-1.282 c 0.146,-0.038 0.214,-0.103 0.214,-0.219 0,-0.142 -0.122,-0.207 -0.296,-0.207 -0.199,0 -0.335,0.116 -0.358,0.29 l -0.409,0 c 0.021,-0.411 0.314,-0.683 0.767,-0.683 0.449,0 0.692,0.227 0.692,0.6 0,0.35 -0.171,0.545 -0.491,0.631 l -0.337,0.092 c -0.113,0.029 -0.208,0.083 -0.208,0.204 0,0.145 0.119,0.21 0.285,0.21 0.133,0 0.278,-0.062 0.313,-0.201"
                 style="fill:#306165;fill-opacity:1;fill-rule:nonzero;stroke:none"
                 id="path3540"
                 inkscape:connector-curvature="0" />
            </g>
            <g
               style="fill:#306165;fill-opacity:1"
               id="g3542">
              <g
                 style="fill:#306165;fill-opacity:1"
                 id="g3544" />
              <g
                 style="fill:#306165;fill-opacity:1"
                 id="g3554">
                <g
                   clip-path="url(#clipPath3546)"
                   id="g3556"
                   style="opacity:0.5;fill:#306165;fill-opacity:1">
                  <g
                     style="fill:#306165;fill-opacity:1"
                     id="g3558">
                    <g
                       style="fill:#306165;fill-opacity:1"
                       clip-path="url(#clipPath3550)"
                       id="g3560">
                      <path
                         d="m 507.639,153.749 -2.225,0 0,3.147 2.225,0 0,-3.147 z m -2.564,0 -2.225,0 0,3.147 2.225,0 0,-3.147 z m -2.563,0 -2.225,0 0,3.147 2.225,0 0,-3.147 z m -2.564,0 -2.225,0 0,3.147 2.225,0 0,-3.147 z m -2.563,0 -2.225,0 0,3.147 2.225,0 0,-3.147 z m -2.564,0 -2.225,0 0,3.147 2.225,0 0,-3.147 z m -2.563,0 -2.225,0 0,3.147 2.225,0 0,-3.147 z m 17.944,0 -2.225,0 0,3.147 2.225,0 0,-3.147 z"
                         style="fill:#306165;fill-opacity:1;fill-rule:nonzero;stroke:none"
                         id="path3562"
                         inkscape:connector-curvature="0" />
                    </g>
                  </g>
                </g>
              </g>
            </g>
            <path
               d="m 489.694,156.896 -2.225,0 0,-3.147 2.225,0 0,3.147 z"
               style="fill:#306165;fill-opacity:1;fill-rule:nonzero;stroke:none"
               id="path3564"
               inkscape:connector-curvature="0" />
            <path
               d="m 464.398,153.749 2.225,0 0,3.147 -2.225,0 0,-3.147 z"
               style="fill:#306165;fill-opacity:1;fill-rule:nonzero;stroke:none"
               id="path3566"
               inkscape:connector-curvature="0" />
            <g
               style="fill:#306165;fill-opacity:1"
               id="g3568"
               transform="translate(450.2871,155.5274)">
              <path
                 d="m 0,0 -0.371,0 0,0.337 0.371,0 c 0.115,0 0.19,-0.059 0.19,-0.17 C 0.19,0.059 0.115,0 0,0 m 0.545,-0.945 -0.393,0.667 c 0.221,0.052 0.341,0.215 0.341,0.45 0,0.285 -0.179,0.466 -0.5,0.466 l -0.667,0 0,-1.583 0.303,0 0,0.651 0.186,0 0.382,-0.651 0.348,0 z m 1.438,0 0.963,0 0,0.301 -0.66,0 0,0.348 0.502,0 0,0.3 -0.502,0 0,0.333 0.66,0 0,0.301 -0.963,0 0,-1.583 z m 2.769,1.144 c 0,0.111 0.09,0.16 0.206,0.16 0.102,0 0.197,-0.052 0.226,-0.153 l 0.337,0 C 5.487,0.475 5.29,0.66 4.974,0.66 4.698,0.66 4.449,0.515 4.449,0.199 c 0,-0.233 0.12,-0.402 0.362,-0.468 l 0.267,-0.072 c 0.111,-0.03 0.162,-0.08 0.162,-0.168 0,-0.108 -0.092,-0.158 -0.226,-0.158 -0.151,0 -0.255,0.088 -0.273,0.222 l -0.312,0 c 0.016,-0.315 0.24,-0.523 0.585,-0.523 0.344,0 0.529,0.174 0.529,0.459 0,0.267 -0.131,0.416 -0.375,0.482 L 4.91,0.043 C 4.824,0.066 4.752,0.106 4.752,0.199 m -2.505,-10.329 0,2.256 c 0,0.979 0.738,1.408 1.437,1.408 0.649,0 1.338,-0.369 1.428,-1.208 l 1.068,0 c -0.08,1.398 -1.068,2.266 -2.496,2.266 -1.497,0 -2.506,-0.958 -2.506,-2.466 l 0,-2.256 c 0,-1.508 1.009,-2.466 2.506,-2.466 1.428,0 2.406,0.879 2.496,2.266 l -1.068,0 c -0.09,-0.838 -0.779,-1.208 -1.428,-1.208 -0.699,0 -1.437,0.43 -1.437,1.408 m 4.859,9.185 0.963,0 0,0.301 -0.66,0 0,0.348 0.501,0 0,0.3 -0.501,0 0,0.333 0.66,0 0,0.301 -0.963,0 0,-1.583 z m 3.194,0.606 -0.353,0 0.177,0.513 0.176,-0.513 z m 0.217,-0.606 0.317,0 -0.566,1.583 -0.289,0 -0.565,-1.583 0.316,0 0.113,0.319 0.561,0 0.113,-0.319 z m 2.765,0.563 0,1.02 -0.303,0 0,-1.02 c 0,-0.183 -0.129,-0.285 -0.294,-0.285 -0.165,0 -0.294,0.102 -0.294,0.285 l 0,1.02 -0.303,0 0,-1.02 c 0,-0.351 0.217,-0.586 0.597,-0.586 0.38,0 0.597,0.235 0.597,0.586 m 1.637,-0.044 0.656,0 0,0.258 -0.656,0 0,-0.258 z m -0.042,-9.394 -1.937,0 0.969,2.775 0.968,-2.775 z m 0.929,-2.676 1.098,0 -2.446,6.989 -1.098,0 -2.446,-6.989 1.098,0 0.589,1.687 2.616,0 0.589,-1.687 z m 1.719,12.114 0,0.457 c 0,0.183 0.129,0.284 0.294,0.284 0.154,0 0.276,-0.09 0.292,-0.251 l 0.305,0 C 18.403,0.441 18.188,0.66 17.819,0.66 17.44,0.66 17.222,0.425 17.222,0.075 l 0,-0.457 c 0,-0.351 0.218,-0.586 0.597,-0.586 0.369,0 0.584,0.22 0.597,0.552 l -0.305,0 c -0.016,-0.163 -0.138,-0.251 -0.292,-0.251 -0.165,0 -0.294,0.102 -0.294,0.285 m 3.021,0.043 -0.353,0 0.176,0.513 0.177,-0.513 z m 0.217,-0.606 0.316,0 -0.565,1.583 -0.289,0 -0.565,-1.583 0.316,0 0.113,0.319 0.561,0 0.113,-0.319 z m 2.462,0 0.303,0 0,1.583 -0.303,0 0,-1.02 -0.588,1.02 -0.303,0 0,-1.583 0.303,0 0,1.02 0.588,-1.02 z m 2.561,0.563 c 0,-0.183 -0.129,-0.285 -0.294,-0.285 -0.165,0 -0.294,0.102 -0.294,0.285 l 0,0.457 c 0,0.183 0.129,0.284 0.294,0.284 0.165,0 0.294,-0.101 0.294,-0.284 l 0,-0.457 z m 0.303,0 0,0.457 c 0,0.35 -0.217,0.585 -0.597,0.585 -0.38,0 -0.596,-0.235 -0.596,-0.585 l 0,-0.457 c 0,-0.351 0.216,-0.586 0.596,-0.586 0.38,0 0.597,0.235 0.597,0.586 m -0.478,-12.114 1.068,0 0,6.989 -1.068,0 0,-5.012 -2.876,5.012 -1.068,0 0,-6.989 1.068,0 0,5.012 2.876,-5.012 z M 28.402,0.09 c 0,-0.122 -0.077,-0.248 -0.244,-0.248 l -0.344,0 0,0.495 0.344,0 c 0.167,0 0.244,-0.125 0.244,-0.247 m 0.303,0 c 0,0.29 -0.172,0.548 -0.547,0.548 l -0.647,0 0,-1.583 0.303,0 0,0.486 0.344,0 c 0.375,0 0.547,0.262 0.547,0.549 m 1.453,-1.035 0.964,0 0,0.301 -0.661,0 0,0.348 0.502,0 0,0.3 -0.502,0 0,0.333 0.661,0 0,0.301 -0.964,0 0,-1.583 z m 2.838,0 0.362,0 0,0.362 -0.362,0 0,-0.362 z m 2.629,1.282 0.66,0 0,0.301 -0.963,0 0,-1.583 0.303,0 0,0.649 0.502,0 0,0.3 -0.502,0 0,0.333 z m 0.25,-10.467 c 0,-0.978 -0.739,-1.408 -1.438,-1.408 -0.698,0 -1.437,0.43 -1.437,1.408 l 0,2.256 c 0,0.979 0.739,1.408 1.437,1.408 0.699,0 1.438,-0.429 1.438,-1.408 l 0,-2.256 z m 1.068,0 0,2.256 c 0,1.508 -1.008,2.466 -2.506,2.466 -1.497,0 -2.506,-0.958 -2.506,-2.466 l 0,-2.256 c 0,-1.508 1.009,-2.466 2.506,-2.466 1.498,0 2.506,0.958 2.506,2.466 M 38.422,0 l -0.371,0 0,0.337 0.371,0 c 0.115,0 0.19,-0.059 0.19,-0.17 C 38.612,0.059 38.537,0 38.422,0 m 0.544,-0.945 -0.393,0.667 c 0.222,0.052 0.341,0.215 0.341,0.45 0,0.285 -0.178,0.466 -0.499,0.466 l -0.667,0 0,-1.583 0.303,0 0,0.651 0.185,0 0.382,-0.651 0.348,0 z m 7.393,-6.839 c 0,-0.669 -0.369,-1.238 -1.268,-1.238 l -1.587,0 0,2.476 1.587,0 c 0.899,0 1.268,-0.569 1.268,-1.238 m 1.088,-0.01 c 0,1.238 -0.738,2.287 -2.356,2.287 l -2.656,0 0,-6.989 1.069,0 0,2.416 1.587,0 c 1.618,0 2.356,1.048 2.356,2.286 m 7.968,3.8 1.229,1.296 -1.679,0 -0.495,-1.296 0.945,0 z m -0.842,-3.584 2.031,0 0,1.018 -3.265,0 0,-4.721 3.264,0 0,1.017 -2.03,0 -0.054,0 0,0.054 0,0.726 0,0.054 0.054,0 1.895,0 0,1.017 -1.895,0 -0.054,0 0,0.055 0,0.726 0,0.054 0.054,0 z m 3.946,-1.429 c 0,-1.955 -1.591,-3.547 -3.548,-3.547 -1.956,0 -3.547,1.592 -3.547,3.547 0,1.956 1.591,3.548 3.547,3.548 1.957,0 3.548,-1.592 3.548,-3.548 m 0.907,0 c 0,2.456 -1.998,4.455 -4.455,4.455 -2.456,0 -4.454,-1.999 -4.454,-4.455 0,-2.456 1.998,-4.454 4.454,-4.454 2.457,0 4.455,1.998 4.455,4.454"
                 style="fill:#ffffff;fill-opacity:1;fill-rule:nonzero;stroke:none"
                 id="path3570"
                 inkscape:connector-curvature="0" />
            </g>
          </g>
        </g>
      </g>
    </g>
  </g>
</svg>
