<?xml version="1.0" encoding="UTF-8" standalone="no"?>
<svg
   version="1.1"
   viewBox="0 0 2168.3601 620"
   id="svg302"
   sodipodi:docname="canope.svg"
   width="2168.3601"
   height="620"
   inkscape:version="1.2.2 (732a01da63, 2022-12-09)"
   xmlns:inkscape="http://www.inkscape.org/namespaces/inkscape"
   xmlns:sodipodi="http://sodipodi.sourceforge.net/DTD/sodipodi-0.dtd"
   xmlns="http://www.w3.org/2000/svg"
   xmlns:svg="http://www.w3.org/2000/svg">
  <defs
     id="defs306" />
  <sodipodi:namedview
     id="namedview304"
     pagecolor="#ffffff"
     bordercolor="#000000"
     borderopacity="0.25"
     inkscape:showpageshadow="2"
     inkscape:pageopacity="0.0"
     inkscape:pagecheckerboard="0"
     inkscape:deskcolor="#d1d1d1"
     showgrid="false"
     inkscape:zoom="0.38749964"
     inkscape:cx="796.12977"
     inkscape:cy="343.22613"
     inkscape:window-width="1920"
     inkscape:window-height="1017"
     inkscape:window-x="3832"
     inkscape:window-y="-8"
     inkscape:window-maximized="1"
     inkscape:current-layer="svg302" />
  <g
     stroke-width="2"
     fill="none"
     stroke-linecap="butt"
     id="g70"
     transform="translate(-20.14,-20.01)">
    <path
       stroke="#98b0b2"
       vector-effect="non-scaling-stroke"
       d="M 71.24,78.6 C 81.36,75.28 85.1,64.52 81.18,55.21 78.51,48.87 72.83,46.56 66.05,46.25 Q 53.9,45.7 42.17,46.08 A 0.92,0.91 89 0 0 41.29,47 l 0.01,54.56 a 0.69,0.45 -90 0 0 0.45,0.69 H 51.5 A 0.75,0.5 -90 0 0 52,101.5 V 80 a 0.94,0.44 90 0 1 0.44,-0.94 l 5.81,-0.08 a 1.25,0.45 63.4 0 1 0.79,0.75 l 12.84,21.87 a 1.09,0.39 63.1 0 0 0.68,0.64 l 11.19,0.02 q 0.83,0 0.42,-0.69 L 70.98,79.26 a 0.46,0.45 -24.4 0 1 0.26,-0.66"
       id="path2" />
    <path
       stroke="#98b0b2"
       vector-effect="non-scaling-stroke"
       d="M 146.25,68 V 57.5 A 0.75,0.75 0 0 1 147,56.75 h 22 a 0.75,0.5 0 0 0 0.75,-0.5 v -9.5 A 0.77,0.57 1 0 0 169,46.17 q -16.5,-0.46 -33,0.16 A 0.68,0.52 89.1 0 0 135.5,47 v 54.75 a 0.5,0.5 0 0 0 0.5,0.5 h 33 a 0.62,0.51 0.5 0 0 0.62,-0.5 L 169.8,92 A 0.8,0.49 0.3 0 0 169,91.5 H 147 A 0.75,0.5 0 0 1 146.25,91 V 79.75 a 0.75,0.5 0 0 1 0.75,-0.5 h 16.25 a 0.7,0.51 0.4 0 0 0.7,-0.5 L 164.12,69 a 0.62,0.49 0.4 0 0 -0.62,-0.5 h -16.75 a 0.5,0.5 0 0 1 -0.5,-0.5"
       id="path4" />
    <path
       stroke="#98b0b2"
       vector-effect="non-scaling-stroke"
       d="m 250.87,85.58 c 1.79,8.96 -14.79,9.23 -17.41,-0.47 A 0.82,0.71 81.6 0 0 232.75,84.5 H 223 a 0.65,0.57 86.8 0 0 -0.56,0.71 c 2.63,24.43 42.23,23.93 39.22,-1.26 -1.52,-12.7 -12.68,-14.27 -22.67,-16.92 -6.32,-1.67 -7.4,-9.22 -0.49,-10.79 q 7.14,-1.62 10.5,4.55 a 0.88,0.84 75 0 0 0.75,0.46 h 10.75 a 0.48,0.4 84.1 0 0 0.38,-0.56 c -4.15,-22.53 -41.01,-19.95 -37.39,4.13 2.69,17.97 25.54,11.54 27.38,20.76"
       id="path6" />
    <path
       stroke="#98b0b2"
       vector-effect="non-scaling-stroke"
       d="m 351.5,56.2 a 0.55,0.55 -89.8 0 1 -0.55,0.55 h -22.4 A 0.55,0.55 -0.3 0 0 328,57.3 v 10.65 a 0.55,0.55 0.2 0 0 0.55,0.55 h 16.65 a 0.55,0.55 -0.8 0 1 0.55,0.55 v 9.65 a 0.55,0.55 0.8 0 1 -0.55,0.55 H 328.55 A 0.55,0.55 -0.2 0 0 328,79.8 v 11.15 a 0.55,0.55 89.9 0 0 0.55,0.55 h 22.4 a 0.55,0.55 -89.9 0 1 0.55,0.55 v 9.65 a 0.55,0.55 0.8 0 1 -0.55,0.55 H 317.8 a 0.55,0.55 -0.8 0 1 -0.55,-0.55 V 46.55 A 0.55,0.55 -0.3 0 1 317.8,46 h 33.15 a 0.55,0.55 0.3 0 1 0.55,0.55 v 9.65"
       id="path8" />
    <path
       stroke="#98b0b2"
       vector-effect="non-scaling-stroke"
       d="m 438.61,102.25 a 0.32,0.32 80.3 0 1 -0.3,-0.21 L 434.3,90.96 A 0.32,0.32 79.6 0 0 434,90.75 h -19.32 a 0.32,0.32 9.9 0 0 -0.31,0.21 l -3.92,11.06 a 0.32,0.32 -80.5 0 1 -0.31,0.21 l -10.5,0.03 a 0.32,0.32 -79.7 0 1 -0.31,-0.43 l 19.86,-55.65 a 0.32,0.32 -79.4 0 1 0.31,-0.22 l 9.73,0.13 a 0.32,0.32 80.5 0 1 0.29,0.21 l 19.87,55.52 a 0.32,0.32 -10 0 1 -0.3,0.43 h -10.48"
       id="path10" />
    <path
       stroke="#98b0b2"
       vector-effect="non-scaling-stroke"
       d="m 495.87,91.6 c 8.06,18.35 40.33,14.18 40.27,-8.11 -0.03,-12.3 -0.02,-24.67 0.07,-36.96 A 0.53,0.46 90 0 0 535.75,46 h -9.5 a 0.73,0.59 89.5 0 0 -0.59,0.74 q 0.36,17.5 -0.16,35.01 c -0.44,14.8 -21.08,14.01 -20.91,-1.26 q 0.19,-16.88 0.11,-33.82 a 0.69,0.45 90 0 0 -0.45,-0.69 l -9.81,0.06 a 0.74,0.37 -89.4 0 0 -0.38,0.73 q -0.22,16.45 0.05,32.87 0.14,8.28 1.76,11.96"
       id="path12" />
    <path
       stroke="#98b0b2"
       vector-effect="non-scaling-stroke"
       d="m 617.76,75.01 a 0.26,0.26 0 0 0 -0.26,-0.26 h -22.74 a 0.26,0.26 0 0 0 -0.26,0.26 v 8.48 a 0.26,0.26 0 0 0 0.26,0.26 h 22.74 a 0.26,0.26 0 0 0 0.26,-0.26 v -8.48"
       id="path14" />
    <path
       stroke="#98b0b2"
       vector-effect="non-scaling-stroke"
       d="m 676.27,68.47 c -0.51,11.43 -1.68,25.69 9.51,31.74 13.54,7.33 31.83,0.67 32.63,-16.16 A 0.53,0.42 -88.7 0 0 718,83.5 h -9.75 a 0.8,0.62 -82.1 0 0 -0.64,0.63 c -2,9.24 -14.85,11.17 -19.21,3.53 -2.51,-4.4 -1.39,-14.45 -1.4,-19.95 0,-8.99 6.13,-14.27 15.01,-10.67 q 3.54,1.44 6.14,7.68 a 0.18,0.16 -9.7 0 0 0.16,0.1 l 9.69,-0.1 a 0.47,0.41 88.1 0 0 0.41,-0.5 c -0.74,-11.14 -7.88,-17.94 -18.61,-18.81 -8.15,-0.65 -16.86,2.01 -20.85,9.38 q -2.26,4.16 -2.68,13.68"
       id="path16" />
    <path
       stroke="#98b0b2"
       vector-effect="non-scaling-stroke"
       d="m 763.27,102.25 a 0.41,0.41 9.9 0 1 -0.38,-0.55 l 19.78,-55.45 a 0.41,0.41 -81.7 0 1 0.39,-0.27 l 9.56,0.06 a 0.41,0.41 -9.8 0 1 0.39,0.27 l 19.8,55.39 a 0.41,0.41 65.8 0 1 -0.38,0.55 h -10.28 a 0.41,0.41 80.2 0 1 -0.39,-0.27 L 797.8,91.02 a 0.41,0.41 80.2 0 0 -0.39,-0.27 h -19.19 a 0.41,0.41 -80.2 0 0 -0.39,0.27 l -3.96,10.96 a 0.41,0.41 -80.2 0 1 -0.39,0.27 h -10.21"
       id="path18" />
    <path
       stroke="#98b0b2"
       vector-effect="non-scaling-stroke"
       d="m 868.81,66.95 a 0.3,0.3 -56.6 0 0 -0.56,0.15 v 34.85 a 0.3,0.3 -90 0 1 -0.3,0.3 H 857.8 a 0.3,0.3 89.9 0 1 -0.3,-0.3 V 46.3 a 0.3,0.3 89.8 0 1 0.3,-0.3 h 10.21 a 0.3,0.3 -14.9 0 1 0.26,0.15 l 20.42,35.37 a 0.3,0.3 -60.3 0 0 0.56,-0.15 V 46.3 a 0.3,0.3 0 0 1 0.3,-0.3 h 9.9 a 0.3,0.3 0.1 0 1 0.3,0.3 v 55.65 a 0.3,0.3 -89.9 0 1 -0.3,0.3 H 889.4 a 0.3,0.3 -15.1 0 1 -0.26,-0.15 L 868.81,66.95"
       id="path20" />
    <path
       stroke="#98b0b2"
       vector-effect="non-scaling-stroke"
       d="M 990.603,64.4631 A 19.24,19.24 0 0 0 971.2292,45.3579 l -3.6599,0.0256 a 19.24,19.24 0 0 0 -19.1052,19.3738 l 0.1329,19.0396 a 19.24,19.24 0 0 0 19.3738,19.1052 l 3.6599,-0.0256 A 19.24,19.24 0 0 0 990.7359,83.5027 L 990.603,64.4631"
       id="path22" />
    <path
       stroke="#98b0b2"
       vector-effect="non-scaling-stroke"
       d="m 1052.56,84.83 q 8.26,0.29 12.1,0.1 c 13.88,-0.67 20.61,-11.07 18.32,-24.06 -3.39,-19.23 -26.95,-14.9 -41.15,-14.71 a 0.59,0.59 -0.5 0 0 -0.58,0.59 v 55 a 0.68,0.54 -0.5 0 0 0.69,0.54 l 9.56,-0.06 a 0.48,0.28 90 0 0 0.28,-0.48 l -0.02,-16.56 a 0.78,0.38 1.7 0 1 0.8,-0.36"
       id="path24" />
    <path
       stroke="#98b0b2"
       vector-effect="non-scaling-stroke"
       d="m 1146.25,56.78 a 0.5,0.5 89.9 0 0 -0.5,0.5 V 68 a 0.5,0.5 0 0 0 0.5,0.5 h 16.81 a 0.5,0.5 0.6 0 1 0.5,0.51 l -0.09,9.75 a 0.5,0.5 -89.8 0 1 -0.5,0.49 h -16.72 a 0.5,0.5 0 0 0 -0.5,0.5 V 91 a 0.5,0.5 0 0 0 0.5,0.5 h 22.5 a 0.5,0.5 0 0 1 0.5,0.5 v 9.75 a 0.5,0.5 0 0 1 -0.5,0.5 h -33.15 a 0.5,0.5 0.1 0 1 -0.5,-0.5 l 0.11,-55.08 a 0.5,0.5 0.4 0 1 0.5,-0.5 l 33.04,-0.2 a 0.5,0.5 -89.9 0 1 0.5,0.5 v 9.72 a 0.5,0.5 -89.9 0 1 -0.5,0.5 l -22.5,0.09"
       id="path26" />
    <path
       stroke="#98b0b2"
       vector-effect="non-scaling-stroke"
       d="m 1248.4894,89.7989 a 0.31,0.31 0 0 0 -0.3105,-0.3095 l -12.12,0.0212 a 0.31,0.31 0 0 0 -0.3095,0.3105 l 0.021,12.12 a 0.31,0.31 0 0 0 0.3105,0.3095 l 12.12,-0.0212 a 0.31,0.31 0 0 0 0.3095,-0.3105 l -0.021,-12.12"
       id="path28" />
    <path
       stroke="#98b0b2"
       vector-effect="non-scaling-stroke"
       d="m 1329.52,56.75 a 0.52,0.52 90 0 0 -0.52,0.52 v 10.71 a 0.52,0.52 90 0 0 0.52,0.52 h 16.71 a 0.52,0.52 -90 0 1 0.52,0.52 v 9.71 a 0.52,0.52 -90 0 1 -0.52,0.52 h -16.71 a 0.52,0.52 90 0 0 -0.52,0.52 v 21.96 a 0.52,0.52 -89.7 0 1 -0.52,0.52 h -9.71 a 0.52,0.52 -90 0 1 -0.52,-0.52 v -55.1 a 0.52,0.52 89.8 0 1 0.52,-0.52 l 33.14,-0.15 a 0.52,0.52 -0.3 0 1 0.52,0.52 l 0.1,9.75 a 0.52,0.52 89.7 0 1 -0.52,0.52 h -22.49"
       id="path30" />
    <path
       stroke="#98b0b2"
       vector-effect="non-scaling-stroke"
       d="m 1434.23,78.6 c 15.79,-5.24 15.09,-30.23 -1.47,-32.08 -9.21,-1.02 -18.47,-0.31 -27.75,-0.41 a 0.54,0.39 0.7 0 0 -0.55,0.39 l 0.05,55.25 a 0.55,0.52 0 0 0 0.55,0.52 l 9.44,-0.03 a 0.74,0.5 -90 0 0 0.5,-0.74 V 80 a 0.97,0.44 -90 0 1 0.44,-0.97 h 5.87 a 1.36,0.37 61.9 0 1 0.82,0.87 l 12.69,21.53 a 1.69,1.65 74.3 0 0 1.43,0.82 H 1447 q 0.54,0 0.25,-0.5 L 1434,79.25 a 0.45,0.44 65.5 0 1 0.23,-0.65"
       id="path32" />
    <path
       stroke="#98b0b2"
       vector-effect="non-scaling-stroke"
       d="m 979.9252,65.6519 a 9.62,9.62 0 0 0 -9.6368,-9.6031 l -1.46,0.0025 a 9.62,9.62 0 0 0 -9.6031,9.6368 l 0.0295,16.92 a 9.62,9.62 0 0 0 9.6368,9.6031 l 1.46,-0.0025 a 9.62,9.62 0 0 0 9.6031,-9.6368 l -0.0295,-16.92"
       id="path34" />
    <path
       stroke="#98b0b2"
       vector-effect="non-scaling-stroke"
       d="m 52.51,68.55 c 4.22,0.03 14.39,0.94 17.35,-1.36 3.42,-2.68 2.22,-9.42 -2.39,-10.2 Q 63.58,56.32 52.6,56.86 A 0.64,0.59 88.6 0 0 52.04,57.5 L 52.07,68 a 0.55,0.44 90 0 0 0.44,0.55"
       id="path36" />
    <path
       stroke="#98b0b2"
       vector-effect="non-scaling-stroke"
       d="m 418.3,80.17 a 0.32,0.32 9.2 0 0 0.31,0.43 l 11.44,-0.02 a 0.32,0.32 -9.4 0 0 0.3,-0.43 l -5.75,-16.7 a 0.32,0.32 -44.9 0 0 -0.6,0 l -5.7,16.72"
       id="path38" />
    <path
       stroke="#98b0b2"
       vector-effect="non-scaling-stroke"
       d="m 781.73,80.15 a 0.31,0.31 9.6 0 0 0.29,0.41 h 11.52 a 0.31,0.31 -9.6 0 0 0.29,-0.41 L 788.07,63.5 a 0.31,0.31 -44.9 0 0 -0.58,0 l -5.76,16.65"
       id="path40" />
    <path
       stroke="#98b0b2"
       vector-effect="non-scaling-stroke"
       d="m 1051.98,57.19 -0.02,16.5 a 0.5,0.42 2.2 0 0 0.47,0.42 c 8.11,0.43 20.16,1.88 20.31,-8.36 0.17,-11.33 -13.12,-9.04 -20.4,-8.98 a 0.43,0.36 -89.2 0 0 -0.36,0.42"
       id="path42" />
    <path
       stroke="#98b0b2"
       vector-effect="non-scaling-stroke"
       d="m 1415.2,68 a 0.52,0.51 0 0 0 0.52,0.51 c 3.91,-0.01 13.66,0.95 16.76,-1.06 3.81,-2.48 2.76,-9.88 -1.99,-10.47 q -4.9,-0.6 -14.85,-0.12 a 0.65,0.46 89.1 0 0 -0.44,0.64 V 68"
       id="path44" />
    <path
       stroke="#98b0b2"
       vector-effect="non-scaling-stroke"
       d="m 284.23,340.46 c -1.48,-34.86 -22.41,-65.13 -56.47,-75.25 -26.12,-7.76 -57.85,-6.34 -81.56,7.95 -27.3,16.45 -39.19,44.13 -39.21,76.09 q -0.03,37.65 0.04,75.29 c 0.01,8.64 0.37,17.14 1.95,24.46 8.05,37.24 34.18,60.34 71.51,65.48 53.41,7.37 100.44,-22.4 103.79,-78.61 a 0.57,0.53 -88.5 0 0 -0.53,-0.6 l -36.81,-0.06 a 0.63,0.45 -85.2 0 0 -0.47,0.55 c -7.85,59.45 -101.24,55.21 -101.44,-6.52 q -0.13,-37.35 0.02,-74.66 0.05,-14.27 1.33,-19.89 c 10.92,-48.19 86.97,-48.98 98.66,-1.14 q 0.84,3.43 1.64,6.95 a 0.65,0.57 82.3 0 0 0.57,0.5 h 36.5 a 0.52,0.48 88.9 0 0 0.48,-0.54"
       id="path46" />
    <path
       stroke="#98b0b2"
       vector-effect="non-scaling-stroke"
       d="m 626.2,512.03 a 0.35,0.35 80.1 0 1 -0.33,-0.23 l -20.73,-59.32 a 0.35,0.35 -9.6 0 0 -0.33,-0.23 h -92.35 a 0.35,0.35 -80.4 0 0 -0.33,0.23 l -20.71,59.29 a 0.35,0.35 -80.1 0 1 -0.33,0.23 h -38.21 a 0.35,0.35 -80 0 1 -0.33,-0.47 l 86.54,-247.3 a 0.35,0.35 9.7 0 1 0.33,-0.23 h 38.44 a 0.35,0.35 80.4 0 1 0.33,0.23 l 86.52,247.29 a 0.35,0.35 80.7 0 1 -0.33,0.47 l -38.18,0.04"
       id="path48" />
    <path
       stroke="#98b0b2"
       vector-effect="non-scaling-stroke"
       d="m 872.31,335.23 a 0.3,0.3 29.4 0 0 -0.56,0.15 v 176.31 a 0.3,0.3 -0.1 0 1 -0.3,0.3 l -37.4,0.04 a 0.3,0.3 0 0 1 -0.3,-0.3 V 264.3 a 0.3,0.3 -89.9 0 1 0.3,-0.3 l 37.49,0.01 a 0.3,0.3 -14.4 0 1 0.26,0.15 l 101.38,176.63 a 0.3,0.3 29.8 0 0 0.56,-0.15 l 0.01,-176.34 a 0.3,0.3 0.1 0 1 0.3,-0.3 h 37.4 a 0.3,0.3 0 0 1 0.3,0.3 v 247.38 a 0.3,0.3 89.8 0 1 -0.3,0.3 l -37.48,0.07 a 0.3,0.3 -15.6 0 1 -0.26,-0.15 L 872.31,335.23"
       id="path50" />
    <path
       stroke="#98b0b2"
       vector-effect="non-scaling-stroke"
       d="m 1207.75,471.52 c 19,37.82 63.32,49.76 102,41.64 41.67,-8.75 65.74,-41.86 65.97,-83.66 q 0.15,-27.7 -0.01,-75.68 -0.05,-13.97 -0.79,-19.97 c -6.84,-55.7 -57.16,-80.82 -108.66,-71.34 -43.28,7.96 -68.06,41.67 -68.21,84.74 q -0.14,42.35 0.04,84.68 0.09,20.51 9.66,39.59"
       id="path52" />
    <path
       stroke="#98b0b2"
       vector-effect="non-scaling-stroke"
       d="m 1748.05,338.69 c -2.25,-40.11 -26.95,-67.71 -66.68,-73.5 q -6.76,-0.98 -19.8,-1.06 -45.32,-0.29 -90.13,-0.07 a 1.01,1.01 89.2 0 0 -1.01,1.04 q 0.51,18.78 0.3,37.15 c -0.42,36.14 -0.27,72.29 -0.19,108.42 0.04,19.05 -0.19,36.85 0.24,68.33 q 0.2,15.26 -0.32,31.08 -0.06,1.92 1.78,1.92 h 35.77 a 0.5,0.49 -90 0 0 0.49,-0.5 v -84.75 a 0.55,0.53 -90 0 1 0.53,-0.55 q 30.51,0.19 61.02,-0.09 19.11,-0.17 36.59,-8.42 c 31.11,-14.67 43.27,-46.02 41.41,-79"
       id="path54" />
    <path
       stroke="#98b0b2"
       vector-effect="non-scaling-stroke"
       d="m 2015,164.74 c -6.29,14.55 -11.53,30.14 -17.16,45.07 a 0.48,0.45 -79.2 0 0 0.41,0.65 l 32,0.06 a 1.45,0.77 10.4 0 0 0.97,-0.31 l 42.82,-45.16 q 0.52,-0.55 -0.29,-0.55 h -58.5 a 0.37,0.21 -72.8 0 0 -0.25,0.24"
       id="path56" />
    <path
       stroke="#98b0b2"
       vector-effect="non-scaling-stroke"
       d="M 2173.27,388.21 A 157.92,157.92 0 0 0 2015.35,230.29 157.92,157.92 0 0 0 1857.43,388.21 157.92,157.92 0 0 0 2015.35,546.13 157.92,157.92 0 0 0 2173.27,388.21"
       id="path58" />
    <path
       stroke="#98b0b2"
       vector-effect="non-scaling-stroke"
       d="M 2141.1,388.21 A 125.75,125.75 0 0 0 2015.35,262.46 125.75,125.75 0 0 0 1889.6,388.21 125.75,125.75 0 0 0 2015.35,513.96 125.75,125.75 0 0 0 2141.1,388.21"
       id="path60" />
    <path
       stroke="#98b0b2"
       vector-effect="non-scaling-stroke"
       d="m 1237.59,442.43 c 12.12,48.17 88.06,47.29 98.85,-1.78 q 1.39,-6.34 1.35,-19.9 -0.11,-35.05 -0.01,-70.11 0.02,-9.59 -1.25,-15.19 c -12.37,-54.35 -99.59,-48.52 -100.46,11.06 q -0.49,33.2 -0.04,76.04 0.15,14.29 1.56,19.88"
       id="path62" />
    <path
       stroke="#98b0b2"
       vector-effect="non-scaling-stroke"
       d="m 1999.55,403.25 a 0.3,0.3 0 0 0 -0.3,0.3 v 28.9 a 0.3,0.3 0 0 0 0.3,0.3 l 73.4,0.03 a 0.3,0.3 -89.9 0 1 0.3,0.3 v 35.62 a 0.3,0.3 -90 0 1 -0.3,0.3 H 1957.8 a 0.3,0.3 90 0 1 -0.3,-0.3 V 301.8 a 0.3,0.3 -90 0 1 0.3,-0.3 h 115.15 a 0.3,0.3 90 0 1 0.3,0.3 v 35.4 a 0.3,0.3 -90 0 1 -0.3,0.3 h -73.42 a 0.3,0.3 90 0 0 -0.3,0.3 l 0.06,29.1 a 0.3,0.3 -0.1 0 0 0.3,0.3 l 68.61,0.03 a 0.3,0.3 -90 0 1 0.3,0.3 v 35.42 a 0.3,0.3 0 0 1 -0.3,0.3 h -68.65"
       id="path64" />
    <path
       stroke="#98b0b2"
       vector-effect="non-scaling-stroke"
       d="m 524.45,416.57 a 0.32,0.32 -80.4 0 0 0.31,0.43 h 67.72 a 0.32,0.32 79.3 0 0 0.31,-0.43 l -33.87,-97.04 a 0.32,0.32 90 0 0 -0.6,0 l -33.87,97.04"
       id="path66" />
    <path
       stroke="#98b0b2"
       vector-effect="non-scaling-stroke"
       d="m 1709.09,353.99 c 4.56,-28.8 -11.7,-53.11 -42.37,-53.09 q -28.8,0.01 -57.69,0.15 a 0.53,0.45 0 0 0 -0.53,0.45 v 86.75 a 0.5,0.49 0 0 0 0.5,0.49 q 26.38,0.04 52.76,-0.02 c 23.89,-0.05 43.23,-8.85 47.33,-34.73"
       id="path68" />
  </g>
  <path
     fill="#306165"
     d="m 78.86,111.07 a 0.67,0.67 0 0 1 -0.67,0.67 H 0.67 A 0.67,0.67 0 0 1 0,111.07 V 0.67 A 0.67,0.67 0 0 1 0.67,0 h 77.52 a 0.67,0.67 0 0 1 0.67,0.67 z M 51.1,58.59 C 61.22,55.27 64.96,44.51 61.04,35.2 58.37,28.86 52.69,26.55 45.91,26.24 Q 33.76,25.69 22.03,26.07 a 0.92,0.91 89 0 0 -0.88,0.92 l 0.01,54.56 a 0.45,0.69 0 0 0 0.45,0.69 h 9.75 a 0.5,0.75 0 0 0 0.5,-0.75 v -21.5 a 0.44,0.94 0 0 1 0.44,-0.94 l 5.81,-0.08 a 1.25,0.45 63.4 0 1 0.79,0.75 l 12.84,21.87 a 1.09,0.39 63.1 0 0 0.68,0.64 l 11.19,0.02 q 0.83,0 0.42,-0.69 L 50.84,59.25 a 0.45,0.46 65.6 0 1 0.26,-0.66 z"
     id="path72" />
  <path
     fill="#306165"
     d="m 169.86,111.08 a 0.66,0.66 0 0 1 -0.66,0.66 H 91.52 a 0.66,0.66 0 0 1 -0.66,-0.66 V 0.66 A 0.66,0.66 0 0 1 91.52,0 h 77.68 a 0.66,0.66 0 0 1 0.66,0.66 z M 126.11,47.99 v -10.5 a 0.75,0.75 0 0 1 0.75,-0.75 h 22 a 0.75,0.5 0 0 0 0.75,-0.5 v -9.5 a 0.77,0.57 1 0 0 -0.75,-0.58 q -16.5,-0.46 -33,0.16 a 0.68,0.52 89.1 0 0 -0.5,0.67 v 54.75 a 0.5,0.5 0 0 0 0.5,0.5 h 33 a 0.62,0.51 0.5 0 0 0.62,-0.5 l 0.18,-9.75 a 0.8,0.49 0.3 0 0 -0.8,-0.5 h -22 a 0.75,0.5 0 0 1 -0.75,-0.5 V 59.74 a 0.75,0.5 0 0 1 0.75,-0.5 h 16.25 a 0.7,0.51 0.4 0 0 0.7,-0.5 l 0.17,-9.75 a 0.62,0.49 0.4 0 0 -0.62,-0.5 h -16.75 a 0.5,0.5 0 0 1 -0.5,-0.5 z"
     id="path74" />
  <path
     fill="#306165"
     d="m 260.86,111.08 a 0.66,0.66 0 0 1 -0.66,0.66 h -77.68 a 0.66,0.66 0 0 1 -0.66,-0.66 V 0.66 A 0.66,0.66 0 0 1 182.52,0 h 77.68 a 0.66,0.66 0 0 1 0.66,0.66 z M 230.73,65.57 c 1.79,8.96 -14.79,9.23 -17.41,-0.47 a 0.82,0.71 81.6 0 0 -0.71,-0.61 h -9.75 a 0.65,0.57 86.8 0 0 -0.56,0.71 c 2.63,24.43 42.23,23.93 39.22,-1.26 -1.52,-12.7 -12.68,-14.27 -22.67,-16.92 -6.32,-1.67 -7.4,-9.22 -0.49,-10.79 q 7.14,-1.62 10.5,4.55 a 0.88,0.84 75 0 0 0.75,0.46 h 10.75 a 0.48,0.4 84.1 0 0 0.38,-0.56 c -4.15,-22.53 -41.01,-19.95 -37.39,4.13 2.69,17.97 25.54,11.54 27.38,20.76 z"
     id="path76" />
  <path
     fill="#306165"
     d="m 351.83,110.9 a 0.84,0.84 0 0 1 -0.84,0.84 h -77.3 a 0.84,0.84 0 0 1 -0.84,-0.84 V 0.84 A 0.84,0.84 0 0 1 273.69,0 h 77.3 a 0.84,0.84 0 0 1 0.84,0.84 z M 331.36,36.19 a 0.55,0.55 0 0 1 -0.55,0.55 h -22.4 a 0.55,0.55 0 0 0 -0.55,0.55 v 10.65 a 0.55,0.55 0 0 0 0.55,0.55 h 16.65 a 0.55,0.55 0 0 1 0.55,0.55 v 9.65 a 0.55,0.55 0 0 1 -0.55,0.55 h -16.65 a 0.55,0.55 0 0 0 -0.55,0.55 v 11.15 a 0.55,0.55 0 0 0 0.55,0.55 h 22.4 a 0.55,0.55 0 0 1 0.55,0.55 v 9.65 a 0.55,0.55 0 0 1 -0.55,0.55 h -33.15 a 0.55,0.55 0 0 1 -0.55,-0.55 V 26.54 a 0.55,0.55 0 0 1 0.55,-0.55 h 33.15 a 0.55,0.55 0 0 1 0.55,0.55 z"
     id="path78" />
  <path
     fill="#306165"
     d="m 442.62,111.33 a 0.41,0.41 0 0 1 -0.41,0.41 h -77.98 a 0.41,0.41 0 0 1 -0.41,-0.41 V 0.41 A 0.41,0.41 0 0 1 364.23,0 h 77.98 a 0.41,0.41 0 0 1 0.41,0.41 z M 418.47,82.24 a 0.32,0.32 0 0 1 -0.3,-0.21 l -4.01,-11.08 a 0.32,0.32 0 0 0 -0.3,-0.21 h -19.32 a 0.32,0.32 0 0 0 -0.31,0.21 l -3.92,11.06 A 0.32,0.32 0 0 1 390,82.22 l -10.5,0.03 a 0.32,0.32 0 0 1 -0.31,-0.43 l 19.86,-55.65 a 0.32,0.32 0 0 1 0.31,-0.22 l 9.73,0.13 a 0.32,0.32 0 0 1 0.29,0.21 l 19.87,55.52 a 0.32,0.32 0 0 1 -0.3,0.43 z"
     id="path80" />
  <path
     fill="#306165"
     d="m 533.61,110.89 a 0.85,0.85 0 0 1 -0.85,0.85 h -77.3 a 0.85,0.85 0 0 1 -0.85,-0.85 V 0.85 A 0.85,0.85 0 0 1 455.46,0 h 77.3 a 0.85,0.85 0 0 1 0.85,0.85 z m -57.88,-39.3 c 8.06,18.35 40.33,14.18 40.27,-8.11 -0.03,-12.3 -0.02,-24.67 0.07,-36.96 a 0.46,0.53 0 0 0 -0.46,-0.53 h -9.5 a 0.73,0.59 89.5 0 0 -0.59,0.74 q 0.36,17.5 -0.16,35.01 c -0.44,14.8 -21.08,14.01 -20.91,-1.26 q 0.19,-16.88 0.11,-33.82 a 0.45,0.69 0 0 0 -0.45,-0.69 l -9.81,0.06 a 0.37,0.74 0.6 0 0 -0.38,0.73 q -0.22,16.45 0.05,32.87 0.14,8.28 1.76,11.96 z"
     id="path82" />
  <path
     fill="#306165"
     d="m 624.61,111.06 a 0.68,0.68 0 0 1 -0.68,0.68 h -77.64 a 0.68,0.68 0 0 1 -0.68,-0.68 V 0.86 a 0.68,0.68 0 0 1 0.68,-0.68 h 77.64 a 0.68,0.68 0 0 1 0.68,0.68 z M 597.62,55 a 0.26,0.26 0 0 0 -0.26,-0.26 H 574.62 A 0.26,0.26 0 0 0 574.36,55 v 8.48 a 0.26,0.26 0 0 0 0.26,0.26 h 22.74 a 0.26,0.26 0 0 0 0.26,-0.26 z"
     id="path84" />
  <path
     fill="#306165"
     d="m 715.61,110.99 a 0.75,0.75 0 0 1 -0.75,0.75 h -77.54 a 0.75,0.75 0 0 1 -0.75,-0.75 V 0.75 A 0.75,0.75 0 0 1 637.32,0 h 77.54 a 0.75,0.75 0 0 1 0.75,0.75 z M 656.13,48.46 c -0.51,11.43 -1.68,25.69 9.51,31.74 13.54,7.33 31.83,0.67 32.63,-16.16 a 0.42,0.53 1.3 0 0 -0.41,-0.55 h -9.75 a 0.62,0.8 7.9 0 0 -0.64,0.63 c -2,9.24 -14.85,11.17 -19.21,3.53 -2.51,-4.4 -1.39,-14.45 -1.4,-19.95 0,-8.99 6.13,-14.27 15.01,-10.67 q 3.54,1.44 6.14,7.68 a 0.16,0.18 80.3 0 0 0.16,0.1 l 9.69,-0.1 a 0.47,0.41 88.1 0 0 0.41,-0.5 c -0.74,-11.14 -7.88,-17.94 -18.61,-18.81 -8.15,-0.65 -16.86,2.01 -20.85,9.38 q -2.26,4.16 -2.68,13.68 z"
     id="path86" />
  <path
     fill="#306165"
     d="m 806.57,111.06 a 0.68,0.68 0 0 1 -0.68,0.68 h -77.6 a 0.68,0.68 0 0 1 -0.68,-0.68 V 0.68 A 0.68,0.68 0 0 1 728.29,0 h 77.6 a 0.68,0.68 0 0 1 0.68,0.68 z M 743.13,82.24 a 0.41,0.41 0 0 1 -0.38,-0.55 l 19.78,-55.45 a 0.41,0.41 0 0 1 0.39,-0.27 l 9.56,0.06 a 0.41,0.41 0 0 1 0.39,0.27 l 19.8,55.39 a 0.41,0.41 0 0 1 -0.38,0.55 h -10.28 a 0.41,0.41 0 0 1 -0.39,-0.27 l -3.96,-10.96 a 0.41,0.41 0 0 0 -0.39,-0.27 h -19.19 a 0.41,0.41 0 0 0 -0.39,0.27 l -3.96,10.96 a 0.41,0.41 0 0 1 -0.39,0.27 z"
     id="path88" />
  <path
     fill="#306165"
     d="m 897.36,111.48 a 0.26,0.26 0 0 1 -0.26,0.26 h -78.48 a 0.26,0.26 0 0 1 -0.26,-0.26 V 0.26 A 0.26,0.26 0 0 1 818.62,0 h 78.48 a 0.26,0.26 0 0 1 0.26,0.26 z M 848.67,46.94 a 0.3,0.3 0 0 0 -0.56,0.15 v 34.85 a 0.3,0.3 0 0 1 -0.3,0.3 h -10.15 a 0.3,0.3 0 0 1 -0.3,-0.3 V 26.29 a 0.3,0.3 0 0 1 0.3,-0.3 h 10.21 a 0.3,0.3 0 0 1 0.26,0.15 l 20.42,35.37 a 0.3,0.3 0 0 0 0.56,-0.15 V 26.29 a 0.3,0.3 0 0 1 0.3,-0.3 h 9.9 a 0.3,0.3 0 0 1 0.3,0.3 v 55.65 a 0.3,0.3 0 0 1 -0.3,0.3 H 869.26 A 0.3,0.3 0 0 1 869,82.09 Z"
     id="path90" />
  <path
     fill="#306165"
     d="m 988.36,111.08 a 0.66,0.66 0 0 1 -0.66,0.66 h -77.68 a 0.66,0.66 0 0 1 -0.66,-0.66 V 0.66 A 0.66,0.66 0 0 1 910.02,0 h 77.68 a 0.66,0.66 0 0 1 0.66,0.66 z M 970.463,44.4531 A 19.24,19.24 0 0 0 951.0892,25.3479 l -3.6599,0.0256 a 19.24,19.24 0 0 0 -19.1052,19.3738 l 0.1329,19.0396 a 19.24,19.24 0 0 0 19.3738,19.1052 l 3.6599,-0.0256 a 19.24,19.24 0 0 0 19.1052,-19.3738 z"
     id="path92" />
  <path
     fill="#306165"
     d="m 1079.36,111.05 a 0.69,0.69 0 0 1 -0.69,0.69 h -77.62 a 0.69,0.69 0 0 1 -0.69,-0.69 V 0.69 A 0.69,0.69 0 0 1 1001.05,0 h 77.62 a 0.69,0.69 0 0 1 0.69,0.69 z m -46.94,-46.23 q 8.26,0.29 12.1,0.1 c 13.88,-0.67 20.61,-11.07 18.32,-24.06 -3.39,-19.23 -26.95,-14.9 -41.15,-14.71 a 0.59,0.59 0 0 0 -0.58,0.59 v 55 a 0.54,0.68 89.5 0 0 0.69,0.54 l 9.56,-0.06 a 0.28,0.48 0 0 0 0.28,-0.48 l -0.02,-16.56 a 0.78,0.38 1.7 0 1 0.8,-0.36 z"
     id="path94" />
  <path
     fill="#306165"
     d="m 1170.14,111.44 a 0.3,0.3 0 0 1 -0.3,0.3 h -78.18 a 0.3,0.3 0 0 1 -0.3,-0.3 V 0.3 a 0.3,0.3 0 0 1 0.3,-0.3 h 78.18 a 0.3,0.3 0 0 1 0.3,0.3 z m -44.03,-74.67 a 0.5,0.5 0 0 0 -0.5,0.5 v 10.72 a 0.5,0.5 0 0 0 0.5,0.5 h 16.81 a 0.5,0.5 0 0 1 0.5,0.51 l -0.09,9.75 a 0.5,0.5 0 0 1 -0.5,0.49 h -16.72 a 0.5,0.5 0 0 0 -0.5,0.5 v 11.25 a 0.5,0.5 0 0 0 0.5,0.5 h 22.5 a 0.5,0.5 0 0 1 0.5,0.5 v 9.75 a 0.5,0.5 0 0 1 -0.5,0.5 h -33.15 a 0.5,0.5 0 0 1 -0.5,-0.5 l 0.11,-55.08 a 0.5,0.5 0 0 1 0.5,-0.5 l 33.04,-0.2 a 0.5,0.5 0 0 1 0.5,0.5 v 9.72 a 0.5,0.5 0 0 1 -0.5,0.5 z"
     id="path96" />
  <path
     fill="#306165"
     d="m 1261.11,111.25 a 0.49,0.49 0 0 1 -0.49,0.49 h -78.02 a 0.49,0.49 0 0 1 -0.49,-0.49 V 0.49 A 0.49,0.49 0 0 1 1182.6,0 h 78.02 a 0.49,0.49 0 0 1 0.49,0.49 z m -32.7606,-41.4611 a 0.31,0.31 0 0 0 -0.3105,-0.3095 l -12.12,0.0212 a 0.31,0.31 0 0 0 -0.3095,0.3105 l 0.021,12.12 a 0.31,0.31 0 0 0 0.3105,0.3095 l 12.12,-0.0212 a 0.31,0.31 0 0 0 0.3095,-0.3105 z"
     id="path98" />
  <path
     fill="#306165"
     d="m 1352.11,110.89 a 0.85,0.85 0 0 1 -0.85,0.85 h -77.3 a 0.85,0.85 0 0 1 -0.85,-0.85 V 0.85 A 0.85,0.85 0 0 1 1273.96,0 h 77.3 a 0.85,0.85 0 0 1 0.85,0.85 z m -42.73,-74.15 a 0.52,0.52 0 0 0 -0.52,0.52 v 10.71 a 0.52,0.52 0 0 0 0.52,0.52 h 16.71 a 0.52,0.52 0 0 1 0.52,0.52 v 9.71 a 0.52,0.52 0 0 1 -0.52,0.52 h -16.71 a 0.52,0.52 0 0 0 -0.52,0.52 v 21.96 a 0.52,0.52 0 0 1 -0.52,0.52 h -9.71 a 0.52,0.52 0 0 1 -0.52,-0.52 v -55.1 a 0.52,0.52 0 0 1 0.52,-0.52 l 33.14,-0.15 a 0.52,0.52 0 0 1 0.52,0.52 l 0.1,9.75 a 0.52,0.52 0 0 1 -0.52,0.52 z"
     id="path100" />
  <path
     fill="#306165"
     d="m 1443.11,111.06 a 0.68,0.68 0 0 1 -0.68,0.68 h -77.64 a 0.68,0.68 0 0 1 -0.68,-0.68 V 0.88 a 0.68,0.68 0 0 1 0.68,-0.68 h 77.64 a 0.68,0.68 0 0 1 0.68,0.68 z m -29.02,-52.47 c 15.79,-5.24 15.09,-30.23 -1.47,-32.08 -9.21,-1.02 -18.47,-0.31 -27.75,-0.41 a 0.54,0.39 0.7 0 0 -0.55,0.39 l 0.05,55.25 a 0.55,0.52 0 0 0 0.55,0.52 l 9.44,-0.03 a 0.5,0.74 0 0 0 0.5,-0.74 v -21.5 a 0.44,0.97 0 0 1 0.44,-0.97 h 5.87 a 1.36,0.37 61.9 0 1 0.82,0.87 l 12.69,21.53 a 1.69,1.65 74.3 0 0 1.43,0.82 h 10.75 q 0.54,0 0.25,-0.5 l -13.25,-22.5 a 0.45,0.44 65.5 0 1 0.23,-0.65 z"
     id="path102" />
  <rect
     fill="#1a3335"
     fill-opacity="0.502"
     x="1455.34"
     y="0.3099997"
     width="78.760002"
     height="111.2"
     rx="1.04"
     id="rect104" />
  <rect
     fill="#1a3335"
     fill-opacity="0.502"
     x="1546.1"
     y="0.3099997"
     width="78.879997"
     height="111.18"
     rx="1"
     id="rect106" />
  <rect
     fill="#1a3335"
     fill-opacity="0.502"
     x="1636.9299"
     y="0.3099997"
     width="78.940002"
     height="111.18"
     rx="1.0599999"
     id="rect108" />
  <rect
     fill="#1a3335"
     fill-opacity="0.502"
     x="1727.91"
     y="0.29999948"
     width="78.959999"
     height="111.2"
     rx="1.53"
     id="rect110" />
  <rect
     fill="#1a3335"
     fill-opacity="0.502"
     x="1818.86"
     y="0.28999925"
     width="79"
     height="111.2"
     rx="0.94"
     id="rect112" />
  <path
     fill="#1a3335"
     fill-opacity="0.502"
     d="m 1910.74,110.81 -0.94,-0.32 a 0.17,0.17 0 0 1 -0.12,-0.16 l 0.17,-109.82 a 0.17,0.17 0 0 1 0.17,-0.17 l 78.42,-0.08 a 0.17,0.17 0 0 1 0.17,0.17 l 0.01,110.94 a 0.17,0.17 0 0 1 -0.17,0.17 l -77.43,-0.07 a 0.17,0.17 0 0 1 -0.17,-0.17 l 0.01,-0.33 a 0.17,0.17 0 0 0 -0.12,-0.16 z"
     id="path114" />
  <path
     fill="#1a3335"
     fill-opacity="0.502"
     d="m 2079.35,111.31 c -0.25,0.41 -71.33,0.18 -78.17,0.18 a 0.56,0.56 0 0 1 -0.56,-0.56 L 2000.61,1.99 a 1.75,1.71 0 0 1 1.75,-1.71 l 74.75,0.03 q 2.49,0 2.49,2.43 l 0.01,106.75 q 0,0.51 0.18,0.81 0.27,0.48 -0.17,0.7 a 0.12,0.56 29 0 0 -0.27,0.31 z"
     id="path116" />
  <rect
     fill="#1a3335"
     fill-opacity="0.502"
     x="2091.6201"
     y="0.29999948"
     width="76.739998"
     height="111.22"
     rx="1.13"
     id="rect118" />
  <path
     fill="#ffffff"
     d="m 658.81,34.78 c 3.99,-7.37 12.7,-10.03 20.85,-9.38 10.73,0.87 17.87,7.67 18.61,18.81 a 0.47,0.41 88.1 0 1 -0.41,0.5 l -9.69,0.1 a 0.16,0.18 80.3 0 1 -0.16,-0.1 q -2.6,-6.24 -6.14,-7.68 c -8.88,-3.6 -15.01,1.68 -15.01,10.67 0.01,5.5 -1.11,15.55 1.4,19.95 4.36,7.64 17.21,5.71 19.21,-3.53 a 0.62,0.8 7.9 0 1 0.64,-0.63 h 9.75 a 0.42,0.53 1.3 0 1 0.41,0.55 c -0.8,16.83 -19.09,23.49 -32.63,16.16 -11.19,-6.05 -10.02,-20.31 -9.51,-31.74 q 0.42,-9.52 2.68,-13.68 z"
     id="path120" />
  <path
     fill="#ffffff"
     d="m 970.5959,63.4927 a 19.24,19.24 0 0 1 -19.1052,19.3738 l -3.6599,0.0256 A 19.24,19.24 0 0 1 928.457,63.7869 l -0.1329,-19.0396 a 19.24,19.24 0 0 1 19.1052,-19.3738 l 3.6599,-0.0256 A 19.24,19.24 0 0 1 970.463,44.4531 Z M 959.7852,45.6419 a 9.62,9.62 0 0 0 -9.6368,-9.6031 l -1.46,0.0025 a 9.62,9.62 0 0 0 -9.6031,9.6368 l 0.0295,16.92 a 9.62,9.62 0 0 0 9.6368,9.6031 l 1.46,-0.0025 a 9.62,9.62 0 0 0 9.6031,-9.6368 z"
     id="path122" />
  <path
     fill="#ffffff"
     d="m 213.32,65.1 c 2.62,9.7 19.2,9.43 17.41,0.47 -1.84,-9.22 -24.69,-2.79 -27.38,-20.76 -3.62,-24.08 33.24,-26.66 37.39,-4.13 a 0.48,0.4 84.1 0 1 -0.38,0.56 h -10.75 a 0.88,0.84 75 0 1 -0.75,-0.46 q -3.36,-6.17 -10.5,-4.55 c -6.91,1.57 -5.83,9.12 0.49,10.79 9.99,2.65 21.15,4.22 22.67,16.92 3.01,25.19 -36.59,25.69 -39.22,1.26 a 0.65,0.57 86.8 0 1 0.56,-0.71 h 9.75 a 0.82,0.71 81.6 0 1 0.71,0.61 z"
     id="path124" />
  <path
     fill="#ffffff"
     d="m 50.84,59.25 13.19,22.31 q 0.41,0.69 -0.42,0.69 L 52.42,82.23 A 1.09,0.39 63.1 0 1 51.74,81.59 L 38.9,59.72 a 1.25,0.45 63.4 0 0 -0.79,-0.75 l -5.81,0.08 a 0.44,0.94 0 0 0 -0.44,0.94 v 21.5 a 0.5,0.75 0 0 1 -0.5,0.75 H 21.61 A 0.45,0.69 0 0 1 21.16,81.55 L 21.15,26.99 a 0.92,0.91 89 0 1 0.88,-0.92 q 11.73,-0.38 23.88,0.17 c 6.78,0.31 12.46,2.62 15.13,8.96 3.92,9.31 0.18,20.07 -9.94,23.39 a 0.45,0.46 65.6 0 0 -0.26,0.66 z M 32.37,48.54 c 4.22,0.03 14.39,0.94 17.35,-1.36 3.42,-2.68 2.22,-9.42 -2.39,-10.2 Q 43.44,36.31 32.46,36.85 a 0.64,0.59 88.6 0 0 -0.56,0.64 l 0.03,10.5 a 0.44,0.55 0 0 0 0.44,0.55 z"
     id="path126" />
  <path
     fill="#ffffff"
     d="m 126.61,48.49 h 16.75 a 0.62,0.49 0.4 0 1 0.62,0.5 l -0.17,9.75 a 0.7,0.51 0.4 0 1 -0.7,0.5 h -16.25 a 0.75,0.5 0 0 0 -0.75,0.5 v 11.25 a 0.75,0.5 0 0 0 0.75,0.5 h 22 a 0.8,0.49 0.3 0 1 0.8,0.5 l -0.18,9.75 a 0.62,0.51 0.5 0 1 -0.62,0.5 h -33 a 0.5,0.5 0 0 1 -0.5,-0.5 V 26.99 a 0.68,0.52 89.1 0 1 0.5,-0.67 q 16.5,-0.62 33,-0.16 a 0.77,0.57 1 0 1 0.75,0.58 v 9.5 a 0.75,0.5 0 0 1 -0.75,0.5 h -22 a 0.75,0.75 0 0 0 -0.75,0.75 v 10.5 a 0.5,0.5 0 0 0 0.5,0.5 z"
     id="path128" />
  <path
     fill="#ffffff"
     d="m 307.86,37.29 v 10.65 a 0.55,0.55 0 0 0 0.55,0.55 h 16.65 a 0.55,0.55 0 0 1 0.55,0.55 v 9.65 a 0.55,0.55 0 0 1 -0.55,0.55 h -16.65 a 0.55,0.55 0 0 0 -0.55,0.55 v 11.15 a 0.55,0.55 0 0 0 0.55,0.55 h 22.4 a 0.55,0.55 0 0 1 0.55,0.55 v 9.65 a 0.55,0.55 0 0 1 -0.55,0.55 h -33.15 a 0.55,0.55 0 0 1 -0.55,-0.55 V 26.54 a 0.55,0.55 0 0 1 0.55,-0.55 h 33.15 a 0.55,0.55 0 0 1 0.55,0.55 v 9.65 a 0.55,0.55 0 0 1 -0.55,0.55 h -22.4 a 0.55,0.55 0 0 0 -0.55,0.55 z"
     id="path130" />
  <path
     fill="#ffffff"
     d="m 413.86,70.74 h -19.32 a 0.32,0.32 0 0 0 -0.31,0.21 l -3.92,11.06 A 0.32,0.32 0 0 1 390,82.22 l -10.5,0.03 a 0.32,0.32 0 0 1 -0.31,-0.43 l 19.86,-55.65 a 0.32,0.32 0 0 1 0.31,-0.22 l 9.73,0.13 a 0.32,0.32 0 0 1 0.29,0.21 l 19.87,55.52 a 0.32,0.32 0 0 1 -0.3,0.43 h -10.48 a 0.32,0.32 0 0 1 -0.3,-0.21 l -4.01,-11.08 a 0.32,0.32 0 0 0 -0.3,-0.21 z m -15.7,-10.58 a 0.32,0.32 0 0 0 0.31,0.43 l 11.44,-0.02 a 0.32,0.32 0 0 0 0.3,-0.43 l -5.75,-16.7 a 0.32,0.32 0 0 0 -0.6,0 z"
     id="path132" />
  <path
     fill="#ffffff"
     d="m 516,63.48 c 0.06,22.29 -32.21,26.46 -40.27,8.11 q -1.62,-3.68 -1.76,-11.96 -0.27,-16.42 -0.05,-32.87 a 0.37,0.74 0.6 0 1 0.38,-0.73 l 9.81,-0.06 a 0.45,0.69 0 0 1 0.45,0.69 q 0.08,16.94 -0.11,33.82 c -0.17,15.27 20.47,16.06 20.91,1.26 q 0.52,-17.51 0.16,-35.01 a 0.73,0.59 89.5 0 1 0.59,-0.74 h 9.5 a 0.46,0.53 0 0 1 0.46,0.53 c -0.09,12.29 -0.1,24.66 -0.07,36.96 z"
     id="path134" />
  <path
     fill="#ffffff"
     d="m 762.92,25.97 9.56,0.06 a 0.41,0.41 0 0 1 0.39,0.27 l 19.8,55.39 a 0.41,0.41 0 0 1 -0.38,0.55 h -10.28 a 0.41,0.41 0 0 1 -0.39,-0.27 l -3.96,-10.96 a 0.41,0.41 0 0 0 -0.39,-0.27 h -19.19 a 0.41,0.41 0 0 0 -0.39,0.27 l -3.96,10.96 a 0.41,0.41 0 0 1 -0.39,0.27 h -10.21 a 0.41,0.41 0 0 1 -0.38,-0.55 l 19.78,-55.45 a 0.41,0.41 0 0 1 0.39,-0.27 z m -1.33,34.17 a 0.31,0.31 0 0 0 0.29,0.41 h 11.52 a 0.31,0.31 0 0 0 0.29,-0.41 l -5.76,-16.65 a 0.31,0.31 0 0 0 -0.58,0 z"
     id="path136" />
  <path
     fill="#ffffff"
     d="m 847.81,82.24 h -10.15 a 0.3,0.3 0 0 1 -0.3,-0.3 V 26.29 a 0.3,0.3 0 0 1 0.3,-0.3 h 10.21 a 0.3,0.3 0 0 1 0.26,0.15 l 20.42,35.37 a 0.3,0.3 0 0 0 0.56,-0.15 V 26.29 a 0.3,0.3 0 0 1 0.3,-0.3 h 9.9 a 0.3,0.3 0 0 1 0.3,0.3 v 55.65 a 0.3,0.3 0 0 1 -0.3,0.3 H 869.26 A 0.3,0.3 0 0 1 869,82.09 L 848.67,46.94 a 0.3,0.3 0 0 0 -0.56,0.15 v 34.85 a 0.3,0.3 0 0 1 -0.3,0.3 z"
     id="path138" />
  <path
     fill="#ffffff"
     d="m 1031.62,65.18 0.02,16.56 a 0.28,0.48 0 0 1 -0.28,0.48 l -9.56,0.06 a 0.54,0.68 89.5 0 1 -0.69,-0.54 v -55 a 0.59,0.59 0 0 1 0.58,-0.59 c 14.2,-0.19 37.76,-4.52 41.15,14.71 2.29,12.99 -4.44,23.39 -18.32,24.06 q -3.84,0.19 -12.1,-0.1 a 0.78,0.38 1.7 0 0 -0.8,0.36 z m 0.22,-28 -0.02,16.5 a 0.5,0.42 2.2 0 0 0.47,0.42 c 8.11,0.43 20.16,1.88 20.31,-8.36 0.17,-11.33 -13.12,-9.04 -20.4,-8.98 a 0.36,0.43 0.8 0 0 -0.36,0.42 z"
     id="path140" />
  <path
     fill="#ffffff"
     d="m 1126.11,48.49 h 16.81 a 0.5,0.5 0 0 1 0.5,0.51 l -0.09,9.75 a 0.5,0.5 0 0 1 -0.5,0.49 h -16.72 a 0.5,0.5 0 0 0 -0.5,0.5 v 11.25 a 0.5,0.5 0 0 0 0.5,0.5 h 22.5 a 0.5,0.5 0 0 1 0.5,0.5 v 9.75 a 0.5,0.5 0 0 1 -0.5,0.5 h -33.15 a 0.5,0.5 0 0 1 -0.5,-0.5 l 0.11,-55.08 a 0.5,0.5 0 0 1 0.5,-0.5 l 33.04,-0.2 a 0.5,0.5 0 0 1 0.5,0.5 v 9.72 a 0.5,0.5 0 0 1 -0.5,0.5 l -22.5,0.09 a 0.5,0.5 0 0 0 -0.5,0.5 v 10.72 a 0.5,0.5 0 0 0 0.5,0.5 z"
     id="path142" />
  <path
     fill="#ffffff"
     d="m 1309.38,48.49 h 16.71 a 0.52,0.52 0 0 1 0.52,0.52 v 9.71 a 0.52,0.52 0 0 1 -0.52,0.52 h -16.71 a 0.52,0.52 0 0 0 -0.52,0.52 v 21.96 a 0.52,0.52 0 0 1 -0.52,0.52 h -9.71 a 0.52,0.52 0 0 1 -0.52,-0.52 v -55.1 a 0.52,0.52 0 0 1 0.52,-0.52 l 33.14,-0.15 a 0.52,0.52 0 0 1 0.52,0.52 l 0.1,9.75 a 0.52,0.52 0 0 1 -0.52,0.52 h -22.49 a 0.52,0.52 0 0 0 -0.52,0.52 v 10.71 a 0.52,0.52 0 0 0 0.52,0.52 z"
     id="path144" />
  <path
     fill="#ffffff"
     d="m 1413.86,59.24 13.25,22.5 q 0.29,0.5 -0.25,0.5 h -10.75 a 1.69,1.65 74.3 0 1 -1.43,-0.82 l -12.69,-21.53 a 1.36,0.37 61.9 0 0 -0.82,-0.87 h -5.87 a 0.44,0.97 0 0 0 -0.44,0.97 v 21.5 a 0.5,0.74 0 0 1 -0.5,0.74 l -9.44,0.03 a 0.55,0.52 0 0 1 -0.55,-0.52 l -0.05,-55.25 a 0.54,0.39 0.7 0 1 0.55,-0.39 c 9.28,0.1 18.54,-0.61 27.75,0.41 16.56,1.85 17.26,26.84 1.47,32.08 a 0.45,0.44 65.5 0 0 -0.23,0.65 z m -18.8,-11.25 a 0.52,0.51 0 0 0 0.52,0.51 c 3.91,-0.01 13.66,0.95 16.76,-1.06 3.81,-2.48 2.76,-9.88 -1.99,-10.47 q -4.9,-0.6 -14.85,-0.12 a 0.65,0.46 89.1 0 0 -0.44,0.64 z"
     id="path146" />
  <rect
     fill="#306165"
     x="939.00409"
     y="37.697021"
     transform="rotate(-0.1)"
     width="20.700001"
     height="36.16"
     rx="9.6199999"
     id="rect148" />
  <path
     fill="#306165"
     d="M 32.37,48.54 A 0.44,0.55 0 0 1 31.93,47.99 L 31.9,37.49 a 0.64,0.59 88.6 0 1 0.56,-0.64 q 10.98,-0.54 14.87,0.13 c 4.61,0.78 5.81,7.52 2.39,10.2 -2.96,2.3 -13.13,1.39 -17.35,1.36 z"
     id="path150" />
  <path
     fill="#306165"
     d="m 1031.84,37.18 a 0.36,0.43 0.8 0 1 0.36,-0.42 c 7.28,-0.06 20.57,-2.35 20.4,8.98 -0.15,10.24 -12.2,8.79 -20.31,8.36 a 0.5,0.42 2.2 0 1 -0.47,-0.42 z"
     id="path152" />
  <path
     fill="#306165"
     d="m 1395.06,47.99 v -10.5 a 0.65,0.46 89.1 0 1 0.44,-0.64 q 9.95,-0.48 14.85,0.12 c 4.75,0.59 5.8,7.99 1.99,10.47 -3.1,2.01 -12.85,1.05 -16.76,1.06 a 0.52,0.51 0 0 1 -0.52,-0.51 z"
     id="path154" />
  <path
     fill="#306165"
     d="m 398.16,60.16 5.7,-16.72 a 0.32,0.32 0 0 1 0.6,0 l 5.75,16.7 a 0.32,0.32 0 0 1 -0.3,0.43 l -11.44,0.02 a 0.32,0.32 0 0 1 -0.31,-0.43 z"
     id="path156" />
  <path
     fill="#306165"
     d="m 761.59,60.14 5.76,-16.65 a 0.31,0.31 0 0 1 0.58,0 l 5.76,16.65 a 0.31,0.31 0 0 1 -0.29,0.41 h -11.52 a 0.31,0.31 0 0 1 -0.29,-0.41 z"
     id="path158" />
  <rect
     fill="#ffffff"
     x="574.35999"
     y="54.740002"
     width="23.26"
     height="9"
     rx="0.25999999"
     id="rect160" />
  <rect
     fill="#ffffff"
     x="1215.4857"
     y="71.622658"
     transform="rotate(-0.1)"
     width="12.74"
     height="12.74"
     rx="0.31"
     id="rect162" />
  <path
     fill="#306165"
     d="m 350.86,619.08 a 0.91,0.91 0 0 1 -0.91,0.91 H 1.01 A 0.91,0.91 0 0 1 0.1,619.08 V 124.66 a 0.91,0.91 0 0 1 0.91,-0.91 h 348.94 a 0.91,0.91 0 0 1 0.91,0.91 z M 264.09,320.45 c -1.48,-34.86 -22.41,-65.13 -56.47,-75.25 -26.12,-7.76 -57.85,-6.34 -81.56,7.95 -27.3,16.45 -39.19,44.13 -39.21,76.09 q -0.03,37.65 0.04,75.29 c 0.01,8.64 0.37,17.14 1.95,24.46 8.05,37.24 34.18,60.34 71.51,65.48 53.41,7.37 100.44,-22.4 103.79,-78.61 a 0.53,0.57 1.5 0 0 -0.53,-0.6 L 226.8,415.2 a 0.45,0.63 4.8 0 0 -0.47,0.55 c -7.85,59.45 -101.24,55.21 -101.44,-6.52 q -0.13,-37.35 0.02,-74.66 0.05,-14.27 1.33,-19.89 c 10.92,-48.19 86.97,-48.98 98.66,-1.14 q 0.84,3.43 1.64,6.95 a 0.65,0.57 82.3 0 0 0.57,0.5 h 36.5 a 0.52,0.48 88.9 0 0 0.48,-0.54 z"
     id="path164" />
  <path
     fill="#306165"
     d="m 714.62,619.35 a 0.64,0.64 0 0 1 -0.64,0.64 H 364.72 a 0.64,0.64 0 0 1 -0.64,-0.64 V 124.39 a 0.64,0.64 0 0 1 0.64,-0.64 h 349.26 a 0.64,0.64 0 0 1 0.64,0.64 z M 606.06,492.02 a 0.35,0.35 0 0 1 -0.33,-0.23 L 585,432.47 a 0.35,0.35 0 0 0 -0.33,-0.23 h -92.35 a 0.35,0.35 0 0 0 -0.33,0.23 l -20.71,59.29 a 0.35,0.35 0 0 1 -0.33,0.23 h -38.21 a 0.35,0.35 0 0 1 -0.33,-0.47 l 86.54,-247.3 a 0.35,0.35 0 0 1 0.33,-0.23 h 38.44 a 0.35,0.35 0 0 1 0.33,0.23 l 86.52,247.29 a 0.35,0.35 0 0 1 -0.33,0.47 z"
     id="path166" />
  <path
     fill="#306165"
     d="m 1078.62,619.27 a 0.73,0.73 0 0 1 -0.73,0.73 h -349.3 a 0.73,0.73 0 0 1 -0.73,-0.73 v -494.8 a 0.73,0.73 0 0 1 0.73,-0.73 h 349.3 a 0.73,0.73 0 0 1 0.73,0.73 z M 852.17,315.22 a 0.3,0.3 0 0 0 -0.56,0.15 v 176.31 a 0.3,0.3 0 0 1 -0.3,0.3 l -37.4,0.04 a 0.3,0.3 0 0 1 -0.3,-0.3 V 244.29 a 0.3,0.3 0 0 1 0.3,-0.3 L 851.4,244 a 0.3,0.3 0 0 1 0.26,0.15 l 101.38,176.63 a 0.3,0.3 0 0 0 0.56,-0.15 l 0.01,-176.34 a 0.3,0.3 0 0 1 0.3,-0.3 h 37.4 a 0.3,0.3 0 0 1 0.3,0.3 v 247.38 a 0.3,0.3 0 0 1 -0.3,0.3 l -37.48,0.07 a 0.3,0.3 0 0 1 -0.26,-0.15 z"
     id="path168" />
  <path
     fill="#306165"
     d="m 1442.62,619.25 a 0.74,0.74 0 0 1 -0.74,0.74 H 1092.6 a 0.74,0.74 0 0 1 -0.74,-0.74 V 124.49 a 0.74,0.74 0 0 1 0.74,-0.74 h 349.28 a 0.74,0.74 0 0 1 0.74,0.74 z M 1187.61,451.51 c 19,37.82 63.32,49.76 102,41.64 41.67,-8.75 65.74,-41.86 65.97,-83.66 q 0.15,-27.7 -0.01,-75.68 -0.05,-13.97 -0.79,-19.97 c -6.84,-55.7 -57.16,-80.82 -108.66,-71.34 -43.28,7.96 -68.06,41.67 -68.21,84.74 q -0.14,42.35 0.04,84.68 0.09,20.51 9.66,39.59 z"
     id="path170" />
  <path
     fill="#306165"
     d="m 1806.62,619.23 a 0.76,0.76 0 0 1 -0.76,0.76 h -349.24 a 0.76,0.76 0 0 1 -0.76,-0.76 V 124.51 a 0.76,0.76 0 0 1 0.76,-0.76 h 349.24 a 0.76,0.76 0 0 1 0.76,0.76 z m -78.71,-300.55 c -2.25,-40.11 -26.95,-67.71 -66.68,-73.5 q -6.76,-0.98 -19.8,-1.06 -45.32,-0.29 -90.13,-0.07 a 1.01,1.01 0 0 0 -1.01,1.04 q 0.51,18.78 0.3,37.15 c -0.42,36.14 -0.27,72.29 -0.19,108.42 0.04,19.05 -0.19,36.85 0.24,68.33 q 0.2,15.26 -0.32,31.08 -0.06,1.92 1.78,1.92 h 35.77 a 0.49,0.5 0 0 0 0.49,-0.5 v -84.75 a 0.53,0.55 0 0 1 0.53,-0.55 q 30.51,0.19 61.02,-0.09 19.11,-0.17 36.59,-8.42 c 31.11,-14.67 43.27,-46.02 41.41,-79 z"
     id="path172" />
  <path
     fill="#306165"
     d="m 2168.36,619.12 a 0.87,0.87 0 0 1 -0.87,0.87 h -346.76 a 0.87,0.87 0 0 1 -0.87,-0.87 v -494.5 a 0.87,0.87 0 0 1 0.87,-0.87 h 346.76 a 0.87,0.87 0 0 1 0.87,0.87 z m -173.5,-474.39 c -6.29,14.55 -11.53,30.14 -17.16,45.07 a 0.45,0.48 10.8 0 0 0.41,0.65 l 32,0.06 a 1.45,0.77 10.4 0 0 0.97,-0.31 l 42.82,-45.16 q 0.52,-0.55 -0.29,-0.55 h -58.5 a 0.21,0.37 17.2 0 0 -0.25,0.24 z M 2153.13,368.2 A 157.92,157.92 0 0 0 1995.21,210.28 157.92,157.92 0 0 0 1837.29,368.2 157.92,157.92 0 0 0 1995.21,526.12 157.92,157.92 0 0 0 2153.13,368.2 Z"
     id="path174" />
  <path
     fill="#ffffff"
     d="m 1977.7,189.8 c 5.63,-14.93 10.87,-30.52 17.16,-45.07 a 0.21,0.37 17.2 0 1 0.25,-0.24 h 58.5 q 0.81,0 0.29,0.55 l -42.82,45.16 a 1.45,0.77 10.4 0 1 -0.97,0.31 l -32,-0.06 a 0.45,0.48 10.8 0 1 -0.41,-0.65 z"
     id="path176" />
  <path
     fill="#ffffff"
     d="M 2153.13,368.2 A 157.92,157.92 0 0 1 1995.21,526.12 157.92,157.92 0 0 1 1837.29,368.2 157.92,157.92 0 0 1 1995.21,210.28 157.92,157.92 0 0 1 2153.13,368.2 Z m -32.17,0 A 125.75,125.75 0 0 0 1995.21,242.45 125.75,125.75 0 0 0 1869.46,368.2 125.75,125.75 0 0 0 1995.21,493.95 125.75,125.75 0 0 0 2120.96,368.2 Z"
     id="path178" />
  <path
     fill="#ffffff"
     d="m 207.62,245.2 c 34.06,10.12 54.99,40.39 56.47,75.25 a 0.52,0.48 88.9 0 1 -0.48,0.54 h -36.5 a 0.65,0.57 82.3 0 1 -0.57,-0.5 q -0.8,-3.52 -1.64,-6.95 c -11.69,-47.84 -87.74,-47.05 -98.66,1.14 q -1.28,5.62 -1.33,19.89 -0.15,37.31 -0.02,74.66 c 0.2,61.73 93.59,65.97 101.44,6.52 a 0.45,0.63 4.8 0 1 0.47,-0.55 l 36.81,0.06 a 0.53,0.57 1.5 0 1 0.53,0.6 c -3.35,56.21 -50.38,85.98 -103.79,78.61 -37.33,-5.14 -63.46,-28.24 -71.51,-65.48 -1.58,-7.32 -1.94,-15.82 -1.95,-24.46 q -0.07,-37.64 -0.04,-75.29 c 0.02,-31.96 11.91,-59.64 39.21,-76.09 23.71,-14.29 55.44,-15.71 81.56,-7.95 z"
     id="path180" />
  <path
     fill="#ffffff"
     d="m 1289.61,493.15 c -38.68,8.12 -83,-3.82 -102,-41.64 q -9.57,-19.08 -9.66,-39.59 -0.18,-42.33 -0.04,-84.68 c 0.15,-43.07 24.93,-76.78 68.21,-84.74 51.5,-9.48 101.82,15.64 108.66,71.34 q 0.74,6 0.79,19.97 0.16,47.98 0.01,75.68 c -0.23,41.8 -24.3,74.91 -65.97,83.66 z m -72.16,-70.73 c 12.12,48.17 88.06,47.29 98.85,-1.78 q 1.39,-6.34 1.35,-19.9 -0.11,-35.05 -0.01,-70.11 0.02,-9.59 -1.25,-15.19 c -12.37,-54.35 -99.59,-48.52 -100.46,11.06 q -0.49,33.2 -0.04,76.04 0.15,14.29 1.56,19.88 z"
     id="path182" />
  <path
     fill="#306165"
     d="M 2120.96,368.2 A 125.75,125.75 0 0 1 1995.21,493.95 125.75,125.75 0 0 1 1869.46,368.2 125.75,125.75 0 0 1 1995.21,242.45 125.75,125.75 0 0 1 2120.96,368.2 Z m -141.55,15.04 a 0.3,0.3 0 0 0 -0.3,0.3 v 28.9 a 0.3,0.3 0 0 0 0.3,0.3 l 73.4,0.03 a 0.3,0.3 0 0 1 0.3,0.3 v 35.62 a 0.3,0.3 0 0 1 -0.3,0.3 h -115.15 a 0.3,0.3 0 0 1 -0.3,-0.3 v -166.9 a 0.3,0.3 0 0 1 0.3,-0.3 h 115.15 a 0.3,0.3 0 0 1 0.3,0.3 v 35.4 a 0.3,0.3 0 0 1 -0.3,0.3 h -73.42 a 0.3,0.3 0 0 0 -0.3,0.3 l 0.06,29.1 a 0.3,0.3 0 0 0 0.3,0.3 l 68.61,0.03 a 0.3,0.3 0 0 1 0.3,0.3 v 35.42 a 0.3,0.3 0 0 1 -0.3,0.3 z"
     id="path184" />
  <path
     fill="#ffffff"
     d="m 584.67,432.24 h -92.35 a 0.35,0.35 0 0 0 -0.33,0.23 l -20.71,59.29 a 0.35,0.35 0 0 1 -0.33,0.23 h -38.21 a 0.35,0.35 0 0 1 -0.33,-0.47 l 86.54,-247.3 a 0.35,0.35 0 0 1 0.33,-0.23 h 38.44 a 0.35,0.35 0 0 1 0.33,0.23 l 86.52,247.29 a 0.35,0.35 0 0 1 -0.33,0.47 l -38.18,0.04 a 0.35,0.35 0 0 1 -0.33,-0.23 L 585,432.47 a 0.35,0.35 0 0 0 -0.33,-0.23 z m -80.36,-35.68 a 0.32,0.32 0 0 0 0.31,0.43 h 67.72 a 0.32,0.32 0 0 0 0.31,-0.43 l -33.87,-97.04 a 0.32,0.32 0 0 0 -0.6,0 z"
     id="path186" />
  <path
     fill="#ffffff"
     d="m 851.31,491.98 -37.4,0.04 a 0.3,0.3 0 0 1 -0.3,-0.3 V 244.29 a 0.3,0.3 0 0 1 0.3,-0.3 L 851.4,244 a 0.3,0.3 0 0 1 0.26,0.15 l 101.38,176.63 a 0.3,0.3 0 0 0 0.56,-0.15 l 0.01,-176.34 a 0.3,0.3 0 0 1 0.3,-0.3 h 37.4 a 0.3,0.3 0 0 1 0.3,0.3 v 247.38 a 0.3,0.3 0 0 1 -0.3,0.3 l -37.48,0.07 a 0.3,0.3 0 0 1 -0.26,-0.15 L 852.17,315.22 a 0.3,0.3 0 0 0 -0.56,0.15 v 176.31 a 0.3,0.3 0 0 1 -0.3,0.3 z"
     id="path188" />
  <path
     fill="#ffffff"
     d="m 1661.23,245.18 c 39.73,5.79 64.43,33.39 66.68,73.5 1.86,32.98 -10.3,64.33 -41.41,79 q -17.48,8.25 -36.59,8.42 -30.51,0.28 -61.02,0.09 a 0.53,0.55 0 0 0 -0.53,0.55 v 84.75 a 0.49,0.5 0 0 1 -0.49,0.5 h -35.77 q -1.84,0 -1.78,-1.92 0.52,-15.82 0.32,-31.08 c -0.43,-31.48 -0.2,-49.28 -0.24,-68.33 -0.08,-36.13 -0.23,-72.28 0.19,-108.42 q 0.21,-18.37 -0.3,-37.15 a 1.01,1.01 0 0 1 1.01,-1.04 q 44.81,-0.22 90.13,0.07 13.04,0.08 19.8,1.06 z m 27.72,88.8 c 4.56,-28.8 -11.7,-53.11 -42.37,-53.09 q -28.8,0.01 -57.69,0.15 a 0.53,0.45 0 0 0 -0.53,0.45 v 86.75 a 0.5,0.49 0 0 0 0.5,0.49 q 26.38,0.04 52.76,-0.02 c 23.89,-0.05 43.23,-8.85 47.33,-34.73 z"
     id="path190" />
  <path
     fill="#306165"
     d="m 1316.3,420.64 c -10.79,49.07 -86.73,49.95 -98.85,1.78 q -1.41,-5.59 -1.56,-19.88 -0.45,-42.84 0.04,-76.04 c 0.87,-59.58 88.09,-65.41 100.46,-11.06 q 1.27,5.6 1.25,15.19 -0.1,35.06 0.01,70.11 0.04,13.56 -1.35,19.9 z"
     id="path192" />
  <path
     fill="#306165"
     d="m 1646.58,280.89 c 30.67,-0.02 46.93,24.29 42.37,53.09 -4.1,25.88 -23.44,34.68 -47.33,34.73 q -26.38,0.06 -52.76,0.02 a 0.5,0.49 0 0 1 -0.5,-0.49 v -86.75 a 0.53,0.45 0 0 1 0.53,-0.45 q 28.89,-0.14 57.69,-0.15 z"
     id="path194" />
  <path
     fill="#ffffff"
     d="m 1979.41,412.74 73.4,0.03 a 0.3,0.3 0 0 1 0.3,0.3 v 35.62 a 0.3,0.3 0 0 1 -0.3,0.3 h -115.15 a 0.3,0.3 0 0 1 -0.3,-0.3 v -166.9 a 0.3,0.3 0 0 1 0.3,-0.3 h 115.15 a 0.3,0.3 0 0 1 0.3,0.3 v 35.4 a 0.3,0.3 0 0 1 -0.3,0.3 h -73.42 a 0.3,0.3 0 0 0 -0.3,0.3 l 0.06,29.1 a 0.3,0.3 0 0 0 0.3,0.3 l 68.61,0.03 a 0.3,0.3 0 0 1 0.3,0.3 v 35.42 a 0.3,0.3 0 0 1 -0.3,0.3 h -68.65 a 0.3,0.3 0 0 0 -0.3,0.3 v 28.9 a 0.3,0.3 0 0 0 0.3,0.3 z"
     id="path196" />
  <path
     fill="#306165"
     d="m 504.31,396.56 33.87,-97.04 a 0.32,0.32 0 0 1 0.6,0 l 33.87,97.04 a 0.32,0.32 0 0 1 -0.31,0.43 h -67.72 a 0.32,0.32 0 0 1 -0.31,-0.43 z"
     id="path198" />
</svg>
