<?xml version="1.0" encoding="UTF-8" standalone="no"?>
<svg
   id="eduka"
   x="0"
   y="0"
   version="1.1"
   viewBox="0 0 128 128"
   xml:space="preserve"
   sodipodi:docname="eduka.svg"
   width="128"
   height="128"
   inkscape:version="1.2.2 (732a01da63, 2022-12-09)"
   xmlns:inkscape="http://www.inkscape.org/namespaces/inkscape"
   xmlns:sodipodi="http://sodipodi.sourceforge.net/DTD/sodipodi-0.dtd"
   xmlns="http://www.w3.org/2000/svg"
   xmlns:svg="http://www.w3.org/2000/svg"><defs
   id="defs14" /><sodipodi:namedview
   id="namedview12"
   pagecolor="#ffffff"
   bordercolor="#000000"
   borderopacity="0.25"
   inkscape:showpageshadow="2"
   inkscape:pageopacity="0.0"
   inkscape:pagecheckerboard="0"
   inkscape:deskcolor="#d1d1d1"
   showgrid="false"
   inkscape:zoom="1.6347656"
   inkscape:cx="120.81243"
   inkscape:cy="67.899642"
   inkscape:window-width="1920"
   inkscape:window-height="1017"
   inkscape:window-x="3832"
   inkscape:window-y="-8"
   inkscape:window-maximized="1"
   inkscape:current-layer="eduka" />
  <style
   id="style2">
    .st0{fill:#fff}
  </style>
  <rect
   style="fill:#4d81ba;fill-opacity:1;stroke-width:0.604085;stop-color:#000000"
   id="rect361"
   width="128"
   height="128"
   x="0"
   y="0"
   ry="8.7822704" /><g
   id="ka"
   style="fill:#ffffff"
   transform="translate(0,0.30000001)">
    <path
   id="a"
   d="m 106.8,113 c -0.9,0 -1.5,-0.1 -2,-0.4 -0.4,-0.2 -0.8,-0.8 -1.1,-1.5 l -0.7,-1.7 c -0.8,0.7 -1.5,1.3 -2.2,1.8 -0.7,0.5 -1.5,0.9 -2.2,1.3 -0.8,0.4 -1.6,0.6 -2.4,0.8 -0.9,0.2 -1.8,0.3 -2.9,0.3 -1.4,0 -2.7,-0.2 -3.8,-0.6 -1.2,-0.4 -2.1,-0.9 -2.9,-1.7 -0.8,-0.7 -1.4,-1.6 -1.9,-2.7 -0.4,-1.1 -0.7,-2.3 -0.7,-3.8 0,-1.1 0.3,-2.3 0.8,-3.4 0.6,-1.2 1.5,-2.3 2.9,-3.2 1.4,-1 3.2,-1.8 5.5,-2.4 2.3,-0.7 5.3,-1 8.8,-1 v -1.4 c 0,-1.9 -0.4,-3.2 -1.1,-4 -0.7,-0.8 -1.8,-1.2 -3.2,-1.2 -1.1,0 -2,0.1 -2.7,0.4 -0.7,0.2 -1.3,0.5 -1.9,0.8 -0.6,0.3 -1.1,0.6 -1.6,0.8 -0.5,0.2 -1.1,0.4 -1.8,0.4 -0.6,0 -1.2,-0.2 -1.6,-0.5 C 87.7,89.8 87.3,89.4 87,88.9 L 85.3,86 c 1.9,-1.7 3.9,-2.9 6.2,-3.8 2.3,-0.8 4.7,-1.2 7.3,-1.2 1.9,0 3.6,0.3 5.1,0.9 1.5,0.6 2.8,1.5 3.8,2.6 1,1.1 1.8,2.4 2.4,3.9 0.6,1.5 0.8,3.2 0.8,5 V 113 Z m -10.5,-5.6 c 1.2,0 2.2,-0.2 3,-0.6 0.8,-0.4 1.7,-1.1 2.6,-2.1 v -4.3 c -1.8,0 -3.3,0.1 -4.4,0.4 -1.1,0.3 -2.1,0.6 -2.7,0.9 -0.7,0.4 -1.1,0.8 -1.4,1.3 -0.3,0.5 -0.4,1 -0.4,1.5 0,1.1 0.3,1.8 0.8,2.3 0.6,0.4 1.5,0.6 2.5,0.6 z"
   class="st0"
   style="fill:#ffffff" />
    <path
   id="k"
   d="m 61,67 v 26 h 1.4 c 0.6,0 1,-0.1 1.3,-0.3 0.3,-0.2 0.6,-0.5 0.9,-0.9 l 5.9,-9.2 c 0.3,-0.5 0.7,-1 1.2,-1.2 0.5,-0.3 1.1,-0.4 1.8,-0.4 h 8.2 l -7.8,11.4 c -0.4,0.5 -0.8,1 -1.2,1.4 -0.4,0.4 -0.9,0.8 -1.4,1.1 0.9,0.7 1.6,1.6 2.3,2.8 L 82,113 h -8.5 c -0.7,0 -1.3,-0.1 -1.8,-0.4 -0.5,-0.2 -0.9,-0.6 -1.2,-1.2 L 64.8,100.2 C 64.5,99.7 64.3,99.4 64,99.2 63.7,99 63.3,99 62.7,99 H 61 v 14 H 52 V 67 Z"
   class="st0"
   style="fill:#ffffff" />
  </g>
  <g
   id="edu"
   style="fill:#ffffff"
   transform="translate(0,0.30000001)">
    <path
   id="u"
   d="m 92,28 v 20 c 0,1.6 0.3,2.8 1,3.6 0.7,0.9 1.6,1.3 2.9,1.3 1,0 1.9,-0.2 2.7,-0.6 0.8,-0.4 1.6,-1 2.4,-1.8 V 28 h 9 v 32 h -5.5 c -1.1,0 -1.8,-0.5 -2.2,-1.6 l -0.5,-1.9 c -0.6,0.6 -1.2,1.1 -1.8,1.6 -0.6,0.5 -1.3,0.9 -2,1.2 -0.7,0.3 -1.5,0.6 -2.3,0.8 -0.8,0.2 -1.7,0.3 -2.6,0.3 -1.6,0 -3.1,-0.3 -4.3,-0.9 C 87.5,58.9 86.5,58 85.6,57 84.7,55.9 84.1,54.6 83.6,53.1 83.2,51.6 82.9,50 82.9,48.2 V 28 Z"
   class="st0"
   style="fill:#ffffff" />
    <path
   id="d"
   d="m 71.4,60 c -0.6,0 -1,-0.1 -1.4,-0.4 -0.4,-0.3 -0.6,-0.7 -0.8,-1.2 L 68.5,56 c -0.6,0.7 -1.2,1.3 -1.9,1.8 -0.7,0.6 -1.4,1 -2.1,1.4 -0.8,0.4 -1.6,0.7 -2.5,0.9 -0.9,0.2 -1.8,0.3 -2.9,0.3 -1.6,0 -3,-0.4 -4.4,-1.1 -1.3,-0.7 -2.5,-1.8 -3.5,-3.2 -1,-1.4 -1.7,-3.1 -2.3,-5.1 -0.6,-2 -0.8,-4.3 -0.8,-6.9 0,-2.4 0.3,-4.6 0.9,-6.6 0.6,-2 1.5,-3.8 2.6,-5.3 1.1,-1.5 2.5,-2.6 4.1,-3.5 1.6,-0.8 3.3,-1.3 5.3,-1.3 1.5,0 2.9,0.2 3.9,0.7 1.1,0.5 2,1.1 2.9,1.9 V 14 h 9 v 46 z m -9.1,-6.7 c 0.7,0 1.2,-0.1 1.8,-0.2 0.5,-0.1 1,-0.3 1.5,-0.6 0.4,-0.2 0.9,-0.5 1.3,-0.9 0.4,-0.4 0.8,-0.8 1.2,-1.3 V 37 c -0.7,-0.8 -1.4,-1.3 -2.2,-1.7 -0.8,-0.3 -1.6,-0.5 -2.5,-0.5 -0.8,0 -1.6,0.2 -2.3,0.5 -0.7,0.3 -1.3,0.9 -1.8,1.7 -0.5,0.8 -0.9,1.7 -1.2,3 -0.3,1.3 -0.4,2.7 -0.4,4.4 0,1.7 0.1,3.1 0.3,4.2 0.2,1.1 0.6,2.1 1,2.8 0.4,0.7 0.9,1.2 1.5,1.5 0.5,0.3 1.1,0.4 1.8,0.4 z"
   class="st0"
   style="fill:#ffffff" />
    <path
   id="e_1_"
   d="m 45,16 v 8 H 28 v 10 h 13 v 7 H 28 v 11 h 17 v 8 H 18 V 16 Z"
   class="st0"
   style="fill:#ffffff" />
  </g>
</svg>
