<?xml version="1.0" encoding="UTF-8" standalone="no"?>
<svg
   version="1.1"
   viewBox="0 0 1600 460"
   id="svg875"
   sodipodi:docname="eduscol.svg"
   width="1600"
   height="460"
   inkscape:version="1.2.2 (732a01da63, 2022-12-09)"
   xmlns:inkscape="http://www.inkscape.org/namespaces/inkscape"
   xmlns:sodipodi="http://sodipodi.sourceforge.net/DTD/sodipodi-0.dtd"
   xmlns="http://www.w3.org/2000/svg"
   xmlns:svg="http://www.w3.org/2000/svg">
  <defs
     id="defs879" />
  <sodipodi:namedview
     id="namedview877"
     pagecolor="#ffffff"
     bordercolor="#000000"
     borderopacity="0.25"
     inkscape:showpageshadow="2"
     inkscape:pageopacity="0.0"
     inkscape:pagecheckerboard="0"
     inkscape:deskcolor="#d1d1d1"
     showgrid="false"
     inkscape:zoom="0.57803867"
     inkscape:cx="512.94146"
     inkscape:cy="596.84588"
     inkscape:window-width="1920"
     inkscape:window-height="1017"
     inkscape:window-x="-8"
     inkscape:window-y="-8"
     inkscape:window-maximized="1"
     inkscape:current-layer="svg875" />
  <g
     id="g1007"
     transform="translate(76.06226,-494)">
    <path
       fill="#f49d5b"
       d="m 140.26,604.68 c -15.75,-1.97 -31.42,-1.61 -47.02,1.32 q -1.2,0.23 -0.54,-0.78 l 42.61,-65.16 a 2.37,2.3 -72.8 0 1 1.94,-1.06 h 52 q 1,0 0.36,0.85 l -48.51,64.49 a 0.92,0.88 21.7 0 1 -0.84,0.34 z"
       id="path851" />
    <path
       fill="#005c81"
       d="m 1150.04,840.51 c -58.1,-6.69 -96.14,-57.53 -93.15,-115 q 1.68,-32.32 20.35,-57.46 c 35.19,-47.36 106.41,-56.82 152.51,-19.83 35.43,28.43 49.44,79.42 34.64,122.35 -16.39,47.56 -64.66,75.67 -114.35,69.94 z m 78.16,-107.13 a 64.84,64.84 0 0 0 -64.84,-64.84 64.84,64.84 0 0 0 -64.84,64.84 64.84,64.84 0 0 0 64.84,64.84 64.84,64.84 0 0 0 64.84,-64.84 z"
       id="path853" />
    <path
       fill="#005c81"
       d="m 701.44,731.56 c -13.57,-11.9 -19.11,-28.4 -18.24,-46.07 1.57,-31.86 27.51,-54.32 58.06,-57.77 34.12,-3.84 63.41,8.5 86.2,33.36 a 0.5,0.41 47.6 0 1 0.03,0.65 l -36.55,33.46 a 0.51,0.48 47.8 0 1 -0.71,-0.06 q -8.3,-9.55 -18.48,-16.83 c -8.67,-6.2 -23.61,-10.21 -32.17,-2.03 -4.45,4.25 -5.9,10.64 -3,16.15 3.76,7.16 14.65,11.84 21.84,14.69 32.86,13.05 67.18,26.78 66.43,69.89 -0.63,36.35 -27.1,59.09 -61.76,62.4 -33.13,3.15 -65.32,-7.38 -87.21,-33.23 a 0.54,0.52 -41.4 0 1 0.06,-0.73 l 36.42,-33.57 a 0.53,0.45 -40.5 0 1 0.72,0 c 10.35,13.14 25.37,23.28 42.69,22.76 8.82,-0.26 16.08,-4.43 16.94,-13.62 1.66,-17.66 -24.3,-24.63 -36.57,-29.84 -12.98,-5.5 -24.36,-10.53 -34.7,-19.61 z"
       id="path855" />
    <path
       fill="#005c81"
       d="m 880.9,812.6 c -40.47,-36.69 -45.82,-100.47 -13.29,-143.93 41.38,-55.3 128.91,-55.96 171.96,-1.8 a 0.82,0.74 51.9 0 1 -0.08,1.11 l -39.63,30.39 a 0.57,0.54 -37.7 0 1 -0.78,-0.08 q -20.1,-26.36 -51.55,-22.69 c -64.71,7.57 -64.26,109.86 1.22,115.77 20.02,1.81 38.4,-6.22 50.16,-22.83 a 0.66,0.65 36.3 0 1 0.93,-0.14 l 39.92,30.34 a 0.39,0.38 -51.7 0 1 0.06,0.55 q -24.48,30.75 -62.16,38.24 c -34.38,6.83 -70.53,-1.14 -96.76,-24.93 z"
       id="path857" />
    <path
       fill="#005c81"
       d="m 70.15,753.06 c 5.33,29.38 35.7,43.51 63.11,38.97 q 24.88,-4.12 37.76,-24.9 a 0.99,0.93 -55 0 1 1.41,-0.3 l 36.79,29.44 a 0.61,0.43 -52.9 0 1 -0.02,0.72 q -23.53,33.31 -64.02,40.29 C 66.61,850.83 3.55,798.37 15.61,716.03 q 5.82,-39.73 35.25,-64.67 c 25.7,-21.78 64,-28.69 96.28,-20.45 56.23,14.35 73.93,67.91 69.25,120.8 a 0.56,0.55 -87.1 0 1 -0.55,0.5 c -48.4,0.06 -96.94,-0.69 -145.28,0.34 a 0.43,0.43 -6.3 0 0 -0.41,0.51 z m 91.24,-43.07 c -0.53,-21.42 -14.97,-36.8 -36.07,-38.74 -26.11,-2.4 -50.48,11.85 -55.41,38.73 a 0.44,0.36 -83.5 0 0 0.34,0.52 H 161 a 0.49,0.39 88.6 0 0 0.39,-0.51 z"
       id="path859" />
    <path
       fill="#005c81"
       d="m 349.71,633.55 c 48.9,5.45 88.92,42.45 92.36,92.64 4.01,58.55 -39.6,102.04 -96.27,107.48 q -5.42,0.52 -16.25,0.55 -37.64,0.1 -75.28,-0.02 a 0.52,0.45 0 0 1 -0.52,-0.45 V 633 a 0.52,0.45 0 0 1 0.52,-0.45 q 38.91,-0.11 77.72,0 8.9,0.02 17.72,1 z m 8.24,149.42 c 48.79,-22.38 38.62,-98.42 -17.21,-103.52 q -11.37,-1.04 -34.81,-0.32 a 0.57,0.56 -87.7 0 0 -0.55,0.51 c -0.6,6.27 -0.14,13.93 -0.14,18.59 q 0,44.48 0.02,88.96 a 0.51,0.51 0 0 0 0.51,0.51 c 19.79,0.19 37.51,2 52.18,-4.73 z"
       id="path861" />
    <path
       fill="#005c81"
       d="m 535.7,836.8 c -34.32,-8.2 -53.18,-35.52 -57.19,-69.39 q -0.7,-5.88 -0.72,-19.97 -0.1,-57.19 -0.01,-114.39 a 0.55,0.47 -90 0 1 0.47,-0.55 h 50.5 a 0.51,0.5 90 0 1 0.5,0.51 q -0.02,58.78 0.02,117.73 0,14.32 1.58,19.85 c 4.82,16.85 22.68,23.9 39.75,20.22 17.61,-3.79 24.46,-17.31 24.45,-34.31 Q 595,694.77 595.01,633.04 a 0.55,0.49 -89.4 0 1 0.49,-0.54 H 646 a 0.55,0.5 -90 0 1 0.5,0.55 q 0.01,56.86 0,113.7 c -0.01,35.98 -9.51,69.81 -44.89,85.49 -20.13,8.93 -44.61,9.64 -65.91,4.56 z"
       id="path863" />
    <path
       fill="#005c81"
       d="m 1361.33,787.75 h 72.08 a 0.34,0.34 0 0 1 0.34,0.34 v 45.82 a 0.34,0.34 0 0 1 -0.34,0.34 h -123.57 a 0.34,0.34 0 0 1 -0.34,-0.34 V 632.84 a 0.34,0.34 0 0 1 0.34,-0.34 h 50.82 a 0.34,0.34 -90 0 1 0.34,0.34 l -0.01,154.57 a 0.34,0.34 -90 0 0 0.34,0.34 z"
       id="path865" />
    <path
       fill="#f49d5b"
       d="m 1119.01,850.96 a 0.47,0.36 -63.2 0 1 0.12,0.65 l -36.6,56.94 a 0.99,0.89 -72 0 1 -0.78,0.45 h -43 q -0.61,0 -0.25,-0.5 l 51.88,-70.85 a 1.05,0.98 35.6 0 1 1.41,-0.19 q 12.64,8.73 27.22,13.5 z"
       id="path873" />
  </g>
  <rect
     style="fill:none;stroke-width:0.385338;stop-color:#000000"
     id="rect294"
     width="1600"
     height="460"
     x="0"
     y="0" />
</svg>
