<?xml version="1.0" encoding="UTF-8" standalone="no"?>
<svg
   version="1.1"
   viewBox="0 0 130 130"
   id="svg124"
   sodipodi:docname="e-sidoc-bcd.svg"
   xml:space="preserve"
   width="130"
   height="130"
   inkscape:version="1.2.2 (732a01da63, 2022-12-09)"
   xmlns:inkscape="http://www.inkscape.org/namespaces/inkscape"
   xmlns:sodipodi="http://sodipodi.sourceforge.net/DTD/sodipodi-0.dtd"
   xmlns:xlink="http://www.w3.org/1999/xlink"
   xmlns="http://www.w3.org/2000/svg"
   xmlns:svg="http://www.w3.org/2000/svg"><defs
     id="defs128"><linearGradient
       inkscape:collect="always"
       id="linearGradient1927"><stop
         style="stop-color:#c20303;stop-opacity:1;"
         offset="0"
         id="stop1923" /><stop
         style="stop-color:#f93a3a;stop-opacity:1"
         offset="1"
         id="stop1925" /></linearGradient><linearGradient
       inkscape:collect="always"
       xlink:href="#linearGradient1927"
       id="linearGradient1929"
       x1="14"
       y1="4.8861084"
       x2="90.25"
       y2="-90.113892"
       gradientUnits="userSpaceOnUse"
       gradientTransform="translate(18,109.36389)" /></defs><sodipodi:namedview
     id="namedview126"
     pagecolor="#ffffff"
     bordercolor="#000000"
     borderopacity="0.25"
     inkscape:showpageshadow="2"
     inkscape:pageopacity="0.0"
     inkscape:pagecheckerboard="0"
     inkscape:deskcolor="#d1d1d1"
     showgrid="false"
     inkscape:zoom="0.70710678"
     inkscape:cx="195.16147"
     inkscape:cy="-65.053824"
     inkscape:window-width="1920"
     inkscape:window-height="1017"
     inkscape:window-x="1912"
     inkscape:window-y="-8"
     inkscape:window-maximized="1"
     inkscape:current-layer="svg124" /><circle
     style="fill:url(#linearGradient1929);fill-opacity:1;stroke:none;stroke-width:0.475962;stop-color:#000000"
     id="path573"
     cx="65"
     cy="65"
     r="65" /><path
     fill="#ffffff"
     d="m 77.009189,65.286945 c -8.877414,5.855316 -18.952873,9.686905 -29.30356,12.325844 -0.134106,0.03437 -0.204067,0.182065 -0.145708,0.307607 5.849919,12.120772 19.416981,17.722447 31.915516,12.762968 5.439777,-2.158642 8.877414,-7.290812 11.338264,-12.37981 0.514476,-1.064928 1.349152,-1.730513 2.504025,-1.996743 1.277199,-0.295016 2.191022,0.179885 2.741475,1.424703 1.262805,2.870993 -0.426332,7.436521 -2.061503,9.918958 -4.356856,6.770942 -10.697866,11.005473 -19.023028,12.703608 -3.627668,0.44367 -6.893439,0.69774 -11.063039,0.1565 -12.89069,-2.194621 -21.982165,-9.18502 -27.274436,-20.971204 -0.253641,-0.566643 -0.883187,-0.595315 -1.19265,-0.658385 -0.309462,-0.06308 -7.139145,-1.362367 -8.364736,-1.760901 -1.22559,-0.398528 -1.188354,-0.490745 -1.214236,-0.667571 -0.0259,-0.176825 0.04387,-0.49802 0.134915,-0.631402 0.09104,-0.133383 0.19377,-0.189146 0.26983,-0.178088 0.07606,0.01106 2.662075,0.0032 4.540007,-0.628338 1.52651,-0.47782 2.450392,-1.00863 3.511726,-1.843307 0.129746,-0.102767 0.19198,-0.270797 0.161899,-0.437125 -0.87785,-4.572721 -0.998372,-9.176024 -0.361572,-13.809909 1.219631,-6.760148 3.784816,-12.541708 7.695556,-17.344685 8.720912,-10.701467 25.525937,-17.263741 37.797815,-7.916819 8.434892,6.427356 9.314538,18.41861 2.870993,26.44336 -1.374337,1.71612 -3.200186,3.443034 -5.477553,5.180739 z M 45.28795,71.234003 C 57.39793,68.492529 81.245523,60.235725 74.985462,42.84247 73.442033,38.55217 69.329822,36.630979 64.888416,36.755101 47.122796,37.267778 41.31605,56.501274 44.807652,70.93719 c 0.05326,0.212708 0.266232,0.344314 0.480298,0.296813 z"
     id="path519"
     style="fill:#ffffff;stroke-width:0.53966"
     sodipodi:nodetypes="ccccccccccczzzzzccccccccccccc" /></svg>
