<?xml version="1.0" encoding="UTF-8" standalone="no"?>
<svg
   version="1.1"
   viewBox="0 0 413.95999 413.75"
   id="svg24"
   sodipodi:docname="generic2.svg"
   width="413.95999"
   height="413.75"
   inkscape:version="1.2.2 (732a01da63, 2022-12-09)"
   xmlns:inkscape="http://www.inkscape.org/namespaces/inkscape"
   xmlns:sodipodi="http://sodipodi.sourceforge.net/DTD/sodipodi-0.dtd"
   xmlns="http://www.w3.org/2000/svg"
   xmlns:svg="http://www.w3.org/2000/svg">
  <defs
     id="defs28" />
  <sodipodi:namedview
     id="namedview26"
     pagecolor="#ffffff"
     bordercolor="#000000"
     borderopacity="0.25"
     inkscape:showpageshadow="2"
     inkscape:pageopacity="0.0"
     inkscape:pagecheckerboard="0"
     inkscape:deskcolor="#d1d1d1"
     showgrid="false"
     inkscape:zoom="1.74375"
     inkscape:cx="114.98208"
     inkscape:cy="213.90681"
     inkscape:window-width="1920"
     inkscape:window-height="1017"
     inkscape:window-x="3832"
     inkscape:window-y="-8"
     inkscape:window-maximized="1"
     inkscape:current-layer="svg24" />
  <g
     id="g268"
     transform="translate(-24.6,-41.66)">
    <g
       stroke-width="2"
       fill="none"
       stroke-linecap="butt"
       id="g12">
      <path
         stroke="#b3b3b3"
         stroke-opacity="0.678"
         vector-effect="non-scaling-stroke"
         d="m 422.19,59.59 0.61,0.99 0.58,1 0.55,1.01 0.53,1 0.49,1.02 0.47,1.01 0.43,1.02 0.41,1.03 0.38,1.03 0.35,1.03 0.31,1.04 0.3,1.04 0.26,1.05 0.23,1.05 0.2,1.05 0.18,1.06 v 0 0 0 0 0 l 0.16,1.23 0.13,1.22 0.09,1.24 0.05,1.23 0.01,1.25 -0.03,1.25 -0.07,1.25 -0.1,1.26 -0.14,1.27 -0.18,1.27 -0.22,1.28 -0.25,1.29 -0.3,1.29 -0.33,1.29 -0.37,1.3 -0.41,1.31 -51.98,159.09 -52.03,159.07 -0.77,2.26 -0.74,2.03 -0.75,1.87 -0.77,1.74 -0.79,1.63 -0.83,1.55 -0.88,1.48 -0.93,1.42 -0.88,1.23 -0.93,1.19 -0.99,1.18 -1.06,1.17 -0.72,0.75 -1.04,1.02 -1.08,0.97 -1.12,0.94 -1.15,0.89 -1.19,0.86 -1.22,0.81 -1.25,0.77 -1.27,0.72 -1.31,0.67 -1.33,0.63 -1.35,0.58 -1.38,0.53 -1.4,0.48 -1.41,0.43 -1.42,0.38 -1.44,0.33 -1.46,0.28 -1.46,0.22 -1.47,0.17 -1.47,0.12 -1.48,0.06 -1.48,0.01 -1.47,-0.04 -1.47,-0.1 -1.47,-0.15 -1.46,-0.2 -1.45,-0.26 -1.43,-0.3 -1.42,-0.36 -1.41,-0.41 -1.39,-0.47 -1.37,-0.51 -0.67,-0.28 -0.72,-0.32 -1.6,-0.79 -1.82,-0.99 -2.04,-1.17 -2.25,-1.37 -2.47,-1.56 -2.69,-1.76 -2.9,-1.94 -39.04,-26.46 -39.05,-26.44 -0.47,-0.3 -0.49,-0.28 -0.49,-0.25 -0.51,-0.22 v 0 l -0.58,-0.22 -0.6,-0.19 -0.61,-0.14 -0.63,-0.12 -20.79,-3.27 -20.78,-3.33 -1.4,-0.25 -1.39,-0.29 -1.37,-0.34 -1.36,-0.39 v 0 0 l -1.12,-0.35 -1.11,-0.38 -1.1,-0.42 -1.09,-0.44"
         id="path2" />
      <path
         stroke="#9996b0"
         vector-effect="non-scaling-stroke"
         d="m 52.44,177.19 -0.86,1.18 -0.4,0.59 -0.36,0.59 -0.34,0.57 -0.3,0.57 -0.29,0.58 -0.26,0.57 -0.23,0.57 -0.2,0.56 -0.19,0.57 -0.15,0.57 -0.13,0.56 -0.1,0.56 -0.08,0.57 -0.06,0.57 -0.03,0.85 0.03,0.86 0.07,0.86 0.14,0.88 0.19,0.89 0.25,0.91 0.31,0.93 0.37,0.95 0.42,0.97 0.48,0.99 0.55,1.04 0.62,1.1 0.69,1.14 0.78,1.25 0.91,1.39 1.1,1.64 29.07,42.9 29.01,42.92 0.3,0.47 0.27,0.47 0.24,0.49 0.22,0.5 0.21,0.55 0.17,0.57 0.14,0.58 0.11,0.59 1.89,12.04 1.93,12.03 1.98,12.02 2.04,12.01 0.16,0.8 0.21,0.74 0.24,0.69 0.29,0.64 0.34,0.58 0.38,0.54 0.42,0.48 0.46,0.43 v 0 0 l 0.35,0.26 0.36,0.24 0.38,0.21 0.4,0.19 0.43,0.17 0.44,0.14 0.47,0.12 0.48,0.09 48.81,7.92 0.59,0.11 0.57,0.14 0.56,0.17 0.55,0.21 v 0 0 0 l 0.55,0.23 0.53,0.26 0.52,0.3 0.51,0.32 87.98,59.59 0.17,0.11 1.91,1.28 1.41,0.9 1.28,0.75 1.19,0.61 0.58,0.27 0.57,0.24 0.57,0.21 0.54,0.18 0.55,0.16 0.52,0.12 0.52,0.1 0.52,0.07 0.72,0.07 0.7,0.04 0.69,0.03 h 0.68 l 0.66,-0.02 0.65,-0.04 0.64,-0.07 0.63,-0.08 0.61,-0.11 0.6,-0.13 0.59,-0.15 0.57,-0.17 0.56,-0.2 0.55,-0.22 0.54,-0.24 0.52,-0.26 0.8,-0.45 0.76,-0.5 0.73,-0.55 0.71,-0.61 0.68,-0.66 0.66,-0.72 0.63,-0.77 0.61,-0.83 0.59,-0.88 0.56,-0.95 0.55,-1.01 0.53,-1.07 0.5,-1.13 0.49,-1.2 0.48,-1.27 0.46,-1.35 51.35,-156.97 51.3,-156.98 0.56,-1.76 0.49,-1.63 0.41,-1.5 0.33,-1.36 0.26,-1.24 0.19,-1.09 0.11,-0.97 0.04,-0.83 -0.02,-0.74 -0.05,-0.74 -0.1,-0.74 -0.12,-0.73 -0.17,-0.73 -0.2,-0.73 -0.23,-0.72 -0.27,-0.71 -0.31,-0.7 -0.33,-0.69 -0.38,-0.67 -0.4,-0.67 -0.43,-0.64 -0.47,-0.63 -0.49,-0.6 -0.52,-0.58 -0.54,-0.56 -0.57,-0.54 -0.59,-0.51 -0.62,-0.48 -0.63,-0.46 -0.66,-0.42 -0.66,-0.39 -0.69,-0.36 -0.69,-0.33 -0.71,-0.3 -0.72,-0.25 -0.72,-0.23 -0.73,-0.19 -0.74,-0.15 -0.74,-0.12 -0.74,-0.08 -0.93,-0.04 -1,0.04 -1.1,0.1 -1.17,0.18 -1.26,0.25 -1.33,0.33 -1.43,0.39 -1.5,0.47 -315.18,103.05 -1.03,0.33 -1.97,0.65 -1.34,0.47 -1.15,0.43 -1,0.42 -0.93,0.45 -0.86,0.47 -0.79,0.51 -0.74,0.54 -0.68,0.58 -0.64,0.62 -0.63,0.69 -0.61,0.75"
         id="path4" />
      <path
         stroke="#587cb7"
         vector-effect="non-scaling-stroke"
         d="m 127.43,283.74 0.4,0.65 0.31,0.6 0.21,0.54 0.12,0.48 3.86,23.77 3.82,23.76 0.03,0.13 0.05,0.12 0.07,0.12 0.09,0.1 0.1,0.08 0.11,0.07 0.12,0.05 0.13,0.03 23.57,3.77 23.6,3.84 0.45,0.1 0.47,0.17 0.51,0.22 0.68,0.35 0.61,0.32"
         id="path6" />
      <path
         stroke="#8d94b7"
         vector-effect="non-scaling-stroke"
         d="m 186.74,343.01 94.47,63.97 0.23,0.14 0.24,0.11 0.25,0.08 0.26,0.06 0.26,0.03 h 0.27 l 0.26,-0.03 0.26,-0.05 0.25,-0.08 0.25,-0.11 0.22,-0.14 0.22,-0.15 0.19,-0.18 0.18,-0.2 0.15,-0.22 0.13,-0.23 v 0 l 0.13,-0.32 105.51,-322.73 0.08,-0.32 0.04,-0.32 -0.01,-0.33 -0.06,-0.33 -0.09,-0.31 -0.14,-0.3 -0.18,-0.27 -0.22,-0.25 -0.25,-0.22 -0.27,-0.18 -0.3,-0.14 -0.31,-0.09 -0.33,-0.06 -0.33,-0.01 -0.32,0.04 -0.32,0.08 -322.92,105.56 -0.23,0.09 -0.23,0.12 -0.2,0.13 -0.2,0.16 -0.17,0.18 -0.16,0.2 -0.13,0.21 -0.11,0.23 -0.08,0.23 -0.06,0.25 -0.04,0.24 v 0.25 l 0.02,0.25 0.05,0.25 0.07,0.24 0.1,0.23 0.16,0.28 64.1,94.69"
         id="path8" />
      <path
         stroke="#a5d7ff"
         vector-effect="non-scaling-stroke"
         d="m 186.74,343.01 135.47,-193.7 0.22,-0.36 0.04,-0.11 -0.01,-0.05 v 0 0 0 l -0.06,-0.02 -0.11,0.04 -0.36,0.22 -194.5,134.71"
         id="path10" />
    </g>
    <path
       fill="#f2f2f2"
       d="m 422.19,59.59 0.61,0.99 0.58,1 0.55,1.01 0.53,1 0.49,1.02 0.47,1.01 0.43,1.02 0.41,1.03 0.38,1.03 0.35,1.03 0.31,1.04 0.3,1.04 0.26,1.05 0.23,1.05 0.2,1.05 0.18,1.06 v 0 0 0 0 0 l 0.16,1.23 0.13,1.22 0.09,1.24 0.05,1.23 0.01,1.25 -0.03,1.25 -0.07,1.25 -0.1,1.26 -0.14,1.27 -0.18,1.27 -0.22,1.28 -0.25,1.29 -0.3,1.29 -0.33,1.29 -0.37,1.3 -0.41,1.31 -51.98,159.09 -52.03,159.07 -0.77,2.26 -0.74,2.03 -0.75,1.87 -0.77,1.74 -0.79,1.63 -0.83,1.55 -0.88,1.48 -0.93,1.42 -0.88,1.23 -0.93,1.19 -0.99,1.18 -1.06,1.17 -0.72,0.75 -1.04,1.02 -1.08,0.97 -1.12,0.94 -1.15,0.89 -1.19,0.86 -1.22,0.81 -1.25,0.77 -1.27,0.72 -1.31,0.67 -1.33,0.63 -1.35,0.58 -1.38,0.53 -1.4,0.48 -1.41,0.43 -1.42,0.38 -1.44,0.33 -1.46,0.28 -1.46,0.22 -1.47,0.17 -1.47,0.12 -1.48,0.06 -1.48,0.01 -1.47,-0.04 -1.47,-0.1 -1.47,-0.15 -1.46,-0.2 -1.45,-0.26 -1.43,-0.3 -1.42,-0.36 -1.41,-0.41 -1.39,-0.47 -1.37,-0.51 -0.67,-0.28 -0.72,-0.32 -1.6,-0.79 -1.82,-0.99 -2.04,-1.17 -2.25,-1.37 -2.47,-1.56 -2.69,-1.76 -2.9,-1.94 -39.04,-26.46 -39.05,-26.44 -0.47,-0.3 -0.49,-0.28 -0.49,-0.25 -0.51,-0.22 v 0 l -0.58,-0.22 -0.6,-0.19 -0.61,-0.14 -0.63,-0.12 -20.79,-3.27 -20.78,-3.33 -1.4,-0.25 -1.39,-0.29 -1.37,-0.34 -1.36,-0.39 v 0 0 l -1.12,-0.35 -1.11,-0.38 -1.1,-0.42 -1.09,-0.44 -0.86,-0.44 -0.83,-0.46 -0.81,-0.46 -0.77,-0.46 -0.76,-0.48 -0.73,-0.49 -0.7,-0.5 -0.67,-0.51 -0.66,-0.52 -0.63,-0.53 -0.62,-0.54 -0.59,-0.56 -0.57,-0.57 -0.54,-0.58 -0.53,-0.6 -0.51,-0.6 -0.75,-0.98 -0.71,-1.01 -0.66,-1.05 -0.63,-1.1 -0.58,-1.15 -0.56,-1.2 -0.52,-1.26 -0.49,-1.32 -0.46,-1.37 -0.43,-1.45 -0.42,-1.54 -0.39,-1.63 -0.39,-1.74 -0.37,-1.89 -0.38,-2.07 -0.39,-2.32 -5.75,-35.45 -0.12,-0.64 -0.16,-0.62 -0.19,-0.6 -0.23,-0.59 v 0 l -0.22,-0.5 -0.25,-0.49 -0.27,-0.47 -0.3,-0.47 -28.01,-41.31 -27.96,-41.34 -1.34,-2.01 -1.21,-1.9 -1.09,-1.78 -0.97,-1.66 -0.85,-1.55 -0.73,-1.43 -0.6,-1.32 -0.48,-1.2 -0.46,-1.32 -0.42,-1.33 -0.37,-1.35 -0.33,-1.34 -0.28,-1.37 -0.23,-1.37 -0.19,-1.38 -0.14,-1.37 -0.09,-1.39 -0.05,-1.38 v -1.39 l 0.05,-1.39 0.1,-1.38 0.14,-1.37 0.19,-1.38 0.23,-1.36 0.29,-1.36 0.32,-1.35 0.38,-1.34 0.42,-1.32 0.46,-1.3 0.51,-1.29 0.55,-1.27 0.6,-1.25 0.63,-1.23 0.68,-1.2 0.72,-1.18 0.76,-1.16 0.8,-1.12 0.83,-1.11 0.87,-1.06 0.91,-1.04 0.92,-0.97 0.94,-0.95 0.97,-0.91 1.01,-0.88 1.03,-0.84 1.06,-0.81 1.09,-0.78 1.12,-0.74 0.65,-0.4 0.71,-0.41 0.76,-0.41 0.82,-0.42 1.81,-0.86 2.03,-0.89 2.26,-0.91 2.48,-0.93 2.71,-0.96 2.93,-0.99 156.11,-51.05 156.12,-51.03 2.03,-0.63 2.02,-0.54 1.99,-0.47 1.99,-0.38 1.96,-0.31 1.94,-0.22 1.92,-0.15 0.95,-0.04 0.95,-0.02 h 0.94 l 0.93,0.02 0.93,0.04 0.92,0.06 0.92,0.08 0.9,0.1 0.9,0.12 0.9,0.14 0.89,0.16 0.88,0.18 0.88,0.2 0.87,0.22 0.86,0.24 0.86,0.26 0.84,0.28 0.84,0.31 1.4,0.55 1.39,0.61 1.35,0.67 1.33,0.72 1.31,0.78 1.29,0.83 1.27,0.89 1.24,0.95 1.21,1 1.2,1.05 1.16,1.11 1.14,1.16 1.12,1.22 1.09,1.28 1.07,1.32 z m -369.75,117.6 -0.86,1.18 -0.4,0.59 -0.36,0.59 -0.34,0.57 -0.3,0.57 -0.29,0.58 -0.26,0.57 -0.23,0.57 -0.2,0.56 -0.19,0.57 -0.15,0.57 -0.13,0.56 -0.1,0.56 -0.08,0.57 -0.06,0.57 -0.03,0.85 0.03,0.86 0.07,0.86 0.14,0.88 0.19,0.89 0.25,0.91 0.31,0.93 0.37,0.95 0.42,0.97 0.48,0.99 0.55,1.04 0.62,1.1 0.69,1.14 0.78,1.25 0.91,1.39 1.1,1.64 29.07,42.9 29.01,42.92 0.3,0.47 0.27,0.47 0.24,0.49 0.22,0.5 0.21,0.55 0.17,0.57 0.14,0.58 0.11,0.59 1.89,12.04 1.93,12.03 1.98,12.02 2.04,12.01 0.16,0.8 0.21,0.74 0.24,0.69 0.29,0.64 0.34,0.58 0.38,0.54 0.42,0.48 0.46,0.43 v 0 0 l 0.35,0.26 0.36,0.24 0.38,0.21 0.4,0.19 0.43,0.17 0.44,0.14 0.47,0.12 0.48,0.09 48.81,7.92 0.59,0.11 0.57,0.14 0.56,0.17 0.55,0.21 v 0 0 0 l 0.55,0.23 0.53,0.26 0.52,0.3 0.51,0.32 87.98,59.59 0.17,0.11 1.91,1.28 1.41,0.9 1.28,0.75 1.19,0.61 0.58,0.27 0.57,0.24 0.57,0.21 0.54,0.18 0.55,0.16 0.52,0.12 0.52,0.1 0.52,0.07 0.72,0.07 0.7,0.04 0.69,0.03 h 0.68 l 0.66,-0.02 0.65,-0.04 0.64,-0.07 0.63,-0.08 0.61,-0.11 0.6,-0.13 0.59,-0.15 0.57,-0.17 0.56,-0.2 0.55,-0.22 0.54,-0.24 0.52,-0.26 0.8,-0.45 0.76,-0.5 0.73,-0.55 0.71,-0.61 0.68,-0.66 0.66,-0.72 0.63,-0.77 0.61,-0.83 0.59,-0.88 0.56,-0.95 0.55,-1.01 0.53,-1.07 0.5,-1.13 0.49,-1.2 0.48,-1.27 0.46,-1.35 51.35,-156.97 51.3,-156.98 0.56,-1.76 0.49,-1.63 0.41,-1.5 0.33,-1.36 0.26,-1.24 0.19,-1.09 0.11,-0.97 0.04,-0.83 -0.02,-0.74 -0.05,-0.74 -0.1,-0.74 -0.12,-0.73 -0.17,-0.73 -0.2,-0.73 -0.23,-0.72 -0.27,-0.71 -0.31,-0.7 -0.33,-0.69 -0.38,-0.67 -0.4,-0.67 -0.43,-0.64 -0.47,-0.63 -0.49,-0.6 -0.52,-0.58 -0.54,-0.56 -0.57,-0.54 -0.59,-0.51 -0.62,-0.48 -0.63,-0.46 -0.66,-0.42 -0.66,-0.39 -0.69,-0.36 -0.69,-0.33 -0.71,-0.3 -0.72,-0.25 -0.72,-0.23 -0.73,-0.19 -0.74,-0.15 -0.74,-0.12 -0.74,-0.08 -0.93,-0.04 -1,0.04 -1.1,0.1 -1.17,0.18 -1.26,0.25 -1.33,0.33 -1.43,0.39 -1.5,0.47 -315.18,103.05 -1.03,0.33 -1.97,0.65 -1.34,0.47 -1.15,0.43 -1,0.42 -0.93,0.45 -0.86,0.47 -0.79,0.51 -0.74,0.54 -0.68,0.58 -0.64,0.62 -0.63,0.69 z"
       id="path14" />
    <path
       fill="#000000"
       fill-opacity="0.353"
       d="m 422.19,59.59 0.28,0.13 0.26,0.14 0.25,0.16 0.23,0.17 v 0 0 l 0.41,0.37 0.37,0.43 0.32,0.49 0.27,0.54 0.12,0.2 0.16,0.14 v 0 l 0.18,0.09 0.23,0.04 0.44,0.04 0.11,0.03 v 0 l 0.13,0.06 0.12,0.09 0.77,0.72 0.75,0.74 0.73,0.76 0.7,0.78 0.69,0.81 0.66,0.83 0.64,0.85 0.61,0.87 0.59,0.89 0.57,0.9 0.54,0.93 0.52,0.94 0.49,0.96 0.47,0.97 0.44,1 0.41,1 0.39,1.02 0.36,1.03 0.34,1.05 0.31,1.06 0.28,1.07 0.25,1.08 0.22,1.09 0.19,1.09 0.17,1.11 0.14,1.11 0.11,1.11 0.08,1.12 0.04,1.12 0.03,1.12 -0.01,1.12 -0.04,1.12 -0.1,1.31 -0.17,1.42 -0.26,1.52 -0.33,1.63 -0.41,1.72 -0.49,1.84 -0.56,1.94 -0.65,2.04 -51.25,156.85 -51.3,156.83 -0.92,2.75 -0.91,2.54 -0.87,2.33 -0.86,2.11 -0.83,1.91 -0.81,1.69 -0.79,1.48 -0.39,0.66 -0.38,0.61 -0.95,1.39 -1.01,1.35 -1.07,1.3 -1.13,1.26 -1.19,1.22 -1.24,1.16 -1.29,1.11 -1.34,1.05 -1.39,1.01 -1.43,0.94 -1.48,0.89 -1.51,0.82 -1.56,0.76 -1.58,0.7 -1.62,0.63 -1.65,0.57 -1.66,0.49 -1.69,0.43 -1.7,0.36 -1.71,0.29 -1.72,0.21 -1.73,0.14 -1.73,0.07 h -1.72 l -1.72,-0.07 -1.71,-0.15 -1.69,-0.22 -1.68,-0.3 -1.65,-0.36 -1.64,-0.43 -1.62,-0.51 -1.58,-0.57 -1.26,-0.53 -1.38,-0.66 -1.49,-0.78 -1.62,-0.91 -1.73,-1.05 -1.86,-1.17 -1.97,-1.29 -2.09,-1.43 -4.78,-3.3 -5.23,-3.57 -5.8,-3.92 -7.95,-5.35 -12.78,-8.62 -4.87,-3.32 -4.45,-3.06 -4.22,-2.9 -4.63,-3.14 -12.09,-8.12 -8.66,-5.81 -6.25,-4.23 -0.5,-0.32 -0.52,-0.3 -0.54,-0.27 -0.55,-0.23 -0.56,-0.21 -0.57,-0.17 -0.57,-0.15 -0.59,-0.11 -33.24,-5.42 -2.23,-0.36 -4.2,-0.68 -2.85,-0.51 -1.27,-0.25 -1.17,-0.25 -1.1,-0.26 -1.04,-0.27 -1.02,-0.29 -0.99,-0.31 -0.93,-0.32 -0.9,-0.35 -0.88,-0.36 -0.84,-0.39 -0.84,-0.41 -0.8,-0.44 -1.01,-0.59 -0.97,-0.64 -0.97,-0.7 -0.96,-0.75 -0.94,-0.8 -0.95,-0.87 -0.95,-0.94 -0.96,-1 -0.08,-0.11 -0.05,-0.12 -0.02,-0.13 0.01,-0.14 0.04,-0.12 0.07,-0.12 0.09,-0.09 0.12,-0.07 0.16,-0.05 0.52,-0.07 0.07,-0.03 0.04,-0.05 0.02,-0.07 -0.03,-0.07 v 0 0 l -0.04,-0.04 -0.22,-0.15 -0.15,-0.15 -0.09,-0.14 -0.03,-0.14 0.05,-0.14 1.09,0.44 1.1,0.42 1.11,0.38 1.12,0.35 v 0 0 0 l 1.36,0.39 1.37,0.34 1.39,0.29 1.4,0.25 20.78,3.33 20.79,3.27 0.63,0.12 0.61,0.14 0.6,0.19 0.58,0.22 v 0 0 l 0.51,0.22 0.49,0.25 0.49,0.28 0.47,0.3 39.05,26.44 39.04,26.46 2.9,1.94 2.69,1.76 2.47,1.56 2.25,1.37 2.04,1.17 1.82,0.99 1.6,0.79 0.72,0.32 0.67,0.28 1.37,0.51 1.39,0.47 1.41,0.41 1.42,0.36 1.43,0.3 1.45,0.26 1.46,0.2 1.47,0.15 1.47,0.1 1.47,0.04 1.48,-0.01 1.48,-0.06 1.47,-0.12 1.47,-0.17 1.46,-0.22 1.46,-0.28 1.44,-0.33 1.42,-0.38 1.41,-0.43 1.4,-0.48 1.38,-0.53 1.35,-0.58 1.33,-0.63 1.31,-0.67 1.27,-0.72 1.25,-0.77 1.22,-0.81 1.19,-0.86 1.15,-0.89 1.12,-0.94 1.08,-0.97 1.04,-1.02 0.72,-0.75 1.06,-1.17 0.99,-1.18 0.93,-1.19 0.88,-1.23 0.93,-1.42 0.88,-1.48 0.83,-1.55 0.79,-1.63 0.77,-1.74 0.75,-1.87 0.74,-2.03 0.77,-2.26 52.03,-159.07 51.98,-159.09 0.41,-1.31 0.37,-1.3 0.33,-1.29 0.3,-1.29 0.25,-1.29 0.22,-1.28 0.18,-1.27 0.14,-1.27 0.1,-1.26 0.07,-1.25 0.03,-1.25 -0.01,-1.25 -0.05,-1.23 -0.09,-1.24 -0.13,-1.22 -0.16,-1.23 v 0 0 0 0 0 l -0.18,-1.06 -0.2,-1.05 -0.23,-1.05 -0.26,-1.05 -0.3,-1.04 -0.31,-1.04 -0.35,-1.03 -0.38,-1.03 -0.41,-1.03 -0.43,-1.02 -0.47,-1.01 -0.49,-1.02 -0.53,-1 -0.55,-1.01 -0.58,-1 z"
       id="path16" />
    <path
       fill="#40396e"
       d="m 52.44,177.19 0.61,-0.75 0.63,-0.69 0.64,-0.62 0.68,-0.58 0.74,-0.54 0.79,-0.51 0.86,-0.47 0.93,-0.45 1,-0.42 1.15,-0.43 1.34,-0.47 1.97,-0.65 1.03,-0.33 315.18,-103.05 1.5,-0.47 1.43,-0.39 1.33,-0.33 1.26,-0.25 1.17,-0.18 1.1,-0.1 1,-0.04 0.93,0.04 0.74,0.08 0.74,0.12 0.74,0.15 0.73,0.19 0.72,0.23 0.72,0.25 0.71,0.3 0.69,0.33 0.69,0.36 0.66,0.39 0.66,0.42 0.63,0.46 0.62,0.48 0.59,0.51 0.57,0.54 0.54,0.56 0.52,0.58 0.49,0.6 0.47,0.63 0.43,0.64 0.4,0.67 0.38,0.67 0.33,0.69 0.31,0.7 0.27,0.71 0.23,0.72 0.2,0.73 0.17,0.73 0.12,0.73 0.1,0.74 0.05,0.74 0.02,0.74 -0.04,0.83 -0.11,0.97 -0.19,1.09 -0.26,1.24 -0.33,1.36 -0.41,1.5 -0.49,1.63 -0.56,1.76 -51.3,156.98 -51.35,156.97 -0.46,1.35 -0.48,1.27 -0.49,1.2 -0.5,1.13 -0.53,1.07 -0.55,1.01 -0.56,0.95 -0.59,0.88 -0.61,0.83 -0.63,0.77 -0.66,0.72 -0.68,0.66 -0.71,0.61 -0.73,0.55 -0.76,0.5 -0.8,0.45 -0.52,0.26 -0.54,0.24 -0.55,0.22 -0.56,0.2 -0.57,0.17 -0.59,0.15 -0.6,0.13 -0.61,0.11 -0.63,0.08 -0.64,0.07 -0.65,0.04 -0.66,0.02 h -0.68 l -0.69,-0.03 -0.7,-0.04 -0.72,-0.07 -0.52,-0.07 -0.52,-0.1 -0.52,-0.12 -0.55,-0.16 -0.54,-0.18 -0.57,-0.21 -0.57,-0.24 -0.58,-0.27 -1.19,-0.61 -1.28,-0.75 -1.41,-0.9 -1.91,-1.28 -0.17,-0.11 -87.98,-59.59 -0.51,-0.32 -0.52,-0.3 -0.53,-0.26 -0.55,-0.23 v 0 0 l -0.55,-0.21 -0.56,-0.17 -0.57,-0.14 -0.59,-0.11 -48.81,-7.92 -0.48,-0.09 -0.47,-0.12 -0.44,-0.14 -0.43,-0.17 -0.4,-0.19 -0.38,-0.21 -0.36,-0.24 -0.35,-0.26 v 0 0 l -0.46,-0.43 -0.42,-0.48 -0.38,-0.54 -0.34,-0.58 -0.29,-0.64 -0.24,-0.69 -0.21,-0.74 -0.16,-0.8 -2.04,-12.01 -1.98,-12.02 -1.93,-12.03 -1.89,-12.04 -0.11,-0.59 -0.14,-0.58 -0.17,-0.57 -0.21,-0.55 -0.22,-0.5 -0.24,-0.49 -0.27,-0.47 -0.3,-0.47 -29.01,-42.92 -29.07,-42.9 -1.1,-1.64 -0.91,-1.39 -0.78,-1.25 -0.69,-1.14 -0.62,-1.1 -0.55,-1.04 -0.48,-0.99 -0.42,-0.97 -0.37,-0.95 -0.31,-0.93 -0.25,-0.91 -0.19,-0.89 -0.14,-0.88 -0.07,-0.86 -0.03,-0.86 0.03,-0.85 0.06,-0.57 0.08,-0.57 0.1,-0.56 0.13,-0.56 0.15,-0.57 0.19,-0.57 0.2,-0.56 0.23,-0.57 0.26,-0.57 0.29,-0.58 0.3,-0.57 0.34,-0.57 0.36,-0.59 0.4,-0.59 z m 74.99,106.55 0.4,0.65 0.31,0.6 0.21,0.54 0.12,0.48 3.86,23.77 3.82,23.76 0.03,0.13 0.05,0.12 0.07,0.12 0.09,0.1 0.1,0.08 0.11,0.07 0.12,0.05 0.13,0.03 23.57,3.77 23.6,3.84 0.45,0.1 0.47,0.17 0.51,0.22 0.68,0.35 0.61,0.32 94.47,63.97 0.23,0.14 0.24,0.11 0.25,0.08 0.26,0.06 0.26,0.03 h 0.27 l 0.26,-0.03 0.26,-0.05 0.25,-0.08 0.25,-0.11 0.22,-0.14 0.22,-0.15 0.19,-0.18 0.18,-0.2 0.15,-0.22 0.13,-0.23 v 0 l 0.13,-0.32 105.51,-322.73 0.08,-0.32 0.04,-0.32 -0.01,-0.33 -0.06,-0.33 -0.09,-0.31 -0.14,-0.3 -0.18,-0.27 -0.22,-0.25 -0.25,-0.22 -0.27,-0.18 -0.3,-0.14 -0.31,-0.09 -0.33,-0.06 -0.33,-0.01 -0.32,0.04 -0.32,0.08 -322.92,105.56 -0.23,0.09 -0.23,0.12 -0.2,0.13 -0.2,0.16 -0.17,0.18 -0.16,0.2 -0.13,0.21 -0.11,0.23 -0.08,0.23 -0.06,0.25 -0.04,0.24 v 0.25 l 0.02,0.25 0.05,0.25 0.07,0.24 0.1,0.23 0.16,0.28 z"
       id="path18" />
    <path
       fill="#d9eeff"
       d="m 186.74,343.01 135.47,-193.7 0.22,-0.36 0.04,-0.11 -0.01,-0.05 v 0 0 0 l -0.06,-0.02 -0.11,0.04 -0.36,0.22 -194.5,134.71 -64.1,-94.69 -0.16,-0.28 -0.1,-0.23 -0.07,-0.24 -0.05,-0.25 -0.02,-0.25 v -0.25 l 0.04,-0.24 0.06,-0.25 0.08,-0.23 0.11,-0.23 0.13,-0.21 0.16,-0.2 0.17,-0.18 0.2,-0.16 0.2,-0.13 0.23,-0.12 0.23,-0.09 322.92,-105.56 0.29,-0.07 0.29,-0.04 0.29,-0.01 0.3,0.04 0.28,0.07 0.28,0.1 0.26,0.14 0.24,0.17 0.27,0.25 0.22,0.28 0.18,0.32 0.13,0.33 0.08,0.36 0.02,0.36 -0.03,0.36 -0.09,0.35 -105.51,322.73 -0.13,0.32 -0.13,0.23 -0.15,0.22 -0.18,0.2 -0.19,0.18 -0.22,0.15 -0.22,0.14 -0.25,0.11 -0.25,0.08 -0.26,0.05 -0.26,0.03 h -0.27 l -0.26,-0.03 -0.26,-0.06 -0.25,-0.08 -0.24,-0.11 -0.23,-0.14 z"
       id="path20" />
    <path
       fill="#70bfff"
       d="m 186.74,343.01 -0.61,-0.32 -0.68,-0.35 -0.51,-0.22 -0.47,-0.17 -0.45,-0.1 -23.6,-3.84 -23.57,-3.77 -0.13,-0.03 -0.12,-0.05 -0.11,-0.07 -0.1,-0.08 -0.09,-0.1 -0.07,-0.12 -0.05,-0.12 -0.03,-0.13 -3.82,-23.76 -3.86,-23.77 -0.12,-0.48 -0.21,-0.54 -0.31,-0.6 -0.4,-0.65 194.5,-134.71 0.36,-0.22 0.11,-0.04 0.05,0.02 h 0.01 v 0 0 l 0.01,0.05 -0.04,0.11 -0.22,0.36 z"
       id="path22" />
  </g>
</svg>
