<?xml version="1.0" encoding="UTF-8" standalone="no"?>
<svg
   version="1.1"
   viewBox="0 0 300 160"
   id="svg158"
   sodipodi:docname="glpi.svg"
   width="300"
   height="160"
   inkscape:version="1.2.2 (732a01da63, 2022-12-09)"
   xmlns:inkscape="http://www.inkscape.org/namespaces/inkscape"
   xmlns:sodipodi="http://sodipodi.sourceforge.net/DTD/sodipodi-0.dtd"
   xmlns="http://www.w3.org/2000/svg"
   xmlns:svg="http://www.w3.org/2000/svg">
  <defs
     id="defs162" />
  <sodipodi:namedview
     id="namedview160"
     pagecolor="#ffffff"
     bordercolor="#000000"
     borderopacity="0.25"
     inkscape:showpageshadow="2"
     inkscape:pageopacity="0.0"
     inkscape:pagecheckerboard="0"
     inkscape:deskcolor="#d1d1d1"
     showgrid="false"
     inkscape:zoom="1.7111984"
     inkscape:cx="111.32549"
     inkscape:cy="140.83697"
     inkscape:window-width="1920"
     inkscape:window-height="1017"
     inkscape:window-x="-8"
     inkscape:window-y="-8"
     inkscape:window-maximized="1"
     inkscape:current-layer="svg158" />
  <g
     id="g448"
     transform="translate(24.952444,18.923059)">
    <g
       stroke-width="2"
       fill="none"
       stroke-linecap="butt"
       id="g144">
      <path
         stroke="#000000"
         stroke-opacity="0.8"
         vector-effect="non-scaling-stroke"
         d="m 52.64,91.63 q 5.88,2.32 11.88,2.55"
         id="path140" />
      <path
         stroke="#000000"
         stroke-opacity="0.8"
         vector-effect="non-scaling-stroke"
         d="m 45.77,103.51 q -3.47,-1.97 -7.14,-1.99"
         id="path142" />
    </g>
    <path
       fill="#000000"
       d="m 52.64,91.63 q 5.88,2.32 11.88,2.55 7.75,1.64 15.25,1 2.65,-0.22 3.44,2.32 c 1.66,5.27 -1.35,6.71 -5.97,6.81 q -15.99,0.33 -31.47,-0.8 -3.47,-1.97 -7.14,-1.99 C 28.14,99.07 17.46,94.35 10.34,86.48 -0.57,74.41 -1.85,54.81 7.94,41.36 22.54,21.29 57.93,17.46 80.38,18.55 c 4.26,0.2 5.24,2.17 4.35,6.13 q -0.42,1.91 -2.38,1.88 C 67.74,26.33 52,28.43 40.09,37.08 24.9,48.11 24.34,73.04 39.06,84.91 q 5.97,4.82 13.58,6.72 z"
       id="path146" />
    <path
       fill="#000000"
       d="m 145.73,92.54 q 1.83,0.79 1.62,2.48 l -0.75,5.99 q -0.31,2.49 -3.1,2.67 c -12.06,0.77 -24.5,-0.41 -36.77,0.33 q -4.9,0.3 -4.16,-4.78 5.58,-38.2 10.9,-76.43 0.58,-4.15 4.77,-4.25 c 3.41,-0.07 9.49,-1.29 8.65,4.47 q -4.92,33.6 -9.62,67.13 -0.29,2.05 1.78,2.07 9.96,0.06 19.92,0.02 c 1.83,0 4.51,-0.65 6.76,0.3 z"
       id="path148" />
    <path
       fill="#000000"
       d="m 175.76,74.7 a 2.83,2.65 80.4 0 0 -1.35,2.04 l -3.38,24.46 q -0.35,2.56 -2.33,2.58 l -8.71,0.07 q -2.44,0.02 -2.03,-2.85 5.45,-38.24 10.67,-76.5 c 0.51,-3.78 0.94,-6.14 5.58,-5.96 q 13.07,0.49 16.69,0.13 c 36.69,-3.64 34.72,47.07 3.72,53.81 -5.56,1.21 -13.92,-0.55 -18.86,2.22 z m 24.58,-41.29 c -4.21,-3.32 -12.93,-2.2 -18.03,-2.24 a 1.82,1.82 -85.6 0 0 -1.81,1.56 q -1.57,10.69 -2.91,21.39 c -0.44,3.51 -1.36,6.74 3.38,6.6 3.44,-0.11 7.48,0.49 10.37,0.03 11.47,-1.8 18.92,-19.53 9,-27.34 z"
       id="path150" />
    <path
       fill="#000000"
       d="m 226.69,103.6 q -2.37,-0.35 -2.02,-2.86 l 11.17,-79.17 q 0.45,-3.18 3.15,-3.12 l 8.02,0.18 a 1.33,0.83 62.8 0 1 0.84,0.5 c 1.49,1.8 0.81,3.4 0.52,5.48 q -5.21,37.24 -10.5,74.46 c -0.42,2.97 -0.62,4.53 -4.09,4.77 q -3.69,0.26 -7.09,-0.24 z"
       id="path152" />
    <path
       fill="#000000"
       fill-opacity="0.6"
       d="m 64.52,94.18 q -6,-0.23 -11.88,-2.55 14.33,-8.12 17.95,-23.51 0.75,-3.18 -2.26,-4.46 C 61.06,60.58 52.68,60.61 44.91,60.74 44.5,60.75 43.3,60.22 44.46,59.74 Q 55.84,55.09 67.92,53 c 11.4,-1.98 27.72,-0.46 20.51,16.72 q -1.66,3.96 -5.11,7.61 -8.71,9.2 -18.8,16.85 z"
       id="path154" />
    <path
       fill="#000000"
       fill-opacity="0.6"
       d="m 38.63,101.52 q 3.67,0.02 7.14,1.99 -16.94,9.6 -35.53,15.34 a 1.57,0.73 -65.1 0 0 -0.7,0.59 q -0.34,0.45 -0.9,0.29 a 0.49,0.45 -67.3 0 1 -0.25,-0.68 c 0.43,-0.84 5.65,-3.96 6.7,-4.46 q 11.4,-5.49 22.57,-11.46 0.66,-0.35 0.97,-1.61 z"
       id="path156" />
  </g>
  <rect
     style="fill:none;stroke-width:0.358763;stop-color:#000000"
     id="rect437"
     width="300"
     height="160"
     x="0"
     y="0" />
</svg>
