<?xml version="1.0" encoding="UTF-8" standalone="no"?>
<!DOCTYPE svg PUBLIC "-//W3C//DTD SVG 1.1//EN" "http://www.w3.org/Graphics/SVG/1.1/DTD/svg11.dtd">
<svg xmlns="http://www.w3.org/2000/svg" version="1.1" viewBox="0 0 250 138">
<g stroke-width="2.00" fill="none" stroke-linecap="butt">
<path stroke="#000000" stroke-opacity="0.800" vector-effect="non-scaling-stroke" d="
  M 52.64 91.63
  Q 58.52 93.95 64.52 94.18"
/>
<path stroke="#000000" stroke-opacity="0.800" vector-effect="non-scaling-stroke" d="
  M 45.77 103.51
  Q 42.30 101.54 38.63 101.52"
/>
</g>
<path fill="#000000" d="
  M 52.64 91.63
  Q 58.52 93.95 64.52 94.18
  Q 72.27 95.82 79.77 95.18
  Q 82.42 94.96 83.21 97.50
  C 84.87 102.77 81.86 104.21 77.24 104.31
  Q 61.25 104.64 45.77 103.51
  Q 42.30 101.54 38.63 101.52
  C 28.14 99.07 17.46 94.35 10.34 86.48
  C -0.57 74.41 -1.85 54.81 7.94 41.36
  C 22.54 21.29 57.93 17.46 80.38 18.55
  C 84.64 18.75 85.62 20.72 84.73 24.68
  Q 84.31 26.59 82.35 26.56
  C 67.74 26.33 52.00 28.43 40.09 37.08
  C 24.90 48.11 24.34 73.04 39.06 84.91
  Q 45.03 89.73 52.64 91.63
  Z"
/>
<path fill="#000000" d="
  M 145.73 92.54
  Q 147.56 93.33 147.35 95.02
  L 146.60 101.01
  Q 146.29 103.50 143.50 103.68
  C 131.44 104.45 119.00 103.27 106.73 104.01
  Q 101.83 104.31 102.57 99.23
  Q 108.15 61.03 113.47 22.80
  Q 114.05 18.65 118.24 18.55
  C 121.65 18.48 127.73 17.26 126.89 23.02
  Q 121.97 56.62 117.27 90.15
  Q 116.98 92.20 119.05 92.22
  Q 129.01 92.28 138.97 92.24
  C 140.80 92.24 143.48 91.59 145.73 92.54
  Z"
/>
<path fill="#000000" d="
  M 175.76 74.70
  A 2.83 2.65 80.4 0 0 174.41 76.74
  L 171.03 101.20
  Q 170.68 103.76 168.70 103.78
  L 159.99 103.85
  Q 157.55 103.87 157.96 101.00
  Q 163.41 62.76 168.63 24.50
  C 169.14 20.72 169.57 18.36 174.21 18.54
  Q 187.28 19.03 190.90 18.67
  C 227.59 15.03 225.62 65.74 194.62 72.48
  C 189.06 73.69 180.70 71.93 175.76 74.70
  Z
  M 200.34 33.41
  C 196.13 30.09 187.41 31.21 182.31 31.17
  A 1.82 1.82 -85.6 0 0 180.50 32.73
  Q 178.93 43.42 177.59 54.12
  C 177.15 57.63 176.23 60.86 180.97 60.72
  C 184.41 60.61 188.45 61.21 191.34 60.75
  C 202.81 58.95 210.26 41.22 200.34 33.41
  Z"
/>
<path fill="#000000" d="
  M 226.69 103.60
  Q 224.32 103.25 224.67 100.74
  L 235.84 21.57
  Q 236.29 18.39 238.99 18.45
  L 247.01 18.63
  A 1.33 0.83 62.8 0 1 247.85 19.13
  C 249.34 20.93 248.66 22.53 248.37 24.61
  Q 243.16 61.85 237.87 99.07
  C 237.45 102.04 237.25 103.60 233.78 103.84
  Q 230.09 104.10 226.69 103.60
  Z"
/>
<path fill="#000000" fill-opacity="0.600" d="
  M 64.52 94.18
  Q 58.52 93.95 52.64 91.63
  Q 66.97 83.51 70.59 68.12
  Q 71.34 64.94 68.33 63.66
  C 61.06 60.58 52.68 60.61 44.91 60.74
  C 44.50 60.75 43.30 60.22 44.46 59.74
  Q 55.84 55.09 67.92 53.00
  C 79.32 51.02 95.64 52.54 88.43 69.72
  Q 86.77 73.68 83.32 77.33
  Q 74.61 86.53 64.52 94.18
  Z"
/>
<path fill="#000000" fill-opacity="0.600" d="
  M 38.63 101.52
  Q 42.30 101.54 45.77 103.51
  Q 28.83 113.11 10.24 118.85
  A 1.57 0.73 -65.1 0 0 9.54 119.44
  Q 9.20 119.89 8.64 119.73
  A 0.49 0.45 -67.3 0 1 8.39 119.05
  C 8.82 118.21 14.04 115.09 15.09 114.59
  Q 26.49 109.10 37.66 103.13
  Q 38.32 102.78 38.63 101.52
  Z"
/>
</svg>
