<?xml version="1.0" encoding="UTF-8" standalone="no"?>
<svg
   viewBox="0 0 78 78"
   width="39"
   height="39"
   version="1.1"
   id="svg1151"
   sodipodi:docname="google-slides.svg"
   inkscape:version="1.2.2 (732a01da63, 2022-12-09)"
   xmlns:inkscape="http://www.inkscape.org/namespaces/inkscape"
   xmlns:sodipodi="http://sodipodi.sourceforge.net/DTD/sodipodi-0.dtd"
   xmlns="http://www.w3.org/2000/svg"
   xmlns:svg="http://www.w3.org/2000/svg">
  <defs
     id="defs1155" />
  <sodipodi:namedview
     id="namedview1153"
     pagecolor="#ffffff"
     bordercolor="#000000"
     borderopacity="0.25"
     inkscape:showpageshadow="2"
     inkscape:pageopacity="0.0"
     inkscape:pagecheckerboard="0"
     inkscape:deskcolor="#d1d1d1"
     showgrid="false"
     inkscape:zoom="8.37"
     inkscape:cx="32.795699"
     inkscape:cy="26.403823"
     inkscape:window-width="1920"
     inkscape:window-height="1017"
     inkscape:window-x="3832"
     inkscape:window-y="-8"
     inkscape:window-maximized="1"
     inkscape:current-layer="svg1151" />
  <g
     id="g1294"
     transform="translate(-11,-11)">
    <circle
       cx="77"
       cy="13"
       r="1"
       fill="#f1bc19"
       id="circle1111" />
    <circle
       cx="50"
       cy="50"
       r="37"
       fill="#e4e4f9"
       id="circle1113" />
    <circle
       cx="83"
       cy="15"
       r="4"
       fill="#f1bc19"
       id="circle1115" />
    <circle
       cx="87"
       cy="24"
       r="2"
       fill="#8889b9"
       id="circle1117" />
    <circle
       cx="81"
       cy="76"
       r="2"
       fill="#fbcd59"
       id="circle1119" />
    <circle
       cx="15"
       cy="63"
       r="4"
       fill="#fbcd59"
       id="circle1121" />
    <circle
       cx="25"
       cy="87"
       r="2"
       fill="#8889b9"
       id="circle1123" />
    <circle
       cx="18.5"
       cy="51.5"
       r="2.5"
       fill="#ffffff"
       id="circle1125" />
    <circle
       cx="79.5"
       cy="33.5"
       r="1.5"
       fill="#ffffff"
       id="circle1127" />
    <path
       fill="#f1bc19"
       d="m 37.126,72.369 c -2.499,0 -4.533,-1.998 -4.533,-4.453 V 32.084 c 0,-2.456 2.034,-4.453 4.533,-4.453 h 18.679 l 11.603,11.423 v 28.861 c 0,2.456 -2.034,4.453 -4.533,4.453 z"
       id="path1129" />
    <polygon
       fill="#e0a825"
       points="67.176,39.637 55.373,39.57 67.176,51.372 "
       id="polygon1131" />
    <polygon
       fill="#f5e690"
       points="67.175,39.57 55.792,28.263 55.792,39.57 "
       id="polygon1133" />
    <path
       fill="#472b29"
       d="M 67.175,40.27 H 55.792 c -0.387,0 -0.7,-0.313 -0.7,-0.7 V 28.263 c 0,-0.387 0.313,-0.7 0.7,-0.7 0.387,0 0.7,0.313 0.7,0.7 V 38.87 h 10.683 c 0.387,0 0.7,0.313 0.7,0.7 0,0.387 -0.313,0.7 -0.7,0.7 z"
       id="path1135" />
    <path
       fill="#472b29"
       d="m 55.546,28.263 5.718,5.629 5.513,5.427 v 28.597 c 0,2.107 -1.751,3.822 -3.902,3.822 h -25.75 c -2.152,0 -3.902,-1.715 -3.902,-3.822 V 32.084 c 0,-2.107 1.751,-3.822 3.902,-3.822 h 0.75 7.098 l 10.573,0.001 M 56.064,27 h -11.091 -7.098 -0.75 c -2.84,0 -5.165,2.287 -5.165,5.084 v 35.831 c 0,2.796 2.324,5.084 5.165,5.084 h 25.748 c 2.841,0 5.166,-2.287 5.166,-5.084 V 38.79 C 63.381,34.205 60.721,31.585 56.064,27 Z"
       id="path1137" />
    <path
       fill="#472b29"
       d="m 46.843,31.284 h -5.412 c -0.124,0 -0.225,-0.101 -0.225,-0.225 0,-0.124 0.101,-0.225 0.225,-0.225 h 5.412 c 0.124,0 0.225,0.101 0.225,0.225 0,0.124 -0.1,0.225 -0.225,0.225 z"
       id="path1139" />
    <path
       fill="#472b29"
       d="M 61.528,69.167 H 38.472 c -1.477,0 -2.678,-1.201 -2.678,-2.678 V 33.511 c 0,-1.477 1.201,-2.678 2.678,-2.678 h 1.155 c 0.124,0 0.225,0.101 0.225,0.225 0,0.124 -0.101,0.225 -0.225,0.225 h -1.155 c -1.228,0 -2.227,0.998 -2.227,2.227 v 32.98 c 0,1.228 0.998,2.227 2.227,2.227 h 23.057 c 1.228,0 2.227,-0.998 2.227,-2.227 V 56.314 c 0,-0.124 0.101,-0.225 0.225,-0.225 0.124,0 0.225,0.101 0.225,0.225 v 10.175 c 0,1.476 -1.202,2.678 -2.678,2.678 z"
       id="path1141" />
    <path
       fill="#472b29"
       d="m 63.98,54.735 c -0.124,0 -0.225,-0.101 -0.225,-0.225 V 50 c 0,-0.124 0.101,-0.225 0.225,-0.225 0.124,0 0.225,0.101 0.225,0.225 v 4.51 c 0.001,0.124 -0.1,0.225 -0.225,0.225 z"
       id="path1143" />
    <path
       fill="#472b29"
       d="m 63.98,48.045 c -0.124,0 -0.225,-0.101 -0.225,-0.225 v -2.029 c 0,-0.124 0.101,-0.225 0.225,-0.225 0.124,0 0.225,0.101 0.225,0.225 v 2.029 c 0.001,0.124 -0.1,0.225 -0.225,0.225 z"
       id="path1145" />
    <path
       fill="#fdfcef"
       d="m 56.5,49.5 h -13 c -1.105,0 -2,0.895 -2,2 v 11 c 0,1.105 0.895,2 2,2 h 13 c 1.105,0 2,-0.895 2,-2 v -11 c 0,-1.105 -0.895,-2 -2,-2 z M 55,60.5 H 45 c -0.276,0 -0.5,-0.224 -0.5,-0.5 v -5.917 c 0,-0.276 0.224,-0.5 0.5,-0.5 h 10 c 0.276,0 0.5,0.224 0.5,0.5 V 60 c 0,0.276 -0.224,0.5 -0.5,0.5 z"
       id="path1147" />
    <path
       fill="#472b29"
       d="m 56.5,64.75 h -13 c -1.241,0 -2.25,-1.009 -2.25,-2.25 v -11 c 0,-1.241 1.009,-2.25 2.25,-2.25 h 13 c 1.241,0 2.25,1.009 2.25,2.25 v 11 c 0,1.241 -1.009,2.25 -2.25,2.25 z m -13,-15 c -0.965,0 -1.75,0.785 -1.75,1.75 v 11 c 0,0.965 0.785,1.75 1.75,1.75 h 13 c 0.965,0 1.75,-0.785 1.75,-1.75 v -11 c 0,-0.965 -0.785,-1.75 -1.75,-1.75 z m 11.5,11 H 45 c -0.414,0 -0.75,-0.336 -0.75,-0.75 v -5.917 c 0,-0.414 0.336,-0.75 0.75,-0.75 h 10 c 0.414,0 0.75,0.336 0.75,0.75 V 60 c 0,0.414 -0.336,0.75 -0.75,0.75 z M 45,53.833 c -0.138,0 -0.25,0.112 -0.25,0.25 V 60 c 0,0.138 0.112,0.25 0.25,0.25 h 10 c 0.138,0 0.25,-0.112 0.25,-0.25 v -5.917 c 0,-0.138 -0.112,-0.25 -0.25,-0.25 z"
       id="path1149" />
  </g>
</svg>
