<?xml version="1.0" encoding="UTF-8" standalone="no"?>
<svg
   viewBox="0 0 78 78"
   width="39"
   height="39"
   version="1.1"
   id="svg988"
   sodipodi:docname="google-sheets.svg"
   inkscape:version="1.2.2 (732a01da63, 2022-12-09)"
   xmlns:inkscape="http://www.inkscape.org/namespaces/inkscape"
   xmlns:sodipodi="http://sodipodi.sourceforge.net/DTD/sodipodi-0.dtd"
   xmlns="http://www.w3.org/2000/svg"
   xmlns:svg="http://www.w3.org/2000/svg">
  <defs
     id="defs992" />
  <sodipodi:namedview
     id="namedview990"
     pagecolor="#ffffff"
     bordercolor="#000000"
     borderopacity="0.25"
     inkscape:showpageshadow="2"
     inkscape:pageopacity="0.0"
     inkscape:pagecheckerboard="0"
     inkscape:deskcolor="#d1d1d1"
     showgrid="false"
     inkscape:zoom="11.836968"
     inkscape:cx="16.431573"
     inkscape:cy="22.471972"
     inkscape:window-width="1920"
     inkscape:window-height="1017"
     inkscape:window-x="3832"
     inkscape:window-y="-8"
     inkscape:window-maximized="1"
     inkscape:current-layer="svg988" />
  <g
     id="g1341"
     transform="translate(-11,-11)">
    <path
       fill="#9f8066"
       d="m 13,27 c -1.105,0 -2,0.895 -2,2 0,1.105 0.895,2 2,2 1.105,0 2,-0.895 2,-2 0,-1.105 -0.895,-2 -2,-2 z"
       id="path946" />
    <circle
       cx="77"
       cy="13"
       r="1"
       fill="#f1bc19"
       id="circle948" />
    <circle
       cx="50"
       cy="50"
       r="37"
       fill="#e6edb7"
       id="circle950" />
    <circle
       cx="83"
       cy="15"
       r="4"
       fill="#f1bc19"
       id="circle952" />
    <circle
       cx="87"
       cy="24"
       r="2"
       fill="#9f8066"
       id="circle954" />
    <circle
       cx="81"
       cy="76"
       r="2"
       fill="#fbcd59"
       id="circle956" />
    <circle
       cx="15"
       cy="63"
       r="4"
       fill="#fbcd59"
       id="circle958" />
    <circle
       cx="25"
       cy="87"
       r="2"
       fill="#9f8066"
       id="circle960" />
    <circle
       cx="18.5"
       cy="51.5"
       r="2.5"
       fill="#ffffff"
       id="circle962" />
    <circle
       cx="79.5"
       cy="33.5"
       r="1.5"
       fill="#ffffff"
       id="circle964" />
    <path
       fill="#88ae45"
       d="m 37.126,72.369 c -2.499,0 -4.533,-1.998 -4.533,-4.453 V 32.084 c 0,-2.456 2.034,-4.453 4.533,-4.453 h 18.679 l 11.603,11.423 v 28.861 c 0,2.456 -2.034,4.453 -4.533,4.453 0,0.001 -25.749,0.001 -25.749,0.001 z"
       id="path966" />
    <polygon
       fill="#6f913d"
       points="67.176,39.637 55.373,39.57 67.176,51.372 "
       id="polygon968" />
    <polyline
       fill="#c0d078"
       points="55.792,28.263 55.792,39.57 67.175,39.57"
       id="polyline970" />
    <path
       fill="#472b29"
       d="M 67.175,40.27 H 55.792 c -0.387,0 -0.7,-0.313 -0.7,-0.7 V 28.263 c 0,-0.387 0.313,-0.7 0.7,-0.7 0.387,0 0.7,0.313 0.7,0.7 V 38.87 h 10.683 c 0.387,0 0.7,0.313 0.7,0.7 0,0.387 -0.313,0.7 -0.7,0.7 z"
       id="path972" />
    <path
       fill="#472b29"
       d="m 55.546,28.263 5.718,5.629 5.513,5.427 v 28.597 c 0,2.107 -1.751,3.822 -3.902,3.822 h -25.75 c -2.152,0 -3.902,-1.715 -3.902,-3.822 V 32.084 c 0,-2.107 1.751,-3.822 3.902,-3.822 h 0.75 7.098 l 10.573,0.001 M 56.064,27 h -11.091 -7.098 -0.75 c -2.84,0 -5.165,2.287 -5.165,5.084 v 35.831 c 0,2.796 2.324,5.084 5.165,5.084 h 25.748 c 2.841,0 5.166,-2.287 5.166,-5.084 V 38.79 C 63.381,34.205 60.721,31.585 56.064,27 Z"
       id="path974" />
    <path
       fill="#472b29"
       d="m 46.843,31.284 h -5.412 c -0.124,0 -0.225,-0.101 -0.225,-0.225 0,-0.124 0.101,-0.225 0.225,-0.225 h 5.412 c 0.124,0 0.225,0.101 0.225,0.225 0,0.124 -0.1,0.225 -0.225,0.225 z"
       id="path976" />
    <path
       fill="#472b29"
       d="M 61.528,69.167 H 38.472 c -1.477,0 -2.678,-1.201 -2.678,-2.678 V 33.511 c 0,-1.477 1.201,-2.678 2.678,-2.678 h 1.155 c 0.124,0 0.225,0.101 0.225,0.225 0,0.124 -0.101,0.225 -0.225,0.225 h -1.155 c -1.228,0 -2.227,0.998 -2.227,2.227 v 32.98 c 0,1.228 0.998,2.227 2.227,2.227 h 23.057 c 1.228,0 2.227,-0.998 2.227,-2.227 V 56.314 c 0,-0.124 0.101,-0.225 0.225,-0.225 0.124,0 0.225,0.101 0.225,0.225 v 10.175 c 0,1.476 -1.202,2.678 -2.678,2.678 z"
       id="path978" />
    <path
       fill="#472b29"
       d="m 63.98,54.735 c -0.124,0 -0.225,-0.101 -0.225,-0.225 V 50 c 0,-0.124 0.101,-0.225 0.225,-0.225 0.124,0 0.225,0.101 0.225,0.225 v 4.51 c 0.001,0.124 -0.1,0.225 -0.225,0.225 z"
       id="path980" />
    <path
       fill="#472b29"
       d="m 63.98,48.045 c -0.124,0 -0.225,-0.101 -0.225,-0.225 v -2.029 c 0,-0.124 0.101,-0.225 0.225,-0.225 0.124,0 0.225,0.101 0.225,0.225 v 2.029 c 0.001,0.124 -0.1,0.225 -0.225,0.225 z"
       id="path982" />
    <path
       fill="#ffffff"
       d="m 49.137,48.775 h -1.804 -8 v 0.388 1.416 2.832 1.804 2.731 1.804 2.629 1.581 0.223 h 8 1.804 H 60.5 V 64.043 62.379 59.75 57.946 55.215 53.411 50.579 49 48.775 Z m -8,1.804 h 6.196 v 2.832 h -6.196 z m 0,4.636 h 6.196 v 2.731 h -6.196 z m 0,7.163 v -2.629 h 6.196 v 2.629 z m 17.559,0 h -9.559 v -2.629 h 9.559 z m 0,-4.433 h -9.559 v -2.731 h 9.559 z m 0,-4.534 h -9.559 v -2.832 h 9.559 z"
       id="path984" />
    <path
       fill="none"
       stroke="#472b29"
       stroke-linecap="round"
       stroke-linejoin="round"
       stroke-miterlimit="10"
       stroke-width="0.5"
       d="m 49.137,48.775 h -1.804 -8 v 0.388 1.416 2.832 1.804 2.731 1.804 2.629 1.581 0.223 h 8 1.804 H 60.5 V 64.043 62.379 59.75 57.946 55.215 53.411 50.579 49 48.775 Z m -8,1.804 h 6.196 v 2.832 h -6.196 z m 0,4.636 h 6.196 v 2.731 h -6.196 z m 0,7.163 v -2.629 h 6.196 v 2.629 z m 17.559,0 h -9.559 v -2.629 h 9.559 z m 0,-4.433 h -9.559 v -2.731 h 9.559 z m 0,-4.534 h -9.559 v -2.832 h 9.559 z"
       id="path986" />
  </g>
</svg>
