<?xml version="1.0" encoding="UTF-8" standalone="no"?>
<svg
   viewBox="0 0 78 78"
   width="39"
   height="39"
   version="1.1"
   id="svg66"
   sodipodi:docname="docs.svg"
   inkscape:version="1.2.2 (732a01da63, 2022-12-09)"
   xmlns:inkscape="http://www.inkscape.org/namespaces/inkscape"
   xmlns:sodipodi="http://sodipodi.sourceforge.net/DTD/sodipodi-0.dtd"
   xmlns="http://www.w3.org/2000/svg"
   xmlns:svg="http://www.w3.org/2000/svg">
  <defs
     id="defs70" />
  <sodipodi:namedview
     id="namedview68"
     pagecolor="#ffffff"
     bordercolor="#000000"
     borderopacity="0.25"
     inkscape:showpageshadow="2"
     inkscape:pageopacity="0.0"
     inkscape:pagecheckerboard="0"
     inkscape:deskcolor="#d1d1d1"
     showgrid="false"
     inkscape:zoom="8.37"
     inkscape:cx="28.016726"
     inkscape:cy="26.642772"
     inkscape:window-width="1920"
     inkscape:window-height="1017"
     inkscape:window-x="3832"
     inkscape:window-y="-8"
     inkscape:window-maximized="1"
     inkscape:current-layer="svg66" />
  <g
     id="g385"
     transform="translate(-11,-11)">
    <circle
       cx="77"
       cy="13"
       r="1"
       fill="#f1bc19"
       id="circle2" />
    <circle
       cx="50"
       cy="50"
       r="37"
       fill="#e6edb7"
       id="circle4" />
    <circle
       cx="83"
       cy="15"
       r="4"
       fill="#f1bc19"
       id="circle6" />
    <circle
       cx="87"
       cy="24"
       r="2"
       fill="#88ae45"
       id="circle8" />
    <circle
       cx="81"
       cy="76"
       r="2"
       fill="#fbcd59"
       id="circle10" />
    <circle
       cx="15"
       cy="63"
       r="4"
       fill="#fbcd59"
       id="circle12" />
    <circle
       cx="25"
       cy="87"
       r="2"
       fill="#88ae45"
       id="circle14" />
    <circle
       cx="18.5"
       cy="51.5"
       r="2.5"
       fill="#ffffff"
       id="circle16" />
    <circle
       cx="79.5"
       cy="33.5"
       r="1.5"
       fill="#ffffff"
       id="circle18" />
    <path
       fill="#55a7f9"
       d="m 37.126,72.369 c -2.499,0 -4.533,-1.998 -4.533,-4.453 V 32.084 c 0,-2.456 2.034,-4.453 4.533,-4.453 h 18.679 l 11.603,11.423 v 28.861 c 0,2.456 -2.034,4.453 -4.533,4.453 0,0.001 -25.749,0.001 -25.749,0.001 z"
       id="path20" />
    <polygon
       fill="#2d80d3"
       points="67.176,39.637 55.373,39.57 67.176,51.372 "
       id="polygon22" />
    <polyline
       fill="#aae1e2"
       points="55.792,28.263 55.792,39.57 67.175,39.57"
       id="polyline24" />
    <path
       fill="#472b29"
       d="M 67.175,40.27 H 55.792 c -0.387,0 -0.7,-0.313 -0.7,-0.7 V 28.263 c 0,-0.387 0.313,-0.7 0.7,-0.7 0.387,0 0.7,0.313 0.7,0.7 V 38.87 h 10.683 c 0.387,0 0.7,0.313 0.7,0.7 0,0.387 -0.313,0.7 -0.7,0.7 z"
       id="path26" />
    <path
       fill="#472b29"
       d="m 55.546,28.263 5.718,5.629 5.513,5.427 v 28.597 c 0,2.107 -1.751,3.822 -3.902,3.822 h -25.75 c -2.152,0 -3.902,-1.715 -3.902,-3.822 V 32.084 c 0,-2.107 1.751,-3.822 3.902,-3.822 h 0.75 7.098 l 10.573,0.001 M 56.064,27 h -11.091 -7.098 -0.75 c -2.84,0 -5.165,2.287 -5.165,5.084 v 35.831 c 0,2.796 2.324,5.084 5.165,5.084 h 25.748 c 2.841,0 5.166,-2.287 5.166,-5.084 V 38.79 C 63.381,34.205 60.721,31.585 56.064,27 Z"
       id="path28" />
    <path
       fill="#472b29"
       d="m 46.843,31.284 h -5.412 c -0.124,0 -0.225,-0.101 -0.225,-0.225 0,-0.124 0.101,-0.225 0.225,-0.225 h 5.412 c 0.124,0 0.225,0.101 0.225,0.225 0,0.124 -0.1,0.225 -0.225,0.225 z"
       id="path30" />
    <path
       fill="#472b29"
       d="M 61.528,69.167 H 38.472 c -1.477,0 -2.678,-1.201 -2.678,-2.678 V 33.511 c 0,-1.477 1.201,-2.678 2.678,-2.678 h 1.155 c 0.124,0 0.225,0.101 0.225,0.225 0,0.124 -0.101,0.225 -0.225,0.225 h -1.155 c -1.228,0 -2.227,0.998 -2.227,2.227 v 32.98 c 0,1.228 0.998,2.227 2.227,2.227 h 23.057 c 1.228,0 2.227,-0.998 2.227,-2.227 V 56.314 c 0,-0.124 0.101,-0.225 0.225,-0.225 0.124,0 0.225,0.101 0.225,0.225 v 10.175 c 0,1.476 -1.202,2.678 -2.678,2.678 z"
       id="path32" />
    <g
       id="g36">
      <path
         fill="#472b29"
         d="m 63.98,54.735 c -0.124,0 -0.225,-0.101 -0.225,-0.225 V 50 c 0,-0.124 0.101,-0.225 0.225,-0.225 0.124,0 0.225,0.101 0.225,0.225 v 4.51 c 0.001,0.124 -0.1,0.225 -0.225,0.225 z"
         id="path34" />
    </g>
    <g
       id="g40">
      <path
         fill="#472b29"
         d="m 63.98,48.045 c -0.124,0 -0.225,-0.101 -0.225,-0.225 v -2.029 c 0,-0.124 0.101,-0.225 0.225,-0.225 0.124,0 0.225,0.101 0.225,0.225 v 2.029 c 0.001,0.124 -0.1,0.225 -0.225,0.225 z"
         id="path38" />
    </g>
    <g
       id="g46">
      <rect
         width="19.167"
         height="1.804"
         x="40.333"
         y="52.706001"
         fill="#ffffff"
         id="rect42" />
      <path
         fill="#472b29"
         d="M 59.5,54.76 H 40.333 c -0.138,0 -0.25,-0.112 -0.25,-0.25 v -1.804 c 0,-0.138 0.112,-0.25 0.25,-0.25 H 59.5 c 0.138,0 0.25,0.112 0.25,0.25 v 1.804 c 0,0.138 -0.112,0.25 -0.25,0.25 z M 40.583,54.26 H 59.25 V 52.956 H 40.583 Z"
         id="path44" />
    </g>
    <g
       id="g52">
      <rect
         width="19.167"
         height="1.804"
         x="40.333"
         y="48.775002"
         fill="#ffffff"
         id="rect48" />
      <path
         fill="#472b29"
         d="M 59.5,50.829 H 40.333 c -0.138,0 -0.25,-0.112 -0.25,-0.25 v -1.804 c 0,-0.138 0.112,-0.25 0.25,-0.25 H 59.5 c 0.138,0 0.25,0.112 0.25,0.25 v 1.804 c 0,0.138 -0.112,0.25 -0.25,0.25 z m -18.917,-0.5 H 59.25 V 49.025 H 40.583 Z"
         id="path50" />
    </g>
    <g
       id="g58">
      <rect
         width="19.167"
         height="1.804"
         x="40.333"
         y="56.716"
         fill="#ffffff"
         id="rect54" />
      <path
         fill="#472b29"
         d="M 59.5,58.77 H 40.333 c -0.138,0 -0.25,-0.112 -0.25,-0.25 v -1.804 c 0,-0.138 0.112,-0.25 0.25,-0.25 H 59.5 c 0.138,0 0.25,0.112 0.25,0.25 v 1.804 c 0,0.138 -0.112,0.25 -0.25,0.25 z M 40.583,58.27 H 59.25 V 56.966 H 40.583 Z"
         id="path56" />
    </g>
    <g
       id="g64">
      <rect
         width="13.104"
         height="1.804"
         x="40.333"
         y="60.528999"
         fill="#ffffff"
         id="rect60" />
      <path
         fill="#472b29"
         d="M 53.438,62.583 H 40.333 c -0.138,0 -0.25,-0.112 -0.25,-0.25 v -1.804 c 0,-0.138 0.112,-0.25 0.25,-0.25 h 13.104 c 0.138,0 0.25,0.112 0.25,0.25 v 1.804 c 0.001,0.139 -0.111,0.25 -0.249,0.25 z m -12.855,-0.5 H 53.187 V 60.779 H 40.583 Z"
         id="path62" />
    </g>
  </g>
</svg>
