<?xml version="1.0" encoding="UTF-8" standalone="no"?>
<svg
   viewBox="0 0 78 78"
   width="39"
   height="39"
   version="1.1"
   id="svg78"
   sodipodi:docname="google-classroom.svg"
   inkscape:version="1.2.2 (732a01da63, 2022-12-09)"
   xmlns:inkscape="http://www.inkscape.org/namespaces/inkscape"
   xmlns:sodipodi="http://sodipodi.sourceforge.net/DTD/sodipodi-0.dtd"
   xmlns="http://www.w3.org/2000/svg"
   xmlns:svg="http://www.w3.org/2000/svg">
  <defs
     id="defs82" />
  <sodipodi:namedview
     id="namedview80"
     pagecolor="#ffffff"
     bordercolor="#000000"
     borderopacity="0.25"
     inkscape:showpageshadow="2"
     inkscape:pageopacity="0.0"
     inkscape:pagecheckerboard="0"
     inkscape:deskcolor="#d1d1d1"
     showgrid="false"
     inkscape:zoom="16.74"
     inkscape:cx="9.348865"
     inkscape:cy="19.53405"
     inkscape:window-width="1920"
     inkscape:window-height="1017"
     inkscape:window-x="-8"
     inkscape:window-y="-8"
     inkscape:window-maximized="1"
     inkscape:current-layer="svg78" />
  <circle
     cx="66"
     cy="2"
     r="1"
     fill="#f1bc19"
     id="circle2" />
  <circle
     cx="39"
     cy="39"
     r="37"
     fill="#e4e4f9"
     id="circle4" />
  <circle
     cx="72"
     cy="4"
     r="4"
     fill="#f1bc19"
     id="circle6" />
  <circle
     cx="76"
     cy="13"
     r="2"
     fill="#8889b9"
     id="circle8" />
  <circle
     cx="70"
     cy="65"
     r="2"
     fill="#fbcd59"
     id="circle10" />
  <circle
     cx="4"
     cy="52"
     r="4"
     fill="#fbcd59"
     id="circle12" />
  <circle
     cx="14"
     cy="76"
     r="2"
     fill="#8889b9"
     id="circle14" />
  <circle
     cx="12.5"
     cy="56.5"
     r="2.5"
     fill="#ffffff"
     id="circle16" />
  <circle
     cx="66.5"
     cy="19.5"
     r="1.5"
     fill="#ffffff"
     id="circle18" />
  <path
     fill="#f1bc19"
     d="M 55.719,62 H 24.281 C 20.26,62 17,58.74 17,54.719 V 23.281 C 17,19.26 20.26,16 24.281,16 H 55.719 C 59.74,16 63,19.26 63,23.281 V 54.719 C 63,58.74 59.74,62 55.719,62 Z"
     id="path20" />
  <path
     fill="#472b29"
     d="M 55.719,62.7 H 24.281 C 19.88,62.7 16.3,59.12 16.3,54.719 V 23.281 c 0,-4.401 3.581,-7.981 7.981,-7.981 h 31.438 c 4.401,0 7.981,3.581 7.981,7.981 v 31.438 c 0,4.401 -3.58,7.981 -7.981,7.981 z m -31.438,-46 c -3.629,0 -6.581,2.952 -6.581,6.581 v 31.438 c 0,3.629 2.952,6.581 6.581,6.581 h 31.438 c 3.629,0 6.581,-2.952 6.581,-6.581 V 23.281 C 62.3,19.652 59.348,16.7 55.719,16.7 Z"
     id="path22" />
  <path
     fill="#1fa363"
     d="M 54.667,57 H 25.333 C 23.492,57 22,55.508 22,53.667 V 24.333 C 22,22.492 23.492,21 25.333,21 H 54.666 C 56.508,21 58,22.492 58,24.333 V 53.666 C 58,55.508 56.508,57 54.667,57 Z"
     id="path24" />
  <path
     fill="#472b29"
     d="M 57.5,30 C 57.224,30 57,29.776 57,29.5 V 23.937 C 57,22.869 56.131,22 55.063,22 H 45.5 C 45.224,22 45,21.776 45,21.5 45,21.224 45.224,21 45.5,21 h 9.563 C 56.682,21 58,22.318 58,23.938 V 29.5 c 0,0.276 -0.224,0.5 -0.5,0.5 z"
     id="path26" />
  <path
     fill="#472b29"
     d="m 40.5,22 h -9 C 31.224,22 31,21.776 31,21.5 31,21.224 31.224,21 31.5,21 h 9 c 0.276,0 0.5,0.224 0.5,0.5 0,0.276 -0.224,0.5 -0.5,0.5 z"
     id="path28" />
  <path
     fill="#472b29"
     d="M 22.5,50 C 22.224,50 22,49.776 22,49.5 V 23.938 C 22,22.318 23.318,21 24.938,21 H 29.5 c 0.276,0 0.5,0.224 0.5,0.5 0,0.276 -0.224,0.5 -0.5,0.5 H 24.937 C 23.869,22 23,22.869 23,23.938 V 49.5 c 0,0.276 -0.224,0.5 -0.5,0.5 z"
     id="path30" />
  <g
     id="g34"
     transform="translate(-11,-11)">
    <path
       fill="#472b29"
       d="M 66.063,69 H 35.938 C 34.318,69 33,67.683 33,66.063 V 63.5 c 0,-0.276 0.224,-0.5 0.5,-0.5 0.276,0 0.5,0.224 0.5,0.5 v 2.563 C 34,67.131 34.869,68 35.938,68 H 66.063 C 67.131,68 68,67.131 68,66.063 V 43.5 c 0,-0.276 0.224,-0.5 0.5,-0.5 0.276,0 0.5,0.224 0.5,0.5 V 66.063 C 69,67.683 67.682,69 66.063,69 Z"
       id="path32" />
  </g>
  <g
     id="g40"
     transform="translate(-11,-11)">
    <path
       fill="#5ebe8f"
       d="m 42.393,53.5 h -0.786 c -2.75,0 -5.107,1.413 -5.107,2.333 V 57.5 h 11 v -1.667 c 0,-0.92 -2.357,-2.333 -5.107,-2.333 z"
       id="path36" />
    <path
       fill="#472b29"
       d="m 47.75,57.75 h -11.5 v -1.917 c 0,-1.139 2.522,-2.583 5.357,-2.583 h 0.786 c 2.835,0 5.357,1.444 5.357,2.583 z m -11,-0.5 h 10.5 v -1.417 c 0,-0.704 -2.199,-2.083 -4.857,-2.083 h -0.786 c -2.658,0 -4.857,1.379 -4.857,2.083 z"
       id="path38" />
  </g>
  <g
     id="g46"
     transform="translate(-11,-11)">
    <circle
       cx="42"
       cy="49"
       r="2.5"
       fill="#5ebe8f"
       id="circle42" />
    <path
       fill="#472b29"
       d="m 42,51.75 c -1.517,0 -2.75,-1.233 -2.75,-2.75 0,-1.517 1.233,-2.75 2.75,-2.75 1.517,0 2.75,1.233 2.75,2.75 0,1.517 -1.233,2.75 -2.75,2.75 z m 0,-5 c -1.241,0 -2.25,1.009 -2.25,2.25 0,1.241 1.009,2.25 2.25,2.25 1.241,0 2.25,-1.009 2.25,-2.25 0,-1.241 -1.009,-2.25 -2.25,-2.25 z"
       id="path44" />
  </g>
  <g
     id="g52"
     transform="translate(-11,-11)">
    <path
       fill="#5ebe8f"
       d="m 60.393,53.5 h -0.786 c -2.75,0 -5.107,1.413 -5.107,2.333 V 57.5 h 11 v -1.667 c 0,-0.92 -2.357,-2.333 -5.107,-2.333 z"
       id="path48" />
    <path
       fill="#472b29"
       d="m 65.75,57.75 h -11.5 v -1.917 c 0,-1.139 2.522,-2.583 5.357,-2.583 h 0.786 c 2.835,0 5.357,1.444 5.357,2.583 z m -11,-0.5 h 10.5 v -1.417 c 0,-0.704 -2.199,-2.083 -4.857,-2.083 h -0.786 c -2.658,0 -4.857,1.379 -4.857,2.083 z"
       id="path50" />
  </g>
  <g
     id="g58"
     transform="translate(-11,-11)">
    <circle
       cx="60"
       cy="49"
       r="2.5"
       fill="#5ebe8f"
       id="circle54" />
    <path
       fill="#472b29"
       d="m 60,51.75 c -1.517,0 -2.75,-1.233 -2.75,-2.75 0,-1.517 1.233,-2.75 2.75,-2.75 1.517,0 2.75,1.233 2.75,2.75 0,1.517 -1.233,2.75 -2.75,2.75 z m 0,-5 c -1.241,0 -2.25,1.009 -2.25,2.25 0,1.241 1.009,2.25 2.25,2.25 1.241,0 2.25,-1.009 2.25,-2.25 0,-1.241 -1.009,-2.25 -2.25,-2.25 z"
       id="path56" />
  </g>
  <g
     id="g64"
     transform="translate(-11,-11)">
    <rect
       width="9"
       height="3"
       x="55.5"
       y="65.5"
       fill="#ffffff"
       id="rect60" />
    <path
       fill="#472b29"
       d="m 64.5,69 h -9 C 55.224,69 55,68.776 55,68.5 v -3 C 55,65.224 55.224,65 55.5,65 h 9 c 0.276,0 0.5,0.224 0.5,0.5 v 3 C 65,68.776 64.776,69 64.5,69 Z M 56,68 h 8 v -2 h -8 z"
       id="path62" />
  </g>
  <g
     id="g70"
     transform="translate(-11,-11)">
    <path
       fill="#ffffff"
       d="m 51,51.5 h -1 c -3.5,0 -6.5,2.119 -6.5,3.5 v 2.5 h 14 V 55 c 0,-1.381 -3,-3.5 -6.5,-3.5 z"
       id="path66" />
    <path
       fill="#472b29"
       d="M 57.75,57.75 H 43.25 V 55 c 0,-1.638 3.273,-3.75 6.75,-3.75 h 1 c 3.477,0 6.75,2.112 6.75,3.75 z m -14,-0.5 h 13.5 V 55 c 0,-1.225 -2.921,-3.25 -6.25,-3.25 h -1 c -3.329,0 -6.25,2.025 -6.25,3.25 z"
       id="path68" />
  </g>
  <g
     id="g76"
     transform="translate(-11,-11)">
    <circle
       cx="50.5"
       cy="46.5"
       r="3"
       fill="#ffffff"
       id="circle72" />
    <path
       fill="#472b29"
       d="m 50.5,49.75 c -1.792,0 -3.25,-1.458 -3.25,-3.25 0,-1.792 1.458,-3.25 3.25,-3.25 1.792,0 3.25,1.458 3.25,3.25 0,1.792 -1.458,3.25 -3.25,3.25 z m 0,-6 c -1.517,0 -2.75,1.233 -2.75,2.75 0,1.517 1.233,2.75 2.75,2.75 1.517,0 2.75,-1.233 2.75,-2.75 0,-1.517 -1.233,-2.75 -2.75,-2.75 z"
       id="path74" />
  </g>
</svg>
