<?xml version="1.0" encoding="UTF-8" standalone="no"?>
<svg
   viewBox="0 0 78 78"
   width="39"
   height="39"
   version="1.1"
   id="svg245"
   sodipodi:docname="google-meet.svg"
   inkscape:version="1.2.2 (732a01da63, 2022-12-09)"
   xmlns:inkscape="http://www.inkscape.org/namespaces/inkscape"
   xmlns:sodipodi="http://sodipodi.sourceforge.net/DTD/sodipodi-0.dtd"
   xmlns="http://www.w3.org/2000/svg"
   xmlns:svg="http://www.w3.org/2000/svg">
  <defs
     id="defs249" />
  <sodipodi:namedview
     id="namedview247"
     pagecolor="#ffffff"
     bordercolor="#000000"
     borderopacity="0.25"
     inkscape:showpageshadow="2"
     inkscape:pageopacity="0.0"
     inkscape:pagecheckerboard="0"
     inkscape:deskcolor="#d1d1d1"
     showgrid="false"
     inkscape:zoom="16.74"
     inkscape:cx="9.348865"
     inkscape:cy="19.53405"
     inkscape:window-width="1920"
     inkscape:window-height="1017"
     inkscape:window-x="-8"
     inkscape:window-y="-8"
     inkscape:window-maximized="1"
     inkscape:current-layer="svg245" />
  <circle
     cx="2"
     cy="18"
     r="2"
     fill="#ee3e54"
     id="circle177" />
  <circle
     cx="66"
     cy="2"
     r="1"
     fill="#f1bc19"
     id="circle179" />
  <circle
     cx="39"
     cy="39"
     r="37"
     fill="#fce0a2"
     id="circle181" />
  <circle
     cx="72"
     cy="4"
     r="4"
     fill="#f1bc19"
     id="circle183" />
  <circle
     cx="76"
     cy="13"
     r="2"
     fill="#ee3e54"
     id="circle185" />
  <circle
     cx="70"
     cy="65"
     r="2"
     fill="#fbcd59"
     id="circle187" />
  <circle
     cx="4"
     cy="52"
     r="4"
     fill="#fbcd59"
     id="circle189" />
  <circle
     cx="14"
     cy="76"
     r="2"
     fill="#ee3e54"
     id="circle191" />
  <circle
     cx="7.5"
     cy="42.5"
     r="2.5"
     fill="#ffffff"
     id="circle193" />
  <circle
     cx="10"
     cy="56"
     r="1"
     fill="#f1bc19"
     id="circle195" />
  <circle
     cx="69"
     cy="23"
     r="1"
     fill="#ffffff"
     id="circle197" />
  <g
     id="g219"
     transform="translate(-11,-11)">
    <path
       fill="#93bc39"
       d="m 76.412,34.888 v 30.267 c 0,1.718 -2.024,2.637 -3.317,1.505 L 65.412,59.938 V 40.061 L 73.1,33.379 c 1.294,-1.125 3.312,-0.206 3.312,1.509 z"
       id="path199" />
    <polygon
       fill="#6f913d"
       points="54.959,50 55.218,49.776 65.412,40.965 65.412,59.035 55.218,50.224 "
       id="polygon201" />
    <path
       fill="#fbb821"
       d="M 54.824,50 V 41.176 H 37.176 L 36.882,40.911 V 30.882 l -0.147,-0.147 0.147,-0.147 H 62.47 c 1.624,0 2.941,1.318 2.941,2.941 v 7.435 L 55.217,49.776 54.959,50 Z"
       id="path203" />
    <path
       fill="#93bc39"
       d="M 54.824,58.824 V 50 h 0.135 l 10.453,9.035 v 7.435 c 0,1.624 -1.318,2.941 -3.529,2.941 h -25 v -0.294 -10 l 0.294,-0.294 h 17.647 z"
       id="path205" />
    <polygon
       fill="#4792dd"
       points="36.882,59.118 26.882,59.118 26.588,59.118 26.588,40.912 36.882,40.912 37.176,41.176 37.176,58.824 "
       id="polygon207" />
    <path
       fill="#1e65d6"
       d="m 36.882,69.118 v 0.294 h -7.941 c -1.035,0 -2.353,-1.318 -2.353,-2.353 v -7.941 h 0.294 10 z"
       id="path209" />
    <polygon
       fill="#f45834"
       points="26.588,40.912 26.588,40.882 36.735,30.735 36.882,30.882 36.882,40.912 "
       id="polygon211" />
    <path
       fill="#472b29"
       d="M 54,42 V 58 H 38 V 42 h 16 m 0,-1.4 H 38 c -0.773,0 -1.4,0.627 -1.4,1.4 v 16 c 0,0.773 0.627,1.4 1.4,1.4 h 16 c 0.773,0 1.4,-0.627 1.4,-1.4 V 42 c 0,-0.773 -0.627,-1.4 -1.4,-1.4 z"
       id="path213" />
    <path
       fill="#472b29"
       d="m 62.471,31.4 c 1.174,0 2.129,0.955 2.129,2.129 V 66.47 c 0,1.294 -1.067,2.129 -2.718,2.129 H 28.941 c -0.605,0 -1.541,-0.936 -1.541,-1.541 v -25.84 l 9.819,-9.819 h 25.252 m 0,-1.399 H 36.882 c -0.156,0 -0.306,0.062 -0.416,0.172 L 26.172,40.466 C 26.062,40.576 26,40.726 26,40.882 V 67.059 C 26,68.433 27.566,70 28.941,70 H 61.882 C 64.306,70 66,68.549 66,66.471 V 33.529 C 66,31.583 64.417,30 62.471,30 Z"
       id="path215" />
    <path
       fill="#472b29"
       d="m 74.718,67.77 c -0.542,0 -1.068,-0.197 -1.482,-0.555 l -8.364,-7.203 0.914,-1.061 8.364,7.203 c 0.263,0.226 0.625,0.278 0.937,0.133 0.323,-0.148 0.514,-0.446 0.514,-0.799 V 34.511 c 0,-0.353 -0.191,-0.65 -0.513,-0.799 -0.319,-0.146 -0.671,-0.098 -0.938,0.134 l -8.365,7.202 -0.913,-1.061 8.364,-7.202 c 0.682,-0.59 1.617,-0.722 2.437,-0.346 0.818,0.379 1.327,1.172 1.327,2.072 v 30.978 c 0,0.901 -0.509,1.694 -1.328,2.07 -0.3,0.139 -0.623,0.211 -0.954,0.211 z"
       id="path217" />
  </g>
  <g
     id="g223"
     transform="translate(-11,-11)">
    <path
       fill="#472b29"
       d="m 37.1,69.75 c -0.276,0 -0.5,-0.224 -0.5,-0.5 V 30.738 c 0,-0.276 0.224,-0.5 0.5,-0.5 0.276,0 0.5,0.224 0.5,0.5 V 69.25 c 0,0.276 -0.224,0.5 -0.5,0.5 z"
       id="path221" />
  </g>
  <g
     id="g227"
     transform="translate(-11,-11)">
    <path
       fill="#472b29"
       d="M 53.313,41.6 H 26.936 c -0.276,0 -0.5,-0.224 -0.5,-0.5 0,-0.276 0.224,-0.5 0.5,-0.5 h 26.377 c 0.276,0 0.5,0.224 0.5,0.5 0,0.276 -0.224,0.5 -0.5,0.5 z"
       id="path225" />
  </g>
  <g
     id="g231"
     transform="translate(-11,-11)">
    <path
       fill="#472b29"
       d="M 53.313,59.4 H 26.936 c -0.276,0 -0.5,-0.224 -0.5,-0.5 0,-0.276 0.224,-0.5 0.5,-0.5 h 26.377 c 0.276,0 0.5,0.224 0.5,0.5 0,0.276 -0.224,0.5 -0.5,0.5 z"
       id="path229" />
  </g>
  <g
     id="g235"
     transform="translate(-11,-11)">
    <path
       fill="#472b29"
       d="m 65.938,60.313 c -0.116,0 -0.231,-0.04 -0.326,-0.121 L 54.184,50.379 c -0.11,-0.095 -0.174,-0.232 -0.174,-0.378 0,-0.146 0.063,-0.284 0.173,-0.379 l 11.053,-9.563 c 0.209,-0.182 0.525,-0.158 0.705,0.051 0.181,0.209 0.158,0.524 -0.051,0.705 l -10.614,9.184 10.988,9.435 c 0.209,0.18 0.233,0.495 0.054,0.705 -0.1,0.114 -0.24,0.174 -0.38,0.174 z"
       id="path233" />
  </g>
  <g
     id="g239"
     transform="translate(-11,-11)">
    <path
       fill="#472b29"
       d="m 59.75,66 h -4.942 c -0.138,0 -0.25,-0.112 -0.25,-0.25 0,-0.138 0.112,-0.25 0.25,-0.25 h 4.942 c 0.965,0 1.75,-0.785 1.75,-1.75 v -3.915 c 0,-0.138 0.112,-0.25 0.25,-0.25 0.138,0 0.25,0.112 0.25,0.25 V 63.75 C 62,64.99 60.991,66 59.75,66 Z m -6.942,0 h -2 c -0.138,0 -0.25,-0.112 -0.25,-0.25 0,-0.138 0.112,-0.25 0.25,-0.25 h 2 c 0.138,0 0.25,0.112 0.25,0.25 0,0.138 -0.112,0.25 -0.25,0.25 z m -4,0 h -0.5 c -0.138,0 -0.25,-0.112 -0.25,-0.25 0,-0.138 0.112,-0.25 0.25,-0.25 h 0.5 c 0.138,0 0.25,0.112 0.25,0.25 0,0.138 -0.112,0.25 -0.25,0.25 z"
       id="path237" />
  </g>
  <g
     id="g243"
     transform="translate(-11,-11)">
    <path
       fill="#472b29"
       d="m 61.75,39.915 c -0.138,0 -0.25,-0.112 -0.25,-0.25 V 35.75 C 61.5,34.785 60.715,34 59.75,34 h -7.942 c -0.138,0 -0.25,-0.112 -0.25,-0.25 0,-0.138 0.112,-0.25 0.25,-0.25 h 7.942 c 1.241,0 2.25,1.01 2.25,2.25 v 3.915 c 0,0.138 -0.112,0.25 -0.25,0.25 z M 49.808,34 h -2 c -0.138,0 -0.25,-0.112 -0.25,-0.25 0,-0.138 0.112,-0.25 0.25,-0.25 h 2 c 0.138,0 0.25,0.112 0.25,0.25 0,0.138 -0.112,0.25 -0.25,0.25 z m -4,0 h -5.835 c -0.138,0 -0.25,-0.112 -0.25,-0.25 0,-0.138 0.112,-0.25 0.25,-0.25 h 5.835 c 0.138,0 0.25,0.112 0.25,0.25 0,0.138 -0.112,0.25 -0.25,0.25 z"
       id="path241" />
  </g>
</svg>
