<?xml version="1.0" encoding="UTF-8" standalone="no"?>
<svg
   viewBox="0 0 78 78"
   width="39"
   height="39"
   version="1.1"
   id="svg239"
   sodipodi:docname="google-drive.svg"
   inkscape:version="1.2.2 (732a01da63, 2022-12-09)"
   xmlns:inkscape="http://www.inkscape.org/namespaces/inkscape"
   xmlns:sodipodi="http://sodipodi.sourceforge.net/DTD/sodipodi-0.dtd"
   xmlns="http://www.w3.org/2000/svg"
   xmlns:svg="http://www.w3.org/2000/svg">
  <defs
     id="defs243" />
  <sodipodi:namedview
     id="namedview241"
     pagecolor="#ffffff"
     bordercolor="#000000"
     borderopacity="0.25"
     inkscape:showpageshadow="2"
     inkscape:pageopacity="0.0"
     inkscape:pagecheckerboard="0"
     inkscape:deskcolor="#d1d1d1"
     showgrid="false"
     inkscape:zoom="16.74"
     inkscape:cx="9.348865"
     inkscape:cy="19.53405"
     inkscape:window-width="1920"
     inkscape:window-height="1017"
     inkscape:window-x="-8"
     inkscape:window-y="-8"
     inkscape:window-maximized="1"
     inkscape:current-layer="svg239" />
  <circle
     cx="39"
     cy="39"
     r="37"
     fill="#e6edb7"
     id="circle183" />
  <circle
     cx="2"
     cy="18"
     r="2"
     fill="#88ae45"
     id="circle185" />
  <circle
     cx="66"
     cy="2"
     r="1"
     fill="#f1bc19"
     id="circle187" />
  <circle
     cx="72"
     cy="4"
     r="4"
     fill="#f1bc19"
     id="circle189" />
  <circle
     cx="76"
     cy="13"
     r="2"
     fill="#88ae45"
     id="circle191" />
  <circle
     cx="70"
     cy="65"
     r="2"
     fill="#fbcd59"
     id="circle193" />
  <circle
     cx="4"
     cy="52"
     r="4"
     fill="#fbcd59"
     id="circle195" />
  <circle
     cx="14"
     cy="76"
     r="2"
     fill="#88ae45"
     id="circle197" />
  <circle
     cx="7.5"
     cy="42.5"
     r="2.5"
     fill="#ffffff"
     id="circle199" />
  <circle
     cx="10"
     cy="56"
     r="1"
     fill="#f1bc19"
     id="circle201" />
  <circle
     cx="69"
     cy="23"
     r="1"
     fill="#ffffff"
     id="circle203" />
  <g
     id="g211"
     transform="translate(-11,-11)">
    <polygon
       fill="#fcc938"
       points="58.67,27 41.907,27 58.992,56.5 75.18,56.5 75.47,56 "
       id="polygon205" />
    <polygon
       fill="#67ba8c"
       points="41.33,27 24.53,56 32.903,70.494 50,40.973 41.907,27 "
       id="polygon207" />
    <polygon
       fill="#1e65d6"
       points="32.903,70.494 33.196,71 66.78,71 75.18,56.5 41.008,56.5 "
       id="polygon209" />
  </g>
  <g
     id="g237"
     transform="translate(-11,-11)">
    <path
       fill="#472b29"
       d="m 28.429,56.379 c -0.064,0 -0.129,-0.016 -0.188,-0.05 C 28.061,56.225 28,55.996 28.104,55.816 L 41.797,32.171 c 0.104,-0.181 0.335,-0.24 0.512,-0.137 0.18,0.104 0.241,0.333 0.137,0.513 L 28.753,56.192 c -0.069,0.121 -0.195,0.187 -0.324,0.187 z"
       id="path213" />
    <path
       fill="#472b29"
       d="m 70.193,54 c -0.129,0 -0.255,-0.067 -0.324,-0.187 l -0.724,-1.25 c -0.104,-0.179 -0.043,-0.409 0.137,-0.513 0.176,-0.103 0.407,-0.044 0.512,0.137 l 0.724,1.25 c 0.104,0.179 0.043,0.409 -0.137,0.513 C 70.322,53.984 70.258,54 70.193,54 Z"
       id="path215" />
    <path
       fill="#472b29"
       d="m 64.981,45 c -0.129,0 -0.255,-0.067 -0.324,-0.187 l -8.253,-14.25 c -0.104,-0.179 -0.043,-0.409 0.137,-0.513 0.176,-0.103 0.407,-0.044 0.512,0.137 l 8.253,14.25 c 0.104,0.179 0.043,0.409 -0.137,0.513 C 65.11,44.984 65.046,45 64.981,45 Z"
       id="path217" />
    <path
       fill="#472b29"
       d="m 68.456,51 c -0.129,0 -0.255,-0.067 -0.324,-0.187 l -1.882,-3.25 c -0.104,-0.179 -0.043,-0.409 0.137,-0.513 0.175,-0.104 0.407,-0.043 0.512,0.137 l 1.882,3.25 c 0.104,0.179 0.043,0.409 -0.137,0.513 C 68.585,50.984 68.521,51 68.456,51 Z"
       id="path219" />
    <path
       fill="#472b29"
       d="M 64.837,68 H 63.375 C 63.168,68 63,67.832 63,67.625 63,67.418 63.168,67.25 63.375,67.25 h 1.462 c 0.207,0 0.375,0.168 0.375,0.375 0,0.207 -0.168,0.375 -0.375,0.375 z"
       id="path221" />
    <path
       fill="#472b29"
       d="m 61.625,68 h -2.25 C 59.168,68 59,67.832 59,67.625 59,67.418 59.168,67.25 59.375,67.25 h 2.25 C 61.832,67.25 62,67.418 62,67.625 62,67.832 61.832,68 61.625,68 Z"
       id="path223" />
    <path
       fill="#472b29"
       d="M 56.625,68 H 37.453 c -0.207,0 -0.375,-0.168 -0.375,-0.375 0,-0.207 0.168,-0.375 0.375,-0.375 H 56.625 C 56.832,67.25 57,67.418 57,67.625 57,67.832 56.832,68 56.625,68 Z"
       id="path225" />
    <path
       fill="#472b29"
       d="M 50,42.769 57.431,55.6 H 42.569 L 50,42.769 M 50,39.976 40.14,57 h 19.72 z"
       id="path227" />
    <path
       fill="#472b29"
       d="M 58.443,27.4 75.007,56 66.551,70.6 H 33.417 L 24.992,56.001 41.557,27.4 H 58.443 M 58.674,26 H 41.326 c -0.357,0 -0.687,0.19 -0.865,0.499 L 23.665,55.5 c -0.179,0.31 -0.18,0.691 -10e-4,1.001 L 32.32,71.5 c 0.179,0.31 0.509,0.5 0.866,0.5 h 33.596 c 0.357,0 0.687,-0.19 0.865,-0.499 l 8.687,-15 c 0.18,-0.31 0.18,-0.692 0,-1.002 l -16.796,-29 C 59.36,26.19 59.03,26 58.674,26 Z"
       id="path229" />
    <rect
       width="34.173"
       height="1"
       x="41.007999"
       y="56"
       fill="#472b29"
       id="rect231" />
    <rect
       width="34.112999"
       height="1"
       x="24.396"
       y="55.236"
       fill="#472b29"
       transform="rotate(-59.927,41.453,55.735)"
       id="rect233" />
    <rect
       width="1"
       height="34.089001"
       x="49.949001"
       y="24.702"
       fill="#472b29"
       transform="rotate(-30.08,50.45,41.747)"
       id="rect235" />
  </g>
</svg>
