<?xml version="1.0" encoding="UTF-8" standalone="no"?>
<svg
   viewBox="0 0 78 78"
   width="39"
   height="39"
   version="1.1"
   id="svg54"
   sodipodi:docname="google-agenda.svg"
   inkscape:version="1.2.2 (732a01da63, 2022-12-09)"
   xmlns:inkscape="http://www.inkscape.org/namespaces/inkscape"
   xmlns:sodipodi="http://sodipodi.sourceforge.net/DTD/sodipodi-0.dtd"
   xmlns="http://www.w3.org/2000/svg"
   xmlns:svg="http://www.w3.org/2000/svg">
  <defs
     id="defs58" />
  <sodipodi:namedview
     id="namedview56"
     pagecolor="#ffffff"
     bordercolor="#000000"
     borderopacity="0.25"
     inkscape:showpageshadow="2"
     inkscape:pageopacity="0.0"
     inkscape:pagecheckerboard="0"
     inkscape:deskcolor="#d1d1d1"
     showgrid="false"
     inkscape:zoom="16.74"
     inkscape:cx="9.348865"
     inkscape:cy="19.53405"
     inkscape:window-width="1920"
     inkscape:window-height="1017"
     inkscape:window-x="-8"
     inkscape:window-y="-8"
     inkscape:window-maximized="1"
     inkscape:current-layer="svg54" />
  <path
     fill="#ee3e54"
     d="m 2,16 c -1.105,0 -2,0.895 -2,2 0,1.105 0.895,2 2,2 1.105,0 2,-0.895 2,-2 0,-1.105 -0.895,-2 -2,-2 z"
     id="path2" />
  <path
     fill="#f1bc19"
     d="m 66,1 c -0.552,0 -1,0.448 -1,1 0,0.552 0.448,1 1,1 0.552,0 1,-0.448 1,-1 0,-0.552 -0.448,-1 -1,-1 z"
     id="path4" />
  <path
     fill="#fce0a2"
     d="M 39,2 C 18.565,2 2,18.565 2,39 2,59.435 18.565,76 39,76 59.435,76 76,59.435 76,39 76,18.565 59.435,2 39,2 Z"
     id="path6" />
  <path
     fill="#f1bc19"
     d="m 72,0 c -2.209,0 -4,1.791 -4,4 0,2.209 1.791,4 4,4 2.209,0 4,-1.791 4,-4 0,-2.209 -1.791,-4 -4,-4 z"
     id="path8" />
  <path
     fill="#ee3e54"
     d="m 76,11 c -1.105,0 -2,0.895 -2,2 0,1.105 0.895,2 2,2 1.105,0 2,-0.895 2,-2 0,-1.105 -0.895,-2 -2,-2 z"
     id="path10" />
  <path
     fill="#fbcd59"
     d="m 70,63 c -1.105,0 -2,0.895 -2,2 0,1.105 0.895,2 2,2 1.105,0 2,-0.895 2,-2 0,-1.105 -0.895,-2 -2,-2 z M 4,48 c -2.209,0 -4,1.791 -4,4 0,2.209 1.791,4 4,4 2.209,0 4,-1.791 4,-4 0,-2.209 -1.791,-4 -4,-4 z"
     id="path12" />
  <path
     fill="#ee3e54"
     d="m 14,74 c -1.105,0 -2,0.895 -2,2 0,1.105 0.895,2 2,2 1.105,0 2,-0.895 2,-2 0,-1.105 -0.895,-2 -2,-2 z"
     id="path14" />
  <path
     fill="#ffffff"
     d="M 7.5,40 C 6.119,40 5,41.119 5,42.5 5,43.881 6.119,45 7.5,45 8.881,45 10,43.881 10,42.5 10,41.119 8.881,40 7.5,40 Z"
     id="path16" />
  <path
     fill="#f1bc19"
     d="m 10,55 c -0.552,0 -1,0.448 -1,1 0,0.552 0.448,1 1,1 0.552,0 1,-0.448 1,-1 0,-0.552 -0.448,-1 -1,-1 z"
     id="path18" />
  <path
     fill="#ffffff"
     d="m 69,22 c -0.552,0 -1,0.448 -1,1 0,0.552 0.448,1 1,1 0.552,0 1,-0.448 1,-1 0,-0.552 -0.448,-1 -1,-1 z"
     id="path20" />
  <path
     fill="#e1e0d8"
     d="M 20.7,25.3 V 20 c 0,-1.82 1.48,-3.3 3.3,-3.3 h 30 c 1.82,0 3.3,1.48 3.3,3.3 v 5.3 z"
     id="path22" />
  <path
     fill="#472b29"
     d="m 54,17.4 c 1.434,0 2.6,1.166 2.6,2.6 v 4.6 H 21.4 V 20 c 0,-1.434 1.166,-2.6 2.6,-2.6 H 54 M 54,16 H 24 c -2.209,0 -4,1.791 -4,4 v 6 h 38 v -6 c 0,-2.209 -1.791,-4 -4,-4 z"
     id="path24" />
  <path
     fill="#a2b3cb"
     d="M 60.327,56.291 58.093,42.5 38.4,41.5 l -18.493,1 -2.233,13.792 c -0.176,1.074 0.123,2.16 0.819,2.979 0.663,0.781 1.621,1.229 2.627,1.229 h 35.76 c 1.006,0 1.964,-0.447 2.627,-1.229 0.697,-0.819 0.995,-1.905 0.82,-2.98 z"
     id="path26" />
  <path
     fill="#78a0cf"
     d="M 59.507,25.729 C 58.844,24.948 57.886,24.5 56.88,24.5 H 21.12 c -1.006,0 -1.964,0.448 -2.627,1.229 -0.696,0.819 -0.995,1.906 -0.819,2.981 l 2.233,13.79 h 38.186 l 2.233,-13.791 c 0.176,-1.075 -0.122,-2.161 -0.819,-2.98 z"
     id="path28" />
  <path
     fill="#472b29"
     d="m 56.88,25.4 c 0.753,0 1.442,0.324 1.942,0.911 0.525,0.618 0.75,1.439 0.616,2.254 l -2.22,13.711 -0.036,0.224 0.036,0.224 2.22,13.713 c 0.133,0.814 -0.092,1.635 -0.617,2.252 -0.499,0.588 -1.189,0.911 -1.942,0.911 H 21.12 c -0.753,0 -1.442,-0.324 -1.942,-0.911 -0.525,-0.618 -0.75,-1.439 -0.616,-2.254 l 2.22,-13.711 0.036,-0.224 -0.036,-0.224 -2.22,-13.713 c -0.133,-0.814 0.092,-1.635 0.617,-2.252 0.499,-0.588 1.189,-0.911 1.942,-0.911 H 56.88 m 0,-1.4 H 21.12 c -2.47,0 -4.35,2.282 -3.94,4.789 L 19.4,42.5 17.18,56.211 C 16.77,58.718 18.65,61 21.12,61 h 35.76 c 2.47,0 4.35,-2.282 3.94,-4.789 L 58.6,42.5 60.82,28.789 C 61.23,26.282 59.35,24 56.88,24 Z"
     id="path30" />
  <circle
     cx="47.5"
     cy="20.5"
     r="1.25"
     fill="#fdfcef"
     id="circle32" />
  <path
     fill="#472b29"
     d="m 47.5,19.5 c 0.551,0 1,0.449 1,1 0,0.551 -0.449,1 -1,1 -0.551,0 -1,-0.449 -1,-1 0,-0.551 0.449,-1 1,-1 m 0,-0.5 C 46.672,19 46,19.672 46,20.5 46,21.328 46.672,22 47.5,22 48.328,22 49,21.328 49,20.5 49,19.672 48.328,19 47.5,19 Z"
     id="path34" />
  <circle
     cx="30.5"
     cy="20.5"
     r="1.25"
     fill="#fdfcef"
     id="circle36" />
  <path
     fill="#472b29"
     d="m 30.5,19.5 c 0.551,0 1,0.449 1,1 0,0.551 -0.449,1 -1,1 -0.551,0 -1,-0.449 -1,-1 0,-0.551 0.449,-1 1,-1 m 0,-0.5 C 29.672,19 29,19.672 29,20.5 29,21.328 29.672,22 30.5,22 31.328,22 32,21.328 32,20.5 32,19.672 31.328,19 30.5,19 Z"
     id="path38" />
  <rect
     width="37.200001"
     height="0.5"
     x="20.4"
     y="42.25"
     fill="#472b29"
     id="rect40" />
  <path
     fill="#e1e0d8"
     d="m 38.49,46.17 c 0,1.62 -0.54,2.92 -1.61,3.88 -1.05,0.95 -2.42,1.43 -4.09,1.43 -1.65,0 -3.03,-0.47 -4.08,-1.38 -1.08,-0.93 -1.62,-2.17 -1.62,-3.68 v -0.5 h 3.09 v 0.5 c 0,0.73 0.23,1.28 0.69,1.71 0.47,0.43 1.1,0.64 1.92,0.64 0.88,0 1.52,-0.21 1.97,-0.64 0.43,-0.43 0.65,-1.06 0.65,-1.91 0,-0.81 -0.23,-1.41 -0.71,-1.82 -0.49,-0.43 -1.24,-0.66 -2.22,-0.67 h -1.56 c -0.27,0 -0.5,-0.22 -0.5,-0.5 v -1.7 c 0,-0.28 0.23,-0.5 0.5,-0.5 h 1.57 c 0.85,-0.01 1.52,-0.23 1.99,-0.65 0.46,-0.41 0.68,-0.96 0.68,-1.68 0,-1.31 -1.15,-2.4 -2.47,-2.37 -0.73,0.01 -1.29,0.22 -1.72,0.63 -0.44,0.42 -0.65,0.97 -0.65,1.68 v 0.5 h -3.09 v -0.5 c 0,-1.44 0.54,-2.65 1.6,-3.61 1.04,-0.94 2.37,-1.42 3.95,-1.42 1.68,0 3.01,0.46 3.99,1.36 0.98,0.92 1.47,2.19 1.47,3.79 0,0.81 -0.26,1.61 -0.78,2.36 -0.31,0.45 -0.7,0.84 -1.16,1.16 0.13,0.07 0.25,0.14 0.36,0.22 0.39,0.26 0.72,0.58 1,0.95 0.55,0.75 0.83,1.66 0.83,2.72 z"
     id="path42" />
  <path
     fill="#e1e0d8"
     d="m 48.21,33.76 v 16.99 c 0,0.28 -0.22,0.5 -0.5,0.5 h -2.1 c -0.27,0 -0.5,-0.22 -0.5,-0.5 V 37.57 l -3.53,1.29 c -0.33,0.12 -0.67,-0.12 -0.67,-0.46 v -1.9 c 0,-0.21 0.13,-0.39 0.32,-0.47 l 6.06,-2.27 z"
     id="path44" />
  <path
     fill="#fdfcef"
     d="m 37.66,43.45 c 0.55,0.75 0.83,1.66 0.83,2.72 0,1.62 -0.54,2.92 -1.61,3.88 -1.05,0.95 -2.42,1.43 -4.09,1.43 -1.65,0 -3.03,-0.47 -4.08,-1.38 -1.08,-0.93 -1.62,-2.17 -1.62,-3.68 v -0.5 h 3.09 v 0.5 c 0,0.73 0.23,1.28 0.69,1.71 0.47,0.43 1.1,0.64 1.92,0.64 0.88,0 1.52,-0.21 1.97,-0.64 0.43,-0.43 0.65,-1.06 0.65,-1.91 0,-0.81 -0.23,-1.41 -0.71,-1.82 -0.49,-0.43 -1.24,-0.66 -2.22,-0.67 h -1.56 c -0.27,0 -0.5,-0.22 -0.5,-0.5 V 42.5 h 6.24 c 0.39,0.26 0.72,0.58 1,0.95 z"
     id="path46" />
  <path
     fill="#fdfcef"
     d="m 48.21,42.5 v 8.25 c 0,0.28 -0.22,0.5 -0.5,0.5 h -2.1 c -0.27,0 -0.5,-0.22 -0.5,-0.5 V 42.5 Z"
     id="path48" />
  <path
     fill="#472b29"
     d="m 32.784,34.111 c 1.548,0 2.762,0.41 3.642,1.229 0.879,0.819 1.318,1.958 1.318,3.416 0,0.714 -0.23,1.406 -0.693,2.075 -0.462,0.669 -1.092,1.168 -1.888,1.499 0.901,0.286 1.599,0.759 2.091,1.42 0.492,0.662 0.738,1.47 0.738,2.424 0,1.473 -0.48,2.642 -1.442,3.506 -0.963,0.864 -2.214,1.296 -3.755,1.296 -1.54,0 -2.794,-0.417 -3.759,-1.251 -0.966,-0.834 -1.449,-1.935 -1.449,-3.303 h 2.097 c 0,0.864 0.282,1.556 0.846,2.074 0.563,0.519 1.319,0.778 2.266,0.778 1.008,0 1.777,-0.263 2.312,-0.789 0.533,-0.526 0.801,-1.281 0.801,-2.266 0,-0.955 -0.294,-1.688 -0.88,-2.199 -0.586,-0.511 -1.432,-0.774 -2.536,-0.789 h -1.567 v -1.702 h 1.567 c 0.984,-0.015 1.759,-0.274 2.322,-0.778 0.563,-0.503 0.846,-1.184 0.846,-2.041 0,-1.924 -0.959,-2.886 -2.875,-2.886 -0.902,0 -1.622,0.258 -2.159,0.772 -0.537,0.515 -0.806,1.197 -0.806,2.046 h -2.086 c 0,-1.3 0.476,-2.38 1.427,-3.241 0.948,-0.859 2.156,-1.29 3.622,-1.29 m 0,-1 c -1.715,0 -3.16,0.521 -4.295,1.55 -1.165,1.053 -1.755,2.393 -1.755,3.982 0,0.552 0.448,1 1,1 h 2.086 c 0.552,0 1,-0.448 1,-1 0,-0.578 0.158,-0.999 0.498,-1.324 0.347,-0.333 0.827,-0.494 1.467,-0.494 1.367,0 1.875,0.511 1.875,1.886 0,0.571 -0.163,0.983 -0.512,1.295 -0.382,0.341 -0.928,0.512 -1.671,0.524 h -1.552 c -0.552,0 -1,0.448 -1,1 v 1.702 c 0,0.552 0.448,1 1,1 h 1.567 c 0.842,0.012 1.479,0.194 1.879,0.543 0.361,0.315 0.537,0.788 0.537,1.445 0,0.712 -0.165,1.22 -0.503,1.554 -0.342,0.337 -0.869,0.501 -1.609,0.501 -0.693,0 -1.213,-0.168 -1.588,-0.514 -0.357,-0.328 -0.523,-0.754 -0.523,-1.338 0,-0.552 -0.448,-1 -1,-1 h -2.097 c -0.552,0 -1,0.448 -1,1 0,1.665 0.604,3.031 1.795,4.06 1.147,0.992 2.631,1.495 4.413,1.495 1.787,0 3.275,-0.522 4.423,-1.552 1.178,-1.058 1.774,-2.488 1.774,-4.251 0,-1.17 -0.315,-2.186 -0.936,-3.021 -0.258,-0.347 -0.561,-0.653 -0.906,-0.918 0.27,-0.25 0.511,-0.53 0.723,-0.837 0.577,-0.834 0.87,-1.724 0.87,-2.643 0,-1.739 -0.551,-3.135 -1.636,-4.147 -1.068,-0.994 -2.522,-1.498 -4.324,-1.498 z"
     id="path50" />
  <path
     fill="#472b29"
     d="m 47.711,34.258 v 16.493 h -2.098 v -13.9 l -4.205,1.544 v -1.894 l 5.976,-2.244 h 0.327 m 0,-0.999 h -0.327 c -0.12,0 -0.239,0.022 -0.352,0.064 l -5.976,2.244 c -0.39,0.146 -0.648,0.519 -0.648,0.936 v 1.894 c 0,0.327 0.16,0.633 0.428,0.82 0.17,0.119 0.37,0.18 0.572,0.18 0.116,0 0.233,-0.02 0.345,-0.061 l 2.86,-1.051 v 12.467 c 0,0.552 0.448,1 1,1 h 2.098 c 0.552,0 1,-0.448 1,-1 V 34.258 c 0,-0.552 -0.448,-1 -1,-1 z"
     id="path52" />
</svg>
