<?xml version="1.0" encoding="UTF-8" standalone="no"?>
<svg
   version="1.1"
   viewBox="0 0 180.22159 154.02917"
   id="svg7561"
   sodipodi:docname="intranet.svg"
   width="180.22159"
   height="154.02917"
   inkscape:version="1.2.2 (732a01da63, 2022-12-09)"
   xmlns:inkscape="http://www.inkscape.org/namespaces/inkscape"
   xmlns:sodipodi="http://sodipodi.sourceforge.net/DTD/sodipodi-0.dtd"
   xmlns="http://www.w3.org/2000/svg"
   xmlns:svg="http://www.w3.org/2000/svg">
  <defs
     id="defs7565" />
  <sodipodi:namedview
     id="namedview7563"
     pagecolor="#ffffff"
     bordercolor="#000000"
     borderopacity="0.25"
     inkscape:showpageshadow="2"
     inkscape:pageopacity="0.0"
     inkscape:pagecheckerboard="0"
     inkscape:deskcolor="#d1d1d1"
     showgrid="false"
     inkscape:zoom="4.359375"
     inkscape:cx="117.10394"
     inkscape:cy="108.2724"
     inkscape:window-width="1920"
     inkscape:window-height="1017"
     inkscape:window-x="3832"
     inkscape:window-y="-8"
     inkscape:window-maximized="1"
     inkscape:current-layer="svg7561" />
  <g
     stroke-width="2"
     fill="none"
     stroke-linecap="butt"
     id="g7509"
     transform="translate(-6.5535703,-20.022131)">
    <path
       stroke="#b3e1f4"
       vector-effect="non-scaling-stroke"
       d="M 182.84,111.16 C 185.57,65.74 151.6,27.01 106.98,21.05 q -0.81,-0.1 -0.74,0.35 a 0.79,0.56 3.1 0 0 0.65,0.51 c 44.87,6.83 77.43,43.36 75.25,89.32 -0.01,0.28 0.14,0.66 0.44,0.51 a 0.76,0.39 86.8 0 0 0.26,-0.58"
       id="path7449" />
    <path
       stroke="#7f7f7f"
       vector-effect="non-scaling-stroke"
       d="m 140,137.48 q 3.02,1.42 6.08,-0.79 a 0.45,0.4 68.3 0 1 0.65,0.32 q 0.17,0.99 1.08,0.83 a 0.85,0.4 84.8 0 0 0.31,-0.85 c -0.33,-4.29 1.24,-9.19 -3.12,-11.2"
       id="path7451" />
    <path
       stroke="#fd858c"
       vector-effect="non-scaling-stroke"
       d="m 145,125.79 q 2.8,-8.05 3.57,-16.56"
       id="path7453" />
    <path
       stroke="#7f7f7f"
       vector-effect="non-scaling-stroke"
       d="m 148.57,109.23 q 2.67,5.5 8.43,5.48 c 11.03,-0.02 11.99,-16.05 1.02,-17.34 q -6.04,-0.71 -9.48,5.13"
       id="path7455" />
    <path
       stroke="#fd858c"
       vector-effect="non-scaling-stroke"
       d="M 148.54,102.5 C 145.29,38.67 64.54,14.05 23.96,61.07 10.9,76.2 5.08,96.38 8.53,116.18 c 6.85,39.31 46.13,63.56 84.8,55.24 q 30.1,-6.48 46.67,-33.94"
       id="path7457" />
    <path
       stroke="#7e060d"
       vector-effect="non-scaling-stroke"
       d="m 148.54,102.5 q -0.59,3.42 0.03,6.73"
       id="path7459" />
    <path
       stroke="#7e060d"
       vector-effect="non-scaling-stroke"
       d="m 145,125.79 q -2.8,-0.18 -5.24,1.03 a 1,0.83 -12.6 0 0 -0.55,0.71 c -0.15,1.37 3.99,-0.43 5.32,-0.16"
       id="path7461" />
    <path
       stroke="#fd858c"
       vector-effect="non-scaling-stroke"
       d="m 144.53,127.37 -1.03,3.34"
       id="path7463" />
    <path
       stroke="#7e060d"
       vector-effect="non-scaling-stroke"
       d="m 143.5,130.71 c -3.7,0.26 -7.39,3.27 -3.5,6.77"
       id="path7465" />
    <path
       stroke="#7f7f7f"
       vector-effect="non-scaling-stroke"
       d="m 143.5,130.71 q 5.67,0.1 1.03,-3.34"
       id="path7467" />
    <path
       stroke="#7f7f7f"
       vector-effect="non-scaling-stroke"
       d="m 182.35,125.82 -0.13,-2.32 a 0.78,0.37 84.9 0 0 -0.47,-0.79 l -1.03,0.25 a 0.97,0.33 73.2 0 0 -0.04,1.05 q 0.76,2.46 -1.39,2.24 a 1.04,0.17 6 0 0 -1.03,0.06 l -0.26,0.86 a 0.94,0.29 1.3 0 0 1,0.33 h 1.25 a 0.8,0.48 89.5 0 1 0.48,0.79 c 0.03,2.77 -1.47,11.26 4.03,9.69 q 1.59,-0.46 0.71,-1.36 a 0.92,0.74 -27.9 0 0 -0.85,-0.16 c -3.33,1.04 -2.47,-5.38 -2.3,-8.3 a 0.7,0.41 -87.4 0 1 0.43,-0.66 l 2,-0.01 a 0.85,0.43 0.3 0 0 0.84,-0.42 l 0.01,-0.39 a 0.84,0.4 0.5 0 0 -0.85,-0.42 L 183,126.25 a 0.66,0.45 -0.8 0 1 -0.65,-0.43"
       id="path7469" />
    <path
       stroke="#7f7f7f"
       vector-effect="non-scaling-stroke"
       d="m 153.36,127.29 q 0.09,-1.19 -1.09,-1.29 a 0.74,0.4 89.5 0 0 -0.41,0.78 q 0.13,4.83 -0.17,9.69 c -0.06,0.95 0.41,1.64 1.41,1.27 a 0.85,0.48 85.9 0 0 0.35,-0.74 l 0.16,-6.76 q 0.05,-2.02 2.43,-2.7 c 5.63,-1.58 4.23,6.76 4.23,9.65 a 0.55,0.48 -89.4 0 0 0.48,0.56 h 0.75 a 0.72,0.46 88.4 0 0 0.45,-0.75 l -0.34,-8.51 a 1.54,1.23 -74.2 0 0 -0.41,-0.97 q -3.62,-3.44 -7.22,-0.08 -0.67,0.63 -0.62,-0.15"
       id="path7471" />
    <path
       stroke="#7f7f7f"
       vector-effect="non-scaling-stroke"
       d="m 167.5,132.24 8.44,0.03 a 0.49,0.49 3.3 0 0 0.49,-0.43 c 0.98,-8.17 -11.89,-8.08 -11.02,1.08 0.49,5.1 7.06,6.89 10.45,3.15 a 1.01,0.88 -32.9 0 0 0.25,-0.87 q -0.26,-1.01 -1.18,-0.29 -5.24,4.09 -7.94,-1.7 a 0.69,0.61 76.2 0 1 0.51,-0.97"
       id="path7473" />
    <path
       stroke="#fd858c"
       vector-effect="non-scaling-stroke"
       d="m 119.27,103.44 q -0.54,-7.22 -0.2,-14.45 c 0.03,-0.62 -0.39,-1.84 -1.15,-1.34 a 1.09,0.77 79.4 0 0 -0.38,0.83 q -0.32,12.11 -0.27,24.21 c 0.01,0.8 0.24,2.22 1.42,1.4 a 1.13,0.62 81.2 0 0 0.31,-0.84 v -6 q 0,-0.71 0.64,-0.14 c 1.41,1.25 7.91,8.01 9.46,7 a 0.47,0.39 47.9 0 0 -0.03,-0.69 l -8.42,-7.56 a 0.59,0.47 44.9 0 1 -0.09,-0.8 l 7.24,-6.26 a 1.05,0.38 -35.6 0 0 0.47,-0.68 c -0.08,-2.28 -8.02,5.1 -8.56,5.52 q -0.4,0.3 -0.44,-0.2"
       id="path7475" />
    <path
       stroke="#fd858c"
       vector-effect="non-scaling-stroke"
       d="M 29.56,112.2 Q 29.44,101.47 29.51,90.76 29.53,89 28.23,89.37 A 0.67,0.65 -8.3 0 0 27.75,90 v 23.75 a 0.53,0.46 0 0 0 0.53,0.46 c 0.84,0.01 14.99,0.77 13.29,-1.14 a 1.2,0.91 -15.9 0 0 -0.82,-0.32 H 30 a 0.55,0.44 -90 0 1 -0.44,-0.55"
       id="path7477" />
    <path
       stroke="#fd858c"
       vector-effect="non-scaling-stroke"
       d="m 58.81,101.87 c 3.49,-1.69 -10.39,-1.32 -11.04,-1.3 a 0.98,0.83 -1.3 0 1 -1.02,-0.82 v -8.5 a 0.65,0.4 -1.3 0 1 0.63,-0.41 q 5.7,-0.19 11.43,-0.05 c 0.68,0.01 1.76,-0.38 1.06,-1.21 A 1.25,0.84 -13 0 0 59,89.25 H 45.75 a 0.54,0.47 90 0 0 -0.47,0.54 q -0.06,11.78 -0.02,23.56 c 0,0.65 0.4,1.39 1.12,0.9 a 0.95,0.83 75.2 0 0 0.37,-0.75 v -11 a 0.62,0.4 -1.3 0 1 0.6,-0.41 c 2.19,-0.07 10.1,0.45 11.46,-0.22"
       id="path7479" />
    <path
       stroke="#fd858c"
       vector-effect="non-scaling-stroke"
       d="m 66.25,89.91 a 0.67,0.67 0 0 0 -0.67,-0.67 h -0.16 a 0.67,0.67 0 0 0 -0.67,0.67 v 23.66 a 0.67,0.67 0 0 0 0.67,0.67 h 0.16 a 0.67,0.67 0 0 0 0.67,-0.67 V 89.91"
       id="path7481" />
    <path
       stroke="#fd858c"
       vector-effect="non-scaling-stroke"
       d="m 85.5,90.75 a 1,0.67 90 0 1 0.67,1 l 0.03,21.75 a 0.98,0.68 18.3 0 0 0.54,0.72 c 0.91,0.44 1.04,-0.6 1.03,-1.23 Q 87.68,102.23 87.81,91.4 a 0.55,0.55 -1.7 0 1 0.51,-0.54 c 0.81,-0.06 9.04,0.5 7.78,-1.25 a 1.14,0.81 -12.3 0 0 -0.85,-0.36 h -16.5 a 0.96,0.31 0 0 0 -0.96,0.31 v 0.88 a 0.96,0.31 0 0 0 0.96,0.31 h 6.75"
       id="path7483" />
    <path
       stroke="#fd858c"
       vector-effect="non-scaling-stroke"
       d="m 138.74,110.61 q -0.53,1.46 -1.08,0 c -0.56,-1.48 -5.45,-16.37 -7.1,-14.55 A 1.03,0.67 60.5 0 0 130.5,97 l 6.56,16.73 a 1.36,0.52 61.9 0 1 0.12,0.95 l -2.13,5.34 a 2.32,1.05 -69.2 0 1 -1.72,1.71 q -2.18,-0.6 -3.1,0.91 a 1.01,0.42 12.5 0 0 1.02,0.72 c 2.82,0.45 4.62,-0.89 5.68,-3.56 q 4.51,-11.34 8.7,-22.82 a 1.06,0.83 -57.8 0 0 -0.09,-0.91 c -1.58,-2.04 -6.45,13.56 -6.8,14.54"
       id="path7485" />
    <path
       stroke="#fd858c"
       vector-effect="non-scaling-stroke"
       d="m 112.43,105.99 a 8.8,8.8 0 0 0 -8.8,-8.8 8.8,8.8 0 0 0 -8.8,8.8 8.8,8.8 0 0 0 8.8,8.8 8.8,8.8 0 0 0 8.8,-8.8"
       id="path7487" />
    <path
       stroke="#fd858c"
       vector-effect="non-scaling-stroke"
       d="m 104.5127,122.7113 a 0.73,0.73 0 0 0 -0.7288,-0.7313 h -0.04 a 0.73,0.73 0 0 0 -0.7312,0.7287 l -0.0254,14.5 a 0.73,0.73 0 0 0 0.7288,0.7313 h 0.04 a 0.73,0.73 0 0 0 0.7312,-0.7287 l 0.0254,-14.5"
       id="path7489" />
    <path
       stroke="#7e060d"
       vector-effect="non-scaling-stroke"
       d="m 124.58,135.76 -0.11,-7.51 a 0.69,0.62 88.7 0 1 0.6,-0.7 l 1.93,-0.07 a 1.01,0.55 5.2 0 0 0.8,-0.35 c 1.3,-2.54 -4.5,1.14 -3.3,-3.41 a 0.74,0.32 -78.2 0 0 -0.18,-0.88 l -1.09,0.08 a 0.97,0.44 79.3 0 0 -0.27,1.08 q 0.57,2.64 -1.96,2.23 -1.26,-0.21 -0.81,0.59 0.64,1.14 2.08,0.62 a 0.91,0.61 89.6 0 1 0.74,1.09 c -0.42,2.7 -1.39,11.42 4.33,9.27 0.48,-0.18 0.84,-0.81 0.55,-1.25 a 0.96,0.26 -4.8 0 0 -0.82,-0.15 l -1.75,0.08 a 0.73,0.7 88.1 0 1 -0.74,-0.72"
       id="path7491" />
    <path
       stroke="#7e060d"
       vector-effect="non-scaling-stroke"
       d="m 109.85,126.89 -1,-0.99 q -0.6,-0.6 -0.6,0.85 V 137 a 0.91,0.5 -87.9 0 0 0.43,0.86 l 0.75,0.12 a 0.96,0.26 -87.3 0 0 0.31,-0.97 c 0.13,-3.41 -0.79,-9.22 4.02,-9.77 q 2.57,-0.29 2.67,2.26 l 0.3,7.5 a 1.14,1.03 -74.7 0 0 0.43,0.85 c 2,1.46 1.02,-8.72 0.24,-9.97 q -2.44,-3.89 -7.18,-0.72 a 0.47,0.08 45.3 0 1 -0.37,-0.27"
       id="path7493" />
    <path
       stroke="#7e060d"
       vector-effect="non-scaling-stroke"
       d="m 131.98,126.99 q 0.11,-1 -1,-0.99 a 0.73,0.42 88.9 0 0 -0.41,0.75 l 0.25,10.5 a 0.56,0.52 -85.6 0 0 0.42,0.53 l 0.57,0.09 a 0.79,0.41 -89.7 0 0 0.45,-0.86 c -0.19,-3.87 -0.82,-9.56 3.7,-9.57 a 0.79,0.35 -4.5 0 0 0.88,-0.48 l -0.58,-1.19 a 0.85,0.61 -29 0 0 -1.08,-0.13 l -2.48,1.52 q -0.8,0.49 -0.72,-0.17"
       id="path7495" />
    <path
       stroke="#fd858c"
       vector-effect="non-scaling-stroke"
       d="m 110.85,105.97 a 7.22,7.22 0 0 0 -7.22,-7.22 7.22,7.22 0 0 0 -7.22,7.22 7.22,7.22 0 0 0 7.22,7.22 7.22,7.22 0 0 0 7.22,-7.22"
       id="path7497" />
    <path
       stroke="#7f7f7f"
       vector-effect="non-scaling-stroke"
       d="m 164.15,105.97 a 7.21,7.21 0 0 0 -7.21,-7.21 7.21,7.21 0 0 0 -7.21,7.21 7.21,7.21 0 0 0 7.21,7.21 7.21,7.21 0 0 0 7.21,-7.21"
       id="path7499" />
    <path
       stroke="#7e060d"
       vector-effect="non-scaling-stroke"
       d="m 142.5,132.29 q -3.01,0.49 -1.75,3"
       id="path7501" />
    <path
       stroke="#7f7f7f"
       vector-effect="non-scaling-stroke"
       d="m 140.75,135.29 c 1.6,3.09 5.86,0.42 5.67,-2.65 a 0.64,0.62 2.9 0 0 -0.54,-0.58 q -1.76,-0.29 -3.38,0.23"
       id="path7503" />
    <path
       stroke="#fd858c"
       vector-effect="non-scaling-stroke"
       d="m 140.75,135.29 q 1.46,-1.15 1.75,-3"
       id="path7505" />
    <path
       stroke="#7f7f7f"
       vector-effect="non-scaling-stroke"
       d="m 167.75,130.94 6.75,-0.2 a 0.38,0.37 79.3 0 0 0.34,-0.51 c -1.4,-3.84 -6.41,-3.92 -7.63,-0.07 a 0.6,0.56 -81.5 0 0 0.54,0.78"
       id="path7507" />
  </g>
  <path
     fill="#67c4ea"
     d="m 100.42643,1.027869 c 44.62,5.96 78.59,44.69 75.86,90.11 a 0.76,0.39 86.8 0 1 -0.26,0.58 c -0.3,0.15 -0.45,-0.23 -0.44,-0.51 2.18,-45.96 -30.38,-82.49 -75.25,-89.32 a 0.79,0.56 3.1 0 1 -0.65,-0.51 q -0.07,-0.45 0.74,-0.35 z"
     id="path7513" />
  <path
     fill="#fb0c1a"
     d="m 141.98643,82.477869 q -0.59,3.42 0.03,6.73 -0.77,8.51 -3.57,16.560001 -2.8,-0.18 -5.24,1.03 a 0.83,1 77.4 0 0 -0.55,0.71 c -0.15,1.37 3.99,-0.43 5.32,-0.16 l -1.03,3.34 c -3.7,0.26 -7.39,3.27 -3.5,6.77 q -16.57,27.46 -46.67,33.94 c -38.67,8.32 -77.9500003,-15.93 -84.8000003,-55.240001 -3.45,-19.8 2.37,-39.98 15.4300003,-55.11 40.58,-47.02 121.33,-22.4 124.58,41.43 z m -29.27,0.94 q -0.54,-7.22 -0.2,-14.45 c 0.03,-0.62 -0.39,-1.84 -1.15,-1.34 a 1.09,0.77 79.4 0 0 -0.38,0.83 q -0.32,12.11 -0.27,24.21 c 0.01,0.8 0.24,2.22 1.42,1.4 a 1.13,0.62 81.2 0 0 0.31,-0.84 v -6 q 0,-0.71 0.64,-0.14 c 1.41,1.25 7.91,8.01 9.46,7 a 0.47,0.39 47.9 0 0 -0.03,-0.69 l -8.42,-7.56 a 0.59,0.47 44.9 0 1 -0.09,-0.8 l 7.24,-6.26 a 0.38,1.05 54.4 0 0 0.47,-0.68 c -0.08,-2.28 -8.02,5.1 -8.56,5.52 q -0.4,0.3 -0.44,-0.2 z m -89.71,8.76 q -0.12,-10.73 -0.05,-21.44 0.02,-1.76 -1.28,-1.39 a 0.65,0.67 81.7 0 0 -0.48,0.63 v 23.75 a 0.53,0.46 0 0 0 0.53,0.46 c 0.84,0.01 14.99,0.77 13.29,-1.14 a 0.91,1.2 74.1 0 0 -0.82,-0.32 h -10.75 a 0.44,0.55 0 0 1 -0.44,-0.55 z m 29.25,-10.33 c 3.49,-1.69 -10.39,-1.32 -11.04,-1.3 a 0.83,0.98 88.7 0 1 -1.02,-0.82 v -8.5 a 0.4,0.65 88.7 0 1 0.63,-0.41 q 5.7,-0.19 11.43,-0.05 c 0.68,0.01 1.76,-0.38 1.06,-1.21 a 0.84,1.25 77 0 0 -0.87,-0.33 h -13.25 a 0.47,0.54 0 0 0 -0.47,0.54 q -0.06,11.78 -0.02,23.56 c 0,0.65 0.4,1.39 1.12,0.9 a 0.95,0.83 75.2 0 0 0.37,-0.75 v -11 a 0.4,0.62 88.7 0 1 0.6,-0.41 c 2.19,-0.07 10.1,0.45 11.46,-0.22 z m 7.44,-11.96 a 0.67,0.67 0 0 0 -0.67,-0.67 h -0.16 a 0.67,0.67 0 0 0 -0.67,0.67 v 23.66 a 0.67,0.67 0 0 0 0.67,0.67 h 0.16 a 0.67,0.67 0 0 0 0.67,-0.67 z m 19.25,0.84 a 0.67,1 0 0 1 0.67,1 l 0.03,21.75 a 0.98,0.68 18.3 0 0 0.54,0.72 c 0.91,0.44 1.04,-0.6 1.03,-1.23 q -0.09,-10.76 0.04,-21.59 a 0.55,0.55 0 0 1 0.51,-0.54 c 0.81,-0.06 9.04,0.5 7.78,-1.25 a 0.81,1.14 77.7 0 0 -0.85,-0.36 h -16.5 a 0.96,0.31 0 0 0 -0.96,0.31 v 0.88 a 0.96,0.31 0 0 0 0.96,0.31 z m 53.24,19.86 q -0.53,1.46 -1.08,0 c -0.56,-1.48 -5.45,-16.37 -7.1,-14.55 a 1.03,0.67 60.5 0 0 -0.06,0.94 l 6.56,16.73 a 1.36,0.52 61.9 0 1 0.12,0.95 l -2.13,5.34 a 1.05,2.32 20.8 0 1 -1.72,1.710001 q -2.18,-0.6 -3.1,0.91 a 1.01,0.42 12.5 0 0 1.02,0.72 c 2.82,0.45 4.62,-0.89 5.68,-3.560001 q 4.51,-11.34 8.7,-22.82 a 0.83,1.06 32.2 0 0 -0.09,-0.91 c -1.58,-2.04 -6.45,13.56 -6.8,14.54 z m -26.31,-4.62 a 8.8,8.8 0 0 0 -8.8,-8.8 8.8,8.8 0 0 0 -8.8,8.8 8.8,8.8 0 0 0 8.8,8.8 8.8,8.8 0 0 0 8.8,-8.8 z m -7.9173,16.721301 a 0.73,0.73 0 0 0 -0.7288,-0.7313 h -0.04 a 0.73,0.73 0 0 0 -0.7312,0.7287 l -0.0254,14.5 a 0.73,0.73 0 0 0 0.7288,0.7313 h 0.04 a 0.73,0.73 0 0 0 0.7312,-0.7287 z m 20.0673,13.0487 -0.11,-7.51 a 0.69,0.62 88.7 0 1 0.6,-0.7 l 1.93,-0.07 a 1.01,0.55 5.2 0 0 0.8,-0.35 c 1.3,-2.54 -4.5,1.14 -3.3,-3.41 a 0.32,0.74 11.8 0 0 -0.18,-0.88 l -1.09,0.08 a 0.97,0.44 79.3 0 0 -0.27,1.08 q 0.57,2.64 -1.96,2.23 -1.26,-0.21 -0.81,0.59 0.64,1.14 2.08,0.62 a 0.91,0.61 89.6 0 1 0.74,1.09 c -0.42,2.7 -1.39,11.42 4.33,9.27 0.48,-0.18 0.84,-0.81 0.55,-1.25 a 0.26,0.96 85.2 0 0 -0.82,-0.15 l -1.75,0.08 a 0.73,0.7 88.1 0 1 -0.74,-0.72 z m -14.73,-8.87 -1,-0.99 q -0.6,-0.6 -0.6,0.85 v 10.25 a 0.5,0.91 2.1 0 0 0.43,0.86 l 0.75,0.12 a 0.26,0.96 2.7 0 0 0.31,-0.97 c 0.13,-3.41 -0.79,-9.22 4.02,-9.77 q 2.57,-0.29 2.67,2.26 l 0.3,7.5 a 1.03,1.14 15.3 0 0 0.43,0.85 c 2,1.46 1.02,-8.72 0.24,-9.97 q -2.44,-3.89 -7.18,-0.72 a 0.47,0.08 45.3 0 1 -0.37,-0.27 z m 22.13,0.1 q 0.11,-1 -1,-0.99 a 0.73,0.42 88.9 0 0 -0.41,0.75 l 0.25,10.5 a 0.52,0.56 4.4 0 0 0.42,0.53 l 0.57,0.09 a 0.41,0.79 0.3 0 0 0.45,-0.86 c -0.19,-3.87 -0.82,-9.56 3.7,-9.57 a 0.35,0.79 85.5 0 0 0.88,-0.48 l -0.58,-1.19 a 0.61,0.85 61 0 0 -1.08,-0.13 l -2.48,1.52 q -0.8,0.49 -0.72,-0.17 z"
     id="path7515" />
  <path
     fill="#fefefe"
     d="m 113.15643,83.617869 c 0.54,-0.42 8.48,-7.8 8.56,-5.52 a 0.38,1.05 54.4 0 1 -0.47,0.68 l -7.24,6.26 a 0.59,0.47 44.9 0 0 0.09,0.8 l 8.42,7.56 a 0.47,0.39 47.9 0 1 0.03,0.69 c -1.55,1.01 -8.05,-5.75 -9.46,-7 q -0.64,-0.57 -0.64,0.14 v 6 a 1.13,0.62 81.2 0 1 -0.31,0.84 c -1.18,0.82 -1.41,-0.6 -1.42,-1.4 q -0.05,-12.1 0.27,-24.21 a 1.09,0.77 79.4 0 1 0.38,-0.83 c 0.76,-0.5 1.18,0.72 1.15,1.34 q -0.34,7.23 0.2,14.45 0.04,0.5 0.44,0.2 z"
     id="path7517" />
  <path
     fill="#fefefe"
     d="m 23.44643,92.727869 h 10.75 a 0.91,1.2 74.1 0 1 0.82,0.32 c 1.7,1.91 -12.45,1.15 -13.29,1.14 a 0.53,0.46 0 0 1 -0.53,-0.46 v -23.75 a 0.65,0.67 81.7 0 1 0.48,-0.63 q 1.3,-0.37 1.28,1.39 -0.07,10.71 0.05,21.44 a 0.44,0.55 0 0 0 0.44,0.55 z"
     id="path7519" />
  <path
     fill="#fefefe"
     d="m 41.21643,80.547869 c 0.65,-0.02 14.53,-0.39 11.04,1.3 -1.36,0.67 -9.27,0.15 -11.46,0.22 a 0.4,0.62 88.7 0 0 -0.6,0.41 v 11 a 0.95,0.83 75.2 0 1 -0.37,0.75 c -0.72,0.49 -1.12,-0.25 -1.12,-0.9 q -0.04,-11.78 0.02,-23.56 a 0.47,0.54 0 0 1 0.47,-0.54 h 13.25 a 0.84,1.25 77 0 1 0.87,0.33 c 0.7,0.83 -0.38,1.22 -1.06,1.21 q -5.73,-0.14 -11.43,0.05 a 0.4,0.65 88.7 0 0 -0.63,0.41 v 8.5 a 0.83,0.98 88.7 0 0 1.02,0.82 z"
     id="path7521" />
  <rect
     fill="#fefefe"
     x="58.19643"
     y="69.217865"
     width="1.5"
     height="25"
     rx="0.67000002"
     id="rect7523" />
  <path
     fill="#fefefe"
     d="m 78.94643,70.727869 h -6.75 a 0.96,0.31 0 0 1 -0.96,-0.31 v -0.88 a 0.96,0.31 0 0 1 0.96,-0.31 h 16.5 a 0.81,1.14 77.7 0 1 0.85,0.36 c 1.26,1.75 -6.97,1.19 -7.78,1.25 a 0.55,0.55 0 0 0 -0.51,0.54 q -0.13,10.83 -0.04,21.59 c 0.01,0.63 -0.12,1.67 -1.03,1.23 a 0.98,0.68 18.3 0 1 -0.54,-0.72 l -0.03,-21.75 a 0.67,1 0 0 0 -0.67,-1 z"
     id="path7525" />
  <path
     fill="#fefefe"
     d="m 132.18643,90.587869 c 0.35,-0.98 5.22,-16.58 6.8,-14.54 a 0.83,1.06 32.2 0 1 0.09,0.91 q -4.19,11.48 -8.7,22.82 c -1.06,2.670001 -2.86,4.010001 -5.68,3.560001 a 1.01,0.42 12.5 0 1 -1.02,-0.72 q 0.92,-1.51 3.1,-0.91 a 1.05,2.32 20.8 0 0 1.72,-1.710001 l 2.13,-5.34 a 1.36,0.52 61.9 0 0 -0.12,-0.95 l -6.56,-16.73 a 1.03,0.67 60.5 0 1 0.06,-0.94 c 1.65,-1.82 6.54,13.07 7.1,14.55 q 0.55,1.46 1.08,0 z"
     id="path7527" />
  <path
     fill="#fefefe"
     d="m 105.87643,85.967869 a 8.8,8.8 0 0 1 -8.8,8.8 8.8,8.8 0 0 1 -8.8,-8.8 8.8,8.8 0 0 1 8.8,-8.8 8.8,8.8 0 0 1 8.8,8.8 z m -1.58,-0.02 a 7.22,7.22 0 0 0 -7.22,-7.22 7.22,7.22 0 0 0 -7.22,7.22 7.22,7.22 0 0 0 7.22,7.22 7.22,7.22 0 0 0 7.22,-7.22 z"
     id="path7529" />
  <path
     fill="#000000"
     d="m 142.01643,89.207869 q -0.62,-3.31 -0.03,-6.73 3.44,-5.84 9.48,-5.13 c 10.97,1.29 10.01,17.32 -1.02,17.34 q -5.76,0.02 -8.43,-5.48 z m 15.58,-3.26 a 7.21,7.21 0 0 0 -7.21,-7.21 7.21,7.21 0 0 0 -7.21,7.21 7.21,7.21 0 0 0 7.21,7.21 7.21,7.21 0 0 0 7.21,-7.21 z"
     id="path7531" />
  <circle
     fill="#fb0c1a"
     cx="97.076424"
     cy="85.947868"
     r="7.2199998"
     id="circle7533" />
  <rect
     fill="#fefefe"
     x="96.638161"
     y="101.78806"
     transform="rotate(0.1)"
     width="1.5"
     height="15.96"
     rx="0.73000002"
     id="rect7537" />
  <path
     fill="#000000"
     d="m 118.76643,116.45787 1.75,-0.08 a 0.26,0.96 85.2 0 1 0.82,0.15 c 0.29,0.44 -0.07,1.07 -0.55,1.25 -5.72,2.15 -4.75,-6.57 -4.33,-9.27 a 0.91,0.61 89.6 0 0 -0.74,-1.09 q -1.44,0.52 -2.08,-0.62 -0.45,-0.8 0.81,-0.59 2.53,0.41 1.96,-2.23 a 0.97,0.44 79.3 0 1 0.27,-1.08 l 1.09,-0.08 a 0.32,0.74 11.8 0 1 0.18,0.88 c -1.2,4.55 4.6,0.87 3.3,3.41 a 1.01,0.55 5.2 0 1 -0.8,0.35 l -1.93,0.07 a 0.69,0.62 88.7 0 0 -0.6,0.7 l 0.11,7.51 a 0.73,0.7 88.1 0 0 0.74,0.72 z"
     id="path7539" />
  <path
     fill="#000000"
     d="m 176.44643,106.22787 1.75,0.01 a 0.84,0.4 0.5 0 1 0.85,0.42 l -0.01,0.39 a 0.85,0.43 0.3 0 1 -0.84,0.42 l -2,0.01 a 0.41,0.7 2.6 0 0 -0.43,0.66 c -0.17,2.92 -1.03,9.34 2.3,8.3 a 0.74,0.92 62.1 0 1 0.85,0.16 q 0.88,0.9 -0.71,1.36 c -5.5,1.57 -4,-6.92 -4.03,-9.69 a 0.8,0.48 89.5 0 0 -0.48,-0.79 h -1.25 a 0.94,0.29 1.3 0 1 -1,-0.33 l 0.26,-0.86 a 1.04,0.17 6 0 1 1.03,-0.06 q 2.15,0.22 1.39,-2.24 a 0.97,0.33 73.2 0 1 0.04,-1.05 l 1.03,-0.25 a 0.78,0.37 84.9 0 1 0.47,0.79 l 0.13,2.32 a 0.45,0.66 89.2 0 0 0.65,0.43 z"
     id="path7541" />
  <path
     fill="#000000"
     d="m 103.66643,107.13787 q 4.74,-3.17 7.18,0.72 c 0.78,1.25 1.76,11.43 -0.24,9.97 a 1.03,1.14 15.3 0 1 -0.43,-0.85 l -0.3,-7.5 q -0.1,-2.55 -2.67,-2.26 c -4.81,0.55 -3.89,6.36 -4.02,9.77 a 0.26,0.96 2.7 0 1 -0.31,0.97 l -0.75,-0.12 a 0.5,0.91 2.1 0 1 -0.43,-0.86 v -10.25 q 0,-1.45 0.6,-0.85 l 1,0.99 a 0.47,0.08 45.3 0 0 0.37,0.27 z"
     id="path7543" />
  <path
     fill="#000000"
     d="m 126.14643,107.13787 2.48,-1.52 a 0.61,0.85 61 0 1 1.08,0.13 l 0.58,1.19 a 0.35,0.79 85.5 0 1 -0.88,0.48 c -4.52,0.01 -3.89,5.7 -3.7,9.57 a 0.41,0.79 0.3 0 1 -0.45,0.86 l -0.57,-0.09 a 0.52,0.56 4.4 0 1 -0.42,-0.53 l -0.25,-10.5 a 0.73,0.42 88.9 0 1 0.41,-0.75 q 1.11,-0.01 1,0.99 -0.08,0.66 0.72,0.17 z"
     id="path7545" />
  <path
     fill="#000000"
     d="m 138.44643,105.76787 c 4.36,2.01 2.79,6.91 3.12,11.2 a 0.85,0.4 84.8 0 1 -0.31,0.85 q -0.91,0.16 -1.08,-0.83 a 0.45,0.4 68.3 0 0 -0.65,-0.32 q -3.06,2.21 -6.08,0.79 c -3.89,-3.5 -0.2,-6.51 3.5,-6.77 q 5.67,0.1 1.03,-3.34 c -1.33,-0.27 -5.47,1.53 -5.32,0.16 a 0.83,1 77.4 0 1 0.55,-0.71 q 2.44,-1.21 5.24,-1.03 z m -2.5,6.5 q -3.01,0.49 -1.75,3 c 1.6,3.09 5.86,0.42 5.67,-2.65 a 0.64,0.62 2.9 0 0 -0.54,-0.58 q -1.76,-0.29 -3.38,0.23 z"
     id="path7547" />
  <path
     fill="#000000"
     d="m 147.42643,107.41787 q 3.6,-3.36 7.22,0.08 a 1.23,1.54 15.8 0 1 0.41,0.97 l 0.34,8.51 a 0.72,0.46 88.4 0 1 -0.45,0.75 h -0.75 a 0.48,0.55 0.6 0 1 -0.48,-0.56 c 0,-2.89 1.4,-11.23 -4.23,-9.65 q -2.38,0.68 -2.43,2.7 l -0.16,6.76 a 0.85,0.48 85.9 0 1 -0.35,0.74 c -1,0.37 -1.47,-0.32 -1.41,-1.27 q 0.3,-4.86 0.17,-9.69 a 0.74,0.4 89.5 0 1 0.41,-0.78 q 1.18,0.1 1.09,1.29 -0.05,0.78 0.62,0.15 z"
     id="path7549" />
  <path
     fill="#000000"
     d="m 160.94643,112.21787 a 0.69,0.61 76.2 0 0 -0.51,0.97 q 2.7,5.79 7.94,1.7 0.92,-0.72 1.18,0.29 a 0.88,1.01 57.1 0 1 -0.25,0.87 c -3.39,3.74 -9.96,1.95 -10.45,-3.15 -0.87,-9.16 12,-9.25 11.02,-1.08 a 0.49,0.49 0 0 1 -0.49,0.43 z m 0.25,-1.3 6.75,-0.2 a 0.38,0.37 79.3 0 0 0.34,-0.51 c -1.4,-3.84 -6.41,-3.92 -7.63,-0.07 a 0.56,0.6 8.5 0 0 0.54,0.78 z"
     id="path7551" />
  <path
     fill="#fb0c1a"
     d="m 135.94643,112.26787 q -0.29,1.85 -1.75,3 -1.26,-2.51 1.75,-3 z"
     id="path7559" />
</svg>
