<?xml version="1.0" encoding="UTF-8" standalone="no"?>
<!DOCTYPE svg PUBLIC "-//W3C//DTD SVG 1.1//EN" "http://www.w3.org/Graphics/SVG/1.1/DTD/svg11.dtd">
<svg xmlns="http://www.w3.org/2000/svg" version="1.1" viewBox="0.00 0.00 2124.00 987.00">
<path fill="#f04846" d="
  M 1565.81 0.00
  L 1577.30 0.00
  C 1650.39 5.05 1698.23 79.07 1669.91 147.38
  C 1637.47 225.66 1530.64 236.75 1482.97 166.29
  C 1453.08 122.12 1460.64 61.76 1501.06 26.43
  Q 1528.33 2.60 1565.81 0.00
  Z"
/>
<path fill="#0060ac" d="
  M 1412.70 206.19
  C 1440.17 235.59 1466.28 261.00 1496.17 289.18
  Q 1504.25 296.80 1510.97 302.64
  C 1571.38 355.13 1639.24 400.40 1710.18 438.07
  C 1726.01 446.47 1741.36 453.12 1758.42 459.84
  C 1783.79 469.83 1807.48 474.54 1832.17 459.43
  C 1841.21 453.89 1849.13 458.11 1853.75 466.60
  C 1859.92 477.92 1855.18 491.93 1846.06 500.31
  Q 1840.90 505.07 1832.80 510.07
  C 1786.28 538.78 1726.57 520.74 1681.15 499.89
  Q 1649.68 485.44 1618.31 470.75
  C 1495.20 413.12 1387.99 324.84 1294.15 227.60
  C 1284.31 217.40 1276.86 222.31 1265.91 228.39
  C 1227.77 249.55 1187.26 260.28 1143.24 256.23
  Q 1104.07 252.63 1073.50 228.95
  Q 1071.27 227.23 1065.61 224.73
  C 1049.84 217.78 1039.03 222.52 1027.03 233.29
  C 1010.13 248.43 993.39 263.70 976.93 279.32
  C 884.18 367.29 783.18 456.59 683.55 536.79
  C 571.55 626.93 446.19 702.35 312.36 757.43
  C 259.79 779.07 205.23 795.61 148.57 803.36
  Q 114.65 807.99 81.44 802.55
  Q 73.17 801.19 59.76 802.78
  Q 44.91 804.53 32.55 813.97
  C 26.20 818.82 21.44 825.68 12.07 823.21
  Q 1.10 820.33 0.19 809.36
  C -0.36 802.80 2.86 796.23 5.74 789.99
  C 21.24 756.47 45.71 725.92 73.68 701.92
  C 90.77 687.27 114.63 691.74 114.27 718.06
  Q 114.16 725.58 115.17 733.01
  C 116.50 742.87 121.84 744.24 130.59 745.28
  C 196.26 753.10 259.79 741.65 321.01 717.53
  C 435.70 672.35 544.51 615.50 643.07 541.08
  Q 668.22 522.08 692.63 502.15
  Q 816.69 400.88 934.01 291.90
  Q 940.62 285.75 948.57 278.18
  Q 1011.72 217.93 1075.48 158.31
  C 1082.69 151.57 1092.49 141.12 1101.72 133.22
  C 1111.00 125.28 1125.88 131.76 1121.77 144.52
  C 1118.69 154.09 1114.24 165.68 1114.92 174.30
  C 1115.75 184.87 1123.61 193.05 1132.12 198.91
  C 1161.36 219.03 1194.47 221.30 1228.84 213.95
  C 1264.52 206.31 1294.26 188.18 1320.94 163.69
  C 1336.79 149.14 1367.40 139.82 1381.19 163.30
  C 1390.94 179.90 1399.83 192.42 1412.70 206.19
  Z"
/>
<path fill="#231f20" d="
  M 1091.35 662.52
  Q 1091.84 663.40 1092.84 663.38
  L 1135.63 662.52
  Q 1136.25 662.51 1136.25 663.13
  L 1136.25 669.20
  Q 1136.25 669.79 1135.66 669.76
  Q 1086.95 668.02 1038.24 669.77
  Q 1037.50 669.79 1037.50 669.05
  L 1037.50 663.10
  Q 1037.50 662.52 1038.08 662.53
  L 1083.06 663.38
  A 0.68 0.68 0.0 0 0 1083.64 662.33
  L 1076.05 650.74
  A 0.43 0.41 -32.4 0 1 1076.19 650.15
  L 1081.79 646.72
  A 0.75 0.74 -30.0 0 1 1082.83 646.99
  L 1091.35 662.52
  Z"
/>
<path fill="#231f20" d="
  M 1869.48 653.23
  A 0.60 0.60 0.0 0 1 1869.48 652.32
  L 1873.99 648.46
  A 0.77 0.76 47.6 0 1 1875.03 648.51
  Q 1882.32 655.94 1888.12 664.57
  A 1.00 1.00 0.0 0 1 1887.78 666.00
  L 1882.35 669.11
  A 0.78 0.78 0.0 0 1 1881.26 668.76
  Q 1877.01 659.75 1869.48 653.23
  Z"
/>
<path fill="#231f20" d="
  M 1920.76 677.51
  A 0.76 0.75 90.0 0 0 1920.01 676.75
  L 1842.50 676.75
  A 0.50 0.50 0.0 0 0 1842.00 677.25
  L 1842.00 696.09
  A 0.65 0.65 0.0 0 1 1841.35 696.74
  L 1835.00 696.75
  Q 1834.50 696.76 1834.50 696.25
  L 1834.50 671.61
  Q 1834.50 671.28 1834.83 671.28
  L 1897.59 671.60
  A 0.67 0.65 -70.7 0 0 1898.11 671.34
  Q 1906.14 661.03 1911.32 649.06
  A 0.72 0.72 0.0 0 1 1912.45 648.80
  Q 1915.93 651.80 1920.48 652.44
  Q 1920.91 652.50 1921.17 652.85
  Q 1922.62 654.85 1920.49 655.95
  C 1914.57 659.02 1910.07 665.16 1906.55 670.24
  Q 1905.62 671.59 1907.26 671.54
  L 1927.40 670.89
  Q 1928.00 670.87 1928.00 671.47
  L 1928.00 695.09
  A 0.65 0.65 0.0 0 1 1927.35 695.74
  L 1921.33 695.75
  A 0.59 0.59 0.0 0 1 1920.73 695.15
  L 1920.76 677.51
  Z"
/>
<path fill="#231f20" d="
  M 969.75 713.69
  A 0.26 0.26 0.0 0 0 969.28 713.55
  Q 953.59 736.29 928.54 748.19
  Q 927.95 748.47 927.69 747.88
  Q 925.96 743.99 921.99 742.47
  A 0.45 0.45 0.0 0 1 922.01 741.62
  Q 945.99 733.78 961.83 714.20
  A 0.49 0.49 0.0 0 0 961.44 713.40
  L 935.31 713.94
  Q 934.92 713.94 934.92 713.56
  L 934.96 677.92
  Q 934.97 677.30 935.58 677.30
  L 969.27 677.57
  Q 969.86 677.58 969.85 676.99
  L 969.71 668.54
  Q 969.70 667.88 969.04 667.89
  L 925.86 668.47
  Q 925.25 668.48 925.25 667.86
  L 925.25 662.04
  Q 925.25 661.27 926.02 661.29
  L 969.36 662.01
  A 0.55 0.54 89.5 0 0 969.91 661.44
  L 969.47 650.08
  A 0.42 0.42 0.0 0 1 969.91 649.64
  L 979.24 649.93
  A 1.03 1.03 0.0 0 1 979.81 651.80
  L 977.60 653.42
  A 0.78 0.77 72.5 0 0 977.28 654.05
  L 977.20 661.48
  Q 977.20 662.01 977.73 662.00
  L 1021.14 661.29
  Q 1021.75 661.28 1021.75 661.89
  L 1021.75 667.87
  Q 1021.75 668.50 1021.13 668.49
  L 977.98 667.77
  A 0.80 0.80 0.0 0 0 977.16 668.58
  L 977.29 677.06
  Q 977.30 677.58 977.82 677.58
  L 1010.76 677.30
  Q 1011.12 677.29 1011.10 677.65
  Q 1010.27 695.51 1011.10 713.37
  Q 1011.12 713.88 1010.61 713.87
  L 985.54 713.36
  A 0.37 0.37 0.0 0 0 985.26 713.98
  Q 1000.97 731.91 1023.56 739.59
  Q 1024.36 739.86 1023.65 740.31
  Q 1020.18 742.55 1018.81 746.43
  Q 1018.62 746.98 1018.09 746.72
  Q 994.21 734.80 978.13 713.60
  A 0.42 0.42 0.0 0 0 977.37 713.84
  Q 976.79 732.96 977.92 752.04
  Q 977.94 752.50 977.49 752.50
  L 969.24 752.50
  Q 968.67 752.50 968.75 751.93
  C 970.56 739.48 969.81 726.24 969.75 713.69
  Z
  M 969.79 683.76
  A 0.26 0.26 0.0 0 0 969.53 683.50
  L 942.19 683.50
  A 0.26 0.26 0.0 0 0 941.93 683.76
  L 941.93 692.26
  A 0.26 0.26 0.0 0 0 942.19 692.52
  L 969.53 692.52
  A 0.26 0.26 0.0 0 0 969.79 692.26
  L 969.79 683.76
  Z
  M 1003.7472 683.8932
  A 0.37 0.37 0.0 0 0 1003.3779 683.5225
  L 977.5779 683.4775
  A 0.37 0.37 0.0 0 0 977.2072 683.8468
  L 977.1928 692.1268
  A 0.37 0.37 0.0 0 0 977.5621 692.4975
  L 1003.3621 692.5425
  A 0.37 0.37 0.0 0 0 1003.7328 692.1732
  L 1003.7472 683.8932
  Z
  M 968.74 708.03
  A 1.04 1.03 0.3 0 0 969.80 706.99
  L 969.73 698.83
  Q 969.72 698.25 969.14 698.25
  L 942.65 698.24
  Q 942.05 698.24 942.04 698.85
  L 941.91 707.45
  Q 941.91 707.93 942.38 708.00
  Q 942.89 708.09 943.42 707.94
  A 1.04 0.05 -16.4 0 1 944.25 707.74
  Q 956.50 707.71 968.74 708.03
  Z
  M 1003.73 698.59
  A 0.35 0.35 0.0 0 0 1003.38 698.24
  L 977.56 698.24
  A 0.35 0.35 0.0 0 0 977.21 698.59
  L 977.21 707.51
  A 0.35 0.35 0.0 0 0 977.56 707.86
  L 1003.38 707.86
  A 0.35 0.35 0.0 0 0 1003.73 707.51
  L 1003.73 698.59
  Z"
/>
<path fill="#231f20" d="
  M 1304.03 688.72
  L 1296.70 683.47
  A 0.64 0.64 0.0 0 1 1296.63 682.49
  L 1299.40 679.81
  A 0.73 0.72 40.0 0 1 1300.33 679.73
  L 1308.51 685.50
  Q 1308.89 685.76 1309.16 685.39
  L 1312.54 680.76
  A 1.37 1.36 -57.3 0 0 1312.11 678.76
  L 1305.05 674.81
  A 0.58 0.57 -58.9 0 1 1304.85 673.99
  L 1306.82 671.02
  A 0.70 0.69 -58.5 0 1 1307.74 670.79
  L 1315.21 675.05
  A 0.60 0.59 -63.8 0 0 1316.05 674.76
  L 1319.72 665.97
  A 0.52 0.52 0.0 0 0 1319.24 665.25
  L 1307.96 665.25
  A 1.13 1.13 0.0 0 0 1306.96 665.85
  Q 1302.97 673.33 1296.77 679.09
  A 0.91 0.90 37.3 0 1 1295.73 679.23
  L 1291.06 676.83
  A 0.42 0.41 37.8 0 1 1290.97 676.15
  C 1299.17 668.76 1304.88 661.49 1307.40 650.42
  A 0.74 0.74 0.0 0 1 1308.35 649.88
  L 1315.18 652.08
  A 1.09 1.08 30.1 0 1 1315.65 653.84
  Q 1315.25 654.29 1314.56 654.43
  Q 1314.04 654.54 1313.73 654.96
  L 1310.60 659.32
  A 0.54 0.54 0.0 0 0 1311.01 660.17
  Q 1319.18 660.60 1327.28 659.52
  Q 1327.91 659.44 1327.75 660.06
  Q 1323.06 678.13 1311.20 692.42
  Q 1310.70 693.02 1311.49 693.07
  Q 1327.72 694.05 1343.95 693.05
  A 0.34 0.34 0.0 0 0 1344.19 692.49
  C 1335.39 682.48 1332.65 671.73 1329.91 659.05
  A 0.77 0.76 83.2 0 1 1330.64 658.12
  L 1357.54 657.71
  Q 1357.84 657.70 1357.73 657.98
  Q 1352.78 671.22 1344.08 682.35
  Q 1343.74 682.78 1344.06 683.23
  Q 1351.54 693.50 1363.36 698.21
  Q 1364.11 698.51 1363.49 699.03
  Q 1360.67 701.41 1358.85 704.63
  A 0.64 0.64 0.0 0 1 1357.88 704.81
  L 1347.66 696.28
  A 0.59 0.59 0.0 0 0 1346.70 696.83
  L 1346.99 698.67
  Q 1347.10 699.36 1346.41 699.33
  Q 1328.28 698.58 1310.15 699.30
  Q 1309.41 699.33 1309.40 698.59
  L 1309.36 695.27
  A 0.38 0.37 69.1 0 0 1308.74 694.99
  L 1298.63 703.82
  A 1.89 1.89 0.0 0 1 1296.29 703.93
  L 1292.45 701.16
  A 0.49 0.49 0.0 0 0 1291.71 701.74
  Q 1294.72 708.85 1294.12 717.92
  C 1293.50 727.33 1286.21 729.84 1278.28 731.11
  Q 1277.80 731.18 1277.70 730.71
  Q 1276.88 726.65 1274.57 723.21
  Q 1274.15 722.59 1274.90 722.61
  C 1280.51 722.76 1287.91 722.60 1288.03 715.50
  C 1288.22 704.79 1283.55 696.29 1275.54 689.47
  Q 1275.12 689.11 1275.36 688.61
  Q 1281.56 675.79 1285.64 662.14
  A 0.57 0.56 8.0 0 0 1285.09 661.42
  L 1272.73 661.50
  Q 1272.25 661.50 1272.25 661.98
  C 1272.24 692.06 1271.61 722.25 1272.95 752.27
  A 0.70 0.70 0.0 0 1 1272.25 753.00
  L 1265.09 752.99
  Q 1264.34 752.99 1264.39 752.23
  C 1266.32 725.38 1265.53 698.20 1265.49 671.28
  C 1265.49 666.26 1265.03 660.89 1264.71 655.67
  Q 1264.67 655.07 1265.27 655.12
  Q 1279.64 656.30 1294.02 655.22
  A 0.42 0.41 6.3 0 1 1294.45 655.75
  Q 1289.60 671.93 1282.52 687.27
  A 0.76 0.76 0.0 0 0 1282.65 688.10
  Q 1287.46 693.44 1290.71 699.84
  A 0.64 0.63 -31.8 0 0 1291.65 700.06
  L 1304.03 691.11
  A 1.47 1.47 0.0 0 0 1304.03 688.72
  Z
  M 1341.76 676.36
  Q 1346.14 670.60 1348.68 663.82
  A 0.43 0.42 10.1 0 0 1348.28 663.25
  L 1337.29 663.25
  Q 1336.66 663.25 1336.78 663.87
  Q 1338.08 670.26 1340.68 676.23
  Q 1341.11 677.22 1341.76 676.36
  Z"
/>
<path fill="#231f20" d="
  M 1860.57 664.34
  A 1.18 1.18 0.0 0 1 1860.60 666.01
  L 1858.73 667.94
  A 3.57 0.97 -45.9 0 1 1855.55 669.83
  L 1841.97 656.68
  A 3.57 0.97 -45.9 0 1 1843.76 653.44
  L 1845.63 651.50
  A 1.18 1.18 0.0 0 1 1847.30 651.48
  L 1860.57 664.34
  Z"
/>
<path fill="#231f20" d="
  M 1613.29 659.92
  A 1.05 1.04 -53.4 0 1 1613.06 658.34
  L 1617.18 653.65
  A 0.68 0.68 0.0 0 1 1618.07 653.53
  Q 1633.64 663.72 1647.97 675.60
  A 0.91 0.91 0.0 0 1 1648.08 676.89
  L 1643.50 682.21
  A 0.70 0.69 41.9 0 1 1642.50 682.26
  Q 1628.97 669.69 1613.29 659.92
  Z"
/>
<path fill="#231f20" d="
  M 1958.75 744.75
  L 1958.75 751.63
  Q 1958.75 752.25 1958.12 752.25
  L 1952.70 752.25
  Q 1952.10 752.25 1952.11 751.66
  Q 1952.42 706.19 1951.99 660.75
  Q 1951.96 657.43 1951.78 654.08
  Q 1951.76 653.53 1952.30 653.54
  C 1991.44 654.29 2017.91 654.02 2040.51 653.47
  Q 2040.99 653.46 2040.99 653.95
  L 2041.12 750.82
  Q 2041.12 751.51 2040.43 751.50
  L 2034.90 751.49
  Q 2034.25 751.49 2034.25 750.84
  L 2034.25 745.00
  Q 2034.25 744.25 2033.50 744.25
  L 1959.25 744.25
  Q 1958.75 744.25 1958.75 744.75
  Z
  M 2034.25 660.10
  A 0.41 0.41 0.0 0 0 2033.84 659.69
  L 1959.16 659.69
  A 0.41 0.41 0.0 0 0 1958.75 660.10
  L 1958.75 737.84
  A 0.41 0.41 0.0 0 0 1959.16 738.25
  L 2033.84 738.25
  A 0.41 0.41 0.0 0 0 2034.25 737.84
  L 2034.25 660.10
  Z"
/>
<path fill="#231f20" d="
  M 1234.75 743.50
  L 1165.75 743.50
  Q 1165.25 743.50 1165.25 744.00
  L 1165.25 751.59
  A 0.66 0.65 90.0 0 1 1164.60 752.25
  L 1158.35 752.25
  Q 1157.73 752.25 1157.76 751.63
  C 1158.99 725.18 1158.53 698.62 1158.49 672.14
  C 1158.48 666.77 1158.16 661.49 1157.73 656.14
  Q 1157.69 655.62 1158.21 655.63
  Q 1200.06 656.49 1241.90 655.63
  Q 1242.47 655.62 1242.47 656.20
  L 1242.55 749.72
  Q 1242.55 750.25 1242.03 750.25
  L 1235.75 750.25
  A 0.50 0.50 0.0 0 1 1235.25 749.75
  L 1235.25 744.00
  Q 1235.25 743.50 1234.75 743.50
  Z
  M 1235.25 662.38
  A 0.40 0.40 0.0 0 0 1234.85 661.98
  L 1165.65 661.98
  A 0.40 0.40 0.0 0 0 1165.25 662.38
  L 1165.25 737.10
  A 0.40 0.40 0.0 0 0 1165.65 737.50
  L 1234.85 737.50
  A 0.40 0.40 0.0 0 0 1235.25 737.10
  L 1235.25 662.38
  Z"
/>
<rect fill="#231f20" x="1501.49" y="658.25" width="79.26" height="7.50" rx="0.71"/>
<path fill="#231f20" d="
  M 1774.79 716.58
  A 0.23 0.23 0.0 0 0 1774.47 716.60
  Q 1755.22 737.55 1730.34 751.42
  Q 1729.97 751.63 1729.68 751.32
  L 1725.19 746.48
  A 1.13 1.12 54.8 0 1 1725.49 744.71
  C 1756.53 728.62 1783.66 701.89 1791.21 666.81
  A 0.46 0.46 0.0 0 0 1790.76 666.25
  L 1727.73 666.25
  A 0.70 0.70 0.0 0 1 1727.03 665.55
  L 1726.99 659.16
  A 0.66 0.66 0.0 0 1 1727.65 658.50
  L 1800.46 658.50
  A 0.35 0.35 0.0 0 1 1800.81 658.91
  Q 1796.13 686.91 1779.61 709.85
  A 1.04 1.04 0.0 0 0 1779.78 711.25
  Q 1798.55 727.22 1814.63 745.89
  Q 1815.29 746.66 1814.46 747.24
  L 1808.41 751.41
  A 0.54 0.53 53.0 0 1 1807.68 751.30
  Q 1792.90 732.37 1774.79 716.58
  Z"
/>
<path fill="#231f20" d="
  M 2000.32 680.55
  L 2028.07 679.16
  Q 2028.50 679.13 2028.50 679.56
  L 2028.50 684.95
  Q 2028.50 685.54 2027.91 685.50
  Q 1996.16 683.30 1964.41 685.49
  Q 1963.96 685.52 1963.94 685.07
  L 1963.74 679.70
  A 0.53 0.52 -0.5 0 1 1964.29 679.15
  L 1992.45 680.56
  Q 1993.25 680.60 1993.25 679.80
  L 1993.25 673.69
  A 0.72 0.72 0.0 0 0 1992.49 672.97
  L 1969.82 674.10
  A 0.54 0.54 0.0 0 1 1969.25 673.56
  L 1969.25 668.57
  Q 1969.25 668.15 1969.67 668.17
  L 1992.10 669.22
  A 1.20 1.20 0.0 0 0 1993.35 667.86
  L 1992.55 661.76
  Q 1992.49 661.26 1992.98 661.30
  L 2002.03 661.89
  A 0.80 0.80 0.0 0 1 2002.56 663.24
  L 2000.35 665.58
  Q 1999.98 665.97 1999.92 666.51
  L 1999.68 668.52
  Q 1999.60 669.20 2000.28 669.17
  L 2023.19 668.14
  Q 2023.75 668.11 2023.75 668.67
  L 2023.75 673.56
  Q 2023.75 674.11 2023.20 674.09
  L 2000.30 673.05
  A 0.64 0.63 -89.6 0 0 1999.64 673.71
  L 1999.80 680.07
  Q 1999.81 680.58 2000.32 680.55
  Z"
/>
<path fill="#231f20" d="
  M 1462.48 670.00
  L 1383.00 670.00
  Q 1382.25 670.00 1382.25 669.25
  L 1382.25 663.00
  Q 1382.25 662.50 1382.75 662.50
  L 1470.73 662.50
  A 0.44 0.44 0.0 0 1 1471.17 662.94
  C 1471.12 685.79 1467.21 712.05 1449.46 728.14
  Q 1433.15 742.93 1412.40 750.82
  Q 1411.89 751.01 1411.60 750.54
  L 1407.86 744.40
  A 0.66 0.65 -26.1 0 1 1408.19 743.45
  C 1426.69 736.54 1445.41 725.11 1454.77 707.11
  C 1460.32 696.44 1462.78 683.02 1463.12 670.66
  A 0.64 0.64 0.0 0 0 1462.48 670.00
  Z"
/>
<path fill="#231f20" d="
  M 1202.93 700.03
  L 1202.99 720.22
  Q 1203.00 720.94 1203.72 720.92
  L 1230.86 720.20
  A 0.59 0.58 89.1 0 1 1231.46 720.79
  L 1231.52 726.24
  Q 1231.52 726.89 1230.87 726.85
  Q 1200.87 725.36 1170.87 726.87
  Q 1170.25 726.90 1170.25 726.29
  L 1170.25 720.65
  Q 1170.25 720.05 1170.85 720.07
  L 1194.73 720.82
  Q 1196.08 720.86 1196.06 719.51
  L 1195.77 699.91
  Q 1195.76 699.30 1195.15 699.32
  L 1175.30 700.07
  A 0.77 0.77 0.0 0 1 1174.50 699.30
  L 1174.50 694.00
  A 0.48 0.47 1.2 0 1 1175.00 693.53
  L 1195.24 694.49
  A 0.73 0.73 0.0 0 0 1196.00 693.76
  L 1196.00 678.15
  A 1.08 1.07 -0.8 0 0 1194.89 677.08
  L 1173.80 677.83
  A 0.53 0.53 0.0 0 1 1173.25 677.30
  L 1173.25 671.77
  A 0.52 0.52 0.0 0 1 1173.81 671.25
  Q 1200.03 673.32 1226.26 671.31
  Q 1226.89 671.27 1226.92 671.90
  L 1227.19 677.49
  A 0.41 0.41 0.0 0 1 1226.77 677.92
  L 1203.92 677.13
  Q 1202.93 677.09 1202.94 678.08
  L 1203.03 693.41
  A 1.04 1.04 0.0 0 0 1204.11 694.45
  L 1225.92 693.54
  A 0.56 0.56 0.0 0 1 1226.50 694.10
  L 1226.50 699.31
  A 0.78 0.78 0.0 0 1 1225.69 700.09
  L 1203.67 699.31
  A 0.72 0.72 0.0 0 0 1202.93 700.03
  Z"
/>
<path fill="#231f20" d="
  M 1703.45 674.77
  A 0.51 0.50 25.8 0 1 1703.68 675.42
  C 1694.11 697.43 1679.07 720.02 1658.22 731.48
  Q 1639.69 741.66 1614.47 747.79
  Q 1614.00 747.91 1613.77 747.48
  L 1610.49 741.27
  A 0.78 0.77 -20.7 0 1 1611.00 740.15
  Q 1633.51 735.02 1653.95 723.71
  C 1673.11 713.09 1687.29 692.62 1696.02 672.54
  A 1.37 1.36 25.3 0 1 1697.90 671.87
  L 1703.45 674.77
  Z"
/>
<path fill="#231f20" d="
  M 1083.20 709.44
  L 1054.22 709.96
  Q 1053.70 709.97 1053.74 709.45
  Q 1054.87 693.83 1053.72 678.21
  Q 1053.68 677.61 1054.28 677.63
  Q 1073.92 678.40 1093.71 678.28
  C 1100.26 678.24 1110.74 677.72 1119.27 677.74
  Q 1119.89 677.74 1119.86 678.36
  Q 1119.13 693.78 1119.86 709.19
  Q 1119.89 709.84 1119.24 709.83
  L 1091.93 709.50
  Q 1090.76 709.49 1090.76 710.66
  Q 1090.76 726.98 1090.68 743.99
  C 1090.63 753.16 1077.81 752.97 1071.41 752.89
  A 0.70 0.69 87.7 0 1 1070.73 752.26
  Q 1070.32 747.86 1067.33 744.67
  A 0.49 0.49 0.0 0 1 1067.79 743.86
  C 1072.13 744.78 1083.72 747.12 1083.76 739.75
  Q 1083.83 724.85 1083.71 709.94
  Q 1083.70 709.43 1083.20 709.44
  Z
  M 1112.47 684.52
  A 0.27 0.27 0.0 0 0 1112.20 684.25
  L 1062.02 684.25
  A 0.27 0.27 0.0 0 0 1061.75 684.52
  L 1061.75 703.32
  A 0.27 0.27 0.0 0 0 1062.02 703.59
  L 1112.20 703.59
  A 0.27 0.27 0.0 0 0 1112.47 703.32
  L 1112.47 684.52
  Z"
/>
<path fill="#231f20" d="
  M 1494.63 696.01
  A 0.62 0.62 0.0 0 1 1494.01 695.39
  L 1494.00 689.13
  Q 1493.99 688.50 1494.62 688.50
  L 1588.97 688.50
  Q 1589.41 688.50 1589.30 688.92
  Q 1584.47 708.15 1573.01 723.87
  C 1561.61 739.51 1540.30 747.01 1521.94 751.15
  Q 1520.73 751.43 1520.05 750.39
  L 1516.71 745.28
  A 0.84 0.83 -21.2 0 1 1517.28 744.00
  Q 1533.17 741.42 1547.37 734.61
  C 1564.01 726.62 1573.16 713.84 1578.99 696.70
  A 0.54 0.53 9.3 0 0 1578.48 696.00
  L 1494.63 696.01
  Z"
/>
<path fill="#231f20" d="
  M 1983.60 719.48
  Q 1983.62 718.60 1982.86 719.06
  Q 1974.72 723.97 1965.90 727.54
  A 0.73 0.72 66.7 0 1 1964.96 727.16
  Q 1963.51 723.94 1960.56 721.96
  A 0.43 0.43 0.0 0 1 1960.72 721.18
  Q 1976.63 718.07 1989.95 708.87
  A 0.40 0.39 26.9 0 0 1989.71 708.15
  L 1972.30 708.63
  A 0.43 0.43 0.0 0 1 1971.87 708.14
  Q 1973.20 699.24 1971.91 690.32
  A 0.51 0.51 0.0 0 1 1972.44 689.74
  Q 1995.82 690.85 2019.21 689.79
  A 0.37 0.37 0.0 0 1 2019.60 690.16
  L 2019.63 708.01
  A 0.39 0.39 0.0 0 1 2019.24 708.40
  L 1997.67 708.19
  Q 1997.19 708.19 1996.83 708.50
  L 1989.41 714.83
  A 0.74 0.73 -21.3 0 0 1989.15 715.41
  L 1989.51 736.08
  Q 1989.52 736.68 1988.92 736.69
  L 1984.02 736.77
  Q 1983.28 736.78 1983.29 736.03
  L 1983.60 719.48
  Z
  M 2013.5384 695.0978
  A 0.26 0.26 0.0 0 0 2013.2771 694.8392
  L 1978.5576 695.0210
  A 0.26 0.26 0.0 0 0 1978.2989 695.2823
  L 1978.3416 703.4222
  A 0.26 0.26 0.0 0 0 1978.6029 703.6808
  L 2013.3224 703.4990
  A 0.26 0.26 0.0 0 0 2013.5811 703.2377
  L 2013.5384 695.0978
  Z"
/>
<path fill="#231f20" d="
  M 1896.42 696.12
  L 1851.79 696.58
  Q 1851.25 696.59 1851.25 696.04
  L 1851.25 691.06
  Q 1851.25 690.36 1851.95 690.38
  Q 1881.53 691.21 1911.12 690.40
  Q 1911.75 690.38 1911.75 691.01
  L 1911.75 696.23
  A 0.66 0.65 86.0 0 1 1911.19 696.88
  C 1903.75 697.86 1894.43 707.35 1888.56 712.08
  Q 1886.22 713.97 1887.56 717.53
  Q 1887.73 717.98 1888.21 717.97
  L 1931.19 716.94
  Q 1931.71 716.92 1931.74 717.44
  L 1932.06 724.03
  Q 1932.09 724.66 1931.47 724.64
  L 1888.11 723.57
  Q 1887.27 723.55 1887.26 724.40
  Q 1887.22 732.83 1887.26 741.60
  C 1887.31 749.92 1883.24 750.60 1876.39 751.60
  Q 1871.11 752.38 1865.79 752.25
  A 0.63 0.61 -2.7 0 1 1865.19 751.72
  Q 1864.53 747.24 1862.07 743.47
  A 0.48 0.47 -9.8 0 1 1862.58 742.75
  C 1867.08 743.82 1879.60 746.88 1879.73 739.16
  Q 1879.86 731.78 1879.70 724.40
  Q 1879.69 723.79 1879.08 723.78
  Q 1856.75 723.47 1834.46 724.90
  Q 1833.75 724.94 1833.75 724.23
  L 1833.75 717.30
  Q 1833.75 716.63 1834.42 716.67
  Q 1856.68 718.05 1879.00 717.71
  A 1.22 1.22 0.0 0 0 1880.13 716.08
  C 1878.98 712.87 1879.57 710.83 1882.25 708.63
  Q 1889.30 702.84 1896.73 696.99
  A 0.49 0.49 0.0 0 0 1896.42 696.12
  Z"
/>
<path fill="#231f20" d="
  M 1226.18 714.41
  A 0.25 0.25 0.0 0 1 1226.19 714.76
  L 1222.89 718.22
  A 1.41 0.84 -46.3 0 1 1221.31 718.65
  L 1209.78 707.64
  A 1.41 0.84 -46.3 0 1 1210.15 706.04
  L 1213.45 702.59
  A 0.25 0.25 0.0 0 1 1213.81 702.58
  L 1226.18 714.41
  Z"
/>
<path fill="#231f20" d="
  M 1993.64 718.37
  A 0.49 0.49 0.0 0 1 1993.43 717.67
  L 1995.45 714.43
  A 0.67 0.66 29.3 0 1 1996.31 714.19
  L 2008.15 719.95
  Q 2008.67 720.21 2009.16 719.90
  Q 2016.30 715.39 2021.11 708.48
  Q 2021.35 708.13 2021.67 708.42
  L 2027.25 713.34
  A 0.61 0.61 0.0 0 1 2027.03 714.38
  Q 2019.46 716.66 2013.69 722.12
  A 0.51 0.50 -53.5 0 0 2013.81 722.94
  L 2028.34 729.92
  A 0.62 0.62 0.0 0 1 2028.57 730.84
  L 2025.40 735.16
  Q 2024.97 735.75 2024.36 735.34
  Q 2009.69 725.61 1993.64 718.37
  Z"
/>
<path fill="#231f20" d="
  M 1323.47 715.67
  L 1300.55 716.37
  A 0.51 0.51 0.0 0 1 1300.03 715.86
  L 1299.99 710.39
  Q 1299.99 709.70 1300.69 709.73
  Q 1328.90 711.24 1357.11 709.67
  Q 1357.72 709.64 1357.73 710.24
  L 1357.81 715.93
  A 0.49 0.48 -89.4 0 1 1357.32 716.42
  L 1332.06 715.66
  A 0.79 0.79 0.0 0 0 1331.25 716.45
  Q 1331.26 729.87 1331.23 743.75
  C 1331.21 751.67 1320.45 751.44 1314.39 751.17
  A 0.60 0.60 0.0 0 1 1313.82 750.67
  Q 1313.25 747.25 1311.30 744.41
  A 0.42 0.42 0.0 0 1 1311.68 743.75
  C 1315.56 744.05 1324.11 746.78 1324.18 740.51
  Q 1324.32 728.44 1324.23 716.40
  A 0.74 0.73 88.5 0 0 1323.47 715.67
  Z"
/>
<path fill="#231f20" d="
  M 1037.56 737.52
  Q 1037.41 737.47 1037.22 737.40
  A 0.39 0.39 0.0 0 1 1037.16 736.69
  Q 1052.13 728.71 1062.09 715.00
  A 1.04 1.04 0.0 0 1 1063.51 714.75
  L 1069.70 718.91
  A 0.69 0.69 0.0 0 1 1069.62 720.11
  Q 1067.16 721.32 1064.97 723.47
  Q 1054.57 733.66 1043.10 742.63
  Q 1042.71 742.93 1042.42 742.54
  Q 1040.40 739.83 1037.78 737.64
  Q 1037.68 737.56 1037.56 737.52
  Z"
/>
<path fill="#231f20" d="
  M 1102.68 720.51
  Q 1102.53 720.40 1102.65 720.27
  L 1106.81 715.72
  Q 1107.34 715.14 1107.93 715.65
  L 1132.60 736.59
  A 0.66 0.66 0.0 0 1 1132.62 737.57
  L 1127.39 742.43
  Q 1126.91 742.87 1126.48 742.38
  Q 1115.87 730.62 1102.68 720.51
  Z"
/>
<path fill="#231f20" d="
  M 1358.90 738.95
  L 1354.24 742.87
  Q 1353.77 743.27 1353.45 742.75
  Q 1347.27 732.96 1338.55 725.33
  A 0.79 0.78 -44.8 0 1 1338.56 724.13
  L 1342.03 721.23
  A 0.60 0.60 0.0 0 1 1342.81 721.23
  Q 1351.80 728.81 1359.00 738.10
  A 0.62 0.61 -38.5 0 1 1358.90 738.95
  Z"
/>
<path fill="#231f20" d="
  M 1289.24 740.78
  A 0.52 0.51 -52.5 0 1 1289.12 739.84
  Q 1300.70 733.07 1308.01 721.81
  A 0.65 0.64 30.6 0 1 1308.86 721.60
  L 1314.05 724.51
  A 1.20 1.19 46.0 0 1 1314.02 726.61
  L 1311.28 728.01
  A 1.52 1.52 0.0 0 0 1310.72 728.49
  Q 1304.37 737.52 1295.35 743.83
  Q 1294.67 744.31 1294.09 743.71
  Q 1292.08 741.58 1289.24 740.78
  Z"
/>
<path fill="#1b75bc" d="
  M 1373.05 832.51
  L 1372.98 814.51
  Q 1372.97 813.50 1373.99 813.50
  L 1379.25 813.50
  Q 1379.75 813.50 1379.75 814.00
  L 1379.75 832.38
  Q 1379.75 833.00 1380.38 833.00
  L 1389.50 833.00
  Q 1390.00 833.00 1390.00 833.50
  L 1390.00 838.00
  Q 1390.00 838.50 1389.50 838.50
  L 1380.37 838.50
  Q 1379.74 838.50 1379.74 839.13
  L 1379.77 876.89
  A 1.87 1.87 0.0 0 0 1381.64 878.75
  L 1387.00 878.75
  Q 1387.75 878.75 1387.75 879.50
  L 1387.75 883.98
  A 0.64 0.63 -4.9 0 1 1387.22 884.60
  C 1380.92 885.62 1373.29 886.07 1373.17 877.17
  Q 1372.92 858.41 1373.03 839.26
  A 0.76 0.76 0.0 0 0 1372.26 838.50
  L 1365.07 838.51
  Q 1364.32 838.51 1364.30 837.76
  L 1364.14 833.59
  A 0.58 0.57 -1.0 0 1 1364.72 833.00
  L 1372.56 833.00
  A 0.49 0.49 0.0 0 0 1373.05 832.51
  Z"
/>
<rect fill="#1b75bc" x="380.26" y="813.49" width="6.74" height="70.00" rx="0.56"/>
<path fill="#1b75bc" d="
  M 539.06 813.50
  L 548.21 813.50
  A 0.34 0.34 0.0 0 1 548.43 814.10
  L 533.63 826.42
  A 0.34 0.34 0.0 0 1 533.42 826.50
  L 527.71 826.50
  A 0.34 0.34 0.0 0 1 527.46 825.93
  L 538.81 813.61
  A 0.34 0.34 0.0 0 1 539.06 813.50
  Z"
/>
<path fill="#1b75bc" d="
  M 669.91 821.33
  Q 668.65 826.79 669.06 832.41
  Q 669.10 833.00 669.69 833.00
  L 679.00 833.00
  Q 679.50 833.00 679.50 833.50
  L 679.50 838.00
  Q 679.50 838.50 679.00 838.50
  L 669.75 838.50
  Q 669.00 838.50 669.00 839.25
  L 669.00 883.00
  Q 669.00 883.51 668.50 883.50
  L 663.15 883.49
  A 0.91 0.91 0.0 0 1 662.24 882.58
  L 662.27 838.98
  A 0.48 0.48 0.0 0 0 661.79 838.50
  L 656.38 838.50
  Q 655.75 838.50 655.75 837.87
  L 655.75 833.56
  A 0.62 0.62 0.0 0 1 656.38 832.94
  L 661.87 833.02
  A 0.55 0.54 -2.4 0 0 662.42 832.43
  C 661.34 819.78 664.16 809.56 679.68 814.70
  Q 680.26 814.89 680.25 815.49
  L 680.24 820.89
  A 0.40 0.40 0.0 0 1 679.65 821.24
  Q 675.51 818.97 670.99 820.20
  A 1.52 1.52 0.0 0 0 669.91 821.33
  Z"
/>
<circle fill="#1b75bc" cx="968.75" cy="818.85" r="5.39"/>
<circle fill="#1b75bc" cx="1048.19" cy="818.85" r="5.40"/>
<path fill="#1b75bc" d="
  M 1135.00 839.53
  L 1135.00 876.63
  A 2.13 2.12 0.0 0 0 1137.13 878.75
  L 1142.50 878.75
  Q 1143.01 878.75 1143.01 879.25
  L 1142.99 883.88
  A 0.73 0.73 0.0 0 1 1142.36 884.60
  C 1136.37 885.40 1128.33 885.79 1128.29 878.19
  Q 1128.21 858.64 1128.26 839.23
  A 0.73 0.72 0.4 0 0 1127.53 838.50
  L 1119.98 838.50
  Q 1119.52 838.50 1119.51 838.04
  L 1119.39 833.68
  A 0.73 0.73 0.0 0 1 1120.13 832.93
  L 1127.60 833.03
  Q 1128.25 833.04 1128.25 832.39
  L 1128.25 814.25
  Q 1128.25 813.50 1129.00 813.50
  L 1134.38 813.50
  Q 1135.02 813.50 1135.02 814.13
  L 1134.96 832.23
  A 0.77 0.77 0.0 0 0 1135.73 833.00
  L 1144.75 833.00
  Q 1145.25 833.00 1145.25 833.50
  L 1145.25 838.00
  Q 1145.25 838.50 1144.75 838.50
  L 1136.03 838.50
  A 1.03 1.03 0.0 0 0 1135.00 839.53
  Z"
/>
<circle fill="#1b75bc" cx="1402.00" cy="818.87" r="5.41"/>
<rect fill="#1b75bc" x="1602.25" y="813.50" width="6.74" height="70.00" rx="0.50"/>
<path fill="#1b75bc" d="
  M 1689.75 875.76
  A 0.33 0.33 0.0 0 0 1689.16 875.55
  C 1675.90 891.39 1652.06 886.53 1645.24 867.50
  C 1641.43 856.89 1644.71 845.04 1653.08 837.75
  C 1663.71 828.51 1680.55 829.64 1689.16 841.19
  A 0.33 0.33 0.0 0 0 1689.75 841.00
  L 1689.75 814.00
  Q 1689.75 813.50 1690.25 813.50
  L 1695.75 813.50
  Q 1696.25 813.50 1696.25 814.00
  L 1696.25 882.88
  Q 1696.25 883.50 1695.62 883.50
  L 1690.50 883.50
  Q 1689.75 883.50 1689.75 882.75
  L 1689.75 875.76
  Z
  M 1670.0139 878.8980
  A 20.49 19.82 90.8 0 0 1690.1181 858.6867
  A 20.49 19.82 90.8 0 0 1670.5861 837.9220
  A 20.49 19.82 90.8 0 0 1650.4819 858.1333
  A 20.49 19.82 90.8 0 0 1670.0139 878.8980
  Z"
/>
<path fill="#f04846" d="
  M 1904.97 852.57
  L 1927.22 833.09
  A 0.35 0.35 0.0 0 1 1927.45 833.00
  L 1936.32 833.00
  A 0.35 0.35 0.0 0 1 1936.55 833.61
  L 1909.85 856.74
  A 0.35 0.35 0.0 0 0 1909.85 857.27
  L 1938.45 882.88
  A 0.35 0.35 0.0 0 1 1938.22 883.49
  L 1929.68 883.50
  A 0.35 0.35 0.0 0 1 1929.45 883.41
  L 1904.95 861.40
  A 0.35 0.35 0.0 0 0 1904.36 861.66
  L 1904.44 883.15
  A 0.35 0.35 0.0 0 1 1904.09 883.50
  L 1898.10 883.50
  A 0.35 0.35 0.0 0 1 1897.75 883.15
  L 1897.75 813.85
  A 0.35 0.35 0.0 0 1 1898.10 813.50
  L 1904.13 813.50
  A 0.35 0.35 0.0 0 1 1904.48 813.85
  L 1904.39 852.31
  A 0.35 0.35 0.0 0 0 1904.97 852.57
  Z"
/>
<path fill="#f04846" d="
  M 1805.34 822.00
  L 1790.92 822.00
  A 0.42 0.42 0.0 0 1 1790.50 821.58
  L 1790.50 815.66
  A 0.42 0.42 0.0 0 1 1790.92 815.24
  L 1827.58 815.26
  A 0.42 0.42 0.0 0 1 1828.00 815.68
  L 1828.00 821.58
  A 0.42 0.42 0.0 0 1 1827.58 822.00
  L 1813.17 822.00
  A 0.42 0.42 0.0 0 0 1812.75 822.42
  L 1812.75 883.08
  A 0.42 0.42 0.0 0 1 1812.33 883.50
  L 1806.17 883.50
  A 0.42 0.42 0.0 0 1 1805.75 883.08
  L 1805.76 822.42
  A 0.42 0.42 0.0 0 0 1805.34 822.00
  Z"
/>
<path fill="#1b75bc" d="
  M 464.75 882.65
  C 448.79 875.46 444.01 856.16 454.62 842.19
  C 465.48 827.90 489.11 827.90 500.21 842.76
  A 0.62 0.61 54.9 0 1 500.06 843.65
  L 495.61 846.54
  A 0.65 0.64 55.2 0 1 494.75 846.38
  C 480.91 827.98 448.71 841.46 456.99 865.23
  C 462.80 881.89 484.10 882.95 494.78 870.54
  A 0.69 0.69 0.0 0 1 495.71 870.42
  L 499.94 873.39
  A 0.68 0.68 0.0 0 1 500.08 874.36
  C 491.94 884.55 476.53 887.96 464.75 882.65
  Z"
/>
<path fill="#1b75bc" d="
  M 532.73 884.80
  C 522.61 883.67 514.14 876.54 511.34 866.75
  C 506.84 850.99 515.92 832.87 533.73 831.83
  C 550.54 830.85 561.63 841.87 562.06 858.14
  A 0.84 0.84 0.0 0 1 561.22 859.00
  L 517.48 859.00
  Q 516.84 859.00 516.89 859.64
  C 518.39 881.51 544.20 885.87 554.52 867.40
  Q 554.82 866.86 555.36 867.15
  L 559.92 869.58
  Q 560.44 869.86 560.16 870.37
  Q 551.01 886.86 532.73 884.80
  Z
  M 554.66 852.63
  C 552.50 842.29 542.10 836.44 532.16 838.34
  C 524.56 839.79 519.67 845.31 517.79 852.66
  Q 517.63 853.25 518.24 853.25
  L 554.16 853.25
  A 0.51 0.51 0.0 0 0 554.66 852.63
  Z"
/>
<path fill="#1b75bc" d="
  M 578.56 859.48
  C 579.00 881.22 606.43 885.96 616.08 867.41
  A 0.59 0.59 0.0 0 1 616.88 867.15
  L 621.46 869.49
  Q 622.06 869.79 621.75 870.39
  C 611.19 890.29 582.44 890.30 573.68 869.02
  C 564.48 846.70 586.35 823.56 609.20 834.17
  C 619.67 839.04 622.06 847.02 623.75 858.03
  A 0.84 0.84 0.0 0 1 622.92 859.00
  L 579.02 859.00
  Q 578.55 859.00 578.56 859.48
  Z
  M 579.57 853.26
  L 616.19 853.46
  A 0.06 0.06 0.0 0 0 616.25 853.40
  L 616.25 853.40
  A 18.35 15.18 0.3 0 0 597.98 838.12
  L 597.94 838.12
  A 18.35 15.18 0.3 0 0 579.51 853.20
  L 579.51 853.20
  A 0.06 0.06 0.0 0 0 579.57 853.26
  Z"
/>
<path fill="#1b75bc" d="
  M 693.95 839.18
  C 698.01 833.23 702.38 829.13 709.94 833.07
  A 0.57 0.57 0.0 0 1 710.16 833.88
  L 707.28 838.50
  A 0.55 0.55 0.0 0 1 706.61 838.72
  C 695.94 834.50 693.62 853.65 693.46 859.50
  Q 693.14 871.20 693.31 882.90
  Q 693.32 883.50 692.73 883.50
  L 687.25 883.50
  Q 686.75 883.50 686.75 883.00
  L 686.75 834.03
  Q 686.75 833.00 687.78 833.00
  L 692.73 833.00
  Q 693.22 833.00 693.23 833.48
  L 693.35 839.00
  A 0.33 0.33 0.0 0 0 693.95 839.18
  Z"
/>
<path fill="#1b75bc" d="
  M 761.50 875.79
  A 0.38 0.37 -24.6 0 0 760.84 875.55
  Q 750.99 886.85 737.59 884.72
  C 707.82 879.98 708.45 835.55 738.24 831.75
  Q 752.01 829.99 760.82 841.25
  Q 761.50 842.12 761.50 841.01
  L 761.50 833.82
  A 0.86 0.86 0.0 0 1 762.37 832.96
  L 767.51 833.02
  Q 768.00 833.02 768.00 833.51
  L 768.00 882.88
  Q 768.00 883.51 767.37 883.50
  L 762.15 883.49
  Q 761.50 883.49 761.50 882.84
  L 761.50 875.79
  Z
  M 742.4651 878.9347
  A 20.50 19.84 88.7 0 0 761.8349 857.9899
  A 20.50 19.84 88.7 0 0 741.5349 837.9453
  A 20.50 19.84 88.7 0 0 722.1651 858.8901
  A 20.50 19.84 88.7 0 0 742.4651 878.9347
  Z"
/>
<path fill="#1b75bc" d="
  M 789.50 841.18
  C 800.12 827.42 824.13 827.98 826.04 848.26
  Q 827.09 859.44 826.29 882.94
  Q 826.27 883.50 825.71 883.50
  L 820.56 883.50
  Q 819.97 883.50 819.97 882.91
  Q 820.09 869.65 819.90 856.45
  Q 819.80 848.90 818.27 845.27
  C 813.84 834.74 800.98 836.19 794.36 843.24
  Q 789.61 848.29 789.33 856.06
  Q 788.89 868.11 789.34 882.89
  Q 789.36 883.50 788.75 883.50
  L 783.25 883.50
  Q 782.50 883.50 782.50 882.75
  L 782.50 833.43
  A 0.50 0.49 0.6 0 1 783.01 832.94
  L 788.32 833.03
  A 1.00 0.99 2.0 0 1 789.30 834.07
  L 789.02 841.01
  Q 788.98 841.86 789.50 841.18
  Z"
/>
<path fill="#1b75bc" d="
  M 870.53 888.79
  C 875.47 888.05 878.39 892.42 876.11 896.66
  C 873.25 901.99 863.86 901.59 859.08 899.77
  Q 858.55 899.57 858.67 899.02
  L 859.11 896.96
  A 0.68 0.67 -76.5 0 1 859.94 896.45
  C 862.76 897.21 869.83 898.37 871.19 894.62
  A 0.99 0.98 -57.8 0 0 870.96 893.59
  Q 868.86 891.44 865.98 892.78
  A 0.53 0.53 0.0 0 1 865.23 892.23
  L 866.10 885.65
  A 0.73 0.72 -83.5 0 0 865.45 884.83
  C 853.84 883.83 844.29 874.99 842.11 863.80
  C 838.42 844.78 854.06 830.03 872.70 831.70
  C 880.19 832.37 888.94 836.11 892.73 843.09
  A 0.55 0.55 0.0 0 1 892.53 843.82
  L 888.24 846.46
  Q 887.75 846.76 887.37 846.32
  C 874.04 830.39 844.85 838.79 848.47 861.32
  C 851.53 880.33 875.59 884.82 887.34 870.53
  A 0.64 0.63 36.4 0 1 888.18 870.41
  L 892.52 873.32
  A 0.66 0.66 0.0 0 1 892.66 874.28
  Q 884.47 884.44 871.17 884.96
  A 0.90 0.89 -87.3 0 0 870.32 885.74
  L 869.98 888.25
  Q 869.90 888.88 870.53 888.79
  Z"
/>
<path fill="#1b75bc" d="
  M 944.65 875.74
  C 942.20 878.21 939.65 880.76 936.69 882.28
  C 912.04 894.97 888.14 863.86 904.84 842.07
  C 914.84 829.03 934.12 827.45 944.56 840.99
  A 0.39 0.38 26.3 0 0 945.25 840.76
  L 945.25 833.82
  A 0.86 0.86 0.0 0 1 946.12 832.96
  L 951.26 833.02
  Q 951.75 833.02 951.75 833.51
  L 951.75 882.87
  Q 951.75 883.50 951.12 883.50
  L 946.00 883.50
  Q 945.25 883.50 945.25 882.75
  L 945.25 875.99
  Q 945.25 875.14 944.65 875.74
  Z
  M 926.3035 878.9462
  A 20.50 19.85 88.9 0 0 945.7563 858.0689
  A 20.50 19.85 88.9 0 0 925.5165 837.9538
  A 20.50 19.85 88.9 0 0 906.0637 858.8311
  A 20.50 19.85 88.9 0 0 926.3035 878.9462
  Z"
/>
<path fill="#1b75bc" d="
  M 998.84 862.45
  C 990.07 857.67 980.41 852.68 983.23 841.47
  C 986.55 828.29 1002.96 829.81 1010.34 838.19
  Q 1010.74 838.64 1010.31 839.06
  L 1006.94 842.43
  A 0.72 0.72 0.0 0 1 1005.93 842.44
  C 1002.24 838.87 996.09 835.70 991.42 839.53
  Q 987.97 842.37 989.36 846.98
  C 990.97 852.33 1004.00 856.56 1007.89 861.32
  C 1012.95 867.51 1011.16 877.88 1004.68 882.31
  C 997.10 887.49 987.31 885.06 981.04 878.68
  A 1.00 1.00 0.0 0 1 980.99 877.34
  L 984.05 873.73
  A 0.69 0.68 -48.1 0 1 985.04 873.67
  C 989.43 877.73 994.93 880.87 1000.46 877.19
  C 1007.10 872.78 1005.08 865.84 998.84 862.45
  Z"
/>
<path fill="#1b75bc" d="
  M 1071.39 841.02
  A 0.26 0.26 0.0 0 0 1071.86 841.18
  C 1084.17 825.07 1108.13 829.47 1108.58 851.97
  Q 1108.89 867.35 1108.72 882.80
  Q 1108.71 883.53 1107.99 883.52
  L 1102.98 883.46
  A 0.71 0.70 0.4 0 1 1102.28 882.76
  Q 1102.19 869.84 1102.24 857.01
  C 1102.25 852.38 1102.13 846.89 1099.54 843.11
  C 1094.74 836.12 1085.85 836.39 1079.43 840.93
  Q 1071.85 846.28 1071.58 856.84
  Q 1071.40 863.43 1071.53 882.91
  Q 1071.54 883.50 1070.94 883.50
  L 1065.50 883.50
  Q 1064.75 883.50 1064.75 882.75
  L 1064.75 833.50
  Q 1064.75 833.00 1065.25 833.00
  L 1071.03 833.00
  Q 1071.56 833.00 1071.55 833.53
  L 1071.39 841.02
  Z"
/>
<path fill="#1b75bc" d="
  M 1159.21 859.57
  C 1160.22 877.44 1179.51 885.45 1192.64 873.15
  Q 1194.14 871.74 1196.88 867.34
  Q 1197.15 866.89 1197.62 867.14
  L 1202.20 869.54
  A 0.66 0.66 0.0 0 1 1202.47 870.44
  Q 1196.40 881.62 1185.42 884.30
  C 1160.10 890.49 1143.11 862.41 1157.68 841.94
  Q 1165.88 830.42 1181.24 831.76
  C 1195.31 832.98 1204.09 844.48 1204.33 858.15
  A 0.84 0.84 0.0 0 1 1203.49 859.00
  L 1159.75 859.00
  Q 1159.18 859.00 1159.21 859.57
  Z
  M 1196.99 852.65
  C 1194.49 841.21 1182.46 835.51 1171.95 839.06
  C 1165.51 841.23 1161.75 846.49 1159.96 852.83
  Q 1159.84 853.25 1160.28 853.25
  L 1196.51 853.25
  A 0.50 0.49 83.8 0 0 1196.99 852.65
  Z"
/>
<path fill="#1b75bc" d="
  M 1221.19 839.15
  C 1225.51 833.08 1229.15 829.26 1237.16 833.09
  Q 1237.71 833.35 1237.39 833.86
  L 1234.60 838.33
  Q 1234.29 838.81 1233.74 838.63
  C 1224.34 835.53 1220.73 850.60 1220.72 856.95
  Q 1220.70 869.95 1220.75 882.97
  A 0.52 0.52 0.0 0 1 1220.23 883.50
  L 1214.38 883.50
  Q 1213.75 883.50 1213.75 882.87
  L 1213.75 833.47
  A 0.53 0.53 0.0 0 1 1214.28 832.94
  L 1220.18 833.03
  Q 1220.83 833.03 1220.80 833.68
  L 1220.60 838.95
  A 0.33 0.32 63.7 0 0 1221.19 839.15
  Z"
/>
<path fill="#1b75bc" d="
  M 1252.06 840.98
  C 1253.41 839.57 1254.83 837.89 1256.12 836.82
  C 1263.28 830.87 1273.93 829.58 1281.53 835.26
  C 1287.40 839.64 1288.66 846.68 1288.80 854.06
  Q 1289.07 868.52 1289.00 882.99
  Q 1289.00 883.50 1288.49 883.50
  L 1283.03 883.50
  A 0.53 0.53 0.0 0 1 1282.50 882.97
  Q 1282.52 867.59 1282.09 852.28
  C 1281.56 833.22 1260.76 833.97 1253.81 847.60
  Q 1252.23 850.71 1251.91 856.20
  Q 1251.13 869.50 1251.62 882.85
  Q 1251.64 883.50 1250.99 883.50
  L 1245.50 883.50
  Q 1244.75 883.50 1244.75 882.75
  L 1244.75 833.75
  Q 1244.75 833.00 1245.50 833.00
  L 1250.87 833.00
  Q 1251.50 833.00 1251.50 833.62
  L 1251.50 840.76
  Q 1251.50 841.58 1252.06 840.98
  Z"
/>
<path fill="#1b75bc" d="
  M 1346.49 840.92
  L 1346.50 833.57
  A 0.62 0.61 -0.0 0 1 1347.12 832.96
  L 1352.51 833.02
  Q 1353.00 833.02 1353.00 833.51
  L 1353.00 882.87
  Q 1353.00 883.50 1352.37 883.50
  L 1347.13 883.50
  Q 1346.50 883.50 1346.50 882.88
  L 1346.49 875.62
  A 0.16 0.16 0.0 0 0 1346.21 875.51
  Q 1334.01 888.44 1318.94 883.82
  C 1288.87 874.60 1298.03 828.02 1329.76 831.78
  Q 1339.48 832.94 1345.80 841.16
  A 0.39 0.38 -63.9 0 0 1346.49 840.92
  Z
  M 1327.2446 878.9389
  A 20.49 19.84 89.4 0 0 1346.8689 858.2422
  A 20.49 19.84 89.4 0 0 1326.8154 837.9611
  A 20.49 19.84 89.4 0 0 1307.1911 858.6578
  A 20.49 19.84 89.4 0 0 1327.2446 878.9389
  Z"
/>
<path fill="#1b75bc" d="
  M 1442.8910 885.1667
  A 26.80 26.31 89.1 0 1 1416.1632 858.7833
  A 26.80 26.31 89.1 0 1 1442.0490 831.5733
  A 26.80 26.31 89.1 0 1 1468.7768 857.9567
  A 26.80 26.31 89.1 0 1 1442.8910 885.1667
  Z
  M 1441.6737 878.8436
  A 20.34 19.51 92.3 0 0 1461.9843 859.3030
  A 20.34 19.51 92.3 0 0 1443.3063 838.1964
  A 20.34 19.51 92.3 0 0 1422.9957 857.7370
  A 20.34 19.51 92.3 0 0 1441.6737 878.8436
  Z"
/>
<path fill="#1b75bc" d="
  M 1487.74 840.97
  Q 1489.33 839.55 1490.83 838.10
  Q 1499.56 829.59 1510.48 832.05
  C 1522.00 834.64 1524.65 845.12 1524.71 855.76
  Q 1524.80 869.29 1524.73 882.82
  Q 1524.73 883.50 1524.05 883.50
  L 1518.76 883.50
  Q 1518.16 883.50 1518.17 882.90
  Q 1518.49 868.40 1517.99 853.97
  Q 1517.76 847.48 1516.14 844.30
  C 1512.00 836.13 1502.09 836.21 1495.29 840.91
  Q 1487.47 846.31 1487.51 856.76
  Q 1487.55 869.87 1487.44 883.00
  Q 1487.44 883.50 1486.94 883.50
  L 1481.50 883.50
  Q 1480.75 883.50 1480.75 882.75
  L 1480.75 833.50
  Q 1480.75 833.00 1481.25 833.00
  L 1486.80 833.00
  Q 1487.34 833.00 1487.33 833.54
  L 1487.21 840.73
  Q 1487.20 841.44 1487.74 840.97
  Z"
/>
<path fill="#1b75bc" d="
  M 1581.68 875.75
  C 1579.73 877.53 1577.73 879.70 1575.69 880.99
  C 1558.75 891.72 1538.43 879.98 1536.32 860.95
  C 1533.55 835.98 1566.34 820.03 1581.66 841.27
  A 0.39 0.39 0.0 0 0 1582.36 841.04
  L 1582.21 833.65
  Q 1582.19 833.00 1582.85 833.00
  L 1588.12 833.00
  Q 1588.74 833.00 1588.75 833.62
  L 1588.76 882.64
  A 0.89 0.89 0.0 0 1 1587.85 883.53
  L 1582.83 883.43
  A 0.59 0.59 0.0 0 1 1582.25 882.84
  L 1582.25 876.00
  Q 1582.25 875.23 1581.68 875.75
  Z
  M 1563.4736 878.9299
  A 20.49 19.85 88.2 0 0 1582.6702 857.8265
  A 20.49 19.85 88.2 0 0 1562.1864 837.9701
  A 20.49 19.85 88.2 0 0 1542.9898 859.0735
  A 20.49 19.85 88.2 0 0 1563.4736 878.9299
  Z"
/>
<path fill="#1b75bc" d="
  M 1715.33 859.46
  C 1716.14 881.34 1743.34 886.04 1752.90 867.31
  Q 1753.17 866.79 1753.68 867.07
  L 1758.48 869.70
  Q 1758.94 869.95 1758.68 870.40
  Q 1749.27 886.48 1732.65 884.94
  C 1719.21 883.70 1709.42 873.97 1708.54 860.45
  C 1706.55 830.05 1747.16 820.05 1758.66 848.07
  C 1759.88 851.05 1760.25 854.78 1760.62 858.06
  A 0.85 0.85 0.0 0 1 1759.78 859.00
  L 1715.78 859.00
  Q 1715.31 859.00 1715.33 859.46
  Z
  M 1753.11 852.45
  C 1749.98 840.66 1737.77 834.91 1726.89 839.49
  C 1721.20 841.89 1717.80 846.95 1716.10 852.72
  Q 1715.94 853.25 1716.50 853.25
  L 1752.50 853.25
  A 0.63 0.63 0.0 0 0 1753.11 852.45
  Z"
/>
<path fill="#f04846" d="
  M 1860.7606 885.1685
  A 26.80 26.30 89.4 0 1 1834.1814 858.6454
  A 26.80 26.30 89.4 0 1 1860.1994 831.5715
  A 26.80 26.30 89.4 0 1 1886.7786 858.0946
  A 26.80 26.30 89.4 0 1 1860.7606 885.1685
  Z
  M 1859.8001 878.8376
  A 20.34 19.49 92.0 0 0 1879.9881 859.1902
  A 20.34 19.49 92.0 0 0 1861.2199 838.1824
  A 20.34 19.49 92.0 0 0 1841.0319 857.8298
  A 20.34 19.49 92.0 0 0 1859.8001 878.8376
  Z"
/>
<path fill="#f04846" d="
  M 2021.0268 885.1600
  A 26.79 26.31 89.9 0 1 1994.6700 858.4159
  A 26.79 26.31 89.9 0 1 2020.9332 831.5800
  A 26.79 26.31 89.9 0 1 2047.2900 858.3241
  A 26.79 26.31 89.9 0 1 2021.0268 885.1600
  Z
  M 2020.2343 878.8463
  A 20.35 19.51 92.1 0 0 2040.4769 859.2249
  A 20.35 19.51 92.1 0 0 2021.7257 838.1737
  A 20.35 19.51 92.1 0 0 2001.4831 857.7951
  A 20.35 19.51 92.1 0 0 2020.2343 878.8463
  Z"
/>
<path fill="#1b75bc" d="
  M 419.38 870.82
  L 435.67 833.20
  A 0.33 0.33 0.0 0 1 435.98 833.00
  L 442.40 833.00
  A 0.33 0.33 0.0 0 1 442.70 833.46
  L 412.94 901.55
  A 0.33 0.33 0.0 0 1 412.63 901.75
  L 406.29 901.75
  A 0.33 0.33 0.0 0 1 405.99 901.29
  L 415.43 879.69
  A 0.33 0.33 0.0 0 0 415.43 879.43
  L 395.00 833.46
  A 0.33 0.33 0.0 0 1 395.30 833.00
  L 401.66 833.00
  A 0.33 0.33 0.0 0 1 401.96 833.20
  L 418.77 870.83
  A 0.33 0.33 0.0 0 0 419.38 870.82
  Z"
/>
<rect fill="#1b75bc" x="965.25" y="833.00" width="7.00" height="50.50" rx="0.65"/>
<rect fill="#1b75bc" x="1044.76" y="832.99" width="6.74" height="50.50" rx="0.43"/>
<rect fill="#1b75bc" x="1398.51" y="833.00" width="6.74" height="50.50" rx="0.46"/>
<path fill="#f04846" d="
  M 1981.95 833.00
  L 1988.38 833.00
  A 0.33 0.33 0.0 0 1 1988.68 833.46
  L 1958.94 901.55
  A 0.33 0.33 0.0 0 1 1958.63 901.75
  L 1952.27 901.75
  A 0.33 0.33 0.0 0 1 1951.97 901.29
  L 1961.40 879.68
  A 0.33 0.33 0.0 0 0 1961.40 879.42
  L 1941.00 833.46
  A 0.33 0.33 0.0 0 1 1941.30 833.00
  L 1947.66 833.00
  A 0.33 0.33 0.0 0 1 1947.96 833.20
  L 1964.78 870.85
  A 0.33 0.33 0.0 0 0 1965.39 870.85
  L 1981.64 833.20
  A 0.33 0.33 0.0 0 1 1981.95 833.00
  Z"
/>
</svg>
