<?xml version="1.0" encoding="UTF-8" standalone="no"?>
<svg
   version="1.1"
   viewBox="0 0 954.73169 209.51839"
   id="svg66"
   sodipodi:docname="magistere.svg"
   width="954.73169"
   height="209.51839"
   inkscape:version="1.2.2 (732a01da63, 2022-12-09)"
   xmlns:inkscape="http://www.inkscape.org/namespaces/inkscape"
   xmlns:sodipodi="http://sodipodi.sourceforge.net/DTD/sodipodi-0.dtd"
   xmlns="http://www.w3.org/2000/svg"
   xmlns:svg="http://www.w3.org/2000/svg">
  <defs
     id="defs70" />
  <sodipodi:namedview
     id="namedview68"
     pagecolor="#ffffff"
     bordercolor="#000000"
     borderopacity="0.25"
     inkscape:showpageshadow="2"
     inkscape:pageopacity="0.0"
     inkscape:pagecheckerboard="0"
     inkscape:deskcolor="#d1d1d1"
     showgrid="false"
     inkscape:zoom="0.50416667"
     inkscape:cx="510.7438"
     inkscape:cy="-589.09091"
     inkscape:window-width="1920"
     inkscape:window-height="1017"
     inkscape:window-x="3832"
     inkscape:window-y="-8"
     inkscape:window-maximized="1"
     inkscape:current-layer="svg66" />
  <g
     id="g364"
     transform="translate(-119.62852,-280.05628)">
    <path
       fill="#0195db"
       d="m 817.95,303.57 c -7.06,-6.71 -5.79,-17.25 2.04,-22.04 5.19,-3.18 9.49,-0.52 14.75,1.49 q 9.78,3.74 19.52,7.62 4.7,1.87 7.67,4.18 c 7.44,5.77 1.63,21.03 -7.13,22.27 q -2.71,0.39 -7.74,-1.55 -13.72,-5.29 -26.88,-10.54 -1.26,-0.5 -2.23,-1.43 z"
       id="path36" />
    <circle
       fill="#0195db"
       cx="605.76001"
       cy="301.20001"
       r="17.07"
       id="circle38" />
    <path
       fill="#0195db"
       d="m 385.19,404 q -0.03,-0.88 -0.62,-0.22 c -11.36,12.69 -29.76,13.79 -42.01,1.16 -25.35,-26.17 -5.74,-76.1 31.66,-74.89 9.6,0.31 17.31,4.09 22.63,11.87 q 0.88,1.28 0.82,-0.27 -0.38,-10.31 8.02,-11.5 c 7.54,-1.06 15.47,0.23 13.2,10.61 q -4.7,21.51 -8.97,41.13 -0.56,2.57 -0.69,5.2 c -0.34,6.82 6.37,5.98 10.5,3.69 7.64,-4.25 13.3,-13.56 14.54,-21.81 q 4.23,-28.01 -17.33,-44.43 c -23.43,-17.84 -58.62,-17.42 -80.43,2.62 -34.53,31.72 -19.63,88.83 25.69,100.09 20.33,5.05 48.95,-0.09 65.44,-13.43 q 3.49,-2.82 5.21,-3.34 c 6.05,-1.82 11.31,3.88 9.4,9.76 -4.42,13.62 -24.63,22.41 -37.82,25.19 q -14.5,3.06 -29.21,2.73 C 335,447.27 300.7,416.21 298.48,375.25 c -2.81,-51.72 42.44,-90.34 92.97,-81.42 22.45,3.96 45.2,18.29 55.8,38.67 19.86,38.17 -4.12,74.39 -43.78,81.02 -7.1,1.19 -17.87,0.04 -18.28,-9.52 z m -22.3103,-12.7571 a 20.82,17.31 112.3 0 0 23.9157,-12.6945 20.82,17.31 112.3 0 0 -8.1151,-25.8313 20.82,17.31 112.3 0 0 -23.9157,12.6945 20.82,17.31 112.3 0 0 8.1151,25.8313 z"
       id="path40" />
    <path
       fill="#0195db"
       d="m 734.94,357.81 c -4.2,0 -9.12,0.38 -12.77,-1.51 -7.43,-3.85 -8.71,-13.56 -4.24,-19.94 4,-5.71 10.56,-5.68 17.03,-5.22 a 0.5,0.5 1.6 0 0 0.54,-0.51 c -0.04,-7.72 -1.69,-22.01 2.94,-28.41 6.94,-9.58 22.3,-8.03 26.38,3.22 2.27,6.25 1.24,17.56 1.16,24.72 a 0.83,0.83 -89.7 0 0 0.83,0.84 c 9.78,-0.08 22.44,-0.59 22.54,12.83 0.1,14.67 -12.39,14 -22.85,13.97 a 0.49,0.49 0 0 0 -0.49,0.49 q -0.01,33.46 -0.02,66.89 0,6.81 -1.36,10.29 c -5.23,13.33 -24.28,12.29 -28.37,-1.52 q -0.77,-2.61 -0.76,-8.97 0.04,-33.34 -0.06,-66.68 a 0.5,0.49 0 0 0 -0.5,-0.49 z"
       id="path42" />
    <path
       fill="#0195db"
       d="m 149.45,340.37 q 6.62,-5.45 8.1,-6.31 c 17.29,-10.03 38.6,-6.27 51.13,9.37 a 0.44,0.44 -42.2 0 0 0.66,0.03 c 26.89,-27.26 73.74,-16.46 73.77,26.29 q 0.02,47.99 -0.14,59.25 c -0.32,21.43 -30.72,21.16 -30.59,-1 q 0.25,-41.02 0.03,-54.56 c -0.34,-21.81 -28.4,-27.42 -34.67,-6.35 q -0.9,3.02 -0.93,10.3 -0.13,25.17 -0.07,50.37 c 0.02,5.2 -1.68,10.27 -5.61,13.73 -7.09,6.22 -19.53,3.63 -23.33,-5.05 q -1.49,-3.4 -1.52,-11.25 -0.08,-24.71 -0.01,-49.45 c 0.03,-10.06 -4.23,-19.52 -14.95,-21.5 -12.89,-2.38 -20.76,7.48 -20.83,19.51 q -0.15,26.42 -0.27,52.83 -0.03,6.24 -1.41,9.46 c -4.51,10.59 -20.2,12.17 -26.26,2.15 q -2.92,-4.81 -2.92,-11.44 -0.02,-39.24 0.23,-78.48 c 0.07,-10.83 5.15,-19.48 17.37,-18.31 6.26,0.6 10.43,4.19 11.74,10.24 a 0.3,0.3 -25.5 0 0 0.48,0.17 z"
       id="path44" />
    <path
       fill="#0195db"
       d="m 542.31,432.31 c -14.73,19.9 -47.04,17.32 -62.4,0.27 -24.23,-26.91 -19.3,-84.19 16.51,-100.15 15.46,-6.88 35.49,-5.22 46.25,9.17 q 0.33,0.45 0.51,-0.08 c 6.55,-19.07 30.27,-14.2 30.29,5.75 q 0.06,45.86 0.02,91.73 0,5.28 -2.17,13.42 c -10.6,39.72 -56.93,43.28 -88.9,30.67 -8.37,-3.31 -19.69,-10.96 -13.89,-21.83 7.01,-13.15 19.19,-6.06 29.88,-1.9 17.92,6.97 43.75,5.19 44.37,-20.13 q 0.08,-3.24 0.36,-6.49 a 0.71,0.43 -82.1 0 0 -0.3,-0.69 q -0.27,-0.08 -0.53,0.26 z m -43.59,-28.75 c 3.96,10.16 14.09,16.49 24.74,14.2 23.57,-5.07 24.6,-42.43 9.64,-55.94 -9.05,-8.17 -24.31,-6.61 -31.09,3.74 q -11.35,17.33 -3.29,38 z"
       id="path46" />
    <path
       fill="#0195db"
       d="m 669.36,356.52 c -4.98,2.41 -6.43,8.03 -2.03,11.89 q 3.2,2.81 6.48,4.04 c 13,4.88 23.79,8.55 33.21,16.04 15.11,12.04 13,34.11 -0.43,46.6 -18.19,16.91 -53.64,13.22 -70.96,-2.91 -4.99,-4.65 -4.9,-12.15 -1.13,-17.52 5.07,-7.23 13.75,-6.51 21.12,-2.49 8.46,4.61 15.81,8.72 25.86,6.76 9.3,-1.81 8.51,-11.73 0.78,-15.22 -18.7,-8.47 -47.57,-14.18 -46.79,-40.63 0.35,-11.92 6.03,-21.94 16.26,-28.09 16.63,-10 38.34,-7.78 54.5,1.51 10.33,5.94 11.77,19.59 1.22,26.45 -9.2,5.99 -25.26,-12.64 -38.09,-6.43 z"
       id="path48" />
    <path
       fill="#0195db"
       d="M 820.84,442.77 C 772.38,425.41 773.06,352.2 819,332.62 c 36.39,-15.51 76.16,15.21 74.81,53.12 -0.36,10.39 -6.98,11.75 -16.21,11.75 q -30.66,0.01 -61.31,0.03 a 0.43,0.42 -4.6 0 0 -0.42,0.49 c 2.95,18.45 22.46,24.55 38.66,19.78 9.55,-2.8 25.71,-18.54 34.55,-4.63 6.28,9.88 -1.88,18.02 -10.1,22.76 -17.2,9.9 -39.28,13.61 -58.14,6.85 z m 42.33,-65.96 c -3.21,-30.33 -44.01,-30.37 -47.92,-0.13 a 0.51,0.5 -86.5 0 0 0.5,0.57 h 47 a 0.42,0.4 -3 0 0 0.42,-0.44 z"
       id="path50" />
    <path
       fill="#0195db"
       d="m 996.2,398.24 c 3.69,19.77 25.57,25.24 42.24,18.17 9.59,-4.07 24.34,-17.24 32.06,-1.37 3.67,7.56 -1.79,14.93 -8.36,19.14 -18.62,11.94 -43.97,16.22 -64.59,7.13 -36.92,-16.29 -42.59,-67.15 -16.83,-95.58 16.24,-17.92 42.61,-22.47 63.75,-10.81 16.96,9.36 27.69,26.5 29.75,45.88 0.79,7.42 -1.62,16.65 -10.78,16.67 q -33.44,0.06 -66.61,0.02 a 0.64,0.63 -5.2 0 0 -0.63,0.75 z m 47.27,-21.7 c -3.26,-30.11 -44.1,-29.93 -47.84,0.2 a 0.46,0.38 -86.1 0 0 0.37,0.51 h 46.75 a 0.72,0.64 -2.9 0 0 0.72,-0.71 z"
       id="path52" />
    <rect
       fill="#0195db"
       x="590.53998"
       y="329.84"
       width="30.4"
       height="114.88"
       rx="14.78"
       id="rect54" />
    <path
       fill="#0195db"
       d="m 935.16,342.08 c 6.37,-6.72 10.05,-11.84 19.82,-12.27 9.34,-0.41 15.5,4.85 16.46,14.2 0.84,8.14 -2.88,10.64 -10.13,13.64 -8.12,3.36 -20.96,7.54 -24.87,16.68 q -1.45,3.39 -1.45,11.02 0.01,20.97 -0.01,41.9 c -0.03,23.59 -30.41,23.65 -30.45,0.23 q -0.06,-39.59 -0.02,-79.2 0,-7.15 1.46,-10.34 c 5.28,-11.58 29.42,-11.57 28.87,3.99 q -0.02,0.5 0.32,0.15 z"
       id="path56" />
  </g>
</svg>
