<?xml version="1.0" encoding="UTF-8" standalone="no"?>
<svg
   viewBox="0 0 504.08756 170.21768"
   version="1.1"
   id="svg111"
   sodipodi:docname="men.svg"
   width="504.08755"
   height="170.21768"
   inkscape:version="1.2.2 (732a01da63, 2022-12-09)"
   xmlns:inkscape="http://www.inkscape.org/namespaces/inkscape"
   xmlns:sodipodi="http://sodipodi.sourceforge.net/DTD/sodipodi-0.dtd"
   xmlns="http://www.w3.org/2000/svg"
   xmlns:svg="http://www.w3.org/2000/svg">
  <sodipodi:namedview
     id="namedview113"
     pagecolor="#ffffff"
     bordercolor="#000000"
     borderopacity="0.25"
     inkscape:showpageshadow="2"
     inkscape:pageopacity="0.0"
     inkscape:pagecheckerboard="0"
     inkscape:deskcolor="#d1d1d1"
     showgrid="false"
     inkscape:zoom="2.2024692"
     inkscape:cx="151.875"
     inkscape:cy="43.587443"
     inkscape:window-width="1920"
     inkscape:window-height="1017"
     inkscape:window-x="3832"
     inkscape:window-y="-8"
     inkscape:window-maximized="1"
     inkscape:current-layer="svg111" />
  <defs
     id="defs4">
    <style
       id="style2">.cls-1{fill:#fff;}.cls-2{fill:#000091;}.cls-3{fill:#e1000f;}.cls-4{fill:gray;}</style>
  </defs>
  <g
     id="g503"
     transform="translate(-43.02319,-30.56753)">
    <path
       class="cls-2"
       d="m 77.587,72.4919 c 0.097,-0.079 0.187,-0.146 0.285,-0.218 l 0.036,0.012 a 1.45543,1.45543 0 0 1 -0.291,0.187 0.10354,0.10354 0 0 1 -0.03,0.019 m 14.1591,-4.72171 c -0.036,0.024 -0.066,0.048 -0.103,0.072 0.055,-0.006 0.103,-0.018 0.103,-0.072 m -4.47591,4.936 a 18.87782,18.87782 0 0 1 -3.721,2.124 32.37039,32.37039 0 0 0 -4.715,2.433 h -35.811 v -38.631 h 50.431 a 19.36339,19.36339 0 0 0 -1.936,0.738 6.05537,6.05537 0 0 0 -2.257,1.464 6.41568,6.41568 0 0 0 -1.386,2.33 6.24219,6.24219 0 0 0 -2.045,2.342 c -0.654,1.241 -1.61,2.336 -1.459,3.721 0.14,1.168 0.436,2.264 0.654,3.504 a 8.31129,8.31129 0 0 0 0.29,1.241 c 0.152,0.435 0,0.95 0.218,1.313 0.151,0.217 0.079,0.514 0.369,0.659 v 0.291 c 0.079,0.073 0.079,0.145 0.218,0.145 v 0.291 a 11.23715,11.23715 0 0 1 1.676,2.196 c 0.152,0.436 -0.726,0.218 -1.089,0.067 a 8.16537,8.16537 0 0 1 -1.749,-1.458 0.24654,0.24654 0 0 0 -0.078,0.145 c 0.296,0.514 1.385,1.168 0.804,1.531 -0.29,0.151 -0.659,-0.218 -0.95,0.078 -0.072,0.145 0,0.29 0,0.436 -0.441,-0.291 -0.877,-0.146 -1.313,-0.291 -0.29,-0.072 -0.369,-0.659 -0.726,-0.659 a 18.79809,18.79809 0 0 0 -2.777,-0.509 13.90206,13.90206 0 0 0 -3.873,-0.145 4.20706,4.20706 0 0 0 -2.772,1.822 v 0.224 c 0.509,0.066 0.733,-0.369 1.168,-0.515 0.726,-0.145 1.386,-0.441 2.118,-0.587 a 12.08849,12.08849 0 0 1 3.135,-0.435 2.50071,2.50071 0 0 1 0.738,0 10.806,10.806 0 0 0 -3.728,0.732 12.35407,12.35407 0 0 0 -2.559,0.726 16.44317,16.44317 0 0 1 5.621,0.805 8.34,8.34 0 0 1 1.828,0.877 5.09689,5.09689 0 0 0 0.732,0.581 1.46943,1.46943 0 0 0 1.241,0.079 h 0.369 a 6.01544,6.01544 0 0 0 2.989,-1.392 c 0,0.073 0.072,0.073 0.145,0.073 a 5.15856,5.15856 0 0 1 -0.653,1.755 c 0,0.072 -0.079,0.217 0.072,0.29 h 0.146 c -0.079,0 -0.146,0 -0.146,0.072 0,0.146 0.218,0 0.285,0.146 a 1.43183,1.43183 0 0 0 -0.944,0.442 c 0,0.072 0.151,0.072 0.218,0.072 -0.146,0.146 -0.364,0.073 -0.436,0.218 a 0.24937,0.24937 0 0 0 0.139,0.073 c -0.067,0 -0.139,0 -0.139,0.072 v 0.218 c -0.218,0 -0.297,0.145 -0.436,0.224 0.291,0.218 0.508,0 0.805,0 -0.805,0.29 -1.47,0.726 -2.263,0.944 -0.151,0 0,0.224 -0.151,0.224 0.218,0.139 0.369,-0.079 0.587,-0.079 -1.023,0.587 -2.046,1.096 -3.147,1.755 a 0.513,0.513 0 0 0 -0.139,0.29 h -0.297 c -0.139,0.073 -0.072,0.297 -0.218,0.436 0.364,0.224 0.805,-0.29 1.023,0 0.073,0 -0.145,0.079 -0.29,0.079 -0.079,0 -0.079,0.145 -0.146,0.145 h -0.223 c -0.146,0.145 -0.285,0.218 -0.285,0.436 -0.151,0 -0.296,0 -0.369,0.145 1.61,-0.218 3.285,-0.073 4.817,-0.871 a 11.31735,11.31735 0 0 0 3.213,-2.415 0.28225,0.28225 0 0 1 0.072,0.151 3.20092,3.20092 0 0 1 -1.24,1.677 c -0.436,0.217 -0.726,0.587 -1.095,0.732 q -0.327,0.21749 -0.654,0.436 c -2.704,0.949 -5.918,0.508 -8.254,2.335 0,-0.072 -0.073,-0.072 -0.145,-0.072 -0.145,0.145 -0.369,0.218 -0.435,0.369 a 0.064,0.064 0 0 0 0.018,0.048 0.18114,0.18114 0 0 0 0.181,0.067 0.60424,0.60424 0 0 1 0.121,-0.067 4.92787,4.92787 0 0 1 1.162,-0.568 0.913,0.913 0 0 0 -0.121,0.103 c -0.284,0.157 -0.557,0.326 -0.835,0.465 h 0.018 a 1.644,1.644 0 0 0 -0.496,0.436 0.09011,0.09011 0 0 1 0.048,0.133 c -0.024,0.043 -0.048,0.085 -0.072,0.133 a 0.63483,0.63483 0 0 0 -0.049,0.079 c -0.03,0.054 -0.06,0.103 -0.096,0.157 -0.013,0.024 -0.025,0.042 -0.037,0.067 -0.018,0.03 -0.03,0.06 -0.048,0.091 a 0.21406,0.21406 0 0 1 -0.031,0.054 0.35927,0.35927 0 0 1 -0.036,0.061 0.5863,0.5863 0 0 1 -0.03,0.066 c -0.006,0.006 -0.012,0.012 -0.012,0.018 -0.006,0.006 -0.006,0.012 -0.013,0.018 -0.005,0.006 -0.005,0.013 -0.011,0.018 a 0.60387,0.60387 0 0 0 0.078,0.025 0.42035,0.42035 0 0 0 0.109,0.012 c 0.266,0.006 0.406,-0.315 0.581,-0.472 a 2.82406,2.82406 0 0 1 0.345,-0.242 c 0.018,0.024 0.036,0.042 0.048,0.06 -0.005,0.018 -0.012,0.043 -0.018,0.067 -0.042,0.061 -0.078,0.133 -0.127,0.193 -0.036,0.055 0.037,0.097 0.085,0.079 v 0.012 a 6.53941,6.53941 0 0 0 -1.229,0.914 0.11,0.11 0 0 1 0.097,0.036 0.06687,0.06687 0 0 1 0.006,0.097 c -0.103,0.145 -0.212,0.291 -0.314,0.442 -0.067,0.115 -0.14,0.224 -0.212,0.339 -0.061,0.102 -0.121,0.206 -0.188,0.309 -0.012,0.023 -0.03,0.048 -0.042,0.072 a 0.00588,0.00588 0 0 0 -0.006,0.006 0.34851,0.34851 0 0 0 0.224,-0.03 c 0.399,-0.369 0.781,-0.751 1.18,-1.126 a 0.21351,0.21351 0 0 0 0.109,-0.03 7.46279,7.46279 0 0 1 1.21,-0.956 1.62522,1.62522 0 0 0 0.502,-0.43 l 0.109,-0.127 a 0.21138,0.21138 0 0 1 0.048,-0.03 6.25551,6.25551 0 0 1 1.356,-0.551 c 0.03,-0.006 0.055,-0.012 0.079,-0.018 a 24.04359,24.04359 0 0 1 2.662,-0.472 7.73121,7.73121 0 0 0 1.816,-0.073 c 0.46,-0.103 0.883,-0.369 1.319,-0.508 v 0.139 c 1.095,-0.435 1.9,-1.386 2.989,-1.748 0.079,0 0.218,0.145 0.369,0.072 a 2.96144,2.96144 0 0 1 2.336,-1.095 c 0,0.072 0,0.145 0.073,0.145 h 0.048 l -0.781,0.587 c -0.072,0.073 0,0.145 0.079,0.145 0.357,-0.145 0.581,-0.435 0.944,-0.587 -0.073,0.079 -0.073,0.218 -0.139,0.297 a 6.85383,6.85383 0 0 0 -0.799,0.635 24.18122,24.18122 0 0 0 -2.438,2.481 h 0.011 c -0.417,0.448 -0.835,0.896 -1.252,1.307 m -11.225,-5.228 c 0.514,-0.218 1.101,0 1.537,-0.436 -0.151,-0.151 -0.369,-0.078 -0.514,-0.296 -0.146,-0.073 -0.364,0.073 -0.509,0.145 -0.296,0.151 -0.805,0.151 -0.877,0.514 -0.073,0.146 0.218,0.073 0.363,0.073 m -11.171,-1.604 a 24.67946,24.67946 0 0 1 5.628,-5.04 c 0.139,-0.073 -0.224,0.218 0.073,0.145 0.95,-0.218 1.24,-1.168 1.676,-1.894 0.587,-0.95 1.609,-1.319 2.336,-2.118 a 0.26618,0.26618 0 0 1 -0.073,0.218 0.26846,0.26846 0 0 0 0.218,0.072 c 0.296,-0.217 0.659,-0.145 0.877,-0.435 a 2.84722,2.84722 0 0 0 -1.9,-0.079 14.31256,14.31256 0 0 0 -4.091,3.213 9.87545,9.87545 0 0 1 -2.48,2.045 22.20182,22.20182 0 0 1 -2.33,3.722 0.26253,0.26253 0 0 0 0.066,0.151 m 6.064,-4.822 c 0,-0.073 0,-0.146 -0.079,-0.146 a 0.9097,0.9097 0 0 0 -0.581,0.66 c 0,0.073 0.079,0.073 0.145,0.073 a 0.57755,0.57755 0 0 0 0.297,-0.291 c 0.066,-0.133 0.139,-0.151 0.218,-0.296 m 3.389,10.94 c 0.06,-0.145 -0.327,-0.109 -0.388,-0.066 a 0.9769,0.9769 0 0 0 -0.157,0.163 3.25284,3.25284 0 0 1 -0.303,0.284 c -0.181,0.17 -0.351,0.352 -0.538,0.515 -0.121,0.103 0.278,0.163 0.363,0.085 0.09,-0.085 0.187,-0.17 0.278,-0.255 0.049,0 0.091,-0.012 0.109,-0.012 a 1.584,1.584 0 0 0 0.551,-0.387 c 0.06,-0.054 -0.006,-0.097 -0.097,-0.115 a 0.66363,0.66363 0 0 0 0.182,-0.212 m -1.308,-0.605 c 0.599,-0.375 1.204,-0.781 1.864,-1.138 a 1.109,1.109 0 0 0 -0.66,-0.145 c -0.363,0.073 -0.804,-0.145 -1.167,0 -0.926,0.43 -2.1,0.4 -2.796,1.078 -0.006,0 -0.006,0.005 -0.012,0.005 a 1.13373,1.13373 0 0 0 -0.157,0.182 0.18816,0.18816 0 0 1 -0.037,0.03 c -0.066,0.061 -0.139,0.109 -0.224,0.176 a 3.621,3.621 0 0 0 -0.375,0.369 c 0,0.006 0,0.006 -0.006,0.012 -0.055,0.048 -0.103,0.103 -0.164,0.151 -0.096,0.067 0.055,0.164 0.128,0.109 0.102,-0.078 0.169,-0.169 0.272,-0.236 l 0.037,-0.018 a 2.39754,2.39754 0 0 0 -0.291,0.393 0.06714,0.06714 0 0 1 0.006,0.049 c -0.006,0.036 -0.018,0.073 -0.024,0.109 a 0.02306,0.02306 0 0 1 -0.006,0.018 0.50609,0.50609 0 0 1 -0.024,0.079 0.14311,0.14311 0 0 1 -0.013,0.048 0.02206,0.02206 0 0 0 -0.006,0.018 1.42986,1.42986 0 0 1 -0.066,0.17 c -0.006,0.011 -0.006,0.018 -0.013,0.03 -0.005,0 -0.005,0.006 -0.005,0.012 l -0.013,0.012 a 1.57664,1.57664 0 0 1 -0.078,0.145 c -0.03,0.055 -0.067,0.103 -0.097,0.158 a 0.25522,0.25522 0 0 1 -0.03,0.042 c -0.006,0.006 -0.006,0.006 -0.006,0.012 -0.073,0.103 -0.151,0.206 -0.23,0.308 -0.012,0.019 -0.031,0.037 -0.042,0.055 -0.043,0.055 -0.085,0.109 -0.127,0.157 a 0.98376,0.98376 0 0 0 -0.073,0.097 c -0.006,0 -0.006,0.006 -0.012,0.012 -0.079,0.097 -0.158,0.182 -0.236,0.266 0.006,0.012 0.011,0.025 0.018,0.037 v 0.006 a 0.7164,0.7164 0 0 0 0.066,0.115 l 0.018,0.036 a 0.31919,0.31919 0 0 0 0.031,0.043 0.08282,0.08282 0 0 0 0.06,-0.031 h 0.006 a 0.69977,0.69977 0 0 0 0.049,-0.078 l 0.006,-0.006 c 0.006,-0.012 0.012,-0.019 0.018,-0.031 l 0.024,-0.024 c 0.006,-0.006 0.006,-0.018 0.012,-0.024 a 0.00586,0.00586 0 0 0 0.006,-0.006 3.38411,3.38411 0 0 1 0.43,-0.448 c 0.085,-0.078 0.176,-0.151 0.266,-0.224 0.006,-0.012 0.03,-0.018 0.048,-0.018 a 0.11993,0.11993 0 0 1 0.049,0.006 c 0.036,-0.018 0.079,-0.042 0.115,-0.06 a 1.11385,1.11385 0 0 1 0.127,-0.067 v 0.012 c -0.012,0.085 0.115,0.085 0.163,0.055 a 0.74318,0.74318 0 0 0 0.097,-0.097 c 0.055,-0.073 0.109,-0.121 0.157,-0.176 v -0.006 c 0.007,-0.006 0.013,-0.006 0.013,-0.012 0.036,-0.036 0.072,-0.067 0.108,-0.103 l 0.007,-0.006 0.006,-0.006 c 0.036,-0.036 0.066,-0.066 0.103,-0.097 a 3.6569,3.6569 0 0 1 0.732,-0.563 0.09231,0.09231 0 0 1 0.121,0.031 c 0.006,0.006 0.012,0.012 0.012,0.018 0.327,-0.151 0.653,-0.29 0.962,-0.472 0.29,-0.169 0.563,-0.363 0.835,-0.557 0.006,-0.006 0.013,-0.006 0.018,-0.012 m 1.495,-5.077 c 0.218,0.218 0.653,0.146 0.95,0 a 1.19631,1.19631 0 0 1 0.726,-0.145 c 0.073,0 0.073,-0.146 0.073,-0.224 a 1.53855,1.53855 0 0 0 0.586,0.078 20.22456,20.22456 0 0 0 5.041,-1.536 c -1.906,-1.459 -4.308,-1.967 -6.571,-2.627 0.217,0 0.435,0.218 0.653,0 -0.363,-0.29 -0.805,-0.145 -1.167,-0.362 0.078,0 0.223,0.072 0.296,-0.079 a 8.498,8.498 0 0 0 -1.755,-0.436 0.70741,0.70741 0 0 0 0.581,-0.726 c 0,-0.079 -0.145,-0.079 -0.218,-0.079 a 3.94114,3.94114 0 0 0 -1.827,2.197 c 0.514,0.284 1.101,0.066 1.609,0.145 -0.218,0.218 -0.587,0.218 -0.871,0.291 -0.23,0.054 -0.442,0.217 -0.369,0.362 a 0.27367,0.27367 0 0 0 0.163,0.109 0.96839,0.96839 0 0 0 -0.454,0.261 c 0.291,0.218 0.581,0.072 0.878,0.072 0,0.146 0.145,0.146 0.218,0.218 a 1.29974,1.29974 0 0 0 -0.732,0.654 c -0.146,0.369 -0.509,0.514 -0.727,0.805 v 0.217 a 12.76749,12.76749 0 0 0 -2.118,1.9 c 0.073,0 0.073,0.073 0.073,0.146 -0.151,0.217 -0.442,0.29 -0.515,0.514 0,0.073 0,0.139 0.073,0.139 0.878,-0.29 1.531,-0.944 2.336,-1.24 0.587,-0.145 1.023,-0.508 1.537,-0.654 0.363,-0.072 0.799,-0.218 1.162,-0.291 0,0.073 0,0.146 0.078,0.146 h 0.582 c -0.073,0.145 -0.364,0.073 -0.291,0.145"
       id="path8" />
    <path
       class="cls-3"
       d="m 149.59282,38.631 h -41.56 a 1.47921,1.47921 0 0 1 0.393,0.182 c 0.339,0.181 0.775,0.417 1.054,0.562 a 3.49585,3.49585 0 0 1 1.391,1.162 c 0.145,0.224 0.364,0.659 0.218,0.95 -0.145,0.369 -0.218,0.95 -0.587,1.095 a 2.72049,2.72049 0 0 1 -1.531,0.146 3.57589,3.57589 0 0 1 -0.871,-0.146 5.99276,5.99276 0 0 1 2.844,1.973 c 0.072,0.145 0.363,0.218 0.66,0.218 0.066,0 0.066,0.145 0.066,0.218 -0.145,0.151 -0.285,0.218 -0.218,0.441 h 0.218 c 0.369,-0.145 0.297,-0.877 0.805,-0.659 a 0.82079,0.82079 0 0 1 0.29,1.095 7.83623,7.83623 0 0 1 -0.871,0.732 0.62667,0.62667 0 0 0 0,0.509 2.25643,2.25643 0 0 1 0.363,0.877 c 0.218,0.508 0.291,1.095 0.508,1.61 a 10.11763,10.11763 0 0 1 0.515,3.28 c 0,0.587 -0.297,1.095 -0.073,1.682 a 6.17176,6.17176 0 0 0 0.799,1.531 11.02264,11.02264 0 0 1 0.805,1.167 c 0.435,0.733 1.24,1.459 0.871,2.336 -0.212,0.515 -1.01,0.442 -1.525,0.732 -0.441,0.364 -0.073,0.951 0.145,1.314 0.37,0.659 -0.436,1.095 -0.95,1.313 0.145,0.218 0.436,0.145 0.514,0.29 0.067,0.369 0.436,0.587 0.218,0.95 -0.296,0.442 -1.174,0.66 -0.732,1.313 a 1.92585,1.92585 0 0 1 -0.072,1.61 1.79469,1.79469 0 0 1 -1.313,1.095 2.98088,2.98088 0 0 1 -1.386,0.073 1.08627,1.08627 0 0 0 -0.442,-0.146 32.77553,32.77553 0 0 0 -3.721,-0.514 4.22483,4.22483 0 0 0 -1.023,0.291 6.60394,6.60394 0 0 0 -0.884,0.786 l -0.005,0.007 a 1.92893,1.92893 0 0 0 -0.164,0.181 c -0.03,0.03 -0.061,0.073 -0.091,0.109 -0.024,0.024 -0.042,0.049 -0.066,0.072 a 8.62862,8.62862 0 0 0 -0.575,0.841 0.39,0.39 0 0 0 -0.031,0.061 c -0.018,0.031 -0.036,0.067 -0.054,0.097 a 7.24379,7.24379 0 0 0 -0.557,1.343 c -0.496,1.671 -0.278,3.105 0.073,3.455 0.097,0.098 2.408,0.811 4.018,1.525 a 13.50471,13.50471 0 0 1 1.724,0.872 h 40.81 z"
       id="path10" />
    <path
       class="cls-4"
       d="m 110.50883,52.72478 c 0.291,0.073 0.726,0.073 0.726,0.218 -0.139,0.587 -1.023,0.732 -1.458,1.313 h -0.218 c -0.218,0.145 -0.152,0.514 -0.369,0.514 a 1.02846,1.02846 0 0 0 -0.654,0.073 1.24094,1.24094 0 0 0 1.089,0.436 0.3262,0.3262 0 0 1 0.23,0.296 0.20858,0.20858 0 0 0 0.139,-0.079 c 0.079,0 0.146,0 0.146,0.079 v 0.291 c -0.218,0.29 -0.581,0.145 -0.872,0.217 a 3.28326,3.28326 0 0 0 1.677,0 c 0.441,-0.145 0,-0.877 0.29,-1.24 -0.139,0 0,-0.224 -0.139,-0.224 0.139,-0.139 0.29,-0.363 0.435,-0.436 a 0.52384,0.52384 0 0 0 0.436,-0.217 c 0,-0.146 -0.296,-0.219 -0.218,-0.364 0.436,-0.29 0.805,-0.732 0.654,-1.168 -0.067,-0.217 -0.654,-0.217 -1.017,-0.369 a 2.4669,2.4669 0 0 0 -1.246,0.073 5.51891,5.51891 0 0 0 -1.089,0.296 5.10058,5.10058 0 0 0 -1.393,0.727 10.222,10.222 0 0 1 1.61,-0.436 4.73112,4.73112 0 0 1 1.241,0"
       id="path12" />
  </g>
  <g
     id="g498"
     transform="translate(-42.8855,-204.47767)">
    <path
       d="m 137.3455,331.394 c 0.786,0 1.464,0.6 1.101,2.112 l -3.655,0.847 c 0.635,-1.7 1.7,-2.959 2.554,-2.959 m 2.021,5.9 h -0.726 c -0.914,1.083 -1.894,1.93 -2.868,1.93 -1.005,0 -1.513,-0.593 -1.513,-1.93 a 8.15084,8.15084 0 0 1 0.169,-1.615 l 5.894,-1.943 c 1.15,-2.723 -0.23,-3.915 -1.852,-3.915 -2.789,0 -5.954,4.659 -5.954,8.75 0,1.827 0.865,2.826 2.233,2.826 1.597,0 3.255,-1.555 4.617,-4.103 m -1.174,-8.556 4.151,-3.873 v -0.448 h -2.233 l -2.553,4.321 z m -12.72,2.723 h 1.955 l -3.111,8.49 a 0.98824,0.98824 0 0 0 0.86,1.446 7.22264,7.22264 0 0 0 5.615,-4.127 h -0.557 a 7.7364,7.7364 0 0 1 -3.594,2.172 l 2.85,-7.981 h 2.917 l 0.363,-1.211 h -2.832 l 1.089,-3.068 h -1.131 l -2.021,3.068 -2.403,0.339 z m -2.644,-0.405 a 0.87224,0.87224 0 0 0 -0.696,-1.235 c -1.707,0 -3.728,1.537 -4.532,3.685 h 0.55 a 4.30583,4.30583 0 0 1 2.36,-1.809 l -3.256,8.465 a 0.84769,0.84769 0 0 0 0.709,1.235 c 1.615,0 3.509,-1.555 4.314,-3.679 h -0.55 a 4.35648,4.35648 0 0 1 -2.367,1.809 z m 0.599,-4.255 a 1.4035,1.4035 0 1 0 -1.404,-1.404 1.40131,1.40131 0 0 0 1.404,1.404 m -18.747,13.023 c -0.424,0.956 0.025,1.573 0.956,1.573 a 0.95314,0.95314 0 0 0 1.065,-0.763 l 2.258,-5.978 c 1.04,-1.277 3.194,-2.639 4.042,-2.639 0.617,0 0.532,0.509 0.126,1.271 l -3.467,6.663 a 0.97893,0.97893 0 0 0 0.854,1.446 c 1.7,0 3.721,-1.531 4.532,-3.679 h -0.557 a 4.35926,4.35926 0 0 1 -2.36,1.809 l 2.977,-6.021 a 4.87247,4.87247 0 0 0 0.582,-2.063 1.47209,1.47209 0 0 0 -1.58,-1.622 c -1.464,0 -2.953,1.664 -4.72,3.703 v -1.573 c 0,-1.125 -0.363,-2.13 -1.386,-2.13 -0.635,0 -1.258,0.557 -1.833,1.343 v 0.212 c 1.107,-0.067 1.597,1.597 0.811,3.34 z m -0.042,-7.407 c 0.405,-1.38 0.194,-2.596 -0.871,-2.596 -1.253,0 -1.574,0.956 -2.851,3.703 v -1.573 c 0,-1.125 -0.363,-2.13 -1.379,-2.13 -1.199,0 -2.282,1.852 -3.111,3.685 h 0.551 c 0.575,-0.835 1.108,-1.325 1.537,-1.325 0.508,0 0.787,0.792 0,2.535 l -2.3,5.108 c -0.429,0.956 0.019,1.573 0.956,1.573 a 0.95358,0.95358 0 0 0 1.066,-0.763 l 2.257,-5.978 c 0.635,-0.793 1.21,-1.471 1.93,-2.239 z m -13.065,-1.023 c 0.787,0 1.465,0.6 1.108,2.112 l -3.661,0.847 c 0.641,-1.7 1.706,-2.959 2.553,-2.959 m 2.021,5.9 h -0.726 c -0.908,1.083 -1.888,1.93 -2.874,1.93 -0.999,0 -1.507,-0.593 -1.507,-1.93 a 7.72151,7.72151 0 0 1 0.176,-1.615 l 5.887,-1.943 c 1.15,-2.723 -0.236,-3.915 -1.845,-3.915 -2.79,0 -5.967,4.659 -5.967,8.75 0,1.827 0.878,2.826 2.239,2.826 1.598,0 3.262,-1.555 4.617,-4.103 m -13.893,-5.833 h 1.954 l -3.104,8.49 a 0.98247,0.98247 0 0 0 0.847,1.446 7.22363,7.22363 0 0 0 5.622,-4.127 h -0.557 a 7.7828,7.7828 0 0 1 -3.588,2.172 l 2.844,-7.981 h 2.916 l 0.364,-1.211 h -2.827 l 1.078,-3.068 h -1.12 l -2.027,3.068 -2.402,0.339 z m -10.747,6.614 c 0,-2.614 2.917,-6.166 4.556,-6.166 a 3.73223,3.73223 0 0 1 0.999,0.126 l -1.7,4.533 c -0.987,1.192 -2.494,2.638 -3.196,2.638 -0.405,0 -0.659,-0.338 -0.659,-1.131 m 8.956,-8.744 -0.89,-0.061 -0.998,0.98 h -0.212 c -4.853,0 -9.047,5.447 -9.047,9.404 a 1.61069,1.61069 0 0 0 1.749,1.743 c 1.253,0 2.487,-1.785 3.866,-3.704 l -0.06,0.684 c -0.175,1.961 0.424,3.02 1.447,3.02 1.192,0 2.275,-1.852 3.104,-3.679 h -0.551 c -0.575,0.829 -1.107,1.319 -1.531,1.319 -0.448,0 -0.768,-0.811 0,-2.536 z m -10.342,3.086 c 0.412,-1.38 0.2,-2.596 -0.865,-2.596 -1.259,0 -1.579,0.956 -2.856,3.703 v -1.573 c 0,-1.125 -0.358,-2.13 -1.38,-2.13 -1.198,0 -2.276,1.852 -3.111,3.685 h 0.557 c 0.569,-0.835 1.102,-1.325 1.531,-1.325 0.515,0 0.787,0.792 0,2.535 l -2.299,5.108 c -0.43,0.956 0.024,1.573 0.956,1.573 a 0.94654,0.94654 0 0 0 1.065,-0.763 l 2.257,-5.978 c 0.635,-0.793 1.21,-1.471 1.936,-2.239 z m -16.296,8.556 0.212,-0.659 c -2.832,-0.533 -3.189,-0.533 -2.064,-3.619 l 1.15,-3.171 h 3.129 c 1.404,0 1.428,0.575 1.216,2.106 h 0.805 l 1.869,-5.125 h -0.804 c -0.702,1.21 -1.259,2.105 -2.79,2.105 h -3.086 l 1.64,-4.49 c 0.508,-1.428 0.811,-1.724 2.723,-1.724 h 1.361 c 1.979,0 2.215,0.533 2.215,2.535 h 0.787 l 0.659,-3.491 h -11.745 l -0.212,0.659 c 2.275,0.466 2.487,0.678 1.422,3.619 l -2.553,6.977 c -1.065,2.917 -1.507,3.147 -4.127,3.619 l -0.194,0.659 z"
       id="path14" />
    <path
       d="m 108.85189,304.80074 c 0.787,0 1.47,0.593 1.107,2.106 l -3.66,0.853 c 0.641,-1.706 1.706,-2.959 2.553,-2.959 m 2.021,5.894 h -0.726 c -0.914,1.084 -1.888,1.937 -2.869,1.937 -0.998,0 -1.506,-0.594 -1.506,-1.937 a 7.82435,7.82435 0 0 1 0.163,-1.616 l 5.9,-1.942 c 1.144,-2.723 -0.242,-3.915 -1.851,-3.915 -2.79,0 -5.961,4.665 -5.961,8.75 0,1.828 0.872,2.832 2.233,2.832 1.597,0 3.255,-1.555 4.617,-4.109 m -1.168,-8.557 4.151,-3.872 v -0.448 h -2.239 l -2.553,4.32 z m -12.732,2.724 h 1.967 l -3.11,8.489 a 0.99035,0.99035 0 0 0 0.853,1.453 7.22484,7.22484 0 0 0 5.616,-4.133 h -0.551 a 7.72575,7.72575 0 0 1 -3.595,2.172 l 2.844,-7.981 h 2.917 l 0.363,-1.21 h -2.826 l 1.077,-3.068 h -1.125 l -2.021,3.068 -2.409,0.338 z m -2.632,-0.4 a 0.87494,0.87494 0 0 0 -0.702,-1.24 c -1.706,0 -3.727,1.537 -4.532,3.685 h 0.55 a 4.32384,4.32384 0 0 1 2.367,-1.809 l -3.256,8.465 a 0.84961,0.84961 0 0 0 0.696,1.241 c 1.622,0 3.516,-1.555 4.32,-3.685 h -0.55 a 4.33819,4.33819 0 0 1 -2.36,1.809 z m 0.599,-4.26 a 1.40427,1.40427 0 0 0 1.404,-1.403 1.407,1.407 0 0 0 -2.814,0 1.39426,1.39426 0 0 0 1.41,1.403 m -11.328,12.726 5.942,-15.552 -0.193,-0.236 -3.728,0.424 v 0.448 l 0.732,0.55 c 0.654,0.515 0.442,1.005 -0.157,2.578 l -4.629,12.211 a 0.97925,0.97925 0 0 0 0.847,1.453 c 1.701,0 3.51,-1.537 4.321,-3.685 h -0.557 a 4.79278,4.79278 0 0 1 -2.578,1.809 m -11.273,-1.446 c 0,-2.62 2.917,-6.172 4.55,-6.172 a 3.705,3.705 0 0 1 1.005,0.127 l -1.7,4.532 c -0.981,1.192 -2.494,2.638 -3.195,2.638 -0.406,0 -0.66,-0.339 -0.66,-1.125 m 8.961,-8.75 -0.895,-0.061 -1.004,0.981 h -0.212 c -4.853,0 -9.041,5.445 -9.041,9.403 a 1.61121,1.61121 0 0 0 1.743,1.749 c 1.259,0 2.493,-1.792 3.879,-3.703 l -0.067,0.678 c -0.169,1.96 0.424,3.025 1.447,3.025 1.186,0 2.275,-1.858 3.104,-3.685 h -0.551 c -0.581,0.828 -1.113,1.319 -1.537,1.319 -0.442,0 -0.762,-0.805 0,-2.535 z m -21.663,14.13 c 0,-1.126 1.083,-1.828 2.639,-2.445 a 18.129,18.129 0 0 0 2.299,0.871 c 1.616,0.533 2.233,0.75 2.233,1.235 0,1.047 -1.767,1.833 -4.169,1.833 -2.022,0 -3.002,-0.43 -3.002,-1.494 m 4.406,-6.869 c -0.703,0 -0.981,-0.599 -0.981,-1.276 0,-1.895 1.023,-4.684 2.62,-4.684 0.702,0 0.975,0.593 0.975,1.277 0,1.893 -1.017,4.683 -2.614,4.683 m 4.617,5.828 c 0,-1.362 -1.211,-1.852 -3.195,-2.445 -1.701,-0.514 -2.469,-0.66 -2.469,-1.21 a 1.73491,1.73491 0 0 1 1.089,-1.368 4.96194,4.96194 0 0 0 4.599,-4.762 2.96677,2.96677 0 0 0 -0.236,-1.174 h 2.36 l 0.363,-1.21 h -3.746 a 2.89843,2.89843 0 0 0 -1.513,-0.43 4.93659,4.93659 0 0 0 -4.871,4.707 2.73836,2.73836 0 0 0 2.251,2.827 c -1.379,0.617 -2.142,1.343 -2.142,2.19 a 1.33989,1.33989 0 0 0 0.569,1.15 c -3.189,0.938 -4.441,2.003 -4.441,3.51 0,1.47 1.93,2.087 4.229,2.087 3.897,0 7.153,-2.105 7.153,-3.872 m -14.874,-9.107 c 1.404,0 1.422,0.574 1.21,2.105 h 0.811 l 1.87,-5.125 h -0.805 c -0.708,1.21 -1.259,2.106 -2.79,2.106 h -3.086 l 1.555,-4.279 c 0.509,-1.428 0.805,-1.7 2.724,-1.7 h 1.355 c 1.984,0 2.221,0.533 2.221,2.511 h 0.786 l 0.66,-3.491 H 48.5509 l -0.217,0.659 c 2.275,0.467 2.486,0.684 1.427,3.619 l -2.553,6.977 c -1.065,2.916 -1.507,3.153 -4.127,3.619 l -0.194,0.659 h 13.065 l 2.342,-3.703 h -0.895 a 8.56458,8.56458 0 0 1 -5.979,2.747 c -3.468,0 -3.147,-0.151 -1.997,-3.322 l 1.234,-3.382 z m 1.7,-8.914 4.151,-2.85 v -0.448 h -2.511 l -2.3,3.298 z"
       id="path16" />
    <path
       d="m 107.472,278.20114 c 0.786,0 1.464,0.593 1.101,2.106 l -3.655,0.853 c 0.635,-1.706 1.7,-2.959 2.554,-2.959 m 2.021,5.894 h -0.726 c -0.92,1.084 -1.894,1.937 -2.875,1.937 -0.998,0 -1.513,-0.599 -1.513,-1.937 a 8.24652,8.24652 0 0 1 0.17,-1.615 l 5.9,-1.937 c 1.149,-2.729 -0.236,-3.915 -1.858,-3.915 -2.784,0 -5.954,4.659 -5.954,8.744 0,1.827 0.877,2.832 2.233,2.832 1.597,0 3.255,-1.555 4.623,-4.109 m -1.174,-8.556 4.151,-3.873 v -0.442 h -2.233 l -2.554,4.315 z m -12.193,2.729 h 1.555 l -3.105,8.484 a 0.99023,0.99023 0 0 0 0.854,1.452 7.22745,7.22745 0 0 0 5.609,-4.127 h -0.544 a 7.82678,7.82678 0 0 1 -3.601,2.166 l 2.85,-7.975 h 2.917 l 0.363,-1.216 h -2.832 l 1.083,-3.062 h -1.125 l -2.021,3.062 -2.003,0.338 z m -1.532,0.956 c 0.406,-1.386 0.194,-2.596 -0.871,-2.596 -1.259,0 -1.573,0.956 -2.85,3.697 v -1.573 c 0,-1.125 -0.363,-2.124 -1.386,-2.124 -1.191,0 -2.275,1.852 -3.104,3.679 h 0.551 c 0.574,-0.829 1.107,-1.319 1.53,-1.319 0.515,0 0.787,0.787 0,2.529 l -2.299,5.108 c -0.423,0.962 0.025,1.579 0.963,1.579 0.574,0 0.829,-0.151 1.058,-0.768 l 2.257,-5.979 c 0.642,-0.787 1.217,-1.47 1.943,-2.233 z m -13.064,-1.023 c 0.793,0 1.471,0.593 1.101,2.106 l -3.655,0.853 c 0.636,-1.706 1.701,-2.959 2.554,-2.959 m 2.021,5.894 h -0.72 c -0.92,1.084 -1.9,1.937 -2.874,1.937 -0.999,0 -1.513,-0.599 -1.513,-1.937 a 8.24768,8.24768 0 0 1 0.169,-1.615 l 5.894,-1.937 c 1.15,-2.729 -0.23,-3.915 -1.852,-3.915 -2.789,0 -5.954,4.659 -5.954,8.744 0,1.827 0.871,2.832 2.233,2.832 1.597,0 3.256,-1.555 4.617,-4.109 m -14.45,2.385 c -0.575,0 -1.398,-0.533 -1.398,-0.999 a 11.96865,11.96865 0 0 1 0.569,-1.64 l 0.962,-2.535 c 1.017,-1.211 2.572,-2.512 3.443,-2.512 0.533,0 0.938,0.345 0.938,1.132 0,2.317 -2.166,6.554 -4.514,6.554 m 6.705,-7.492 c 0,-1.725 -0.636,-2.36 -1.828,-2.36 -1.489,0 -2.898,1.573 -4.296,3.486 l 3.551,-9.337 -0.193,-0.236 -3.727,0.423 v 0.448 l 0.726,0.557 c 0.665,0.508 0.453,1.041 -0.145,2.571 l -3.831,9.876 a 10.88962,10.88962 0 0 0 -0.617,1.809 c 0,1.017 1.379,1.979 2.638,1.979 2.893,0 7.722,-5.216 7.722,-9.216 m -11.576,-1.125 a 0.8685,0.8685 0 0 0 -0.703,-1.235 c -1.7,0 -3.721,1.531 -4.532,3.679 h 0.557 a 4.34062,4.34062 0 0 1 2.36,-1.809 l -3.262,8.472 a 0.855,0.855 0 0 0 0.708,1.234 c 1.616,0 3.516,-1.555 4.321,-3.685 h -0.551 a 4.32651,4.32651 0 0 1 -2.366,1.809 z m 0.599,-4.261 a 1.39982,1.39982 0 0 0 1.398,-1.403 1.4015,1.4015 0 1 0 -2.803,0 1.39,1.39 0 0 0 1.405,1.403 m -8.575,-1.361 h -7.746 l -0.212,0.66 c 2.276,0.471 2.488,0.683 1.423,3.618 l -2.511,6.977 c -1.066,2.917 -1.507,3.153 -4.127,3.619 l -0.194,0.66 h 11.788 l 2.553,-4.557 h -0.889 c -1.453,1.604 -3.153,3.601 -5.767,3.601 -1.985,0 -2.215,-0.339 -1.15,-3.323 l 2.512,-6.977 c 1.04,-2.917 1.506,-3.147 4.127,-3.618 z"
       id="path18" />
  </g>
  <path
     d="m 122.79557,8.06347 h 7.31838 l 7.07129,12.15723 7.07129,-12.15723 h 7.31932 v 28.9458 h -5.87207 v -20.7583 l -6.45117,10.834 h -4.13477 l -6.45117,-10.834 v 20.7583 h -5.8711 z"
     id="path20" />
  <path
     d="m 159.63835,8.06347 h 5.87207 v 28.9458 h -5.87207 z"
     id="path22" />
  <path
     d="m 173.61495,8.06347 h 7.52539 L 194.0837,28.9873 V 8.06347 h 5.87207 v 28.9458 H 192.4294 L 179.486,16.08545 v 20.92382 h -5.87105 z"
     id="path24" />
  <path
     d="m 208.05925,8.06347 h 5.87207 v 28.9458 h -5.87207 z"
     id="path26" />
  <path
     d="m 223.69011,29.06982 a 8.3478,8.3478 0 0 0 6.40918,3.55615 c 2.31543,0 3.72168,-1.24023 3.72168,-3.3081 0,-5.33447 -13.14942,-3.88721 -13.14942,-13.687 0,-4.59034 3.80371,-8.39453 9.34473,-8.39453 a 12.84786,12.84786 0 0 1 10.13183,4.87939 l -4.30078,3.88721 c -1.69531,-2.1919 -3.59765,-3.63916 -5.78906,-3.63916 a 3.13178,3.13178 0 0 0 -3.43262,3.06006 c 0,5.25146 13.15039,3.76318 13.15039,13.6875 -0.083,5.458 -4.30078,8.72509 -9.63476,8.72509 a 12.97438,12.97438 0 0 1 -10.71094,-4.83838 z"
     id="path28" />
  <path
     d="m 242.95866,8.06347 h 23.73629 v 5.334 h -8.93262 v 23.61181 h -5.87109 V 13.39746 h -8.93262 z"
     id="path30" />
  <path
     d="m 271.86395,8.06347 h 16.8711 v 4.8794 h -11 v 6.86426 h 9.3457 v 4.87941 h -9.3457 v 7.44336 h 11 v 4.87939 h -16.8711 z M 272.36005,0 h 6.03711 l 4.67285,5.582 h -5.376 z"
     id="path32" />
  <path
     d="m 295.55729,8.06347 h 8.84866 c 6.36816,0 10.29687,3.26661 10.29687,8.64209 a 7.76816,7.76816 0 0 1 -4.67285,7.48487 l 9.05566,12.81884 h -6.90527 l -7.73241,-11.70263 h -3.01953 v 11.70263 h -5.8711 z m 5.8711,4.8794 v 7.48437 h 3.30856 c 2.48145,0 3.92871,-1.44726 3.92871,-3.8042 0,-2.1914 -1.44726,-3.68017 -3.92871,-3.68017 z"
     id="path34" />
  <path
     d="m 322.80632,8.06347 h 16.87207 v 4.8794 h -11 v 6.86426 h 9.3457 v 4.87941 h -9.3457 v 7.44336 h 11 v 4.87939 h -16.87207 z"
     id="path36" />
  <path
     d="m 122.79557,50.06347 h 11.3711 c 9.17969,0 15.38281,6.65723 15.38281,14.47266 0,7.81543 -6.20312,14.47314 -15.38281,14.47314 h -11.3711 z m 5.8711,5.334 v 18.27734 h 5.583 a 9.1395,9.1395 0 1 0 0,-18.27734 z"
     id="path38" />
  <path
     d="m 155.21452,50.06347 h 16.87109 v 4.8794 h -11 v 6.86426 h 9.34571 v 4.87941 h -9.34571 v 7.44336 h 11 v 4.87939 h -16.87109 z"
     id="path40" />
  <path
     d="m 189.65886,50.06347 h 5.87109 V 73.6748 h 11 v 5.33447 h -16.87109 z"
     id="path42" />
  <path
     d="m 208.18327,61.97265 3.72168,-11.90918 h 5.95508 l -4.79688,11.90918 z"
     id="path44" />
  <path
     d="m 222.44987,50.06347 h 16.87108 v 4.8794 h -11 v 6.86426 h 9.3457 v 4.87941 h -9.3457 v 7.44336 h 11 v 4.87939 h -16.8711 z m 5.70606,-2.48144 4.67285,-5.582 h 6.03711 l -5.376,5.582 z"
     id="path46" />
  <path
     d="m 246.14323,50.06347 h 11.37207 c 9.17969,0 15.38281,6.65723 15.38281,14.47266 0,7.81543 -6.20312,14.47314 -15.38281,14.47314 h -11.37207 z m 5.87207,5.334 v 18.27734 h 5.582 a 9.1395,9.1395 0 1 0 0,-18.27734 z"
     id="path48" />
  <path
     d="m 295.30925,50.06347 h 5.87207 V 67.6792 c 0,7.60839 -4.46582,12.15722 -11.74317,12.15722 -7.2373,0 -11.70312,-4.54883 -11.70312,-12.15722 V 50.06347 h 5.87207 v 18.11182 c 0,3.88721 2.1914,6.16113 5.87207,6.16113 3.59766,0 5.83008,-2.27392 5.83008,-6.16113 z"
     id="path50" />
  <path
     d="m 328.92741,70.3667 4.63086,3.55615 a 14.80346,14.80346 0 0 1 -12.19824,5.91357 15.30075,15.30075 0 1 1 12.19824,-24.728 l -4.63086,3.59716 a 9.05266,9.05266 0 0 0 -7.56738,-3.96972 c -5.459,0 -9.3457,4.25927 -9.3457,9.80029 0,5.54102 3.88671,9.80029 9.3457,9.80029 a 9.05266,9.05266 0 0 0 7.56738,-3.96974 z"
     id="path52" />
  <path
     d="m 345.96257,50.06347 h 7.6914 l 10.958,28.9458 h -6.24414 l -2.77051,-7.52587 h -11.57811 l -2.77051,7.52587 h -6.24414 z m 7.81543,16.41651 -3.96973,-10.87544 -3.96973,10.87549 z"
     id="path54" />
  <path
     d="m 366.10026,50.06347 h 23.73535 v 5.334 h -8.93166 v 23.61181 h -5.872 V 55.39746 h -8.93164 z"
     id="path56" />
  <path
     d="m 395.00358,50.06347 h 5.87207 v 28.9458 h -5.87207 z"
     id="path58" />
  <path
     d="m 437.22331,64.53613 a 15.36194,15.36194 0 1 1 -15.34082,-15.2998 15.04162,15.04162 0 0 1 15.34082,15.2998 z m -6.03711,0 c 0,-5.541 -3.88672,-9.80029 -9.30371,-9.80029 -5.459,0 -9.3457,4.25927 -9.3457,9.80029 0,5.54102 3.88671,9.80029 9.3457,9.80029 5.41699,0 9.30371,-4.25927 9.30371,-9.80029 z"
     id="path60" />
  <path
     d="m 442.84636,50.06347 h 7.52636 L 463.31608,70.9873 V 50.06347 h 5.8711 v 28.9458 h -7.52539 L 448.71843,58.08545 v 20.92382 h -5.87207 z"
     id="path62" />
  <path
     d="m 122.79557,92.06299 h 7.52538 l 12.94336,20.92334 V 92.06299 h 5.87207 v 28.9458 h -7.52635 l -12.94336,-20.92383 v 20.92383 h -5.8711 z"
     id="path64" />
  <path
     d="m 164.55925,92.06299 h 7.6914 l 10.958,28.9458 h -6.24413 l -2.77051,-7.52637 h -11.57812 l -2.77051,7.52637 h -6.24414 z m 7.81543,16.4165 -3.96973,-10.87549 -3.96973,10.87554 z"
     id="path66" />
  <path
     d="m 184.69595,92.06299 h 23.73632 v 5.334 h -8.93261 v 23.61182 h -5.8711 V 97.39697 h -8.93261 z"
     id="path68" />
  <path
     d="m 213.60124,92.06299 h 5.87109 v 28.9458 h -5.87109 z"
     id="path70" />
  <path
     d="m 255.81995,106.53613 a 15.36194,15.36194 0 1 1 -15.3418,-15.30029 15.042,15.042 0 0 1 15.3418,15.30029 z m -6.03711,0 c 0,-5.5415 -3.8877,-9.80078 -9.30469,-9.80078 -5.458,0 -9.34472,4.25928 -9.34472,9.80078 0,5.541 3.88671,9.7998 9.34472,9.7998 5.41703,0 9.30473,-4.25878 9.30473,-9.7998 z"
     id="path72" />
  <path
     d="m 261.44304,92.06299 h 7.52636 l 12.94239,20.92334 V 92.06299 h 5.87207 v 28.9458 h -7.52539 l -12.94336,-20.92383 v 20.92383 h -5.87207 z"
     id="path74" />
  <path
     d="m 303.20671,92.06299 h 7.6914 l 10.958,28.9458 h -6.24416 l -2.77051,-7.52637 h -11.57809 l -2.77051,7.52637 h -6.24414 z m 7.81543,16.4165 -3.96973,-10.87549 -3.96973,10.87554 z"
     id="path76" />
  <path
     d="m 326.32095,92.06299 h 5.87207 v 23.61181 h 11 v 5.334 h -16.87207 z"
     id="path78" />
  <path
     d="m 348.361,92.06299 h 16.87207 v 4.87939 h -11 v 6.86426 h 9.34571 v 4.8799 h -9.34571 v 7.44238 h 11 v 4.87989 H 348.361 Z"
     id="path80" />
  <path
     d="m 122.79557,134.06254 h 16.8711 v 4.87988 h -11 v 6.86426 h 9.3457 v 4.87986 h -9.3457 v 7.44238 h 11 v 4.87989 h -16.8711 z"
     id="path82" />
  <path
     d="m 143.5114,134.06254 h 23.73632 v 5.335 h -8.93261 v 23.61133 h -5.8711 v -23.61141 h -8.93261 z"
     id="path84" />
  <path
     d="m 183.16667,134.06254 h 11.37207 c 9.17969,0 15.38281,6.6582 15.38281,14.47363 0,7.81543 -6.20312,14.47266 -15.38281,14.47266 h -11.37207 z m 5.87207,5.335 v 18.27734 h 5.582 a 9.1395,9.1395 0 1 0 0,-18.27734 z"
     id="path86" />
  <path
     d="m 215.58561,134.06254 h 16.8711 v 4.87988 h -11 v 6.86426 h 9.3457 v 4.87986 h -9.3457 v 7.44238 h 11 v 4.87989 h -16.8711 z"
     id="path88" />
  <path
     d="m 250.02995,134.06254 h 5.87207 v 23.6123 h 10.999 v 5.334 h -16.87107 z"
     id="path90" />
  <path
     d="m 279.38933,134.06254 h 7.6914 l 10.958,28.94629 h -6.24414 l -2.77051,-7.52637 h -11.57813 l -2.77051,7.52637 h -6.24414 z m 7.81542,16.417 -3.96972,-10.876 -3.96973,10.876 z"
     id="path92" />
  <path
     d="m 310.56706,170.2041 a 9.25266,9.25266 0 0 1 -2.31543,-0.166 v -5.16896 a 7.67292,7.67292 0 0 0 1.48828,0.124 c 2.60547,0 3.96973,-1.11621 3.96973,-4.09375 v -26.83685 h 5.87109 v 26.54785 c 0,6.40915 -2.97656,9.59371 -9.01367,9.59371 z"
     id="path94" />
  <path
     d="m 327.68522,134.06254 h 16.87207 v 4.87988 h -11 v 6.86426 h 9.34571 v 4.87986 h -9.34571 v 7.44238 h 11 v 4.87989 h -16.87207 z"
     id="path96" />
  <path
     d="m 368.12663,134.06254 h 5.87109 v 17.61621 c 0,7.6084 -4.46582,12.15722 -11.74316,12.15722 -7.23633,0 -11.70215,-4.54882 -11.70215,-12.15722 v -17.61621 h 5.87109 v 18.1123 c 0,3.88672 2.19239,6.16113 5.87207,6.16113 3.59766,0 5.83106,-2.27441 5.83106,-6.16113 z"
     id="path98" />
  <path
     d="m 381.27507,134.06254 h 7.52636 l 12.94336,20.92383 v -20.92383 h 5.8711 v 28.94629 H 400.0905 L 387.14714,142.085 v 20.92383 h -5.87207 z"
     id="path100" />
  <path
     d="m 415.72038,134.06254 h 16.87207 v 4.87988 h -11 v 6.86426 h 9.3457 v 4.87986 h -9.3457 v 7.44238 h 11 v 4.87989 h -16.87207 z"
     id="path102" />
  <path
     d="m 441.06804,155.06933 a 8.34848,8.34848 0 0 0 6.40918,3.55664 c 2.3164,0 3.72168,-1.24121 3.72168,-3.30859 0,-5.334 -13.14942,-3.88672 -13.14942,-13.6875 0,-4.58984 3.80469,-8.39453 9.3457,-8.39453 a 12.84924,12.84924 0 0 1 10.13086,4.87988 l -4.30078,3.88672 c -1.69531,-2.19141 -3.59765,-3.63867 -5.78906,-3.63867 a 3.131,3.131 0 0 0 -3.43164,3.06055 c 0,5.251 13.14941,3.76269 13.14941,13.68652 -0.083,5.459 -4.30078,8.72558 -9.63476,8.72558 a 12.97214,12.97214 0 0 1 -10.71,-4.83789 z"
     id="path104" />
  <path
     d="m 464.9694,155.06933 a 8.34851,8.34851 0 0 0 6.40918,3.55664 c 2.31641,0 3.72168,-1.24121 3.72168,-3.30859 0,-5.334 -13.14941,-3.88672 -13.14941,-13.6875 0,-4.58984 3.80469,-8.39453 9.3457,-8.39453 a 12.84924,12.84924 0 0 1 10.13086,4.87988 l -4.30078,3.88672 c -1.69531,-2.19141 -3.59766,-3.63867 -5.78906,-3.63867 a 3.131,3.131 0 0 0 -3.43164,3.06055 c 0,5.251 13.14941,3.76269 13.14941,13.68652 -0.083,5.459 -4.30078,8.72558 -9.63477,8.72558 a 12.97216,12.97216 0 0 1 -10.71,-4.83789 z"
     id="path106" />
  <path
     d="m 487.2155,134.06254 h 16.87207 v 4.87988 h -11 v 6.86426 h 9.3457 v 4.87986 h -9.3457 v 7.44238 h 11 v 4.87989 H 487.2155 Z"
     id="path108" />
</svg>
