<?xml version="1.0" encoding="UTF-8" standalone="no"?>
<svg
   version="1.1"
   viewBox="0 0 1527.15 533.35468"
   id="svg182"
   sodipodi:docname="orion.svg"
   width="1527.15"
   height="533.35468"
   inkscape:version="1.2.2 (732a01da63, 2022-12-09)"
   xmlns:inkscape="http://www.inkscape.org/namespaces/inkscape"
   xmlns:sodipodi="http://sodipodi.sourceforge.net/DTD/sodipodi-0.dtd"
   xmlns="http://www.w3.org/2000/svg"
   xmlns:svg="http://www.w3.org/2000/svg">
  <defs
     id="defs186" />
  <sodipodi:namedview
     id="namedview184"
     pagecolor="#ffffff"
     bordercolor="#000000"
     borderopacity="0.25"
     inkscape:showpageshadow="2"
     inkscape:pageopacity="0.0"
     inkscape:pagecheckerboard="0"
     inkscape:deskcolor="#d1d1d1"
     showgrid="false"
     inkscape:zoom="0.43168477"
     inkscape:cx="582.60106"
     inkscape:cy="236.28353"
     inkscape:window-width="1920"
     inkscape:window-height="1017"
     inkscape:window-x="3832"
     inkscape:window-y="-8"
     inkscape:window-maximized="1"
     inkscape:current-layer="svg182" />
  <g
     id="g401"
     transform="translate(-243.34999,-157.69822)">
    <g
       stroke-width="2"
       fill="none"
       stroke-linecap="butt"
       id="g6">
      <path
         stroke="#959fbd"
         vector-effect="non-scaling-stroke"
         d="m 663.29,412.75 6.14,-0.39"
         id="path2" />
      <path
         stroke="#959fbd"
         vector-effect="non-scaling-stroke"
         d="m 580.49,438.06 q -0.57,-2.18 -1.9,-3.86 c -0.36,-0.45 -1.22,-0.67 -1.13,0.3"
         id="path4" />
    </g>
    <path
       fill="#d8d8d8"
       d="m 780.07,166.68 6.41,2.86 a 1.3,1.11 5.9 0 1 0.67,0.7 c 0.73,2.15 -5.35,4.66 -6.92,5.56 a 1,1 -11.5 0 0 -0.5,0.75 q -0.38,3.16 -0.65,6.3 c -0.48,5.54 -6.68,-1.96 -7.94,-3.07 a 1.04,0.93 57.8 0 0 -0.88,-0.25 l -6.52,1.43 q -3.38,0.74 -1.93,-2.4 l 2.75,-6 a 1.23,0.98 45.9 0 0 -0.1,-1.03 l -3.5,-6.02 q -1.63,-2.8 1.54,-2.41 l 7,0.86 a 1.12,0.92 21.1 0 0 0.91,-0.3 l 4.79,-5.46 a 1.49,1.14 -67.7 0 1 0.84,-0.49 c 2.65,-0.33 2.97,6.37 3.41,8.24 a 1.14,1.05 7.1 0 0 0.62,0.73 z"
       id="path8" />
    <circle
       fill="#d8d8d8"
       cx="680.88"
       cy="193.27"
       r="12.76"
       id="circle10" />
    <path
       fill="#d8d8d8"
       d="m 767.11,184.61 q -3.17,3.28 -6.11,-0.07 -0.3,-0.34 0.27,-0.43 l 4.99,-0.8 q 2.5,-0.41 0.85,1.3 z"
       id="path12" />
    <circle
       fill="#d8d8d8"
       cx="755.70001"
       cy="193.67"
       r="3.9000001"
       id="circle14" />
    <circle
       fill="#d8d8d8"
       cx="698.53998"
       cy="204.38"
       r="3.8499999"
       id="circle16" />
    <circle
       fill="#d8d8d8"
       cx="747.71997"
       cy="205.09"
       r="3.8599999"
       id="circle18" />
    <circle
       fill="#d8d8d8"
       cx="709.53003"
       cy="212.11"
       r="3.8900001"
       id="circle20" />
    <path
       fill="#d8d8d8"
       d="m 736.36,214.63 q 2.88,-3.74 6.5,-0.48 0.33,0.3 -0.39,0.45 l -5.23,1.11 q -2.04,0.43 -0.88,-1.08 z"
       id="path22" />
    <path
       fill="#d8d8d8"
       d="m 732.18,219.06 a 1.02,0.33 44.1 0 0 0.8,0.39 q 3.73,-1.44 7.7,-1.37 a 1.31,1.22 11.7 0 1 1.22,1.72 l -3.01,6.8 a 0.94,0.85 -51.3 0 0 0.05,0.83 c 0.8,1.26 6.95,9.19 1.6,8.45 q -3.24,-0.45 -6.49,-0.6 a 1.05,1.04 -68.2 0 0 -0.83,0.36 c -1.04,1.21 -6.44,9.65 -7.47,3.95 q -0.58,-3.17 -1.44,-6.26 a 1.01,0.37 19 0 0 -0.6,-0.49 l -7.09,-3.14 q -2.21,-0.98 0.18,-2.39 l 6.48,-3.81 a 1.05,0.64 85.1 0 0 0.37,-0.75 l 0.77,-7.77 q 0.24,-2.47 2.15,-0.81 z"
       id="path24" />
    <path
       fill="#d8d8d8"
       d="m 717.12,218.17 q 1.26,-2.05 3.62,-1.92 a 0.7,0.69 0 0 1 0.65,0.64 c 0.11,1.78 -1.34,9.02 -4.1,4.76 q -1.18,-1.82 -0.17,-3.48 z"
       id="path26" />
    <ellipse
       fill="#d8d8d8"
       cx="0"
       cy="0"
       transform="rotate(-25,912.10666,-1539.4335)"
       rx="3.8199999"
       ry="3.1600001"
       id="ellipse28" />
    <circle
       fill="#d8d8d8"
       cx="739.91998"
       cy="253.66"
       r="3.78"
       id="circle30" />
    <circle
       fill="#d8d8d8"
       cx="744.01001"
       cy="266.69"
       r="3.76"
       id="circle32" />
    <circle
       fill="#d8d8d8"
       cx="748.26001"
       cy="279.64001"
       r="3.8"
       id="circle34" />
    <circle
       fill="#d8d8d8"
       cx="752.33002"
       cy="292.70001"
       r="3.78"
       id="circle36" />
    <path
       fill="#5266a1"
       d="m 488.7,317.99 a 26.58,26.58 0 0 1 -26.58,26.58 26.58,26.58 0 0 1 -26.58,-26.58 26.58,26.58 0 0 1 26.58,-26.58 26.58,26.58 0 0 1 26.58,26.58 z m -1.37,0 a 25.22,25.22 0 0 0 -25.22,-25.22 25.22,25.22 0 0 0 -25.22,25.22 25.22,25.22 0 0 0 25.22,25.22 25.22,25.22 0 0 0 25.22,-25.22 z"
       id="path38" />
    <path
       fill="#5266a1"
       d="m 736.53,345.38 c -2.47,-1.71 -2.25,-3.96 -0.49,-6.22 q 4.73,-6.08 9.38,-12.23 c 2.39,-3.16 -2.28,-14.37 -3.49,-18.1 -1.43,-4.43 0.23,-8.28 5.4,-6.26 7.66,2.99 15.48,7.2 20.35,3.6 q 6.23,-4.6 12.66,-8.92 a 1.64,1.38 -57 0 1 0.92,-0.28 c 3.6,0.16 4.24,2.48 4.11,5.72 q -0.25,6.25 -0.38,12.5 c -0.1,4.25 0.95,5.58 4.09,7.97 q 5.05,3.84 10.21,7.52 3.88,2.76 0.78,6.44 a 1.83,1.62 9.2 0 1 -0.82,0.52 q -7,2.12 -13.98,4.15 c -4.17,1.21 -5.3,2.46 -6.6,6.38 -1.11,3.34 -4.95,22.56 -11.75,12.76 q -4.08,-5.88 -8.01,-11.85 c -2.99,-4.53 -14.88,-3.1 -20.28,-3.06 a 3.67,3.66 61.9 0 1 -2.1,-0.64 z"
       id="path40" />
    <circle
       fill="#d8d8d8"
       cx="488"
       cy="338.69"
       r="3.77"
       id="circle42" />
    <circle
       fill="#d8d8d8"
       cx="612.72998"
       cy="351.5"
       r="12.78"
       id="circle44" />
    <circle
       fill="#d8d8d8"
       cx="497.48999"
       cy="347.23999"
       r="3.8099999"
       id="circle46" />
    <circle
       fill="#d8d8d8"
       cx="447.03"
       cy="350.85001"
       r="3.8599999"
       id="circle48" />
    <circle
       fill="#d8d8d8"
       cx="507.70999"
       cy="355.70999"
       r="3.76"
       id="circle50" />
    <path
       fill="#d8d8d8"
       d="m 738.99,355.22 c -1.22,6.84 -10.1,3.33 -7.12,-2.16 a 1.06,0.94 -74.3 0 1 0.87,-0.56 l 4.03,-0.01 q 2.7,0 2.22,2.73 z"
       id="path52" />
    <circle
       fill="#d8d8d8"
       cx="725.29999"
       cy="362.98999"
       r="3.8199999"
       id="circle54" />
    <path
       fill="#d8d8d8"
       d="m 439.95,365.25 c -2.39,-4.77 4.48,-8.66 7.16,-2.83 q 1.22,2.66 -0.92,3.52 l -2.13,0.86 q -0.58,0.23 0.12,0.67 c 11.37,7.01 7.16,22.43 -5.93,24.07 q -2.1,0.26 -7.63,-1.77 a 1.77,1.76 -9.1 0 1 -0.78,-0.56 c -1.62,-2.11 -3.52,-4.37 -4.12,-6.95 -1.69,-7.32 1.99,-15.1 10,-16.09 q 1.97,-0.25 3.96,-0.44 a 0.34,0.33 74.7 0 0 0.27,-0.48 z"
       id="path56" />
    <circle
       fill="#d8d8d8"
       cx="517.40002"
       cy="364.10999"
       r="3.77"
       id="circle58" />
    <circle
       fill="#d8d8d8"
       cx="715.33002"
       cy="370.81"
       r="3.8"
       id="circle60" />
    <circle
       fill="#d8d8d8"
       cx="527.53003"
       cy="372.53"
       r="3.74"
       id="circle62" />
    <circle
       fill="#d8d8d8"
       cx="613.90997"
       cy="374.72"
       r="3.8599999"
       id="circle64" />
    <circle
       fill="#d8d8d8"
       cx="705.53003"
       cy="378.60001"
       r="3.8099999"
       id="circle66" />
    <circle
       fill="#d8d8d8"
       cx="537.32001"
       cy="381.07001"
       r="3.77"
       id="circle68" />
    <circle
       fill="#d8d8d8"
       cx="463.25"
       cy="385.59"
       r="3.76"
       id="circle70" />
    <circle
       fill="#d8d8d8"
       cx="695.52002"
       cy="386.47"
       r="3.8"
       id="circle72" />
    <circle
       fill="#d8d8d8"
       cx="614.38"
       cy="387.12"
       r="3.8399999"
       id="circle74" />
    <circle
       fill="#d8d8d8"
       cx="547.39001"
       cy="389.56"
       r="3.75"
       id="circle76" />
    <circle
       fill="#d8d8d8"
       cx="475.04001"
       cy="390.45999"
       r="3.76"
       id="circle78" />
    <circle
       fill="#d8d8d8"
       cx="685.54999"
       cy="394.31"
       r="3.8"
       id="circle80" />
    <circle
       fill="#d8d8d8"
       cx="486.84"
       cy="395.45999"
       r="3.75"
       id="circle82" />
    <circle
       fill="#d8d8d8"
       cx="424.85001"
       cy="396.67001"
       r="3.8900001"
       id="circle84" />
    <path
       fill="#5266a1"
       d="m 663.29,412.75 6.14,-0.39 q 50.76,-4.14 92.29,22.5 c 55.03,35.29 75.83,108.47 52.09,168.48 -15.82,40 -48.2,70.53 -90.15,82.11 C 676.1,698.57 623.35,688.67 586.49,655.52 531.59,606.16 526.26,520.09 572,462.64 a 1.29,1.25 63.5 0 0 0.28,-0.88 c -0.06,-1.07 -0.13,-2.2 0.28,-3.22 q 4.09,-10.12 7.93,-20.48 -0.57,-2.18 -1.9,-3.86 c -0.36,-0.45 -1.22,-0.67 -1.13,0.3 l -0.27,-1.48 q -0.13,-0.72 -0.28,-0.94 l -9.82,-14.71 a 1.43,0.96 -67.1 0 1 -0.17,-0.87 c 0.79,-6.92 5.4,-5.2 10.28,-4.93 q 8.62,0.48 17.26,0.93 a 0.93,0.93 20.1 0 0 0.8,-0.37 q 6.27,-8.16 12.53,-16.18 c 4.64,-5.95 9.7,-2.78 10.68,3.39 0.99,6.25 2.76,12.18 4.3,18.29 a 1.22,0.62 83.5 0 0 0.54,0.82 l 6.18,2.31 a 1.59,1.56 45.5 0 0 1.06,0.02 q 15.99,-5.47 32.74,-8.03 z m -20.04,13.11 c 8.31,3.75 3.94,8.04 -0.96,11.09 q -7.65,4.78 -14.58,9.27 a 2.8,2.8 74.9 0 0 -1.27,2.21 q -0.49,9.98 -0.64,18.22 c -0.18,9.69 -4.93,9.42 -11.17,4.28 q -6.95,-5.72 -14,-11.44 a 1.2,0.6 46.4 0 0 -0.91,-0.33 l -18.81,5.42 a 1.44,0.29 -53.3 0 0 -0.79,0.71 c -48.67,58.06 -39.59,149.54 23.3,193.57 44.35,31.05 105.18,32.3 151.18,4.36 48.65,-29.55 70.21,-89.31 57.29,-143.4 C 793.68,443.57 717.36,404.8 643.32,424.98 q -1.27,0.34 -0.07,0.88 z"
       id="path86" />
    <circle
       fill="#d8d8d8"
       cx="557.12"
       cy="398.04001"
       r="3.79"
       id="circle88" />
    <circle
       fill="#d8d8d8"
       cx="498.78"
       cy="400.29999"
       r="3.77"
       id="circle90" />
    <circle
       fill="#d8d8d8"
       cx="675.77002"
       cy="402.09"
       r="3.8199999"
       id="circle92" />
    <circle
       fill="#d8d8d8"
       cx="510.51001"
       cy="405.20999"
       r="3.79"
       id="circle94" />
    <circle
       fill="#d8d8d8"
       cx="566.82001"
       cy="406.67001"
       r="3.78"
       id="circle96" />
    <circle
       fill="#d8d8d8"
       cx="417.62"
       cy="407.13"
       r="3.8800001"
       id="circle98" />
    <path
       fill="#d8d8d8"
       d="m 669.43,412.36 -6.14,0.39 c -4.59,-7.59 8.43,-9.92 6.14,-0.39 z"
       id="path100" />
    <circle
       fill="#d8d8d8"
       cx="522.15002"
       cy="410"
       r="3.72"
       id="circle102" />
    <circle
       fill="#d8d8d8"
       cx="534.12"
       cy="415.07001"
       r="3.74"
       id="circle104" />
    <circle
       fill="#d8d8d8"
       cx="410.07999"
       cy="417.63"
       r="3.8499999"
       id="circle106" />
    <circle
       fill="#d8d8d8"
       cx="545.77002"
       cy="419.62"
       r="3.74"
       id="circle108" />
    <path
       fill="#5266a1"
       d="m 1217.79,544.76 c 3.79,-75.45 64.74,-130.23 140.2,-127.48 q 34.32,1.25 62.55,16.28 c 71.13,37.85 90.05,133.54 43.16,198.09 -33.42,46.01 -91.47,62.88 -145.7,49.84 -62.56,-15.04 -103.4,-73.11 -100.21,-136.73 z m 101.64,-53.6 c -47.58,29.11 -40.59,113.67 16.53,127.63 54.66,13.36 92,-33.62 81.21,-84.97 -4.97,-23.63 -21.62,-43.22 -45.17,-49.58 -17.57,-4.74 -37,-2.61 -52.57,6.92 z"
       id="path110" />
    <circle
       fill="#d8d8d8"
       cx="557.62"
       cy="424.70999"
       r="3.77"
       id="circle112" />
    <circle
       fill="#d8d8d8"
       cx="402.85001"
       cy="427.91"
       r="3.8800001"
       id="circle114" />
    <path
       fill="#5266a1"
       d="m 1007.04,571.22 77.11,106.87 q 0.48,0.66 -0.4,0.66 H 1003 a 1.42,1.3 -15.4 0 1 -1.15,-0.59 l -61.34,-93.42 a 1.07,0.76 68.3 0 0 -0.76,-0.49 h -9.5 a 0.76,0.56 0 0 0 -0.76,0.56 L 929.5,678 a 0.75,0.75 0 0 1 -0.75,0.75 h -67.5 a 0.5,0.5 0 0 1 -0.5,-0.5 v -253.5 a 0.51,0.45 0 0 1 0.51,-0.45 q 29.62,-0.09 88.97,0.02 c 53.43,0.11 99.34,30.1 93.23,89.7 -2.5,24.34 -14.81,44.13 -36.22,56.55 a 0.49,0.42 -32.2 0 0 -0.2,0.65 z M 973.61,502.25 C 972.83,479.06 944.9,483.14 930.1,483.27 a 0.73,0.66 89.6 0 0 -0.65,0.73 l 0.05,40.5 a 0.63,0.46 -89.6 0 0 0.45,0.63 c 18.25,0.39 44.58,4.53 43.66,-22.88 z"
       id="path116" />
    <rect
       fill="#5266a1"
       x="1106.5"
       y="424.25"
       width="68.739998"
       height="254.5"
       rx="0.27000001"
       id="rect118" />
    <path
       fill="#5266a1"
       d="m 1600.78,532.65 q -0.12,0.09 -0.22,0.27 -0.09,0.13 -0.09,0.32 0.32,118.02 0.33,140.51 0,1.48 -0.3,4.5 a 0.56,0.5 -86.8 0 1 -0.5,0.5 h -67.5 a 0.5,0.5 0 0 1 -0.5,-0.5 v -253.5 a 0.5,0.5 0 0 1 0.5,-0.5 h 83.75 a 1.03,0.49 65.7 0 1 0.67,0.57 l 84.41,145.38 q 0.42,0.72 0.42,-0.2 V 424.75 a 0.5,0.5 0 0 1 0.5,-0.5 H 1770 a 0.5,0.5 0 0 1 0.5,0.5 v 253.5 a 0.56,0.5 0 0 1 -0.56,0.5 h -83.44 a 1.14,1.06 -14.2 0 1 -0.96,-0.53 q -41.61,-71.56 -83.15,-143.13 -0.74,-1.28 -1.06,-2.12 a 0.47,0.3 63.1 0 0 -0.55,-0.32 z"
       id="path120" />
    <circle
       fill="#d8d8d8"
       cx="569.22998"
       cy="429.73001"
       r="3.73"
       id="circle122" />
    <path
       fill="#d8d8d8"
       d="m 580.49,438.06 q -3.05,-0.78 -3.03,-3.56 c -0.09,-0.97 0.77,-0.75 1.13,-0.3 q 1.33,1.68 1.9,3.86 z"
       id="path124" />
    <circle
       fill="#d8d8d8"
       cx="395.48999"
       cy="438.39001"
       r="3.8499999"
       id="circle126" />
    <circle
       fill="#d8d8d8"
       cx="388.04999"
       cy="448.72"
       r="3.8800001"
       id="circle128" />
    <circle
       fill="#d8d8d8"
       cx="380.66"
       cy="459.20001"
       r="3.8800001"
       id="circle130" />
    <circle
       fill="#d8d8d8"
       cx="373.31"
       cy="469.69"
       r="3.8800001"
       id="circle132" />
    <circle
       fill="#d8d8d8"
       cx="256.10999"
       cy="482.25"
       r="12.76"
       id="circle134" />
    <path
       fill="#5266a1"
       d="m 745.64,579.23 c -22.98,64.17 -116.19,57.29 -129.79,-10.19 -10.16,-50.4 25.21,-98.77 80.08,-88.58 45.82,8.51 64.11,58.55 49.71,98.77 z M 623.49,566.26 c 3.68,19.97 16.49,37.86 35.6,45.17 31.01,11.87 66.12,-1.05 78.4,-32.7 15.89,-40.97 -5.65,-90.6 -54.2,-91.64 -43.95,-0.94 -67.14,39.39 -59.8,79.17 z"
       id="path136" />
    <path
       fill="#5266a1"
       d="m 364.56,502.92 15.35,11.39 a 1.54,0.66 87.1 0 1 0.45,0.92 c 0.86,4.28 -1.51,4.71 -4.71,5.64 q -7.81,2.26 -15.57,4.56 a 0.97,0.96 1.1 0 0 -0.65,0.62 q -2.71,8.1 -5.45,16.05 c -1.26,3.65 -4.77,5.72 -7.39,1.83 q -5.06,-7.5 -10.1,-14.99 a 0.98,0.93 71.9 0 0 -0.78,-0.42 q -8.56,-0.02 -17.09,-0.04 c -4.02,-0.01 -6.67,-3.08 -3.99,-6.66 q 5.17,-6.93 10.56,-13.7 a 1.29,1.28 55.8 0 0 0.22,-1.18 q -2.29,-7.6 -4.7,-15.22 c -1.81,-5.77 0.62,-8.18 6.3,-6.15 q 7.62,2.73 15.23,5.5 a 0.97,0.95 37.2 0 0 0.89,-0.11 q 7.02,-4.95 13.98,-9.97 c 3.72,-2.68 7.17,-1.41 7.16,3.31 q -0.03,8.7 -0.5,17.4 a 1.79,0.97 28.5 0 0 0.79,1.22 z"
       id="path138" />
    <circle
       fill="#d8d8d8"
       cx="279.17999"
       cy="485.35001"
       r="3.8099999"
       id="circle140" />
    <circle
       fill="#d8d8d8"
       cx="292.06"
       cy="490.59"
       r="3.8199999"
       id="circle142" />
    <circle
       fill="#d8d8d8"
       cx="305.07999"
       cy="495.63"
       r="3.79"
       id="circle144" />
    <path
       fill="#d8d8d8"
       d="m 316.05,504.22 q -3.37,-2.57 -0.79,-5.94 0.87,-1.14 1.19,0.02 l 1.42,5.19 q 0.73,2.67 -1.82,0.73 z"
       id="path146" />
    <circle
       fill="#d8d8d8"
       cx="394.76999"
       cy="522.5"
       r="3.75"
       id="circle148" />
    <circle
       fill="#d8d8d8"
       cx="407.64999"
       cy="525.13"
       r="3.72"
       id="circle150" />
    <circle
       fill="#d8d8d8"
       cx="420.56"
       cy="527.92999"
       r="3.75"
       id="circle152" />
    <circle
       fill="#d8d8d8"
       cx="433.29001"
       cy="530.78998"
       r="3.75"
       id="circle154" />
    <circle
       fill="#d8d8d8"
       cx="446.17999"
       cy="533.58002"
       r="3.79"
       id="circle156" />
    <circle
       fill="#d8d8d8"
       cx="458.89001"
       cy="536.45001"
       r="3.75"
       id="circle158" />
    <circle
       fill="#d8d8d8"
       cx="471.59"
       cy="538.91998"
       r="3.7"
       id="circle160" />
    <path
       fill="#d8d8d8"
       d="m 515.43,555.07 -6.18,-2.56 a 1.53,0.52 16.5 0 1 -0.85,-0.6 c -1.25,-2.45 4.76,-4.52 6.42,-5.64 a 0.99,0.96 73.9 0 0 0.42,-0.79 c 0,-1.14 -0.5,-11.02 3.15,-7.81 q 2.59,2.29 5.27,4.51 a 1.01,0.98 57.3 0 0 0.87,0.2 q 3.21,-0.77 6.35,-1.6 c 4.99,-1.34 0.01,7.03 -0.52,8.51 a 1.27,0.75 48.6 0 0 0.18,0.93 l 3.58,5.94 q 1.6,2.64 -1.61,2.32 l -7.02,-0.7 a 1.09,0.71 -60.5 0 0 -0.79,0.41 l -4.59,5.41 q -1.77,2.08 -2.37,-0.6 l -1.64,-7.32 a 1.12,0.6 14 0 0 -0.67,-0.61 z"
       id="path162" />
    <circle
       fill="#d8d8d8"
       cx="484.63"
       cy="541.90997"
       r="3.79"
       id="circle164" />
    <circle
       fill="#d8d8d8"
       cx="497.37"
       cy="544.54999"
       r="3.8099999"
       id="circle166" />
    <path
       fill="#d8d8d8"
       d="m 511.47,543.6 q 1.96,0.36 0.25,1.39 l -4.68,2.79 q -0.67,0.41 -0.65,-0.3 0.2,-4.77 5.08,-3.88 z"
       id="path168" />
    <path
       fill="#d8d8d8"
       d="m 513.89,560.94 q 0.51,-2.1 0.96,-0.02 l 0.88,4.09 q 0.35,1.62 -0.8,0.31 -1.66,-1.89 -1.04,-4.38 z"
       id="path170" />
    <circle
       fill="#d8d8d8"
       cx="512.13"
       cy="574.25"
       r="3.8499999"
       id="circle172" />
    <circle
       fill="#d8d8d8"
       cx="506.54999"
       cy="586.41998"
       r="3.8800001"
       id="circle174" />
    <circle
       fill="#d8d8d8"
       cx="501.13"
       cy="598.59998"
       r="3.8399999"
       id="circle176" />
    <circle
       fill="#d8d8d8"
       cx="495.70999"
       cy="610.71002"
       r="3.8499999"
       id="circle178" />
    <circle
       fill="#d8d8d8"
       cx="488.48001"
       cy="630.94"
       r="12.77"
       id="circle180" />
  </g>
</svg>
