<?xml version="1.0" encoding="UTF-8" standalone="no"?>
<svg
   version="1.1"
   viewBox="0 0 254.45 254.45"
   id="svg246"
   sodipodi:docname="pronote.svg"
   width="254.45"
   height="254.45"
   inkscape:version="1.2.2 (732a01da63, 2022-12-09)"
   xmlns:inkscape="http://www.inkscape.org/namespaces/inkscape"
   xmlns:sodipodi="http://sodipodi.sourceforge.net/DTD/sodipodi-0.dtd"
   xmlns:xlink="http://www.w3.org/1999/xlink"
   xmlns="http://www.w3.org/2000/svg"
   xmlns:svg="http://www.w3.org/2000/svg">
  <defs
     id="defs250">
    <linearGradient
       inkscape:collect="always"
       id="linearGradient2917">
      <stop
         style="stop-color:#176a4b;stop-opacity:1;"
         offset="0"
         id="stop2913" />
      <stop
         style="stop-color:#efc210;stop-opacity:1"
         offset="1"
         id="stop2915" />
    </linearGradient>
    <linearGradient
       inkscape:collect="always"
       xlink:href="#linearGradient2917"
       id="linearGradient2919"
       x1="-146.00414"
       y1="164.62642"
       x2="10.572528"
       y2="9.2524519"
       gradientUnits="userSpaceOnUse"
       gradientTransform="translate(263.45214,-31.284325)" />
  </defs>
  <sodipodi:namedview
     id="namedview248"
     pagecolor="#ffffff"
     bordercolor="#000000"
     borderopacity="0.25"
     inkscape:showpageshadow="2"
     inkscape:pageopacity="0.0"
     inkscape:pagecheckerboard="0"
     inkscape:deskcolor="#d1d1d1"
     showgrid="false"
     inkscape:zoom="1.6347656"
     inkscape:cx="274.96296"
     inkscape:cy="137.0227"
     inkscape:window-width="1920"
     inkscape:window-height="1017"
     inkscape:window-x="1912"
     inkscape:window-y="-8"
     inkscape:window-maximized="1"
     inkscape:current-layer="svg246" />
  <circle
     style="fill:url(#linearGradient2919);fill-opacity:1;stroke:none;stroke-width:0.768687;stop-color:#000000"
     id="path585"
     cx="127.225"
     cy="127.225"
     r="127.225" />
  <g
     id="g7201"
     transform="translate(1.2969208,-0.85427965)">
    <path
       fill="#ffffff"
       d="M 76.46,32.25 Q 90.47,37.14 102,46.46 109.51,52.9 115.21,61 l 6.54,11.79 q 2.9,7.43 4.5,15.25 1.2,7.44 0.79,14.96 c -0.62,9.61 -2.95,16.5 -6.29,27.96 -5.17,14.95 -12.61,29.46 -23.99,40.12 Q 81.36,183.6 61.2,182.4 c -7.01,-0.62 -22.51,-4.09 -26.31,-10.75 -4.15,-7.26 4.69,-20.7 10.15,-26.65 q 14.47,-14.82 35.04,-14.77 1.36,0.01 0.39,-0.96 Q 62.61,111.48 57.96,86.75 55.44,72.07 58.54,57.5 62.01,44.51 66,37 69.1,31.16 76.46,32.25 Z"
       id="path194" />
    <path
       fill="#ffffff"
       d="m 193.75,87.21 7.96,0.04 10.65,1.69 c 8.7,2.45 20.97,5.12 21.68,14.06 q -0.59,4.31 -2.5,8.25 -4.07,10.7 -10.79,19.96 l -4.5,5.5 -6.75,6.25 -8.25,6.25 q -9.58,5.73 -20.25,9 -11.16,3.09 -22.76,3.06 -1.04,0 -0.31,0.74 7.65,7.67 11.82,18.03 1.89,5.88 2.75,12 0.73,11.92 -3.75,22.92 -2.33,7.92 -10.5,9.12 -16.53,-3.57 -27.96,-15.83 -11.07,-12.02 -12.77,-28.64 c -0.72,-14.88 3.91,-29.87 10.19,-43.36 5.65,-11.33 11.13,-21.88 20.08,-30.5 q 5.65,-5.25 12.25,-9.25 l 9.11,-4.47 q 7.02,-2.55 14.85,-4.07 l 3.75,-0.5 z"
       id="path212" />
  </g>
</svg>
