<?xml version="1.0" encoding="UTF-8" standalone="no"?>
<svg
   viewBox="0 0 300 100"
   width="300"
   height="100"
   version="1.1"
   id="svg22"
   sodipodi:docname="refnum.svg"
   inkscape:version="1.2.2 (732a01da63, 2022-12-09)"
   xmlns:inkscape="http://www.inkscape.org/namespaces/inkscape"
   xmlns:sodipodi="http://sodipodi.sourceforge.net/DTD/sodipodi-0.dtd"
   xmlns="http://www.w3.org/2000/svg"
   xmlns:svg="http://www.w3.org/2000/svg">
  <defs
     id="defs26" />
  <sodipodi:namedview
     id="namedview24"
     pagecolor="#ffffff"
     bordercolor="#000000"
     borderopacity="0.25"
     inkscape:showpageshadow="2"
     inkscape:pageopacity="0.0"
     inkscape:pagecheckerboard="0"
     inkscape:deskcolor="#d1d1d1"
     showgrid="false"
     inkscape:zoom="1.6347656"
     inkscape:cx="142.52808"
     inkscape:cy="11.010753"
     inkscape:window-width="1920"
     inkscape:window-height="1017"
     inkscape:window-x="3832"
     inkscape:window-y="-8"
     inkscape:window-maximized="1"
     inkscape:current-layer="svg22" />
  <g
     aria-label="* pour signaler un problème
* formuler une demande
* poser une question
* demander une formation "
     id="text363"
     style="font-size:12.9354px;font-family:Consolas;-inkscape-font-specification:Consolas;fill:#261b0c;stroke:none;stroke-width:0.916673;stroke-dasharray:2.75004, 2.75004;stop-color:#000000">
    <path
       d="M 7.9052825,5.8024969 7.2308042,6.982834 4.4436218,5.1379374 4.6717542,8.5301666 H 3.253366 L 3.4715795,5.1379374 0.62488431,6.982834 -1.1175871e-8,5.8223345 3.0450712,4.3245959 -1.1175871e-8,2.7971009 0.6843971,1.6366015 3.4914171,3.5112544 3.253366,0.11902528 h 1.4183882 l -0.24797,3.39222912 2.80702,-1.8944905 0.6943159,1.2200122 -3.05499,1.5076574 z"
       style="font-size:20.3137px;fill:#ffffff;stroke:none"
       id="path11605" />
    <path
       d="m 30.807789,8.9765125 q 0,1.3291195 -0.376914,2.3209985 -0.366996,0.99188 -1.021636,1.646521 -0.654641,0.654641 -1.547333,0.981961 -0.892692,0.32732 -1.934166,0.32732 -0.476102,0 -0.952204,-0.04959 -0.466184,-0.04959 -0.952205,-0.168619 v 4.165895 H 22.29746 V 4.1758139 h 1.537414 l 0.109107,1.6663582 q 0.74391,-1.0216362 1.587007,-1.428307 0.843098,-0.4165895 1.825059,-0.4165895 0.853017,0 1.497739,0.3570767 0.644722,0.3570768 1.081149,1.0117175 0.436427,0.6447219 0.654641,1.5671702 0.218213,0.9125295 0.218213,2.0432725 z m -1.765546,0.07935 q 0,-0.7835851 -0.119025,-1.4382258 Q 28.814111,6.9629964 28.566141,6.4968128 28.318171,6.0306293 27.931338,5.7727405 27.544505,5.504933 27.008889,5.504933 q -0.32732,0 -0.664559,0.1091068 -0.337239,0.099188 -0.704235,0.3471579 -0.357076,0.2380512 -0.763747,0.6447219 -0.396752,0.396752 -0.853017,0.9918799 v 4.8304545 q 0.476102,0.198376 1.001799,0.317402 0.525696,0.109107 1.031555,0.109107 1.39855,0 2.192054,-0.942286 0.793504,-0.952205 0.793504,-2.8566141 z"
       style="font-size:20.3137px;fill:#ffffff;stroke:none"
       id="path11607" />
    <path
       d="m 42.135058,9.0757005 q 0,1.1604995 -0.327321,2.1325415 -0.32732,0.962124 -0.942285,1.65644 -0.614966,0.684397 -1.497739,1.07123 -0.882773,0.376914 -2.003597,0.376914 -1.071231,0 -1.924247,-0.32732 -0.843098,-0.337239 -1.438226,-0.981961 -0.585209,-0.644722 -0.902611,-1.596927 -0.307483,-0.952204 -0.307483,-2.1920543 0,-1.1604995 0.327321,-2.1127041 0.32732,-0.9621235 0.942286,-1.6465206 0.614965,-0.6943159 1.497738,-1.0712303 0.882773,-0.3868331 2.003598,-0.3868331 1.07123,0 1.914328,0.3372391 0.853016,0.3273204 1.438226,0.9720423 0.595128,0.6348031 0.90261,1.5870078 0.317402,0.9522047 0.317402,2.1821357 z m -1.765546,0.07935 q 0,-0.9224483 -0.208295,-1.6068454 -0.198376,-0.6943159 -0.57529,-1.1505806 -0.376915,-0.4661836 -0.922449,-0.694316 -0.535615,-0.2380511 -1.200174,-0.2380511 -0.773667,0 -1.329119,0.3074827 -0.545534,0.297564 -0.902611,0.8034227 -0.347158,0.5058588 -0.515778,1.1803371 -0.1587,0.6645595 -0.1587,1.3985506 0,0.9224481 0.198376,1.6167641 0.208294,0.694316 0.585209,1.1605 0.376914,0.456264 0.912529,0.694315 0.535615,0.228133 1.210094,0.228133 0.773666,0 1.3192,-0.297564 0.555453,-0.307483 0.902611,-0.813342 0.357076,-0.505858 0.515777,-1.170418 0.16862,-0.6744782 0.16862,-1.4183881 z"
       style="font-size:20.3137px;fill:#ffffff;stroke:none"
       id="path11609" />
    <path
       d="m 52.639066,14.134288 h -1.547333 l -0.05951,-1.606846 q -0.446346,0.515778 -0.853017,0.862936 -0.396752,0.337239 -0.793504,0.545534 -0.396752,0.208295 -0.803423,0.287645 -0.396752,0.08927 -0.843098,0.08927 -1.537413,0 -2.320998,-0.90261 -0.783586,-0.902611 -0.783586,-2.72767 V 4.1758139 h 1.725871 v 6.3678691 q 0,2.291242 1.725871,2.291242 0.317402,0 0.614966,-0.08927 0.307483,-0.09919 0.634803,-0.32732 0.337239,-0.238052 0.714154,-0.634803 0.386833,-0.396752 0.862935,-1.001799 V 4.1758139 h 1.725871 z"
       style="font-size:20.3137px;fill:#ffffff;stroke:none"
       id="path11611" />
    <path
       d="m 56.209834,4.1758139 h 1.577089 l 0.04959,1.8349778 q 0.882773,-1.0613115 1.73579,-1.5374138 0.862935,-0.4761023 1.735789,-0.4761023 1.547333,0 2.340837,1.0017986 0.803423,1.0017987 0.74391,2.9756396 H 62.647134 Q 62.676891,6.6654324 62.260301,6.0802233 61.85363,5.4850954 61.060126,5.4850954 q -0.347158,0 -0.704234,0.1289444 -0.347158,0.1190255 -0.724073,0.3967519 -0.366995,0.2678076 -0.783585,0.6943159 -0.416589,0.4265084 -0.892692,1.0315551 v 6.3976253 h -1.745708 z"
       style="font-size:20.3137px;fill:#ffffff;stroke:none"
       id="path11613" />
    <path
       d="m 86.025747,11.416537 q 0,0.525696 -0.178538,0.942286 -0.178539,0.416589 -0.486021,0.74391 -0.307483,0.317401 -0.714154,0.545534 -0.406671,0.228132 -0.872854,0.376914 -0.456265,0.148782 -0.942286,0.218214 -0.486021,0.06943 -0.952205,0.06943 -1.011717,0 -1.864734,-0.08927 -0.843098,-0.08927 -1.656439,-0.287645 v -1.587008 q 0.872854,0.24797 1.73579,0.376914 0.862935,0.128945 1.715952,0.128945 1.23985,0 1.834977,-0.337239 0.595128,-0.33724 0.595128,-0.962124 0,-0.267807 -0.09919,-0.476102 -0.08927,-0.218214 -0.337239,-0.406671 Q 83.555966,10.474251 83.03027,10.265956 82.514492,10.057662 81.611882,9.789854 80.937403,9.591478 80.362113,9.3435081 79.796742,9.0856193 79.380152,8.7384613 78.963563,8.3913034 78.725511,7.9251199 78.48746,7.4589363 78.48746,6.8241332 q 0,-0.4165895 0.188457,-0.9125295 0.198376,-0.4959399 0.66456,-0.9224483 0.466183,-0.4265083 1.259687,-0.7042347 0.793504,-0.2876451 1.98376,-0.2876451 0.585209,0 1.299363,0.069432 0.714153,0.059513 1.487819,0.2182135 v 1.5374138 q -0.813341,-0.1983759 -1.547332,-0.2876451 -0.724072,-0.099188 -1.259688,-0.099188 -0.644721,0 -1.091067,0.099188 -0.436428,0.099188 -0.714154,0.2777263 -0.267807,0.1686196 -0.386833,0.4066708 -0.119026,0.2281323 -0.119026,0.4959399 0,0.2678076 0.09919,0.4860211 0.109107,0.2182136 0.386833,0.4265084 0.287646,0.198376 0.793504,0.4066707 0.505859,0.198376 1.319201,0.4364272 0.882773,0.2578887 1.487819,0.5455339 0.605047,0.2777264 0.981961,0.6248843 0.376915,0.347158 0.535616,0.783585 0.168619,0.436427 0.168619,0.99188 z"
       style="font-size:20.3137px;fill:#ffffff;stroke:none"
       id="path11615" />
    <path
       d="M 92.701095,5.604121 H 89.755212 V 4.1758139 h 4.691592 v 8.5202481 h 2.965721 v 1.438226 h -7.984633 v -1.438226 h 3.273203 z M 93.306142,-3.0267984e-7 q 0.287645,0 0.535615,0.10910678267984 0.24797,0.099188 0.426508,0.28764517 0.188458,0.18845717 0.287646,0.43642714 0.109106,0.23805121 0.109106,0.52569631 0,0.2777264 -0.109106,0.5256963 -0.09919,0.24797 -0.287646,0.4364272 -0.178538,0.1884572 -0.426508,0.297564 -0.24797,0.099188 -0.535615,0.099188 -0.287645,0 -0.535615,-0.099188 -0.24797,-0.1091068 -0.436427,-0.297564 -0.178539,-0.1884572 -0.287646,-0.4364272 -0.09919,-0.2479699 -0.09919,-0.5256963 0,-0.2876451 0.09919,-0.52569631 Q 92.155561,0.58520882 92.3341,0.39675165 92.522557,0.20829447 92.770527,0.10910648 93.018497,-3.0267984e-7 93.306142,-3.0267984e-7 Z"
       style="font-size:20.3137px;fill:#ffffff;stroke:none"
       id="path11617" />
    <path
       d="m 107.64872,5.5842834 q 0.27773,0.3471579 0.42651,0.8133415 0.1587,0.4562647 0.1587,0.9918798 0,0.7736663 -0.28764,1.4183882 -0.27773,0.6348032 -0.79351,1.0910679 -0.51578,0.4562652 -1.23985,0.7141532 -0.71415,0.24797 -1.57709,0.24797 -0.62488,0 -1.17042,-0.128944 -0.54553,-0.138863 -0.86293,-0.337239 -0.18846,0.277726 -0.3174,0.525696 -0.12895,0.24797 -0.12895,0.555453 0,0.376914 0.35708,0.624884 0.367,0.24797 0.96212,0.267808 l 2.61857,0.09919 q 0.74391,0.01984 1.36879,0.188457 0.6348,0.168619 1.08115,0.486021 0.45626,0.317402 0.70423,0.783585 0.25789,0.466184 0.25789,1.081149 0,0.66456 -0.28764,1.259688 -0.28765,0.595127 -0.89269,1.041473 -0.59513,0.456265 -1.51758,0.724073 -0.92245,0.267807 -2.19206,0.267807 -1.21009,0 -2.06311,-0.198376 -0.84309,-0.188457 -1.38863,-0.535615 -0.54553,-0.337239 -0.7935,-0.813341 -0.247971,-0.466184 -0.247971,-1.031555 0,-0.724073 0.337241,-1.269607 0.33724,-0.545534 1.04147,-1.051392 -0.25789,-0.119026 -0.44634,-0.297564 -0.18846,-0.178539 -0.30749,-0.386833 -0.11902,-0.218214 -0.17853,-0.456265 -0.0595,-0.238051 -0.0595,-0.466184 0,-0.644722 0.29757,-1.180337 0.30748,-0.535615 0.72407,-1.0117172 -0.18846,-0.2281323 -0.33724,-0.4463459 -0.13886,-0.2182136 -0.24797,-0.4661835 -0.0992,-0.2578888 -0.1587,-0.545534 -0.0496,-0.2975639 -0.0496,-0.6744783 0,-0.7736663 0.27773,-1.4084694 0.28765,-0.6447219 0.7935,-1.1009867 0.51578,-0.4562647 1.22994,-0.7042347 0.72407,-0.2578887 1.59692,-0.2578887 0.367,0 0.70424,0.049594 0.33724,0.049594 0.59513,0.1289443 h 3.61044 v 1.4084695 z m -5.99095,9.9882306 q 0,0.704234 0.73399,1.021636 0.73399,0.32732 2.04327,0.32732 0.82326,0 1.37871,-0.148782 0.56538,-0.148782 0.90261,-0.396752 0.34716,-0.238051 0.49594,-0.555452 0.14879,-0.307483 0.14879,-0.634804 0,-0.605046 -0.49594,-0.892691 -0.49594,-0.287646 -1.51758,-0.33724 l -2.59873,-0.08927 q -0.32732,0.218214 -0.54553,0.426509 -0.20829,0.208294 -0.32732,0.416589 -0.11903,0.218214 -0.16862,0.426509 -0.0496,0.218213 -0.0496,0.436427 z m 0.52569,-8.1433341 q 0,0.4761024 0.1587,0.8728543 0.1587,0.396752 0.44635,0.6744783 0.28765,0.2777264 0.67448,0.4364272 0.39675,0.1487819 0.87285,0.1487819 0.51578,0 0.91253,-0.1686195 0.40667,-0.1785384 0.67448,-0.4761024 0.27773,-0.2975639 0.41659,-0.6843971 0.14878,-0.3868331 0.14878,-0.8034227 0,-0.4761023 -0.1587,-0.8728543 -0.1587,-0.3967519 -0.44634,-0.6744783 -0.28765,-0.2777263 -0.6844,-0.4265083 -0.38684,-0.1587008 -0.86294,-0.1587008 -0.51577,0 -0.92245,0.1785384 -0.39675,0.1785384 -0.67447,0.4761023 -0.26781,0.2876452 -0.41659,0.6744783 -0.13887,0.3868332 -0.13887,0.8034227 z"
       style="font-size:20.3137px;fill:#ffffff;stroke:none"
       id="path11619" />
    <path
       d="m 111.646,4.1758139 h 1.53742 l 0.0694,1.6068454 q 0.43642,-0.5157775 0.84309,-0.8530167 0.40668,-0.3471579 0.79351,-0.5554527 0.39675,-0.2082948 0.80342,-0.2876451 0.40667,-0.089269 0.8431,-0.089269 1.53741,0 2.321,0.9125295 0.7935,0.9026106 0.7935,2.7276696 V 14.134288 H 117.9246 V 7.7763379 q 0,-1.1704183 -0.43643,-1.725871 -0.43642,-0.5653715 -1.29936,-0.5653715 -0.3174,0 -0.62488,0.099188 -0.29757,0.089269 -0.62489,0.3273203 -0.32732,0.2281324 -0.71415,0.6248843 -0.37692,0.396752 -0.85302,0.9918799 V 14.134288 H 111.646 Z"
       style="font-size:20.3137px;fill:#ffffff;stroke:none"
       id="path11621" />
    <path
       d="m 129.2122,14.134288 -0.0397,-1.339038 q -0.81334,0.803423 -1.65644,1.160499 -0.83318,0.357077 -1.75562,0.357077 -0.85302,0 -1.45807,-0.218213 -0.60504,-0.218214 -1.0018,-0.595128 -0.38683,-0.386833 -0.57529,-0.902611 -0.17853,-0.515777 -0.17853,-1.120824 0,-1.4977388 1.1109,-2.3408367 1.12082,-0.8530167 3.30296,-0.8530167 h 2.06311 V 7.4093423 q 0,-0.8827731 -0.56537,-1.4084694 -0.56537,-0.5356151 -1.72587,-0.5356151 -0.8431,0 -1.66636,0.1884572 -0.81334,0.1884571 -1.6862,0.5356151 V 4.6320787 q 0.32732,-0.1190256 0.72408,-0.2281324 0.40667,-0.1190256 0.85301,-0.2082948 0.44635,-0.089269 0.93237,-0.1388631 0.48602,-0.059513 0.98196,-0.059513 0.90261,0 1.62668,0.1983759 0.72408,0.198376 1.22002,0.6050468 0.50586,0.4066707 0.77366,1.0216362 0.26781,0.6149655 0.26781,1.4481446 v 6.8638089 z m -0.18846,-4.5328912 h -2.19205 q -0.64473,0 -1.11091,0.1289444 -0.46618,0.1289444 -0.76375,0.3669958 -0.29756,0.238051 -0.44634,0.57529 -0.13887,0.32732 -0.13887,0.74391 0,0.287645 0.0893,0.555453 0.0893,0.257888 0.28765,0.466183 0.19837,0.198376 0.51578,0.317402 0.3174,0.119025 0.77366,0.119025 0.59513,0 1.35888,-0.357076 0.77366,-0.366996 1.62668,-1.150581 z"
       style="font-size:20.3137px;fill:#ffffff;stroke:none"
       id="path11623" />
    <path
       d="m 137.37537,1.5374135 h -2.94589 V 0.11902528 h 4.69159 V 12.696062 h 2.96573 v 1.438226 h -7.98464 v -1.438226 h 3.27321 z"
       style="font-size:20.3137px;fill:#ffffff;stroke:none"
       id="path11625" />
    <path
       d="m 153.56284,8.6293546 q 0,0.3669955 -0.01,0.6149655 -0.01,0.2479699 -0.0298,0.4661835 h -6.99276 q 0,1.5274954 0.85302,2.3507554 0.85302,0.813341 2.45986,0.813341 0.43643,0 0.87286,-0.02976 0.43642,-0.03968 0.84309,-0.09919 0.40668,-0.05951 0.77367,-0.128944 0.37692,-0.07935 0.69432,-0.16862 v 1.418388 q -0.70424,0.198376 -1.59693,0.317402 -0.88277,0.128944 -1.83498,0.128944 -1.27952,0 -2.20197,-0.347158 -0.92245,-0.347158 -1.51758,-1.001798 -0.58521,-0.66456 -0.87285,-1.616765 -0.27773,-0.962123 -0.27773,-2.1722165 0,-1.0513927 0.29757,-1.9837598 0.30748,-0.9422858 0.88277,-1.6465205 0.58521,-0.7141535 1.42831,-1.1307431 0.84309,-0.4165895 1.91432,-0.4165895 1.04148,0 1.8449,0.3273203 0.80342,0.3273204 1.34896,0.9323671 0.55545,0.5951279 0.83318,1.4580634 0.28764,0.8530167 0.28764,1.9143282 z m -1.7953,-0.24797 q 0.0298,-0.6645595 -0.12895,-1.2100934 -0.1587,-0.5554528 -0.49594,-0.9522047 -0.32732,-0.396752 -0.82326,-0.6149655 -0.49594,-0.2281324 -1.15058,-0.2281324 -0.56537,0 -1.03155,0.2182136 -0.46618,0.2182135 -0.80342,0.6149655 -0.33724,0.3967519 -0.54554,0.9522047 -0.20829,0.5554527 -0.25789,1.2200122 z"
       style="font-size:20.3137px;fill:#ffffff;stroke:none"
       id="path11627" />
    <path
       d="m 156.72695,4.1758139 h 1.57709 l 0.0496,1.8349778 q 0.88278,-1.0613115 1.73579,-1.5374138 0.86294,-0.4761023 1.73579,-0.4761023 1.54734,0 2.34084,1.0017986 0.80342,1.0017987 0.74391,2.9756396 h -1.74571 q 0.0298,-1.3092814 -0.38683,-1.8944905 -0.40667,-0.5951279 -1.20018,-0.5951279 -0.34716,0 -0.70423,0.1289444 -0.34716,0.1190255 -0.72407,0.3967519 -0.367,0.2678076 -0.78359,0.6943159 -0.41659,0.4265084 -0.89269,1.0315551 v 6.3976253 h -1.74571 z"
       style="font-size:20.3137px;fill:#ffffff;stroke:none"
       id="path11629" />
    <path
       d="m 186.66188,14.134288 h -1.54733 l -0.0595,-1.606846 q -0.44634,0.515778 -0.85301,0.862936 -0.39676,0.337239 -0.79351,0.545534 -0.39675,0.208295 -0.80342,0.287645 -0.39675,0.08927 -0.8431,0.08927 -1.53741,0 -2.321,-0.90261 -0.78358,-0.902611 -0.78358,-2.72767 V 4.1758139 h 1.72587 v 6.3678691 q 0,2.291242 1.72587,2.291242 0.3174,0 0.61496,-0.08927 0.30749,-0.09919 0.63481,-0.32732 0.33724,-0.238052 0.71415,-0.634803 0.38683,-0.396752 0.86294,-1.001799 V 4.1758139 h 1.72587 z"
       style="font-size:20.3137px;fill:#ffffff;stroke:none"
       id="path11631" />
    <path
       d="m 189.82597,4.1758139 h 1.53741 l 0.0694,1.6068454 q 0.43642,-0.5157775 0.84309,-0.8530167 0.40668,-0.3471579 0.79351,-0.5554527 0.39675,-0.2082948 0.80342,-0.2876451 0.40667,-0.089269 0.8431,-0.089269 1.53741,0 2.321,0.9125295 0.7935,0.9026106 0.7935,2.7276696 v 6.4968133 h -1.72587 V 7.7763379 q 0,-1.1704183 -0.43643,-1.725871 -0.43642,-0.5653715 -1.29936,-0.5653715 -0.3174,0 -0.62488,0.099188 -0.29757,0.089269 -0.62489,0.3273203 -0.32732,0.2281324 -0.71415,0.6248843 -0.37692,0.396752 -0.85302,0.9918799 v 6.6059201 h -1.72587 z"
       style="font-size:20.3137px;fill:#ffffff;stroke:none"
       id="path11633" />
    <path
       d="m 220.67344,8.9765125 q 0,1.3291195 -0.37691,2.3209985 -0.367,0.99188 -1.02164,1.646521 -0.65464,0.654641 -1.54733,0.981961 -0.89269,0.32732 -1.93417,0.32732 -0.4761,0 -0.9522,-0.04959 -0.46618,-0.04959 -0.9522,-0.168619 v 4.165895 h -1.72588 V 4.1758139 h 1.53742 l 0.1091,1.6663582 q 0.74391,-1.0216362 1.58701,-1.428307 0.8431,-0.4165895 1.82506,-0.4165895 0.85302,0 1.49774,0.3570767 0.64472,0.3570768 1.08115,1.0117175 0.43643,0.6447219 0.65464,1.5671702 0.21821,0.9125295 0.21821,2.0432725 z m -1.76554,0.07935 q 0,-0.7835851 -0.11903,-1.4382258 -0.10911,-0.6546407 -0.35708,-1.1208243 -0.24797,-0.4661835 -0.6348,-0.7240723 -0.38683,-0.2678075 -0.92245,-0.2678075 -0.32732,0 -0.66456,0.1091068 -0.33724,0.099188 -0.70423,0.3471579 -0.35708,0.2380512 -0.76375,0.6447219 -0.39675,0.396752 -0.85301,0.9918799 v 4.8304545 q 0.4761,0.198376 1.00179,0.317402 0.5257,0.109107 1.03156,0.109107 1.39855,0 2.19205,-0.942286 0.79351,-0.952205 0.79351,-2.8566141 z"
       style="font-size:20.3137px;fill:#ffffff;stroke:none"
       id="path11635" />
    <path
       d="m 223.73835,4.1758139 h 1.57709 l 0.0496,1.8349778 q 0.88277,-1.0613115 1.73579,-1.5374138 0.86294,-0.4761023 1.73579,-0.4761023 1.54733,0 2.34084,1.0017986 0.80342,1.0017987 0.74391,2.9756396 h -1.74571 q 0.0298,-1.3092814 -0.38683,-1.8944905 -0.40667,-0.5951279 -1.20018,-0.5951279 -0.34716,0 -0.70423,0.1289444 -0.34716,0.1190255 -0.72408,0.3967519 -0.36699,0.2678076 -0.78358,0.6943159 -0.41659,0.4265084 -0.89269,1.0315551 v 6.3976253 h -1.74571 z"
       style="font-size:20.3137px;fill:#ffffff;stroke:none"
       id="path11637" />
    <path
       d="m 243.16927,9.0757005 q 0,1.1604995 -0.32732,2.1325415 -0.32732,0.962124 -0.94228,1.65644 -0.61497,0.684397 -1.49774,1.07123 -0.88278,0.376914 -2.0036,0.376914 -1.07123,0 -1.92425,-0.32732 -0.8431,-0.337239 -1.43822,-0.981961 -0.58521,-0.644722 -0.90261,-1.596927 -0.30749,-0.952204 -0.30749,-2.1920543 0,-1.1604995 0.32732,-2.1127041 0.32732,-0.9621235 0.94229,-1.6465206 0.61497,-0.6943159 1.49774,-1.0712303 0.88277,-0.3868331 2.0036,-0.3868331 1.07123,0 1.91432,0.3372391 0.85302,0.3273204 1.43823,0.9720423 0.59513,0.6348031 0.90261,1.5870078 0.3174,0.9522047 0.3174,2.1821357 z m -1.76554,0.07935 q 0,-0.9224483 -0.2083,-1.6068454 -0.19838,-0.6943159 -0.57529,-1.1505806 -0.37691,-0.4661836 -0.92245,-0.694316 -0.53561,-0.2380511 -1.20017,-0.2380511 -0.77367,0 -1.32912,0.3074827 -0.54554,0.297564 -0.90261,0.8034227 -0.34716,0.5058588 -0.51578,1.1803371 -0.1587,0.6645595 -0.1587,1.3985506 0,0.9224481 0.19838,1.6167641 0.20829,0.694316 0.5852,1.1605 0.37692,0.456264 0.91253,0.694315 0.53562,0.228133 1.2101,0.228133 0.77366,0 1.3192,-0.297564 0.55545,-0.307483 0.90261,-0.813342 0.35708,-0.505858 0.51578,-1.170418 0.16862,-0.6744782 0.16862,-1.4183881 z"
       style="font-size:20.3137px;fill:#ffffff;stroke:none"
       id="path11639" />
    <path
       d="m 254.17915,8.9765125 q 0,1.2398495 -0.34716,2.2218105 -0.33724,0.972043 -0.97204,1.65644 -0.62488,0.674478 -1.5275,1.041474 -0.90261,0.357076 -2.03335,0.357076 -0.88277,0 -1.80522,-0.168619 -0.92245,-0.16862 -1.82506,-0.535615 V 0.11902528 h 1.72587 V 3.977438 l -0.0794,1.8448965 q 0.74391,-1.0017986 1.58701,-1.4084694 0.85302,-0.4165895 1.82506,-0.4165895 0.85301,0 1.49774,0.3570767 0.64472,0.3570768 1.08115,1.0117175 0.43642,0.6447219 0.65464,1.5671702 0.21821,0.9125295 0.21821,2.0432725 z m -1.76555,0.07935 q 0,-0.7835851 -0.11902,-1.4382258 -0.10911,-0.6546407 -0.35708,-1.1208243 -0.24797,-0.4661835 -0.6348,-0.7240723 -0.38683,-0.2678075 -0.92245,-0.2678075 -0.32732,0 -0.66456,0.1091068 -0.33724,0.099188 -0.70423,0.3471579 -0.35708,0.2380512 -0.76375,0.6447219 -0.39675,0.396752 -0.85302,0.9918799 v 4.8304545 q 0.50586,0.198376 1.03156,0.317402 0.52569,0.109107 1.0018,0.109107 0.59512,0 1.13074,-0.188457 0.54553,-0.188458 0.9522,-0.624885 0.41659,-0.446346 0.65464,-1.170418 0.24797,-0.733991 0.24797,-1.8151401 z"
       style="font-size:20.3137px;fill:#ffffff;stroke:none"
       id="path11641" />
    <path
       d="m 260.2296,1.5374135 h -2.94588 V 0.11902528 h 4.69159 V 12.696062 h 2.96572 v 1.438226 h -7.98463 v -1.438226 h 3.2732 z"
       style="font-size:20.3137px;fill:#ffffff;stroke:none"
       id="path11643" />
    <path
       d="m 276.41709,8.6293546 q 0,0.3669955 -0.01,0.6149655 -0.01,0.2479699 -0.0298,0.4661835 h -6.99275 q 0,1.5274954 0.85302,2.3507554 0.85301,0.813341 2.45986,0.813341 0.43643,0 0.87285,-0.02976 0.43643,-0.03968 0.8431,-0.09919 0.40667,-0.05951 0.77367,-0.128944 0.37691,-0.07935 0.69431,-0.16862 v 1.418388 q -0.70423,0.198376 -1.59692,0.317402 -0.88277,0.128944 -1.83498,0.128944 -1.27952,0 -2.20197,-0.347158 -0.92245,-0.347158 -1.51758,-1.001798 -0.58521,-0.66456 -0.87285,-1.616765 -0.27773,-0.962123 -0.27773,-2.1722165 0,-1.0513927 0.29756,-1.9837598 0.30749,-0.9422858 0.88278,-1.6465205 0.58521,-0.7141535 1.4283,-1.1307431 0.8431,-0.4165895 1.91433,-0.4165895 1.04148,0 1.8449,0.3273203 0.80342,0.3273204 1.34896,0.9323671 0.55545,0.5951279 0.83317,1.4580634 0.28765,0.8530167 0.28765,1.9143282 z m -1.7953,-0.24797 q 0.0298,-0.6645595 -0.12895,-1.2100934 -0.1587,-0.5554528 -0.49594,-0.9522047 -0.32732,-0.396752 -0.82326,-0.6149655 -0.49594,-0.2281324 -1.15058,-0.2281324 -0.56537,0 -1.03155,0.2182136 -0.46619,0.2182135 -0.80343,0.6149655 -0.33723,0.3967519 -0.54553,0.9522047 -0.20829,0.5554527 -0.25789,1.2200122 z m -1.57709,-5.86201 h -1.72587 l -3.17402,-2.40034932 h 2.49954 z m -6.62576,1.6564393 z"
       style="font-size:20.3137px;fill:#ffffff;stroke:none"
       id="path11645" />
    <path
       d="M 286.27639,14.134288 V 6.982834 q 0,-0.4661836 -0.0397,-0.7637475 -0.0298,-0.297564 -0.1091,-0.4661836 -0.0694,-0.1785383 -0.18846,-0.2479699 -0.10911,-0.069432 -0.27773,-0.069432 -0.19837,0 -0.36699,0.1190256 -0.16862,0.1190255 -0.367,0.3868331 -0.18846,0.2678076 -0.42651,0.7141535 -0.22813,0.4364272 -0.54553,1.0811491 V 14.134288 H 282.3783 V 7.1712912 q 0,-0.545534 -0.0397,-0.8827731 -0.0297,-0.3372392 -0.1091,-0.5256964 -0.0694,-0.1884571 -0.18846,-0.2578887 -0.11903,-0.069432 -0.28764,-0.069432 -0.17854,0 -0.33724,0.099188 -0.1587,0.099188 -0.35708,0.3570767 -0.18846,0.2578888 -0.42651,0.7042347 -0.23805,0.446346 -0.56537,1.1406619 v 6.3976253 h -1.58701 V 4.1758139 h 1.3192 l 0.0793,1.8944906 q 0.25789,-0.5653715 0.49594,-0.9621235 0.24797,-0.3967519 0.50586,-0.6348031 0.25789,-0.24797 0.54553,-0.3570767 0.29757,-0.1190256 0.65465,-0.1190256 0.80342,0 1.22001,0.5256963 0.41659,0.5256963 0.41659,1.626683 0.23805,-0.5157775 0.46618,-0.9125295 0.22813,-0.4066707 0.48602,-0.6744783 0.26781,-0.2777264 0.58521,-0.4165895 0.3174,-0.148782 0.73399,-0.148782 1.87466,0 1.87466,2.8863704 v 7.250642 z"
       style="font-size:20.3137px;fill:#ffffff;stroke:none"
       id="path11647" />
    <path
       d="m 298.75422,8.6293546 q 0,0.3669955 -0.01,0.6149655 -0.01,0.2479699 -0.0298,0.4661835 h -6.99275 q 0,1.5274954 0.85302,2.3507554 0.85301,0.813341 2.45986,0.813341 0.43643,0 0.87285,-0.02976 0.43643,-0.03968 0.8431,-0.09919 0.40667,-0.05951 0.77367,-0.128944 0.37691,-0.07935 0.69431,-0.16862 v 1.418388 q -0.70423,0.198376 -1.59692,0.317402 -0.88278,0.128944 -1.83498,0.128944 -1.27953,0 -2.20198,-0.347158 -0.92244,-0.347158 -1.51757,-1.001798 -0.58521,-0.66456 -0.87286,-1.616765 -0.27772,-0.962123 -0.27772,-2.1722165 0,-1.0513927 0.29756,-1.9837598 0.30748,-0.9422858 0.88277,-1.6465205 0.58521,-0.7141535 1.42831,-1.1307431 0.8431,-0.4165895 1.91433,-0.4165895 1.04147,0 1.8449,0.3273203 0.80342,0.3273204 1.34895,0.9323671 0.55546,0.5951279 0.83318,1.4580634 0.28765,0.8530167 0.28765,1.9143282 z m -1.79531,-0.24797 q 0.0298,-0.6645595 -0.12894,-1.2100934 -0.1587,-0.5554528 -0.49594,-0.9522047 -0.32732,-0.396752 -0.82326,-0.6149655 -0.49594,-0.2281324 -1.15058,-0.2281324 -0.56537,0 -1.03156,0.2182136 -0.46618,0.2182135 -0.80342,0.6149655 -0.33724,0.3967519 -0.54553,0.9522047 -0.2083,0.5554527 -0.25789,1.2200122 z"
       style="font-size:20.3137px;fill:#ffffff;stroke:none"
       id="path11649" />
    <path
       d="M 7.9052825,31.194622 7.2308042,32.374959 4.4436218,30.530062 4.6717542,33.922291 H 3.253366 L 3.4715795,30.530062 0.62488431,32.374959 -1.1175871e-8,31.214459 3.0450712,29.716721 -1.1175871e-8,28.189226 0.6843971,27.028726 3.4914171,28.903379 3.253366,25.51115 h 1.4183882 l -0.24797,3.392229 2.80702,-1.89449 0.6943159,1.220012 -3.05499,1.507657 z"
       style="font-size:20.3137px;fill:#ffffff;stroke:none"
       id="path11651" />
    <path
       d="m 31.13511,27.117995 q -1.358876,-0.287645 -2.340837,-0.287645 -2.330917,0 -2.330917,2.440025 v 1.745708 h 4.364271 v 1.438226 h -4.364271 v 7.072103 h -1.755628 v -7.072103 h -3.203772 v -1.438226 h 3.203772 v -1.64652 q 0,-3.977439 4.146058,-3.977439 1.031555,0 2.281324,0.238052 z m -10.424658,2.449944 z"
       style="font-size:20.3137px;fill:#ffffff;stroke:none"
       id="path11653" />
    <path
       d="m 42.135058,34.467825 q 0,1.1605 -0.327321,2.132542 -0.32732,0.962123 -0.942285,1.656439 -0.614966,0.684397 -1.497739,1.071231 -0.882773,0.376914 -2.003597,0.376914 -1.071231,0 -1.924247,-0.32732 -0.843098,-0.33724 -1.438226,-0.981962 -0.585209,-0.644721 -0.902611,-1.596926 -0.307483,-0.952205 -0.307483,-2.192055 0,-1.160499 0.327321,-2.112704 0.32732,-0.962123 0.942286,-1.64652 0.614965,-0.694316 1.497738,-1.071231 0.882773,-0.386833 2.003598,-0.386833 1.07123,0 1.914328,0.337239 0.853016,0.327321 1.438226,0.972043 0.595128,0.634803 0.90261,1.587007 0.317402,0.952205 0.317402,2.182136 z m -1.765546,0.07935 q 0,-0.922449 -0.208295,-1.606846 -0.198376,-0.694316 -0.57529,-1.15058 -0.376915,-0.466184 -0.922449,-0.694316 -0.535615,-0.238052 -1.200174,-0.238052 -0.773667,0 -1.329119,0.307483 -0.545534,0.297564 -0.902611,0.803423 -0.347158,0.505859 -0.515778,1.180337 -0.1587,0.664559 -0.1587,1.398551 0,0.922448 0.198376,1.616764 0.208294,0.694316 0.585209,1.160499 0.376914,0.456265 0.912529,0.694316 0.535615,0.228132 1.210094,0.228132 0.773666,0 1.3192,-0.297564 0.555453,-0.307482 0.902611,-0.813341 0.357076,-0.505859 0.515777,-1.170418 0.16862,-0.674479 0.16862,-1.418388 z"
       style="font-size:20.3137px;fill:#ffffff;stroke:none"
       id="path11655" />
    <path
       d="m 45.041266,29.567939 h 1.577089 l 0.04959,1.834977 q 0.882773,-1.061311 1.73579,-1.537413 0.862935,-0.476103 1.73579,-0.476103 1.547332,0 2.340836,1.001799 0.803423,1.001799 0.74391,2.975639 h -1.745708 q 0.02976,-1.309281 -0.386834,-1.89449 -0.40667,-0.595128 -1.200174,-0.595128 -0.347158,0 -0.704235,0.128944 -0.347158,0.119026 -0.724072,0.396752 -0.366996,0.267808 -0.783585,0.694316 -0.41659,0.426509 -0.892692,1.031555 v 6.397625 h -1.745709 z"
       style="font-size:20.3137px;fill:#ffffff;stroke:none"
       id="path11657" />
    <path
       d="m 62.905023,39.526412 v -7.151453 q 0,-0.466184 -0.03968,-0.763748 -0.02976,-0.297564 -0.109107,-0.466183 -0.06943,-0.178539 -0.188457,-0.24797 -0.109107,-0.06943 -0.277727,-0.06943 -0.198376,0 -0.366995,0.119026 -0.16862,0.119025 -0.366996,0.386833 -0.188457,0.267807 -0.426508,0.714153 -0.228132,0.436427 -0.545534,1.081149 v 6.397625 h -1.577089 v -6.962996 q 0,-0.545534 -0.03967,-0.882773 -0.02976,-0.337239 -0.109107,-0.525697 -0.06943,-0.188457 -0.188457,-0.257888 -0.119026,-0.06943 -0.287645,-0.06943 -0.178539,0 -0.337239,0.09919 -0.158701,0.09919 -0.357077,0.357077 -0.188457,0.257889 -0.426509,0.704234 -0.238051,0.446346 -0.565371,1.140662 v 6.397625 h -1.587008 v -9.958473 h 1.3192 l 0.07935,1.89449 q 0.257889,-0.565371 0.49594,-0.962123 0.24797,-0.396752 0.505858,-0.634803 0.257889,-0.24797 0.545534,-0.357077 0.297564,-0.119026 0.654641,-0.119026 0.803423,0 1.220012,0.525697 0.41659,0.525696 0.41659,1.626683 0.238051,-0.515778 0.466183,-0.91253 0.228133,-0.406671 0.486022,-0.674478 0.267807,-0.277727 0.585209,-0.41659 0.317401,-0.148782 0.733991,-0.148782 1.874653,0 1.874653,2.886371 v 7.250641 z"
       style="font-size:20.3137px;fill:#ffffff;stroke:none"
       id="path11659" />
    <path
       d="m 74.976201,39.526412 h -1.547332 l -0.05951,-1.606845 q -0.446346,0.515778 -0.853017,0.862936 -0.396752,0.337239 -0.793504,0.545534 -0.396752,0.208294 -0.803422,0.287645 -0.396752,0.08927 -0.843098,0.08927 -1.537414,0 -2.320999,-0.902611 -0.783585,-0.90261 -0.783585,-2.727669 v -6.506732 h 1.725871 v 6.367868 q 0,2.291243 1.725871,2.291243 0.317401,0 0.614965,-0.08927 0.307483,-0.09919 0.634803,-0.327321 0.337239,-0.238051 0.714154,-0.634803 0.386833,-0.396752 0.862935,-1.001798 v -6.60592 h 1.725871 z"
       style="font-size:20.3137px;fill:#ffffff;stroke:none"
       id="path11661" />
    <path
       d="M 81.532531,26.929538 H 78.586648 V 25.51115 h 4.691592 v 12.577037 h 2.965721 v 1.438225 h -7.984633 v -1.438225 h 3.273203 z"
       style="font-size:20.3137px;fill:#ffffff;stroke:none"
       id="path11663" />
    <path
       d="m 97.720007,34.021479 q 0,0.366996 -0.0099,0.614966 -0.0099,0.24797 -0.02976,0.466183 h -6.992753 q 0,1.527495 0.853017,2.350756 0.853016,0.813341 2.459862,0.813341 0.436427,0 0.872854,-0.02976 0.436427,-0.03968 0.843098,-0.09919 0.406671,-0.05951 0.773666,-0.128945 0.376915,-0.07935 0.694316,-0.168619 v 1.418388 q -0.704234,0.198376 -1.596926,0.317401 -0.882773,0.128945 -1.834978,0.128945 -1.279525,0 -2.201973,-0.347158 -0.922449,-0.347158 -1.517577,-1.001799 -0.585209,-0.664559 -0.872854,-1.616764 -0.277726,-0.962123 -0.277726,-2.172217 0,-1.051393 0.297564,-1.98376 0.307482,-0.942285 0.882773,-1.64652 0.585209,-0.714154 1.428307,-1.130743 0.843098,-0.41659 1.914328,-0.41659 1.041474,0 1.844896,0.327321 0.803423,0.32732 1.348957,0.932367 0.555453,0.595128 0.833179,1.458063 0.287645,0.853017 0.287645,1.914328 z m -1.795302,-0.24797 q 0.02976,-0.664559 -0.128945,-1.210093 -0.1587,-0.555453 -0.49594,-0.952205 -0.32732,-0.396752 -0.82326,-0.614965 -0.49594,-0.228133 -1.15058,-0.228133 -0.565372,0 -1.031556,0.218214 -0.466183,0.218213 -0.803422,0.614965 -0.337239,0.396752 -0.545534,0.952205 -0.208295,0.555453 -0.257889,1.220012 z"
       style="font-size:20.3137px;fill:#ffffff;stroke:none"
       id="path11665" />
    <path
       d="m 100.8841,29.567939 h 1.57709 l 0.0496,1.834977 q 0.88278,-1.061311 1.73579,-1.537413 0.86294,-0.476103 1.73579,-0.476103 1.54734,0 2.34084,1.001799 0.80342,1.001799 0.74391,2.975639 h -1.74571 q 0.0298,-1.309281 -0.38683,-1.89449 -0.40667,-0.595128 -1.20018,-0.595128 -0.34715,0 -0.70423,0.128944 -0.34716,0.119026 -0.72407,0.396752 -0.367,0.267808 -0.78359,0.694316 -0.41659,0.426509 -0.89269,1.031555 v 6.397625 h -1.74571 z"
       style="font-size:20.3137px;fill:#ffffff;stroke:none"
       id="path11667" />
    <path
       d="m 130.81904,39.526412 h -1.54733 l -0.0595,-1.606845 q -0.44635,0.515778 -0.85302,0.862936 -0.39675,0.337239 -0.7935,0.545534 -0.39675,0.208294 -0.80343,0.287645 -0.39675,0.08927 -0.84309,0.08927 -1.53742,0 -2.321,-0.902611 -0.78359,-0.90261 -0.78359,-2.727669 v -6.506732 h 1.72587 v 6.367868 q 0,2.291243 1.72587,2.291243 0.31741,0 0.61497,-0.08927 0.30748,-0.09919 0.6348,-0.327321 0.33724,-0.238051 0.71416,-0.634803 0.38683,-0.396752 0.86293,-1.001798 v -6.60592 h 1.72587 z"
       style="font-size:20.3137px;fill:#ffffff;stroke:none"
       id="path11669" />
    <path
       d="m 133.98314,29.567939 h 1.53741 l 0.0694,1.606845 q 0.43643,-0.515778 0.8431,-0.853017 0.40667,-0.347158 0.7935,-0.555452 0.39676,-0.208295 0.80343,-0.287646 0.40667,-0.08927 0.84309,-0.08927 1.53742,0 2.321,0.91253 0.79351,0.90261 0.79351,2.727669 v 6.496813 h -1.72587 v -6.357949 q 0,-1.170419 -0.43643,-1.725871 -0.43643,-0.565372 -1.29936,-0.565372 -0.31741,0 -0.62489,0.09919 -0.29756,0.08927 -0.62488,0.32732 -0.32732,0.228133 -0.71416,0.624885 -0.37691,0.396752 -0.85301,0.99188 v 6.605919 h -1.72587 z"
       style="font-size:20.3137px;fill:#ffffff;stroke:none"
       id="path11671" />
    <path
       d="m 153.56284,34.021479 q 0,0.366996 -0.01,0.614966 -0.01,0.24797 -0.0298,0.466183 h -6.99276 q 0,1.527495 0.85302,2.350756 0.85302,0.813341 2.45986,0.813341 0.43643,0 0.87286,-0.02976 0.43642,-0.03968 0.84309,-0.09919 0.40668,-0.05951 0.77367,-0.128945 0.37692,-0.07935 0.69432,-0.168619 v 1.418388 q -0.70424,0.198376 -1.59693,0.317401 -0.88277,0.128945 -1.83498,0.128945 -1.27952,0 -2.20197,-0.347158 -0.92245,-0.347158 -1.51758,-1.001799 -0.58521,-0.664559 -0.87285,-1.616764 -0.27773,-0.962123 -0.27773,-2.172217 0,-1.051393 0.29757,-1.98376 0.30748,-0.942285 0.88277,-1.64652 0.58521,-0.714154 1.42831,-1.130743 0.84309,-0.41659 1.91432,-0.41659 1.04148,0 1.8449,0.327321 0.80342,0.32732 1.34896,0.932367 0.55545,0.595128 0.83318,1.458063 0.28764,0.853017 0.28764,1.914328 z m -1.7953,-0.24797 q 0.0298,-0.664559 -0.12895,-1.210093 -0.1587,-0.555453 -0.49594,-0.952205 -0.32732,-0.396752 -0.82326,-0.614965 -0.49594,-0.228133 -1.15058,-0.228133 -0.56537,0 -1.03155,0.218214 -0.46618,0.218213 -0.80342,0.614965 -0.33724,0.396752 -0.54554,0.952205 -0.20829,0.555453 -0.25789,1.220012 z"
       style="font-size:20.3137px;fill:#ffffff;stroke:none"
       id="path11673" />
    <path
       d="m 166.98298,34.75547 q 0,-1.269606 0.34716,-2.251567 0.34716,-0.99188 0.98196,-1.666358 0.64473,-0.684397 1.53742,-1.031555 0.90261,-0.357077 2.00359,-0.357077 0.47611,0 0.93237,0.05951 0.46619,0.05951 0.91253,0.188457 V 25.51115 h 1.73579 v 14.015262 h -1.54733 l -0.0595,-1.884571 q -0.72408,1.051392 -1.56717,1.557251 -0.8431,0.505859 -1.82506,0.505859 -0.85302,0 -1.50766,-0.357077 -0.64472,-0.357077 -1.08115,-1.001799 -0.42651,-0.65464 -0.64472,-1.56717 -0.21822,-0.912529 -0.21822,-2.023435 z m 1.76555,-0.109106 q 0,1.805221 0.5257,2.697913 0.53561,0.882773 1.50765,0.882773 0.65465,0 1.37872,-0.585209 0.73399,-0.585209 1.53741,-1.73579 v -4.62216 q -0.42651,-0.198376 -0.94228,-0.297564 -0.51578,-0.109107 -1.02164,-0.109107 -1.40847,0 -2.20197,0.91253 -0.78359,0.912529 -0.78359,2.856614 z"
       style="font-size:20.3137px;fill:#ffffff;stroke:none"
       id="path11675" />
    <path
       d="m 187.06855,34.021479 q 0,0.366996 -0.01,0.614966 -0.01,0.24797 -0.0298,0.466183 h -6.99275 q 0,1.527495 0.85302,2.350756 0.85301,0.813341 2.45986,0.813341 0.43643,0 0.87285,-0.02976 0.43643,-0.03968 0.8431,-0.09919 0.40667,-0.05951 0.77367,-0.128945 0.37691,-0.07935 0.69431,-0.168619 v 1.418388 q -0.70423,0.198376 -1.59692,0.317401 -0.88278,0.128945 -1.83498,0.128945 -1.27953,0 -2.20197,-0.347158 -0.92245,-0.347158 -1.51758,-1.001799 -0.58521,-0.664559 -0.87285,-1.616764 -0.27773,-0.962123 -0.27773,-2.172217 0,-1.051393 0.29756,-1.98376 0.30749,-0.942285 0.88278,-1.64652 0.58521,-0.714154 1.4283,-1.130743 0.8431,-0.41659 1.91433,-0.41659 1.04148,0 1.8449,0.327321 0.80342,0.32732 1.34895,0.932367 0.55546,0.595128 0.83318,1.458063 0.28765,0.853017 0.28765,1.914328 z m -1.7953,-0.24797 q 0.0298,-0.664559 -0.12895,-1.210093 -0.1587,-0.555453 -0.49594,-0.952205 -0.32732,-0.396752 -0.82326,-0.614965 -0.49594,-0.228133 -1.15058,-0.228133 -0.56537,0 -1.03155,0.218214 -0.46619,0.218213 -0.80343,0.614965 -0.33724,0.396752 -0.54553,0.952205 -0.2083,0.555453 -0.25789,1.220012 z"
       style="font-size:20.3137px;fill:#ffffff;stroke:none"
       id="path11677" />
    <path
       d="m 196.92783,39.526412 v -7.151453 q 0,-0.466184 -0.0397,-0.763748 -0.0298,-0.297564 -0.10911,-0.466183 -0.0694,-0.178539 -0.18846,-0.24797 -0.1091,-0.06943 -0.27772,-0.06943 -0.19838,0 -0.367,0.119026 -0.16862,0.119025 -0.367,0.386833 -0.18845,0.267807 -0.4265,0.714153 -0.22814,0.436427 -0.54554,1.081149 v 6.397625 h -1.57709 v -6.962996 q 0,-0.545534 -0.0397,-0.882773 -0.0298,-0.337239 -0.10911,-0.525697 -0.0694,-0.188457 -0.18846,-0.257888 -0.11902,-0.06943 -0.28764,-0.06943 -0.17854,0 -0.33724,0.09919 -0.1587,0.09919 -0.35708,0.357077 -0.18845,0.257889 -0.42651,0.704234 -0.23805,0.446346 -0.56537,1.140662 v 6.397625 h -1.587 v -9.958473 h 1.3192 l 0.0794,1.89449 q 0.25788,-0.565371 0.49594,-0.962123 0.24797,-0.396752 0.50585,-0.634803 0.25789,-0.24797 0.54554,-0.357077 0.29756,-0.119026 0.65464,-0.119026 0.80342,0 1.22001,0.525697 0.41659,0.525696 0.41659,1.626683 0.23805,-0.515778 0.46618,-0.91253 0.22814,-0.406671 0.48603,-0.674478 0.2678,-0.277727 0.5852,-0.41659 0.31741,-0.148782 0.734,-0.148782 1.87465,0 1.87465,2.886371 v 7.250641 z"
       style="font-size:20.3137px;fill:#ffffff;stroke:none"
       id="path11679" />
    <path
       d="m 207.39216,39.526412 -0.0397,-1.339037 q -0.81334,0.803422 -1.65643,1.160499 -0.83318,0.357077 -1.75563,0.357077 -0.85302,0 -1.45807,-0.218214 -0.60504,-0.218213 -1.00179,-0.595128 -0.38684,-0.386833 -0.57529,-0.90261 -0.17854,-0.515778 -0.17854,-1.120825 0,-1.497738 1.1109,-2.340836 1.12083,-0.853017 3.30296,-0.853017 h 2.06311 v -0.872854 q 0,-0.882773 -0.56537,-1.408469 -0.56537,-0.535616 -1.72587,-0.535616 -0.8431,0 -1.66636,0.188458 -0.81334,0.188457 -1.68619,0.535615 v -1.557252 q 0.32732,-0.119025 0.72407,-0.228132 0.40667,-0.119026 0.85302,-0.208295 0.44634,-0.08927 0.93236,-0.138863 0.48602,-0.05951 0.98196,-0.05951 0.90261,0 1.62669,0.198376 0.72407,0.198376 1.22001,0.605047 0.50586,0.406671 0.77367,1.021636 0.2678,0.614966 0.2678,1.448145 v 6.863808 z m -0.18846,-4.532891 h -2.19205 q -0.64472,0 -1.11091,0.128945 -0.46618,0.128944 -0.76374,0.366995 -0.29757,0.238052 -0.44635,0.575291 -0.13886,0.32732 -0.13886,0.74391 0,0.287645 0.0893,0.555452 0.0893,0.257889 0.28764,0.466184 0.19838,0.198376 0.51578,0.317401 0.3174,0.119026 0.77366,0.119026 0.59513,0 1.35888,-0.357077 0.77367,-0.366995 1.62668,-1.15058 z"
       style="font-size:20.3137px;fill:#ffffff;stroke:none"
       id="path11681" />
    <path
       d="m 212.16311,29.567939 h 1.53742 l 0.0694,1.606845 q 0.43643,-0.515778 0.8431,-0.853017 0.40667,-0.347158 0.7935,-0.555452 0.39675,-0.208295 0.80342,-0.287646 0.40667,-0.08927 0.8431,-0.08927 1.53742,0 2.321,0.91253 0.7935,0.90261 0.7935,2.727669 v 6.496813 h -1.72587 v -6.357949 q 0,-1.170419 -0.43642,-1.725871 -0.43643,-0.565372 -1.29937,-0.565372 -0.3174,0 -0.62488,0.09919 -0.29756,0.08927 -0.62488,0.32732 -0.32733,0.228133 -0.71416,0.624885 -0.37691,0.396752 -0.85301,0.99188 v 6.605919 h -1.72588 z"
       style="font-size:20.3137px;fill:#ffffff;stroke:none"
       id="path11683" />
    <path
       d="m 222.82582,34.75547 q 0,-1.269606 0.34716,-2.251567 0.34716,-0.99188 0.98196,-1.666358 0.64472,-0.684397 1.53741,-1.031555 0.90261,-0.357077 2.0036,-0.357077 0.4761,0 0.93237,0.05951 0.46618,0.05951 0.91253,0.188457 V 25.51115 h 1.73579 v 14.015262 h -1.54734 l -0.0595,-1.884571 q -0.72407,1.051392 -1.56717,1.557251 -0.8431,0.505859 -1.82506,0.505859 -0.85302,0 -1.50766,-0.357077 -0.64472,-0.357077 -1.08115,-1.001799 -0.4265,-0.65464 -0.64472,-1.56717 -0.21821,-0.912529 -0.21821,-2.023435 z m 1.76555,-0.109106 q 0,1.805221 0.52569,2.697913 0.53562,0.882773 1.50766,0.882773 0.65464,0 1.37871,-0.585209 0.73399,-0.585209 1.53742,-1.73579 v -4.62216 q -0.42651,-0.198376 -0.94229,-0.297564 -0.51578,-0.109107 -1.02164,-0.109107 -1.40847,0 -2.20197,0.91253 -0.78358,0.912529 -0.78358,2.856614 z"
       style="font-size:20.3137px;fill:#ffffff;stroke:none"
       id="path11685" />
    <path
       d="m 242.91138,34.021479 q 0,0.366996 -0.01,0.614966 -0.01,0.24797 -0.0297,0.466183 h -6.99276 q 0,1.527495 0.85302,2.350756 0.85302,0.813341 2.45986,0.813341 0.43643,0 0.87286,-0.02976 0.43642,-0.03968 0.8431,-0.09919 0.40667,-0.05951 0.77366,-0.128945 0.37692,-0.07935 0.69432,-0.168619 v 1.418388 q -0.70424,0.198376 -1.59693,0.317401 -0.88277,0.128945 -1.83498,0.128945 -1.27952,0 -2.20197,-0.347158 -0.92245,-0.347158 -1.51758,-1.001799 -0.58521,-0.664559 -0.87285,-1.616764 -0.27773,-0.962123 -0.27773,-2.172217 0,-1.051393 0.29757,-1.98376 0.30748,-0.942285 0.88277,-1.64652 0.58521,-0.714154 1.42831,-1.130743 0.8431,-0.41659 1.91433,-0.41659 1.04147,0 1.84489,0.327321 0.80342,0.32732 1.34896,0.932367 0.55545,0.595128 0.83318,1.458063 0.28764,0.853017 0.28764,1.914328 z m -1.7953,-0.24797 q 0.0298,-0.664559 -0.12894,-1.210093 -0.1587,-0.555453 -0.49594,-0.952205 -0.32732,-0.396752 -0.82326,-0.614965 -0.49594,-0.228133 -1.15058,-0.228133 -0.56538,0 -1.03156,0.218214 -0.46618,0.218213 -0.80342,0.614965 -0.33724,0.396752 -0.54554,0.952205 -0.20829,0.555453 -0.25789,1.220012 z"
       style="font-size:20.3137px;fill:#ffffff;stroke:none"
       id="path11687" />
    <path
       d="M 7.9052825,56.586746 7.2308042,57.767083 4.4436218,55.922187 4.6717542,59.314416 H 3.253366 L 3.4715795,55.922187 0.62488431,57.767083 -1.1175871e-8,56.606584 3.0450712,55.108845 -1.1175871e-8,53.58135 0.6843971,52.420851 3.4914171,54.295504 3.253366,50.903275 h 1.4183882 l -0.24797,3.392229 2.80702,-1.894491 0.6943159,1.220012 -3.05499,1.507658 z"
       style="font-size:20.3137px;fill:#ffffff;stroke:none"
       id="path11689" />
    <path
       d="m 30.807789,59.760762 q 0,1.329119 -0.376914,2.320999 -0.366996,0.99188 -1.021636,1.64652 -0.654641,0.654641 -1.547333,0.981961 -0.892692,0.327321 -1.934166,0.327321 -0.476102,0 -0.952204,-0.04959 -0.466184,-0.04959 -0.952205,-0.16862 v 4.165896 H 22.29746 V 54.960063 h 1.537414 l 0.109107,1.666358 q 0.74391,-1.021636 1.587007,-1.428307 0.843098,-0.416589 1.825059,-0.416589 0.853017,0 1.497739,0.357077 0.644722,0.357076 1.081149,1.011717 0.436427,0.644722 0.654641,1.56717 0.218213,0.91253 0.218213,2.043273 z m -1.765546,0.07935 q 0,-0.783585 -0.119025,-1.438226 -0.109107,-0.65464 -0.357077,-1.120824 -0.24797,-0.466183 -0.634803,-0.724072 -0.386833,-0.267808 -0.922449,-0.267808 -0.32732,0 -0.664559,0.109107 -0.337239,0.09919 -0.704235,0.347158 -0.357076,0.238051 -0.763747,0.644722 -0.396752,0.396752 -0.853017,0.99188 v 4.830455 q 0.476102,0.198376 1.001799,0.317401 0.525696,0.109107 1.031555,0.109107 1.39855,0 2.192054,-0.942286 0.793504,-0.952204 0.793504,-2.856614 z"
       style="font-size:20.3137px;fill:#ffffff;stroke:none"
       id="path11691" />
    <path
       d="m 42.135058,59.85995 q 0,1.160499 -0.327321,2.132542 -0.32732,0.962123 -0.942285,1.656439 -0.614966,0.684397 -1.497739,1.07123 -0.882773,0.376915 -2.003597,0.376915 -1.071231,0 -1.924247,-0.327321 -0.843098,-0.337239 -1.438226,-0.981961 -0.585209,-0.644722 -0.902611,-1.596927 -0.307483,-0.952204 -0.307483,-2.192054 0,-1.160499 0.327321,-2.112704 0.32732,-0.962124 0.942286,-1.646521 0.614965,-0.694316 1.497738,-1.07123 0.882773,-0.386833 2.003598,-0.386833 1.07123,0 1.914328,0.337239 0.853016,0.32732 1.438226,0.972042 0.595128,0.634803 0.90261,1.587008 0.317402,0.952205 0.317402,2.182136 z m -1.765546,0.07935 q 0,-0.922448 -0.208295,-1.606845 -0.198376,-0.694316 -0.57529,-1.150581 -0.376915,-0.466183 -0.922449,-0.694316 -0.535615,-0.238051 -1.200174,-0.238051 -0.773667,0 -1.329119,0.307483 -0.545534,0.297564 -0.902611,0.803423 -0.347158,0.505858 -0.515778,1.180337 -0.1587,0.664559 -0.1587,1.39855 0,0.922448 0.198376,1.616764 0.208294,0.694316 0.585209,1.1605 0.376914,0.456265 0.912529,0.694316 0.535615,0.228132 1.210094,0.228132 0.773666,0 1.3192,-0.297564 0.555453,-0.307483 0.902611,-0.813341 0.357076,-0.505859 0.515777,-1.170419 0.16862,-0.674478 0.16862,-1.418388 z"
       style="font-size:20.3137px;fill:#ffffff;stroke:none"
       id="path11693" />
    <path
       d="m 52.52004,62.200786 q 0,0.525697 -0.178538,0.942286 -0.178538,0.41659 -0.486021,0.74391 -0.307483,0.317402 -0.714154,0.545534 -0.40667,0.228132 -0.872854,0.376914 -0.456265,0.148782 -0.942286,0.218214 -0.486021,0.06943 -0.952204,0.06943 -1.011718,0 -1.864735,-0.08927 -0.843098,-0.08927 -1.656439,-0.287645 v -1.587008 q 0.872854,0.24797 1.73579,0.376915 0.862935,0.128944 1.715952,0.128944 1.23985,0 1.834978,-0.337239 0.595128,-0.337239 0.595128,-0.962124 0,-0.267807 -0.09919,-0.476102 -0.08927,-0.218213 -0.33724,-0.406671 -0.247969,-0.198376 -0.773666,-0.40667 -0.515777,-0.208295 -1.418388,-0.476103 -0.674478,-0.198376 -1.249769,-0.446346 -0.565371,-0.257888 -0.981961,-0.605046 -0.416589,-0.347158 -0.65464,-0.813342 -0.238052,-0.466183 -0.238052,-1.100986 0,-0.41659 0.188458,-0.91253 0.198376,-0.49594 0.664559,-0.922448 0.466184,-0.426509 1.259687,-0.704235 0.793504,-0.287645 1.98376,-0.287645 0.585209,0 1.299363,0.06943 0.714153,0.05951 1.48782,0.218214 v 1.537414 q -0.813342,-0.198376 -1.547333,-0.287645 -0.724072,-0.09919 -1.259687,-0.09919 -0.644722,0 -1.091068,0.09919 -0.436427,0.09919 -0.714154,0.277726 -0.267807,0.16862 -0.386833,0.406671 -0.119025,0.228132 -0.119025,0.49594 0,0.267807 0.09919,0.486021 0.109106,0.218213 0.386833,0.426508 0.287645,0.198376 0.793504,0.406671 0.505858,0.198376 1.3192,0.436427 0.882773,0.257889 1.48782,0.545534 0.605046,0.277726 0.981961,0.624884 0.376914,0.347158 0.535615,0.783585 0.168619,0.436428 0.168619,0.99188 z"
       style="font-size:20.3137px;fill:#ffffff;stroke:none"
       id="path11695" />
    <path
       d="m 64.214304,59.413604 q 0,0.366995 -0.0099,0.614965 -0.0099,0.24797 -0.02976,0.466184 h -6.992753 q 0,1.527495 0.853017,2.350755 0.853016,0.813342 2.459862,0.813342 0.436427,0 0.872854,-0.02976 0.436427,-0.03967 0.843098,-0.09919 0.406671,-0.05951 0.773666,-0.128944 0.376915,-0.07935 0.694316,-0.16862 v 1.418389 q -0.704234,0.198376 -1.596926,0.317401 -0.882773,0.128945 -1.834978,0.128945 -1.279525,0 -2.201973,-0.347158 -0.922449,-0.347158 -1.517577,-1.001799 -0.585209,-0.66456 -0.872854,-1.616764 -0.277726,-0.962124 -0.277726,-2.172217 0,-1.051393 0.297564,-1.98376 0.307482,-0.942286 0.882773,-1.646521 0.585209,-0.714153 1.428307,-1.130743 0.843098,-0.416589 1.914328,-0.416589 1.041474,0 1.844896,0.32732 0.803423,0.327321 1.348957,0.932367 0.555453,0.595128 0.833179,1.458064 0.287645,0.853016 0.287645,1.914328 z m -1.795302,-0.24797 q 0.02976,-0.66456 -0.128945,-1.210094 -0.1587,-0.555452 -0.49594,-0.952204 -0.32732,-0.396752 -0.82326,-0.614966 -0.49594,-0.228132 -1.15058,-0.228132 -0.565372,0 -1.031556,0.218213 -0.466183,0.218214 -0.803422,0.614966 -0.337239,0.396752 -0.545534,0.952205 -0.208295,0.555452 -0.257889,1.220012 z"
       style="font-size:20.3137px;fill:#ffffff;stroke:none"
       id="path11697" />
    <path
       d="m 67.378401,54.960063 h 1.577089 l 0.04959,1.834978 q 0.882774,-1.061311 1.73579,-1.537414 0.862936,-0.476102 1.73579,-0.476102 1.547333,0 2.340837,1.001799 0.803422,1.001798 0.743909,2.975639 h -1.745708 q 0.02976,-1.309281 -0.386833,-1.89449 -0.406671,-0.595128 -1.200175,-0.595128 -0.347158,0 -0.704235,0.128944 -0.347158,0.119026 -0.724072,0.396752 -0.366996,0.267808 -0.783585,0.694316 -0.41659,0.426508 -0.892692,1.031555 v 6.397625 h -1.745709 z"
       style="font-size:20.3137px;fill:#ffffff;stroke:none"
       id="path11699" />
    <path
       d="m 97.313337,64.918537 h -1.547333 l -0.05951,-1.606845 q -0.446346,0.515777 -0.853016,0.862935 -0.396752,0.337239 -0.793504,0.545534 -0.396752,0.208295 -0.803423,0.287645 -0.396752,0.08927 -0.843098,0.08927 -1.537414,0 -2.320999,-0.902611 -0.783585,-0.902611 -0.783585,-2.72767 v -6.506732 h 1.725871 v 6.367869 q 0,2.291243 1.725871,2.291243 0.317402,0 0.614966,-0.08927 0.307482,-0.09919 0.634803,-0.32732 0.337239,-0.238051 0.714153,-0.634803 0.386833,-0.396752 0.862936,-1.001799 v -6.60592 h 1.725871 z"
       style="font-size:20.3137px;fill:#ffffff;stroke:none"
       id="path11701" />
    <path
       d="m 100.47743,54.960063 h 1.53741 l 0.0694,1.606846 q 0.43642,-0.515778 0.84309,-0.853017 0.40667,-0.347158 0.79351,-0.555453 0.39675,-0.208295 0.80342,-0.287645 0.40667,-0.08927 0.8431,-0.08927 1.53741,0 2.321,0.912529 0.7935,0.902611 0.7935,2.72767 v 6.496813 h -1.72587 v -6.35795 q 0,-1.170418 -0.43643,-1.725871 -0.43642,-0.565371 -1.29936,-0.565371 -0.3174,0 -0.62488,0.09919 -0.29757,0.08927 -0.62489,0.32732 -0.32732,0.228132 -0.71415,0.624884 -0.37692,0.396752 -0.85302,0.99188 v 6.60592 h -1.72587 z"
       style="font-size:20.3137px;fill:#ffffff;stroke:none"
       id="path11703" />
    <path
       d="m 120.05714,59.413604 q 0,0.366995 -0.01,0.614965 -0.01,0.24797 -0.0297,0.466184 h -6.99276 q 0,1.527495 0.85302,2.350755 0.85302,0.813342 2.45986,0.813342 0.43643,0 0.87286,-0.02976 0.43642,-0.03967 0.8431,-0.09919 0.40667,-0.05951 0.77366,-0.128944 0.37692,-0.07935 0.69432,-0.16862 v 1.418389 q -0.70424,0.198376 -1.59693,0.317401 -0.88277,0.128945 -1.83498,0.128945 -1.27952,0 -2.20197,-0.347158 -0.92245,-0.347158 -1.51758,-1.001799 -0.58521,-0.66456 -0.87285,-1.616764 -0.27773,-0.962124 -0.27773,-2.172217 0,-1.051393 0.29757,-1.98376 0.30748,-0.942286 0.88277,-1.646521 0.58521,-0.714153 1.42831,-1.130743 0.84309,-0.416589 1.91433,-0.416589 1.04147,0 1.84489,0.32732 0.80342,0.327321 1.34896,0.932367 0.55545,0.595128 0.83318,1.458064 0.28764,0.853016 0.28764,1.914328 z m -1.7953,-0.24797 q 0.0298,-0.66456 -0.12894,-1.210094 -0.15871,-0.555452 -0.49594,-0.952204 -0.32732,-0.396752 -0.82326,-0.614966 -0.49594,-0.228132 -1.15059,-0.228132 -0.56537,0 -1.03155,0.218213 -0.46618,0.218214 -0.80342,0.614966 -0.33724,0.396752 -0.54554,0.952205 -0.20829,0.555452 -0.25789,1.220012 z"
       style="font-size:20.3137px;fill:#ffffff;stroke:none"
       id="path11705" />
    <path
       d="m 133.47728,60.147595 q 0,-1.07123 0.27772,-2.033354 0.28765,-0.962123 0.87286,-1.686196 0.59513,-0.733991 1.51757,-1.160499 0.92245,-0.426508 2.20198,-0.426508 0.50586,0 1.0018,0.07935 0.49594,0.07935 1.05139,0.24797 l 1.52749,-0.386833 v 14.20372 H 140.1923 V 65.22602 l 0.0893,-2.132542 q -1.40847,2.003598 -3.35255,2.003598 -0.87285,0 -1.51758,-0.357077 -0.64472,-0.357077 -1.08115,-1.011718 -0.4265,-0.65464 -0.64472,-1.56717 -0.20829,-0.912529 -0.20829,-2.013516 z m 1.76554,-0.109107 q 0,0.833179 0.11903,1.497739 0.12894,0.664559 0.37691,1.130743 0.25789,0.456265 0.63481,0.704235 0.38683,0.24797 0.90261,0.24797 0.65464,0 1.37871,-0.58521 0.73399,-0.585209 1.53741,-1.735789 v -4.622161 q -0.39675,-0.188457 -0.90261,-0.307482 -0.49594,-0.119026 -1.06131,-0.119026 -1.45806,0 -2.22181,0.962124 -0.76375,0.962123 -0.76375,2.826857 z"
       style="font-size:20.3137px;fill:#ffffff;stroke:none"
       id="path11707" />
    <path
       d="m 153.15617,64.918537 h -1.54733 l -0.0595,-1.606845 q -0.44635,0.515777 -0.85302,0.862935 -0.39675,0.337239 -0.7935,0.545534 -0.39676,0.208295 -0.80343,0.287645 -0.39675,0.08927 -0.8431,0.08927 -1.53741,0 -2.32099,-0.902611 -0.78359,-0.902611 -0.78359,-2.72767 v -6.506732 h 1.72587 v 6.367869 q 0,2.291243 1.72587,2.291243 0.3174,0 0.61497,-0.08927 0.30748,-0.09919 0.6348,-0.32732 0.33724,-0.238051 0.71415,-0.634803 0.38684,-0.396752 0.86294,-1.001799 v -6.60592 h 1.72587 z"
       style="font-size:20.3137px;fill:#ffffff;stroke:none"
       id="path11709" />
    <path
       d="m 164.73142,59.413604 q 0,0.366995 -0.01,0.614965 -0.01,0.24797 -0.0297,0.466184 h -6.99276 q 0,1.527495 0.85302,2.350755 0.85302,0.813342 2.45986,0.813342 0.43643,0 0.87286,-0.02976 0.43642,-0.03967 0.84309,-0.09919 0.40667,-0.05951 0.77367,-0.128944 0.37691,-0.07935 0.69432,-0.16862 v 1.418389 q -0.70424,0.198376 -1.59693,0.317401 -0.88277,0.128945 -1.83498,0.128945 -1.27952,0 -2.20197,-0.347158 -0.92245,-0.347158 -1.51758,-1.001799 -0.58521,-0.66456 -0.87285,-1.616764 -0.27773,-0.962124 -0.27773,-2.172217 0,-1.051393 0.29757,-1.98376 0.30748,-0.942286 0.88277,-1.646521 0.58521,-0.714153 1.42831,-1.130743 0.84309,-0.416589 1.91432,-0.416589 1.04148,0 1.8449,0.32732 0.80342,0.327321 1.34896,0.932367 0.55545,0.595128 0.83318,1.458064 0.28764,0.853016 0.28764,1.914328 z m -1.7953,-0.24797 q 0.0298,-0.66456 -0.12895,-1.210094 -0.1587,-0.555452 -0.49594,-0.952204 -0.32732,-0.396752 -0.82326,-0.614966 -0.49594,-0.228132 -1.15058,-0.228132 -0.56537,0 -1.03155,0.218213 -0.46619,0.218214 -0.80342,0.614966 -0.33724,0.396752 -0.54554,0.952205 -0.20829,0.555452 -0.25789,1.220012 z"
       style="font-size:20.3137px;fill:#ffffff;stroke:none"
       id="path11711" />
    <path
       d="m 175.37429,62.200786 q 0,0.525697 -0.17854,0.942286 -0.17854,0.41659 -0.48602,0.74391 -0.30748,0.317402 -0.71415,0.545534 -0.40668,0.228132 -0.87286,0.376914 -0.45626,0.148782 -0.94228,0.218214 -0.48603,0.06943 -0.95221,0.06943 -1.01172,0 -1.86473,-0.08927 -0.8431,-0.08927 -1.65644,-0.287645 v -1.587008 q 0.87285,0.24797 1.73579,0.376915 0.86293,0.128944 1.71595,0.128944 1.23985,0 1.83498,-0.337239 0.59512,-0.337239 0.59512,-0.962124 0,-0.267807 -0.0992,-0.476102 -0.0893,-0.218213 -0.33724,-0.406671 -0.24797,-0.198376 -0.77367,-0.40667 -0.51578,-0.208295 -1.41839,-0.476103 -0.67448,-0.198376 -1.24977,-0.446346 -0.56537,-0.257888 -0.98196,-0.605046 -0.41659,-0.347158 -0.65464,-0.813342 -0.23805,-0.466183 -0.23805,-1.100986 0,-0.41659 0.18846,-0.91253 0.19837,-0.49594 0.66456,-0.922448 0.46618,-0.426509 1.25969,-0.704235 0.7935,-0.287645 1.98376,-0.287645 0.5852,0 1.29936,0.06943 0.71415,0.05951 1.48782,0.218214 v 1.537414 q -0.81334,-0.198376 -1.54733,-0.287645 -0.72408,-0.09919 -1.25969,-0.09919 -0.64472,0 -1.09107,0.09919 -0.43643,0.09919 -0.71415,0.277726 -0.26781,0.16862 -0.38684,0.406671 -0.11902,0.228132 -0.11902,0.49594 0,0.267807 0.0992,0.486021 0.1091,0.218213 0.38683,0.426508 0.28764,0.198376 0.7935,0.406671 0.50586,0.198376 1.3192,0.436427 0.88278,0.257889 1.48782,0.545534 0.60505,0.277726 0.98196,0.624884 0.37692,0.347158 0.53562,0.783585 0.16862,0.436428 0.16862,0.99188 z"
       style="font-size:20.3137px;fill:#ffffff;stroke:none"
       id="path11713" />
    <path
       d="m 186.68172,64.779674 q -0.58521,0.148782 -1.2101,0.208295 -0.62488,0.06943 -1.2696,0.06943 -1.87466,0 -2.79711,-0.843098 -0.92244,-0.853016 -0.92244,-2.608644 v -5.19745 h -2.78719 v -1.448145 h 2.78719 v -2.737588 l 1.72587,-0.446346 v 3.183934 h 4.47338 v 1.448145 h -4.47338 v 5.058587 q 0,1.07123 0.56537,1.606846 0.57529,0.525696 1.68619,0.525696 0.47611,0 1.04148,-0.06943 0.56537,-0.07935 1.18034,-0.238051 z"
       style="font-size:20.3137px;fill:#ffffff;stroke:none"
       id="path11715" />
    <path
       d="m 193.2182,56.38837 h -2.94588 v -1.428307 h 4.69159 v 8.520248 h 2.96572 v 1.438226 H 189.945 v -1.438226 h 3.2732 z m 0.60505,-5.604121 q 0.28764,0 0.53561,0.109107 0.24797,0.09919 0.42651,0.287645 0.18846,0.188457 0.28765,0.436427 0.1091,0.238051 0.1091,0.525696 0,0.277727 -0.1091,0.525697 -0.0992,0.24797 -0.28765,0.436427 -0.17854,0.188457 -0.42651,0.297564 -0.24797,0.09919 -0.53561,0.09919 -0.28765,0 -0.53562,-0.09919 -0.24797,-0.109107 -0.43643,-0.297564 -0.17853,-0.188457 -0.28764,-0.436427 -0.0992,-0.24797 -0.0992,-0.525697 0,-0.287645 0.0992,-0.525696 0.10911,-0.24797 0.28764,-0.436427 0.18846,-0.188457 0.43643,-0.287645 0.24797,-0.109107 0.53562,-0.109107 z"
       style="font-size:20.3137px;fill:#ffffff;stroke:none"
       id="path11717" />
    <path
       d="m 209.66357,59.85995 q 0,1.160499 -0.32733,2.132542 -0.32732,0.962123 -0.94228,1.656439 -0.61497,0.684397 -1.49774,1.07123 -0.88277,0.376915 -2.0036,0.376915 -1.07123,0 -1.92424,-0.327321 -0.8431,-0.337239 -1.43823,-0.981961 -0.58521,-0.644722 -0.90261,-1.596927 -0.30748,-0.952204 -0.30748,-2.192054 0,-1.160499 0.32732,-2.112704 0.32732,-0.962124 0.94228,-1.646521 0.61497,-0.694316 1.49774,-1.07123 0.88277,-0.386833 2.0036,-0.386833 1.07123,0 1.91433,0.337239 0.85301,0.32732 1.43822,0.972042 0.59513,0.634803 0.90261,1.587008 0.31741,0.952205 0.31741,2.182136 z m -1.76555,0.07935 q 0,-0.922448 -0.2083,-1.606845 -0.19837,-0.694316 -0.57529,-1.150581 -0.37691,-0.466183 -0.92244,-0.694316 -0.53562,-0.238051 -1.20018,-0.238051 -0.77367,0 -1.32912,0.307483 -0.54553,0.297564 -0.90261,0.803423 -0.34716,0.505858 -0.51578,1.180337 -0.1587,0.664559 -0.1587,1.39855 0,0.922448 0.19838,1.616764 0.20829,0.694316 0.58521,1.1605 0.37691,0.456265 0.91253,0.694316 0.53561,0.228132 1.21009,0.228132 0.77367,0 1.3192,-0.297564 0.55545,-0.307483 0.90261,-0.813341 0.35708,-0.505859 0.51578,-1.170419 0.16862,-0.674478 0.16862,-1.418388 z"
       style="font-size:20.3137px;fill:#ffffff;stroke:none"
       id="path11719" />
    <path
       d="m 212.16311,54.960063 h 1.53742 l 0.0694,1.606846 q 0.43643,-0.515778 0.8431,-0.853017 0.40667,-0.347158 0.7935,-0.555453 0.39675,-0.208295 0.80342,-0.287645 0.40667,-0.08927 0.8431,-0.08927 1.53742,0 2.321,0.912529 0.7935,0.902611 0.7935,2.72767 v 6.496813 h -1.72587 v -6.35795 q 0,-1.170418 -0.43642,-1.725871 -0.43643,-0.565371 -1.29937,-0.565371 -0.3174,0 -0.62488,0.09919 -0.29756,0.08927 -0.62488,0.32732 -0.32733,0.228132 -0.71416,0.624884 -0.37691,0.396752 -0.85301,0.99188 v 6.60592 h -1.72588 z"
       style="font-size:20.3137px;fill:#ffffff;stroke:none"
       id="path11721" />
    <path
       d="m 7.9052825,81.978871 -0.6744783,1.180337 -2.7871824,-1.844897 0.2281324,3.39223 H 3.253366 L 3.4715795,81.314311 0.62488431,83.159208 -1.1175871e-8,81.998708 3.0450712,80.50097 -1.1175871e-8,78.973475 0.6843971,77.812975 3.4914171,79.687628 3.253366,76.295399 h 1.4183882 l -0.24797,3.392229 2.80702,-1.89449 0.6943159,1.220012 -3.05499,1.507657 z"
       style="font-size:20.3137px;fill:#ffffff;stroke:none"
       id="path11723" />
    <path
       d="m 21.791601,85.53972 q 0,-1.269607 0.347158,-2.251568 0.347158,-0.99188 0.981961,-1.666358 0.644722,-0.684397 1.537414,-1.031555 0.902611,-0.357077 2.003598,-0.357077 0.476102,0 0.932367,0.05951 0.466183,0.05951 0.912529,0.188457 v -4.185733 h 1.73579 v 14.015263 h -1.547333 l -0.05951,-1.884572 q -0.724072,1.051393 -1.56717,1.557251 -0.843098,0.505859 -1.825059,0.505859 -0.853016,0 -1.507657,-0.357077 -0.644722,-0.357076 -1.081149,-1.001798 -0.426508,-0.654641 -0.644722,-1.56717 -0.218214,-0.91253 -0.218214,-2.023435 z m 1.765547,-0.109107 q 0,1.805221 0.525696,2.697913 0.535615,0.882773 1.507657,0.882773 0.654641,0 1.378713,-0.585209 0.733991,-0.585209 1.537414,-1.73579 v -4.62216 q -0.426508,-0.198376 -0.942286,-0.297564 -0.515777,-0.109107 -1.021636,-0.109107 -1.408469,0 -2.201973,0.91253 -0.783585,0.912529 -0.783585,2.856614 z"
       style="font-size:20.3137px;fill:#ffffff;stroke:none"
       id="path11725" />
    <path
       d="m 41.877169,84.805729 q 0,0.366995 -0.0099,0.614965 -0.0099,0.24797 -0.02976,0.466184 h -6.992753 q 0,1.527495 0.853016,2.350755 0.853017,0.813341 2.459863,0.813341 0.436427,0 0.872854,-0.02976 0.436427,-0.03968 0.843098,-0.09919 0.40667,-0.05951 0.773666,-0.128944 0.376914,-0.07935 0.694316,-0.16862 v 1.418388 q -0.704235,0.198376 -1.596927,0.317402 -0.882773,0.128944 -1.834977,0.128944 -1.279525,0 -2.201974,-0.347158 -0.922448,-0.347158 -1.517576,-1.001798 -0.585209,-0.66456 -0.872854,-1.616765 -0.277727,-0.962123 -0.277727,-2.172217 0,-1.051392 0.297564,-1.983759 0.307483,-0.942286 0.882773,-1.646521 0.58521,-0.714153 1.428307,-1.130743 0.843098,-0.416589 1.914329,-0.416589 1.041473,0 1.844896,0.32732 0.803423,0.32732 1.348957,0.932367 0.555453,0.595128 0.833179,1.458063 0.287645,0.853017 0.287645,1.914329 z m -1.795303,-0.24797 q 0.02976,-0.66456 -0.128944,-1.210094 -0.158701,-0.555453 -0.49594,-0.952205 -0.32732,-0.396752 -0.82326,-0.614965 -0.49594,-0.228132 -1.150581,-0.228132 -0.565371,0 -1.031555,0.218213 -0.466183,0.218214 -0.803423,0.614966 -0.337239,0.396752 -0.545533,0.952204 -0.208295,0.555453 -0.257889,1.220013 z"
       style="font-size:20.3137px;fill:#ffffff;stroke:none"
       id="path11727" />
    <path
       d="m 51.736455,90.310662 v -7.151454 q 0,-0.466184 -0.03968,-0.763748 -0.02976,-0.297564 -0.109107,-0.466183 -0.06943,-0.178538 -0.188457,-0.24797 -0.109107,-0.06943 -0.277726,-0.06943 -0.198376,0 -0.366996,0.119026 -0.168619,0.119026 -0.366995,0.386833 -0.188458,0.267808 -0.426509,0.714154 -0.228132,0.436427 -0.545534,1.081149 v 6.397625 h -1.577089 v -6.962997 q 0,-0.545534 -0.03967,-0.882773 -0.02976,-0.337239 -0.109107,-0.525696 -0.06943,-0.188457 -0.188457,-0.257889 -0.119025,-0.06943 -0.287645,-0.06943 -0.178538,0 -0.337239,0.09919 -0.158701,0.09919 -0.357077,0.357077 -0.188457,0.257889 -0.426508,0.704235 -0.238051,0.446346 -0.565372,1.140662 v 6.397625 H 43.94028 v -9.958474 h 1.3192 l 0.07935,1.89449 q 0.257889,-0.565371 0.49594,-0.962123 0.24797,-0.396752 0.505859,-0.634803 0.257889,-0.24797 0.545534,-0.357077 0.297564,-0.119025 0.65464,-0.119025 0.803423,0 1.220013,0.525696 0.416589,0.525696 0.416589,1.626683 0.238051,-0.515778 0.466184,-0.91253 0.228132,-0.40667 0.486021,-0.674478 0.267807,-0.277726 0.585209,-0.416589 0.317402,-0.148782 0.733991,-0.148782 1.874653,0 1.874653,2.88637 v 7.250642 z"
       style="font-size:20.3137px;fill:#ffffff;stroke:none"
       id="path11729" />
    <path
       d="m 62.200788,90.310662 -0.03968,-1.339038 q -0.813341,0.803423 -1.656439,1.160499 -0.833179,0.357077 -1.755628,0.357077 -0.853016,0 -1.458063,-0.218213 -0.605047,-0.218214 -1.001799,-0.595128 -0.386833,-0.386833 -0.57529,-0.902611 -0.178538,-0.515778 -0.178538,-1.120824 0,-1.497739 1.110905,-2.340837 1.120824,-0.853016 3.30296,-0.853016 h 2.06311 v -0.872855 q 0,-0.882773 -0.565371,-1.408469 -0.565372,-0.535615 -1.725871,-0.535615 -0.843098,0 -1.666359,0.188457 -0.813341,0.188457 -1.686195,0.535615 v -1.557251 q 0.32732,-0.119026 0.724072,-0.228133 0.406671,-0.119025 0.853017,-0.208294 0.446346,-0.08927 0.932367,-0.138864 0.486021,-0.05951 0.981961,-0.05951 0.90261,0 1.626683,0.198376 0.724072,0.198375 1.220012,0.605046 0.505859,0.406671 0.773666,1.021636 0.267808,0.614966 0.267808,1.448145 v 6.863809 z m -0.188457,-4.532891 h -2.192054 q -0.644722,0 -1.110906,0.128944 -0.466183,0.128945 -0.763747,0.366996 -0.297564,0.238051 -0.446346,0.57529 -0.138864,0.32732 -0.138864,0.74391 0,0.287645 0.08927,0.555453 0.08927,0.257888 0.287645,0.466183 0.198376,0.198376 0.515777,0.317402 0.317402,0.119025 0.773667,0.119025 0.595128,0 1.358875,-0.357076 0.773666,-0.366996 1.626683,-1.150581 z"
       style="font-size:20.3137px;fill:#ffffff;stroke:none"
       id="path11731" />
    <path
       d="m 66.971731,80.352188 h 1.537414 l 0.06943,1.606845 q 0.436427,-0.515777 0.843098,-0.853016 0.406671,-0.347158 0.793504,-0.555453 0.396752,-0.208295 0.803423,-0.287645 0.40667,-0.08927 0.843097,-0.08927 1.537414,0 2.320999,0.912529 0.793504,0.902611 0.793504,2.72767 v 6.496813 H 73.25033 v -6.35795 q 0,-1.170418 -0.436427,-1.725871 -0.436427,-0.565372 -1.299362,-0.565372 -0.317402,0 -0.624885,0.09919 -0.297564,0.08927 -0.624884,0.327321 -0.32732,0.228132 -0.714154,0.624884 -0.376914,0.396752 -0.853016,0.99188 v 6.60592 h -1.725871 z"
       style="font-size:20.3137px;fill:#ffffff;stroke:none"
       id="path11733" />
    <path
       d="m 77.634443,85.53972 q 0,-1.269607 0.347158,-2.251568 0.347158,-0.99188 0.981962,-1.666358 0.644721,-0.684397 1.537413,-1.031555 0.902611,-0.357077 2.003598,-0.357077 0.476102,0 0.932367,0.05951 0.466183,0.05951 0.912529,0.188457 v -4.185733 h 1.73579 v 14.015263 h -1.547333 l -0.05951,-1.884572 q -0.724073,1.051393 -1.567171,1.557251 -0.843098,0.505859 -1.825059,0.505859 -0.853016,0 -1.507657,-0.357077 -0.644722,-0.357076 -1.081149,-1.001798 -0.426508,-0.654641 -0.644722,-1.56717 -0.218214,-0.91253 -0.218214,-2.023435 z m 1.765547,-0.109107 q 0,1.805221 0.525696,2.697913 0.535615,0.882773 1.507657,0.882773 0.654641,0 1.378713,-0.585209 0.733991,-0.585209 1.537414,-1.73579 v -4.62216 q -0.426508,-0.198376 -0.942286,-0.297564 -0.515777,-0.109107 -1.021636,-0.109107 -1.408469,0 -2.201973,0.91253 -0.783585,0.912529 -0.783585,2.856614 z"
       style="font-size:20.3137px;fill:#ffffff;stroke:none"
       id="path11735" />
    <path
       d="m 97.720007,84.805729 q 0,0.366995 -0.0099,0.614965 -0.0099,0.24797 -0.02976,0.466184 h -6.992753 q 0,1.527495 0.853017,2.350755 0.853016,0.813341 2.459862,0.813341 0.436427,0 0.872854,-0.02976 0.436427,-0.03968 0.843098,-0.09919 0.406671,-0.05951 0.773666,-0.128944 0.376915,-0.07935 0.694316,-0.16862 v 1.418388 q -0.704234,0.198376 -1.596926,0.317402 -0.882773,0.128944 -1.834978,0.128944 -1.279525,0 -2.201973,-0.347158 -0.922449,-0.347158 -1.517577,-1.001798 -0.585209,-0.66456 -0.872854,-1.616765 -0.277726,-0.962123 -0.277726,-2.172217 0,-1.051392 0.297564,-1.983759 0.307482,-0.942286 0.882773,-1.646521 0.585209,-0.714153 1.428307,-1.130743 0.843098,-0.416589 1.914328,-0.416589 1.041474,0 1.844896,0.32732 0.803423,0.32732 1.348957,0.932367 0.555453,0.595128 0.833179,1.458063 0.287645,0.853017 0.287645,1.914329 z m -1.795302,-0.24797 q 0.02976,-0.66456 -0.128945,-1.210094 -0.1587,-0.555453 -0.49594,-0.952205 -0.32732,-0.396752 -0.82326,-0.614965 -0.49594,-0.228132 -1.15058,-0.228132 -0.565372,0 -1.031556,0.218213 -0.466183,0.218214 -0.803422,0.614966 -0.337239,0.396752 -0.545534,0.952204 -0.208295,0.555453 -0.257889,1.220013 z"
       style="font-size:20.3137px;fill:#ffffff;stroke:none"
       id="path11737" />
    <path
       d="m 100.8841,80.352188 h 1.57709 l 0.0496,1.834978 q 0.88278,-1.061312 1.73579,-1.537414 0.86294,-0.476102 1.73579,-0.476102 1.54734,0 2.34084,1.001798 0.80342,1.001799 0.74391,2.97564 h -1.74571 q 0.0298,-1.309282 -0.38683,-1.894491 -0.40667,-0.595128 -1.20018,-0.595128 -0.34715,0 -0.70423,0.128945 -0.34716,0.119025 -0.72407,0.396752 -0.367,0.267807 -0.78359,0.694316 -0.41659,0.426508 -0.89269,1.031555 v 6.397625 h -1.74571 z"
       style="font-size:20.3137px;fill:#ffffff;stroke:none"
       id="path11739" />
    <path
       d="m 130.81904,90.310662 h -1.54733 l -0.0595,-1.606846 q -0.44635,0.515778 -0.85302,0.862936 -0.39675,0.337239 -0.7935,0.545534 -0.39675,0.208295 -0.80343,0.287645 -0.39675,0.08927 -0.84309,0.08927 -1.53742,0 -2.321,-0.902611 -0.78359,-0.90261 -0.78359,-2.727669 v -6.506732 h 1.72587 v 6.367869 q 0,2.291242 1.72587,2.291242 0.31741,0 0.61497,-0.08927 0.30748,-0.09919 0.6348,-0.32732 0.33724,-0.238052 0.71416,-0.634803 0.38683,-0.396752 0.86293,-1.001799 v -6.60592 h 1.72587 z"
       style="font-size:20.3137px;fill:#ffffff;stroke:none"
       id="path11741" />
    <path
       d="m 133.98314,80.352188 h 1.53741 l 0.0694,1.606845 q 0.43643,-0.515777 0.8431,-0.853016 0.40667,-0.347158 0.7935,-0.555453 0.39676,-0.208295 0.80343,-0.287645 0.40667,-0.08927 0.84309,-0.08927 1.53742,0 2.321,0.912529 0.79351,0.902611 0.79351,2.72767 v 6.496813 h -1.72587 v -6.35795 q 0,-1.170418 -0.43643,-1.725871 -0.43643,-0.565372 -1.29936,-0.565372 -0.31741,0 -0.62489,0.09919 -0.29756,0.08927 -0.62488,0.327321 -0.32732,0.228132 -0.71416,0.624884 -0.37691,0.396752 -0.85301,0.99188 v 6.60592 h -1.72587 z"
       style="font-size:20.3137px;fill:#ffffff;stroke:none"
       id="path11743" />
    <path
       d="m 153.56284,84.805729 q 0,0.366995 -0.01,0.614965 -0.01,0.24797 -0.0298,0.466184 h -6.99276 q 0,1.527495 0.85302,2.350755 0.85302,0.813341 2.45986,0.813341 0.43643,0 0.87286,-0.02976 0.43642,-0.03968 0.84309,-0.09919 0.40668,-0.05951 0.77367,-0.128944 0.37692,-0.07935 0.69432,-0.16862 v 1.418388 q -0.70424,0.198376 -1.59693,0.317402 -0.88277,0.128944 -1.83498,0.128944 -1.27952,0 -2.20197,-0.347158 -0.92245,-0.347158 -1.51758,-1.001798 -0.58521,-0.66456 -0.87285,-1.616765 -0.27773,-0.962123 -0.27773,-2.172217 0,-1.051392 0.29757,-1.983759 0.30748,-0.942286 0.88277,-1.646521 0.58521,-0.714153 1.42831,-1.130743 0.84309,-0.416589 1.91432,-0.416589 1.04148,0 1.8449,0.32732 0.80342,0.32732 1.34896,0.932367 0.55545,0.595128 0.83318,1.458063 0.28764,0.853017 0.28764,1.914329 z m -1.7953,-0.24797 q 0.0298,-0.66456 -0.12895,-1.210094 -0.1587,-0.555453 -0.49594,-0.952205 -0.32732,-0.396752 -0.82326,-0.614965 -0.49594,-0.228132 -1.15058,-0.228132 -0.56537,0 -1.03155,0.218213 -0.46618,0.218214 -0.80342,0.614966 -0.33724,0.396752 -0.54554,0.952204 -0.20829,0.555453 -0.25789,1.220013 z"
       style="font-size:20.3137px;fill:#ffffff;stroke:none"
       id="path11745" />
    <path
       d="m 176.32649,77.902245 q -1.35887,-0.287646 -2.34083,-0.287646 -2.33092,0 -2.33092,2.440025 v 1.745709 h 4.36427 v 1.438225 h -4.36427 v 7.072104 h -1.75563 v -7.072104 h -3.20377 v -1.438225 h 3.20377 v -1.646521 q 0,-3.977438 4.14606,-3.977438 1.03155,0 2.28132,0.238051 z m -10.42465,2.449943 z"
       style="font-size:20.3137px;fill:#ffffff;stroke:none"
       id="path11747" />
    <path
       d="m 187.32644,85.252074 q 0,1.1605 -0.32732,2.132542 -0.32732,0.962124 -0.94229,1.65644 -0.61496,0.684397 -1.49774,1.07123 -0.88277,0.376914 -2.00359,0.376914 -1.07124,0 -1.92425,-0.32732 -0.8431,-0.337239 -1.43823,-0.981961 -0.58521,-0.644722 -0.90261,-1.596927 -0.30748,-0.952205 -0.30748,-2.192054 0,-1.1605 0.32732,-2.112704 0.32732,-0.962124 0.94229,-1.646521 0.61496,-0.694316 1.49773,-1.07123 0.88278,-0.386833 2.0036,-0.386833 1.07123,0 1.91433,0.337239 0.85302,0.32732 1.43823,0.972042 0.59512,0.634803 0.90261,1.587008 0.3174,0.952204 0.3174,2.182135 z m -1.76555,0.07935 q 0,-0.922448 -0.20829,-1.606846 -0.19838,-0.694315 -0.57529,-1.15058 -0.37692,-0.466184 -0.92245,-0.694316 -0.53562,-0.238051 -1.20018,-0.238051 -0.77366,0 -1.32912,0.307482 -0.54553,0.297564 -0.90261,0.803423 -0.34715,0.505859 -0.51577,1.180337 -0.1587,0.66456 -0.1587,1.398551 0,0.922448 0.19837,1.616764 0.2083,0.694316 0.58521,1.160499 0.37691,0.456265 0.91253,0.694316 0.53561,0.228133 1.21009,0.228133 0.77367,0 1.3192,-0.297564 0.55546,-0.307483 0.90261,-0.813342 0.35708,-0.505858 0.51578,-1.170418 0.16862,-0.674478 0.16862,-1.418388 z"
       style="font-size:20.3137px;fill:#ffffff;stroke:none"
       id="path11749" />
    <path
       d="m 190.23264,80.352188 h 1.57709 l 0.0496,1.834978 q 0.88278,-1.061312 1.73579,-1.537414 0.86294,-0.476102 1.73579,-0.476102 1.54734,0 2.34084,1.001798 0.80342,1.001799 0.74391,2.97564 h -1.74571 q 0.0298,-1.309282 -0.38683,-1.894491 -0.40667,-0.595128 -1.20018,-0.595128 -0.34715,0 -0.70423,0.128945 -0.34716,0.119025 -0.72407,0.396752 -0.367,0.267807 -0.78359,0.694316 -0.41659,0.426508 -0.89269,1.031555 v 6.397625 h -1.74571 z"
       style="font-size:20.3137px;fill:#ffffff;stroke:none"
       id="path11751" />
    <path
       d="m 208.09639,90.310662 v -7.151454 q 0,-0.466184 -0.0397,-0.763748 -0.0298,-0.297564 -0.10911,-0.466183 -0.0694,-0.178538 -0.18845,-0.24797 -0.10911,-0.06943 -0.27773,-0.06943 -0.19838,0 -0.367,0.119026 -0.16862,0.119026 -0.36699,0.386833 -0.18846,0.267808 -0.42651,0.714154 -0.22813,0.436427 -0.54553,1.081149 v 6.397625 h -1.57709 v -6.962997 q 0,-0.545534 -0.0397,-0.882773 -0.0297,-0.337239 -0.10911,-0.525696 -0.0694,-0.188457 -0.18845,-0.257889 -0.11903,-0.06943 -0.28765,-0.06943 -0.17854,0 -0.33724,0.09919 -0.1587,0.09919 -0.35707,0.357077 -0.18846,0.257889 -0.42651,0.704235 -0.23805,0.446346 -0.56537,1.140662 v 6.397625 h -1.58701 v -9.958474 h 1.3192 l 0.0794,1.89449 q 0.25789,-0.565371 0.49594,-0.962123 0.24797,-0.396752 0.50586,-0.634803 0.25789,-0.24797 0.54553,-0.357077 0.29757,-0.119025 0.65464,-0.119025 0.80343,0 1.22002,0.525696 0.41658,0.525696 0.41658,1.626683 0.23806,-0.515778 0.46619,-0.91253 0.22813,-0.40667 0.48602,-0.674478 0.26781,-0.277726 0.58521,-0.416589 0.3174,-0.148782 0.73399,-0.148782 1.87465,0 1.87465,2.88637 v 7.250642 z"
       style="font-size:20.3137px;fill:#ffffff;stroke:none"
       id="path11753" />
    <path
       d="m 218.56074,90.310662 -0.0397,-1.339038 q -0.81334,0.803423 -1.65644,1.160499 -0.83317,0.357077 -1.75562,0.357077 -0.85302,0 -1.45807,-0.218213 -0.60504,-0.218214 -1.00179,-0.595128 -0.38684,-0.386833 -0.5753,-0.902611 -0.17853,-0.515778 -0.17853,-1.120824 0,-1.497739 1.1109,-2.340837 1.12083,-0.853016 3.30296,-0.853016 h 2.06311 v -0.872855 q 0,-0.882773 -0.56537,-1.408469 -0.56537,-0.535615 -1.72587,-0.535615 -0.8431,0 -1.66636,0.188457 -0.81334,0.188457 -1.68619,0.535615 v -1.557251 q 0.32732,-0.119026 0.72407,-0.228133 0.40667,-0.119025 0.85301,-0.208294 0.44635,-0.08927 0.93237,-0.138864 0.48602,-0.05951 0.98196,-0.05951 0.90261,0 1.62669,0.198376 0.72407,0.198375 1.22001,0.605046 0.50586,0.406671 0.77366,1.021636 0.26781,0.614966 0.26781,1.448145 v 6.863809 z m -0.18846,-4.532891 h -2.19205 q -0.64472,0 -1.11091,0.128944 -0.46618,0.128945 -0.76375,0.366996 -0.29756,0.238051 -0.44634,0.57529 -0.13886,0.32732 -0.13886,0.74391 0,0.287645 0.0893,0.555453 0.0893,0.257888 0.28765,0.466183 0.19838,0.198376 0.51578,0.317402 0.3174,0.119025 0.77366,0.119025 0.59513,0 1.35888,-0.357076 0.77367,-0.366996 1.62668,-1.150581 z"
       style="font-size:20.3137px;fill:#ffffff;stroke:none"
       id="path11755" />
    <path
       d="m 231.35599,90.171799 q -0.58521,0.148782 -1.2101,0.208294 -0.62488,0.06943 -1.2696,0.06943 -1.87466,0 -2.7971,-0.843098 -0.92245,-0.853017 -0.92245,-2.608644 v -5.19745 h -2.78719 v -1.448145 h 2.78719 v -2.737589 l 1.72587,-0.446345 v 3.183934 h 4.47338 v 1.448145 h -4.47338 v 5.058587 q 0,1.07123 0.56537,1.606845 0.57529,0.525697 1.6862,0.525697 0.4761,0 1.04147,-0.06943 0.56537,-0.07935 1.18034,-0.238051 z"
       style="font-size:20.3137px;fill:#ffffff;stroke:none"
       id="path11757" />
    <path
       d="m 237.89247,81.780495 h -2.94588 v -1.428307 h 4.69159 v 8.520248 h 2.96572 v 1.438226 h -7.98463 v -1.438226 h 3.2732 z m 0.60505,-5.604121 q 0.28764,0 0.53561,0.109106 0.24797,0.09919 0.42651,0.287646 0.18846,0.188457 0.28765,0.436427 0.1091,0.238051 0.1091,0.525696 0,0.277726 -0.1091,0.525696 -0.0992,0.24797 -0.28765,0.436428 -0.17854,0.188457 -0.42651,0.297564 -0.24797,0.09919 -0.53561,0.09919 -0.28765,0 -0.53562,-0.09919 -0.24797,-0.109107 -0.43642,-0.297564 -0.17854,-0.188458 -0.28765,-0.436428 -0.0992,-0.24797 -0.0992,-0.525696 0,-0.287645 0.0992,-0.525696 0.10911,-0.24797 0.28765,-0.436427 0.18845,-0.188458 0.43642,-0.287646 0.24797,-0.109106 0.53562,-0.109106 z"
       style="font-size:20.3137px;fill:#ffffff;stroke:none"
       id="path11759" />
    <path
       d="m 254.33785,85.252074 q 0,1.1605 -0.32732,2.132542 -0.32732,0.962124 -0.94229,1.65644 -0.61496,0.684397 -1.49773,1.07123 -0.88278,0.376914 -2.0036,0.376914 -1.07123,0 -1.92425,-0.32732 -0.8431,-0.337239 -1.43822,-0.981961 -0.58521,-0.644722 -0.90261,-1.596927 -0.30749,-0.952205 -0.30749,-2.192054 0,-1.1605 0.32732,-2.112704 0.32732,-0.962124 0.94229,-1.646521 0.61496,-0.694316 1.49774,-1.07123 0.88277,-0.386833 2.00359,-0.386833 1.07124,0 1.91433,0.337239 0.85302,0.32732 1.43823,0.972042 0.59513,0.634803 0.90261,1.587008 0.3174,0.952204 0.3174,2.182135 z m -1.76555,0.07935 q 0,-0.922448 -0.20829,-1.606846 -0.19838,-0.694315 -0.57529,-1.15058 -0.37691,-0.466184 -0.92245,-0.694316 -0.53561,-0.238051 -1.20017,-0.238051 -0.77367,0 -1.32912,0.307482 -0.54554,0.297564 -0.90261,0.803423 -0.34716,0.505859 -0.51578,1.180337 -0.1587,0.66456 -0.1587,1.398551 0,0.922448 0.19837,1.616764 0.2083,0.694316 0.58521,1.160499 0.37692,0.456265 0.91253,0.694316 0.53562,0.228133 1.2101,0.228133 0.77366,0 1.3192,-0.297564 0.55545,-0.307483 0.90261,-0.813342 0.35707,-0.505858 0.51578,-1.170418 0.16861,-0.674478 0.16861,-1.418388 z"
       style="font-size:20.3137px;fill:#ffffff;stroke:none"
       id="path11761" />
    <path
       d="m 256.83737,80.352188 h 1.53741 l 0.0694,1.606845 q 0.43643,-0.515777 0.8431,-0.853016 0.40667,-0.347158 0.79351,-0.555453 0.39675,-0.208295 0.80342,-0.287645 0.40667,-0.08927 0.8431,-0.08927 1.53741,0 2.321,0.912529 0.7935,0.902611 0.7935,2.72767 v 6.496813 h -1.72587 v -6.35795 q 0,-1.170418 -0.43643,-1.725871 -0.43643,-0.565372 -1.29936,-0.565372 -0.3174,0 -0.62489,0.09919 -0.29756,0.08927 -0.62488,0.327321 -0.32732,0.228132 -0.71415,0.624884 -0.37692,0.396752 -0.85302,0.99188 v 6.60592 h -1.72587 z"
       style="font-size:20.3137px;fill:#ffffff;stroke:none"
       id="path11763" />
  </g>
</svg>
